<?xml version="1.0" encoding="UTF-8"?>
<!DOCTYPE svg PUBLIC "-//W3C//DTD SVG 1.1//EN" "http://www.w3.org/Graphics/SVG/1.1/DTD/svg11.dtd">
<!-- Creator: CorelDRAW X7 -->
<svg xmlns="http://www.w3.org/2000/svg" xml:space="preserve" width="1500px" height="600px" version="1.1" style="shape-rendering:geometricPrecision; text-rendering:geometricPrecision; image-rendering:optimizeQuality; fill-rule:evenodd; clip-rule:evenodd"
viewBox="0 0 1023 409"
 xmlns:xlink="http://www.w3.org/1999/xlink">
 <defs>
  <style type="text/css">
   <![CDATA[
    .fil0 {fill:none}
    .fil1 {fill:#0F0E0C}
    .fil2 {fill:#F58C10}
   ]]>
  </style>
 </defs>
 <g id="Capa_x0020_1">
  <metadata id="CorelCorpID_0Corel-Layer"/>
  <g id="_1816091055648">
   <rect class="fil0" width="1023" height="409"/>
   <g>
    <path class="fil1" d="M469 175c0,-19 5,-16 -26,-16 -2,3 -2,5 -2,8l0 101c0,4 1,5 3,7 31,0 26,5 26,-22 0,-9 0,-18 0,-27 0,-29 -1,-41 19,-41 2,0 6,3 7,5 4,8 2,62 2,76 0,12 0,9 25,9 4,0 4,-3 4,-8 0,-15 -2,-69 5,-78 3,-4 7,-4 12,-4 15,0 11,27 11,41l0 40c0,12 -1,9 27,9 2,-2 3,-2 3,-5 0,-12 1,-78 -2,-90 -1,-9 -6,-15 -13,-19 -13,-8 -32,-5 -41,7 -3,4 -1,4 -5,7 -2,-7 -12,-18 -23,-18 -11,0 -19,-1 -28,11 -1,2 -1,2 -1,4 -1,0 -1,0 -1,0l-2 3z"/>
    <path class="fil1" d="M634 241c0,-18 13,-22 30,-22 0,12 1,29 -12,35 -11,4 -18,-2 -18,-13zm-28 -49c6,1 18,3 25,3 5,-8 3,-13 15,-16 8,-2 18,3 18,11l0 12c-12,0 -33,3 -43,8 -30,16 -24,66 10,66 29,0 27,-7 38,-14 2,5 9,12 14,14 6,-2 7,-4 11,-8 5,-5 9,-5 9,-11 0,-7 -8,-1 -8,-29 0,-21 4,-51 -11,-63 -3,-3 -8,-5 -12,-7 -14,-5 -38,-3 -53,7 -7,5 -15,18 -13,27z"/>
    <path class="fil1" d="M356 241c0,-4 1,-8 2,-10 5,-10 20,-12 29,-12 0,11 1,28 -11,34 -11,6 -20,-3 -20,-12zm-28 -51c0,4 23,5 26,5 4,-5 2,-7 6,-11 5,-7 27,-12 27,11l0 7c-20,0 -49,4 -59,24 -4,10 -5,24 0,34 3,5 5,8 10,11 11,7 31,7 41,1l12 -9c2,1 11,13 14,13 3,0 22,-15 22,-18 0,-3 -5,-7 -7,-11 -7,-14 1,-55 -5,-70 -10,-27 -55,-25 -72,-12 -7,5 -15,14 -15,25z"/>
    <path class="fil1" d="M949 177c0,-21 4,-18 -23,-18 -3,0 -5,2 -5,4l0 108c0,7 13,4 26,4 7,0 4,-16 4,-23 0,-18 -3,-54 6,-64 7,-7 19,-7 22,10l0 68c0,12 0,9 26,9 2,0 4,-1 4,-4l0 -74c0,-18 -6,-40 -27,-40 -15,0 -23,1 -30,16l-3 4z"/>
    <path class="fil1" d="M841 214c0,-39 18,-39 26,-31 10,10 12,71 -8,71 -7,0 -12,0 -16,-15 -1,-6 -2,-17 -2,-25zm-32 3c0,16 5,31 11,41 25,38 86,21 86,-39 0,-25 -9,-52 -33,-60 -27,-9 -52,5 -60,34 -2,8 -4,15 -4,24z"/>
    <path class="fil1" d="M719 163c0,24 -5,19 40,19 -1,4 -33,49 -37,55 -3,3 -5,5 -6,10 -1,7 -2,18 1,25 9,0 30,-15 63,-6 22,7 20,16 20,-18 -12,-8 -24,-11 -43,-11 1,-2 3,-4 5,-7 2,-3 3,-4 5,-7l16 -23c16,-23 14,-16 14,-38 0,-2 0,-3 -3,-3l-70 0c-3,0 -5,2 -5,4z"/>
    <path class="fil2" d="M164 244l55 18c4,2 4,2 4,-2l0 -82c-4,-2 -9,-3 -14,-4 -5,-2 -10,-3 -15,-5 -5,-2 -26,-8 -30,-8l0 83z"/>
    <path class="fil2" d="M453 60l0 79c0,4 3,3 6,2l45 -16c4,-1 5,-2 8,-2l0 -84c-3,1 -5,1 -7,2 -3,1 -6,2 -8,2l-30 9c-5,2 -14,3 -14,8z"/>
    <path class="fil2" d="M236 123l53 17c4,2 5,3 6,-1l0 -83 -29 -8c-5,-2 -9,-3 -14,-5l-16 -4 0 84z"/>
    <path class="fil2" d="M91 178l0 85c7,-1 22,-7 30,-9 3,-1 4,-2 7,-3 8,-3 15,-4 22,-8l0 -82c-6,0 -36,10 -44,12 -6,2 -11,3 -15,5z"/>
    <path class="fil2" d="M91 365l59 20 0 -86c-4,-1 -10,-3 -14,-4 -5,-2 -10,-3 -15,-5 -5,-1 -10,-3 -15,-4 -3,-1 -11,-4 -15,-4l0 83z"/>
    <path class="fil2" d="M164 299l0 85 59 -19 0 -83c-4,0 -10,2 -15,4l-29 9c-5,1 -10,3 -15,4z"/>
    <path class="fil2" d="M236 177l0 87 58 -20 1 -83c-8,0 -50,15 -59,16z"/>
    <path class="fil2" d="M20 244c4,2 9,3 13,5 9,3 39,13 44,14l0 -86c-5,0 -9,-2 -14,-4l-43 -13 0 84z"/>
    <path class="fil2" d="M382 123c4,2 9,3 14,5 12,3 34,12 43,14l0 -86 -28 -8c-9,-3 -20,-6 -29,-9l0 84z"/>
    <path class="fil2" d="M309 56l0 86 29 -10c5,-1 9,-3 15,-4 4,-2 10,-4 14,-5l0 -84c-10,3 -20,6 -29,9l-29 8z"/>
    <path class="fil1" d="M341 384c10,0 11,1 13,-7l8 -32c1,-5 -1,-3 3,-5 0,4 1,7 2,11 2,4 3,7 4,11 1,8 4,17 8,22l8 0c4,-5 4,-9 6,-16 2,-6 4,-12 5,-18 2,-8 9,-32 9,-37 0,-3 -4,-2 -6,-2 -8,0 -7,7 -11,20 -2,7 -6,18 -6,25l-2 0c0,-6 -12,-43 -13,-45l-10 0c-3,5 -4,15 -6,22l-6 23c-1,-1 -1,-1 -1,-1l-10 -34c-2,-11 -1,-10 -12,-10 -7,0 -2,8 0,16 1,7 3,12 5,19l8 29c2,6 2,5 4,9z"/>
    <path class="fil1" d="M509 372c-21,0 -21,-43 -6,-50 25,-10 27,50 6,50zm-30 -81l0 87c0,4 -1,1 2,3 3,3 8,1 9,-7 3,2 4,4 7,6 20,12 41,-8 41,-28l0 -11c0,-15 -11,-31 -26,-31 -13,0 -10,1 -19,7 0,-30 3,-30 -10,-30 -2,0 -4,2 -4,4z"/>
    <path class="fil1" d="M914 321c10,0 15,8 15,17l-31 0c2,-4 2,-7 5,-11 2,-3 6,-6 11,-6zm-31 23c0,12 0,21 8,30 19,21 52,6 52,-12 -5,-2 -7,-2 -12,-2 -2,2 -5,7 -7,9 -9,7 -26,4 -26,-20 50,0 48,4 46,-12 -8,-42 -61,-31 -61,7z"/>
    <path class="fil1" d="M651 321c11,0 16,7 16,17l-31 0c1,-2 4,-17 15,-17zm1 63c13,0 29,-9 29,-22 -6,-1 -1,-2 -12,-2 -3,5 -8,14 -18,12 -12,-2 -15,-12 -15,-23l43 0c9,0 1,-28 -10,-35 -24,-15 -57,8 -47,47 4,13 15,23 30,23z"/>
    <path class="fil1" d="M439 321c11,0 16,7 16,17l-30 0c2,-4 1,-6 4,-11 2,-3 6,-6 10,-6zm2 63c12,0 25,-8 28,-21 -5,-3 -4,-3 -12,-3 -3,11 -19,18 -29,6 -3,-5 -3,-11 -3,-17l42 0c8,0 1,-23 -5,-30 -7,-8 -22,-12 -35,-6 -4,2 -7,4 -10,8 -2,3 -4,6 -6,11 -3,9 -3,20 0,30 4,13 16,22 30,22z"/>
    <path class="fil1" d="M558 332c0,2 1,5 2,7 1,4 0,2 3,5 11,12 23,5 37,15l0 8c-8,5 -15,8 -25,2 -4,-3 -5,-6 -7,-9 -24,0 -4,17 -2,19 11,7 30,7 40,0 14,-11 11,-30 -6,-37 -8,-3 -17,-1 -27,-8 0,-5 -1,-13 11,-13 8,0 12,5 16,11 22,0 5,-15 1,-18 -4,-2 -12,-4 -18,-4 -14,1 -25,7 -25,22z"/>
    <path class="fil1" d="M951 328c0,10 0,19 18,24 8,1 24,2 24,11 0,11 -23,13 -29,3 -2,-3 -2,-6 -6,-6 -4,0 -6,1 -9,2 0,9 3,13 9,16 17,12 49,6 49,-15 0,-12 -6,-19 -18,-22 -20,-5 -24,-1 -24,-14 5,-3 12,-10 21,-2 2,1 6,7 7,7 28,0 -6,-34 -33,-18 0,0 -3,2 -3,3 0,0 -1,0 -1,1 -2,2 -5,6 -5,10z"/>
    <path class="fil1" d="M821 345c0,45 36,45 49,31 2,-3 13,-20 3,-20 -12,0 -7,1 -12,9 -7,12 -25,8 -25,-14 0,-12 0,-29 16,-29 13,0 9,16 16,16 7,0 11,2 8,-8 -1,-3 -2,-6 -4,-9 -13,-19 -51,-13 -51,24z"/>
    <path class="fil1" d="M757 383c17,0 12,5 25,-33 2,-6 11,-33 11,-38 0,-3 -7,-2 -11,-2 -4,7 -6,16 -9,25l-10 26 -8 -27c-9,-27 -5,-24 -19,-24 -7,0 -2,8 1,16l20 57z"/>
    <path class="fil2" d="M104 272c3,4 5,3 12,5 5,1 10,2 14,4 24,6 21,8 40,3l27 -7c3,-1 4,-1 7,-2 4,-1 4,0 6,-3 -5,0 -9,-2 -14,-4l-39 -11c-3,-1 -10,2 -13,3l-40 12z"/>
    <path class="fil2" d="M177 153l52 13c2,0 10,-2 13,-3l40 -10c-2,-4 -20,-8 -25,-9 -5,-2 -8,-3 -13,-5 -24,-6 -11,-4 -41,4 -4,1 -24,6 -26,10z"/>
    <path class="fil2" d="M249 30c3,3 3,2 12,4l27 7c18,5 17,4 41,-3 5,-1 10,-3 14,-4 3,-1 3,-1 6,-1 5,-2 4,0 6,-3 -5,-1 -51,-16 -53,-16l-53 16z"/>
    <path class="fil2" d="M31 153l27 6c4,2 8,2 12,4 4,1 11,3 14,3l53 -13c-2,-4 -5,-3 -12,-5l-27 -9c-15,-5 -11,-5 -26,0 -5,1 -9,3 -14,4 -5,1 -24,6 -27,10z"/>
    <path class="fil2" d="M394 30c2,3 4,2 12,4 4,1 9,3 14,4 4,1 8,2 13,4 15,4 13,3 27,0l34 -9c4,-1 3,-1 5,-3 -5,-1 -8,-3 -13,-4l-39 -12c-4,0 -33,10 -39,12 -4,1 -11,3 -14,4z"/>
    <path class="fil1" d="M703 320c0,-8 1,-7 -8,-7 -3,0 -4,2 -4,4 0,14 -2,56 1,66 4,1 4,3 12,-1 0,-12 0,-28 1,-39 1,-4 0,-4 2,-7 1,-2 3,-6 4,-7 3,-4 9,-5 15,-6 1,-4 3,-12 -4,-12 -12,0 -14,6 -19,9z"/>
    <path class="fil1" d="M798 315l0 65c0,6 15,6 15,0 0,-14 2,-60 -1,-70l-12 0c-1,2 -2,2 -2,5z"/>
    <path class="fil1" d="M797 292c0,5 3,6 5,9l8 0c2,-3 4,-4 4,-9 0,-11 -17,-11 -17,0z"/>
   </g>
  </g>
 </g>
</svg>
