<?xml version="1.0" encoding="UTF-8"?>
<!DOCTYPE svg PUBLIC "-//W3C//DTD SVG 1.1//EN" "http://www.w3.org/Graphics/SVG/1.1/DTD/svg11.dtd">
<!-- Creator: CorelDRAW X7 -->
<svg xmlns="http://www.w3.org/2000/svg" xml:space="preserve" width="1480px" height="600px" version="1.1" style="shape-rendering:geometricPrecision; text-rendering:geometricPrecision; image-rendering:optimizeQuality; fill-rule:evenodd; clip-rule:evenodd"
viewBox="0 0 999 405"
 xmlns:xlink="http://www.w3.org/1999/xlink">
 <defs>
  <style type="text/css">
   <![CDATA[
    .fil0 {fill:none}
    .fil1 {fill:#2BBA9C}
   ]]>
  </style>
 </defs>
 <g id="Capa_x0020_1">
  <metadata id="CorelCorpID_0Corel-Layer"/>
  <g id="_1816219847584">
   <rect class="fil0" width="999" height="405"/>
   <path class="fil1" d="M868 110l0 148c0,2 3,5 6,5l103 0c8,0 9,-12 -1,-12l-96 0 0 -63 86 0c7,0 9,-11 -2,-11l-84 0 0 -61 94 0c11,0 9,-12 2,-12l-103 0c-3,0 -5,2 -5,6z"/>
   <path class="fil1" d="M162 112l0 143c0,11 13,10 13,0l0 -67 100 0 0 67c0,10 13,11 13,0l0 -143c0,-13 -13,-12 -13,-2l0 67 -100 0 0 -67c0,-10 -13,-11 -13,2z"/>
   <path class="fil1" d="M381 117l38 84c1,2 2,3 2,6l-82 0 24 -51c0,-2 1,-4 2,-6l5 -11c1,-2 2,-4 3,-6 1,-2 1,-3 2,-5l5 -10c1,-1 0,-1 1,-1zm-72 146c6,0 5,-3 9,-10l15 -35 94 0 16 36c2,4 3,9 9,9 10,0 3,-12 1,-16 -1,-3 -2,-7 -4,-10 -2,-3 -3,-6 -5,-10 -6,-13 -16,-36 -23,-50 -6,-13 -12,-26 -18,-39 -1,-2 -1,-3 -2,-5l-12 -25c-3,-7 -12,-10 -17,0 -2,4 -3,7 -5,11 -1,1 -1,3 -2,5 -1,2 -2,3 -2,5 -2,3 -4,7 -5,11l-32 67c-1,2 -1,3 -2,5l-19 42c-2,5 -1,9 4,9z"/>
   <path class="fil1" d="M711 176c0,17 1,24 7,40 5,11 9,15 16,23 1,3 3,3 5,5 5,5 10,8 17,11 22,11 51,10 72,-1 10,-5 13,-8 20,-13 8,-7 4,-12 0,-13 -7,-2 -21,23 -52,23l-10 0c-21,0 -40,-14 -50,-29 -14,-21 -15,-49 -6,-72 3,-7 7,-12 11,-18 6,-7 13,-12 21,-16 23,-11 52,-6 71,8 2,1 9,8 11,8 7,0 11,-7 3,-13 -2,-1 -4,-3 -6,-4 -29,-21 -68,-22 -97,-1 -18,13 -33,39 -33,62z"/>
   <path class="fil1" d="M6 176c0,17 0,25 7,42 2,4 4,8 7,12 8,11 18,20 31,26 21,10 51,9 71,-1 8,-5 13,-8 19,-14 2,-2 5,-3 5,-6 1,-4 -4,-11 -11,-4 -12,11 -27,20 -45,20 -14,0 -21,1 -35,-6 -7,-4 -13,-9 -18,-14 -10,-10 -18,-30 -18,-45 0,-19 1,-32 11,-47 23,-34 68,-38 97,-15 2,2 9,8 12,8 5,0 6,-3 6,-7 0,-5 -18,-16 -22,-18 -22,-11 -51,-11 -73,0 -9,4 -15,9 -22,16 -12,12 -22,34 -22,53z"/>
   <path class="fil1" d="M473 111l0 145c0,2 1,4 2,5 1,2 3,2 5,2l93 0c8,0 8,-12 0,-12l-87 0 0 -139c0,-4 -1,-8 -6,-9 -4,0 -7,4 -7,8z"/>
   <path class="fil1" d="M656 205c-10,0 -12,-2 -7,16 6,24 25,34 27,37l-71 0 5 -4c14,-11 25,-29 25,-47 0,-3 -6,-2 -10,-2 5,-20 15,3 7,-35l18 0c-1,2 -4,17 -4,20 0,3 1,3 3,4 3,3 7,6 7,11zm-83 -103l0 -2 136 0c0,13 -7,31 -16,41 -1,1 -1,1 -2,2 -1,1 -1,1 -2,3l-4 3c-2,2 -3,3 -5,4 -20,13 -43,16 -65,7 -4,-2 -8,-3 -11,-6 -17,-11 -31,-31 -31,-52zm-5 -5c0,30 20,59 48,69 3,1 4,1 7,2 3,1 2,-1 3,1 1,3 4,18 4,21 -8,5 -12,20 -7,20l6 0c0,18 -14,37 -31,46 -1,0 -6,2 -6,4 0,2 1,3 4,3l90 0c3,0 3,-1 4,-2 -1,-4 -4,-3 -13,-9 -10,-7 -15,-14 -20,-24 -3,-6 -4,-11 -5,-18 4,0 9,1 9,-3 0,-3 -1,-8 -3,-10 -6,-9 -9,-2 -4,-23 2,-5 2,-5 4,-6 9,-3 15,-4 26,-12 9,-7 15,-14 21,-25 4,-6 13,-36 7,-36l-142 0c-1,0 -2,1 -2,2z"/>
   <path class="fil1" d="M631 114c0,4 5,-1 6,6 1,5 -12,18 -14,24l8 0c2,-3 3,-5 5,-8 1,-2 3,-5 5,-7 1,6 5,11 6,17 2,0 10,-3 12,-4 -1,-2 -2,-3 -2,-5l-5 1 -10 -26c-2,-4 0,-3 -11,-3l0 5z"/>
   <path class="fil1" d="M579 105c0,19 19,42 24,42 2,0 2,0 3,-1 0,-3 -2,-4 -4,-5 -7,-6 -14,-17 -17,-26 -2,-8 -1,-12 -6,-10z"/>
   <path class="fil1" d="M607 149c0,2 3,3 4,4 3,1 4,1 5,-2 -1,-2 -2,-2 -5,-4 -1,0 -4,-1 -4,2z"/>
  </g>
 </g>
</svg>
