<?xml version="1.0" encoding="UTF-8"?>
<!DOCTYPE svg PUBLIC "-//W3C//DTD SVG 1.1//EN" "http://www.w3.org/Graphics/SVG/1.1/DTD/svg11.dtd">
<!-- Creator: CorelDRAW X7 -->
<svg xmlns="http://www.w3.org/2000/svg" xml:space="preserve" width="1452px" height="600px" version="1.1" style="shape-rendering:geometricPrecision; text-rendering:geometricPrecision; image-rendering:optimizeQuality; fill-rule:evenodd; clip-rule:evenodd"
viewBox="0 0 975 403"
 xmlns:xlink="http://www.w3.org/1999/xlink">
 <defs>
  <style type="text/css">
   <![CDATA[
    .str0 {stroke:#D00000;stroke-width:1.58547}
    .fil0 {fill:none}
    .fil2 {fill:#2F2F2F}
    .fil1 {fill:#D00000}
    .fil3 {fill:white}
   ]]>
  </style>
 </defs>
 <g id="Capa_x0020_1">
  <metadata id="CorelCorpID_0Corel-Layer"/>
  <g id="_1816226064400">
   <rect class="fil0" width="975" height="403"/>
   <rect class="fil1 str0" x="20" y="52" width="290" height="299"/>
   <path class="fil2" d="M328 119l0 176c0,7 12,5 21,5 2,0 3,-2 4,-3 0,-19 -1,-40 0,-58 1,-6 7,-10 13,-16 4,-5 10,-12 14,-15 3,2 7,9 10,13l48 75c5,7 13,4 30,4 0,-3 1,-3 2,-6l-53 -79c-6,-9 -12,-17 -18,-26l66 -69c-1,-2 -1,-3 -1,-5 -8,-2 -17,-1 -25,-1 -3,0 -40,40 -43,43 -6,6 -38,40 -43,43l0 -83c-6,-4 -7,-3 -18,-3 -3,0 -7,2 -7,5z"/>
   <path class="fil2" d="M571 214l0 3 -56 0c0,-8 4,-15 8,-20 2,-3 4,-5 7,-7 5,-2 6,-2 12,-3 16,-2 29,10 29,27zm-83 12l0 15c0,34 24,61 57,61 15,0 17,1 32,-3 6,-2 10,-4 16,-6l0 -20c-2,-1 -3,-2 -5,-3 -3,1 -7,3 -11,4 -11,4 -27,6 -39,3 -16,-4 -24,-20 -24,-37l80 0c10,0 3,-42 -8,-57 -18,-24 -55,-24 -74,-8 -15,12 -24,31 -24,51z"/>
   <path class="fil2" d="M770 280c-24,0 -24,-23 -14,-33 10,-10 33,-8 40,-9 2,0 8,-2 8,2 0,23 -9,40 -34,40zm-33 -104c0,2 5,20 10,20 2,0 15,-6 22,-8 7,-1 20,-2 25,2 10,5 10,16 10,27 -23,0 -59,2 -72,20 -12,16 -10,41 2,54 14,14 47,15 65,1 3,-2 4,-5 7,-5 1,5 2,7 2,13 9,0 21,2 21,-5l0 -90c0,-12 -5,-23 -11,-29 -16,-17 -53,-12 -72,-4 -4,2 -5,3 -9,4z"/>
   <path class="fil2" d="M861 197c0,15 0,18 11,29 12,13 58,21 58,37 0,23 -39,18 -56,11 -14,-6 -6,-4 -13,-2l0 21c22,12 68,15 86,-8 8,-9 11,-29 3,-41 -10,-15 -33,-22 -51,-30 -19,-8 -16,-21 -4,-25 18,-7 45,6 49,6 0,0 7,-17 7,-17 0,-7 -6,-8 -16,-11 -18,-4 -43,-5 -58,5 -8,5 -16,13 -16,25z"/>
   <path class="fil2" d="M654 184c0,-7 -1,-10 -1,-17 -9,0 -22,-2 -22,4l0 124c0,7 12,5 21,5 3,0 3,-2 5,-3 0,-12 -1,-72 1,-79 3,-16 13,-27 28,-30 6,-1 11,2 17,2 4,-5 3,-2 4,-11 1,-4 2,-9 2,-13 -13,-1 -21,-7 -40,4 -8,5 -12,12 -15,14z"/>
   <path class="fil3" d="M101 109l0 177c0,7 12,5 21,5 2,0 2,-2 4,-3 0,-19 -1,-41 0,-59 1,-5 7,-10 13,-16 4,-4 10,-12 14,-14 3,2 7,9 9,12l49 75c5,7 13,5 30,5 0,-3 1,-3 1,-6l-52 -79c-6,-9 -12,-18 -18,-27l66 -68c-1,-3 -1,-3 -1,-5 -8,-2 -17,-1 -25,-1 -3,0 -40,40 -43,42 -7,7 -39,41 -43,44l0 -84c-6,-4 -7,-2 -18,-2 -3,0 -7,1 -7,4z"/>
  </g>
 </g>
</svg>
