<?xml version="1.0" encoding="UTF-8"?>
<!DOCTYPE svg PUBLIC "-//W3C//DTD SVG 1.1//EN" "http://www.w3.org/Graphics/SVG/1.1/DTD/svg11.dtd">
<!-- Creator: CorelDRAW X7 -->
<svg xmlns="http://www.w3.org/2000/svg" xml:space="preserve" width="1500px" height="600px" version="1.1" style="shape-rendering:geometricPrecision; text-rendering:geometricPrecision; image-rendering:optimizeQuality; fill-rule:evenodd; clip-rule:evenodd"
viewBox="0 0 995 398"
 xmlns:xlink="http://www.w3.org/1999/xlink">
 <defs>
  <style type="text/css">
   <![CDATA[
    .str0 {stroke:#B1B1B1;stroke-width:0.783809}
    .fil0 {fill:none}
    .fil6 {fill:#004CFF}
    .fil1 {fill:#11557C}
    .fil3 {fill:#799FB5}
    .fil2 {fill:#FDFEFE}
    .fil14 {fill:#FF6800}
    .fil7 {fill:black;fill-rule:nonzero}
    .fil4 {fill:#15587F;fill-rule:nonzero}
    .fil5 {fill:#B1B1B1;fill-rule:nonzero}
    .fil8 {fill:#CEFF29;fill-opacity:0.560784}
    .fil10 {fill:#FF6800;fill-opacity:0.560784}
    .fil11 {fill:#FFC400;fill-opacity:0.560784}
    .fil9 {fill:black;fill-rule:nonzero;fill-opacity:0.560784}
    .fil12 {fill:#29FFCE;fill-opacity:0.600000}
    .fil13 {fill:black;fill-rule:nonzero;fill-opacity:0.600000}
   ]]>
  </style>
 </defs>
 <g id="Capa_x0020_1">
  <metadata id="CorelCorpID_0Corel-Layer"/>
  <g id="_1816211621680">
   <rect class="fil0" width="995" height="398"/>
   <g>
    <path class="fil1" d="M65 166c-1,1 2,2 -2,1l1 -2c0,-3 1,-10 0,-12l-22 1 -6 100 25 -1c9,-29 -7,-72 23,-79 33,-8 7,70 14,79l25 -1c8,-29 -7,-70 23,-78 33,-10 7,69 14,79l24 0c5,-8 7,-77 3,-87 -5,-10 -16,-17 -31,-16 -18,2 -24,15 -31,17 -7,-11 -11,-18 -29,-17 -12,1 -27,10 -31,16z"/>
    <path class="fil1" d="M910 173c31,-7 26,59 0,61 -29,1 -28,-54 0,-61zm-49 80l20 1c2,-2 2,-10 3,-14 11,8 22,26 49,12 30,-17 35,-80 10,-96 -23,-16 -38,2 -50,7 0,-9 6,-51 2,-54 -4,-3 -22,-3 -24,2 -1,2 -12,138 -10,142z"/>
    <path class="fil1" d="M442 174c30,-10 26,58 0,60 -27,1 -30,-51 0,-60zm-22 -7c1,-3 2,-13 0,-15 -3,0 -20,0 -21,1l-9 139 24 0 5 -48c14,8 25,22 50,5 13,-9 20,-27 21,-48 2,-22 -4,-42 -20,-48 -26,-11 -39,10 -50,14z"/>
    <path class="fil1" d="M269 210c-2,63 -80,0 0,0zm1 -16c-31,2 -65,1 -62,37 2,32 44,30 62,13l1 9c19,9 21,-3 22,-17 1,-12 2,-25 3,-38 2,-30 -1,-45 -32,-48 -12,0 -24,2 -35,6 -15,6 -15,23 -8,23 7,1 56,-30 49,15z"/>
    <path class="fil1" d="M329 152l-15 1 -2 19c3,3 10,2 15,2 1,20 -10,56 0,72 8,12 53,21 45,-14 -11,-1 -24,12 -22,-17l3 -41c5,0 21,0 24,-1l2 -19c-3,-2 -20,-2 -24,-2 1,-17 7,-25 -12,-25 -18,0 -13,8 -14,25z"/>
    <path class="fil1" d="M690 152l-12 1c14,21 23,50 11,80 -1,3 -2,6 -2,9 0,2 0,3 2,4 2,4 9,8 19,10 6,0 18,0 22,-3 4,-3 6,-16 3,-21 -1,-3 -24,14 -22,-16 1,-14 2,-29 4,-42 4,0 21,0 24,-1l1 -20c-2,-1 -19,-1 -24,-1 1,-16 8,-25 -12,-25 -17,0 -14,8 -14,25z"/>
    <path class="fil1" d="M755 252l24 1c3,-11 5,-63 7,-79 1,-13 2,-26 2,-39 2,-18 8,-28 -11,-28 -18,0 -14,9 -15,27 -1,13 -2,26 -3,39 -1,10 -7,77 -4,79z"/>
    <path class="fil1" d="M510 252l26 0c4,-21 -14,-42 -3,-76 6,-17 8,-12 10,-34 1,-11 7,-34 -5,-35 -23,-2 -19,4 -21,23 -1,17 -10,120 -7,122z"/>
    <path class="fil1" d="M808 252l24 1c4,-20 5,-61 7,-84 1,-14 5,-17 -12,-17 -18,0 -13,1 -16,44 -1,9 -6,53 -3,56z"/>
    <path class="fil2" d="M910 173c-28,7 -29,62 0,61 26,-2 31,-68 0,-61z"/>
    <path class="fil2" d="M442 174c-30,9 -27,61 0,60 26,-2 30,-70 0,-60z"/>
    <path class="fil2" d="M269 210c-80,0 -2,63 0,0z"/>
    <path class="fil1" d="M823 111c-12,3 -17,33 12,26 14,-3 16,-33 -12,-26z"/>
    <path class="fil3" d="M65 166c-1,0 -1,1 -1,-1l-1 2c4,1 1,0 2,-1z"/>
    <g>
     <g>
      <path class="fil4" d="M691 202l-2 0 0 0 0 -4 -1 -4 0 -4 -1 -4 -1 -3 -1 -4 -1 -4 -1 -3 -2 -3 -2 -4 -1 -3 -2 -3 -2 -3 -3 -3 -2 -3 -3 -2 -2 -3 -3 -2 -3 -3 -3 -2 -3 -2 -3 -2 -4 -1 -3 -2 -4 -1 -3 -1 -4 -1 -3 -1 -4 -1 -4 0 -4 -1 -4 0 0 -2 4 0 4 1 4 0 4 1 4 1 4 1 3 1 4 1 3 2 4 2 3 1 3 3 3 2 3 2 3 3 3 2 2 3 3 3 2 3 2 3 2 3 2 3 2 4 2 3 1 4 1 3 1 4 1 4 1 4 0 4 1 4 0 4 0 0zm-79 78l0 -2 0 0 4 0 4 0 4 -1 4 0 3 -1 4 -1 3 -1 4 -2 3 -1 4 -2 3 -2 3 -2 3 -2 3 -2 3 -3 2 -2 3 -3 2 -3 3 -2 2 -3 2 -4 1 -3 2 -3 2 -3 1 -4 1 -4 1 -3 1 -4 1 -4 0 -3 1 -4 0 -4 2 0 0 4 -1 4 0 4 -1 4 -1 3 -1 4 -1 4 -1 3 -2 4 -2 3 -2 3 -2 4 -2 3 -2 3 -3 3 -2 2 -3 3 -3 2 -3 3 -3 2 -3 2 -3 2 -4 2 -3 1 -4 2 -3 1 -4 1 -4 1 -4 0 -4 1 -4 0 -4 0 0 0zm-78 -78l2 0 0 0 0 4 0 4 0 3 1 4 1 4 1 3 1 4 2 4 1 3 2 3 2 3 2 4 2 3 2 2 2 3 3 3 3 2 2 3 3 2 3 2 3 2 4 2 3 2 3 1 4 2 3 1 4 1 4 1 3 0 4 1 4 0 4 0 0 2 -4 0 -4 0 -4 -1 -4 0 -3 -1 -4 -1 -4 -1 -3 -2 -4 -1 -3 -2 -4 -2 -3 -2 -3 -2 -3 -3 -3 -2 -2 -3 -3 -2 -3 -3 -2 -3 -2 -3 -2 -4 -2 -3 -2 -3 -1 -4 -2 -3 -1 -4 -1 -4 -1 -3 -1 -4 0 -4 0 -4 0 -4 0 0zm78 -79l0 2 0 0 -4 0 -4 1 -4 0 -3 1 -4 1 -4 1 -3 1 -4 1 -3 2 -3 1 -4 2 -3 2 -3 2 -3 3 -2 2 -3 3 -3 2 -2 3 -2 3 -2 3 -2 3 -2 3 -2 4 -1 3 -2 3 -1 4 -1 4 -1 3 -1 4 0 4 0 4 0 4 -2 0 0 -4 0 -4 0 -4 1 -4 1 -4 1 -4 1 -3 2 -4 1 -3 2 -4 2 -3 2 -3 2 -3 2 -3 3 -3 3 -3 2 -2 3 -3 3 -2 3 -2 3 -3 4 -1 3 -2 4 -2 3 -1 4 -1 4 -1 3 -1 4 -1 4 0 4 -1 4 0 0 0z"/>
     </g>
     <g>
      <path class="fil5" d="M672 200l-1 0 0 0 0 -3 -1 -3 0 -3 0 -3 -1 -2 -1 -3 -1 -3 -1 -2 -1 -3 -1 -3 -2 -2 -1 -2 -2 -3 -2 -2 -1 -2 -2 -2 -2 -2 -2 -2 -3 -2 -2 -1 -2 -2 -3 -1 -2 -1 -3 -2 -2 -1 -3 -1 -3 0 -3 -1 -3 0 -3 -1 -2 0 -3 0 0 -1 3 0 3 0 3 1 2 0 3 1 3 1 3 0 3 2 2 1 3 1 2 1 3 2 2 2 2 1 2 2 2 2 2 2 2 2 2 3 2 2 1 2 2 3 1 3 1 2 1 3 1 3 1 2 0 3 1 3 0 3 1 3 0 3 0 0zm-59 60l0 -1 0 0 3 0 2 -1 3 0 3 0 3 -1 3 -1 3 -1 2 -1 3 -1 2 -1 3 -2 2 -1 2 -2 3 -2 2 -1 2 -2 2 -2 1 -3 2 -2 2 -2 1 -2 2 -3 1 -2 1 -3 1 -3 1 -2 1 -3 1 -3 0 -3 0 -3 1 -3 0 -3 1 0 0 3 -1 3 0 3 -1 3 0 3 -1 3 -1 3 -1 2 -1 3 -1 3 -2 2 -1 2 -2 3 -2 2 -2 2 -2 2 -2 2 -2 2 -2 2 -2 2 -3 1 -2 2 -3 1 -2 1 -3 1 -3 1 -3 1 -3 0 -2 1 -3 0 -3 1 -3 0 0 0zm-60 -60l1 0 0 0 0 3 1 3 0 3 1 3 0 3 1 3 1 2 1 3 1 3 1 2 2 3 1 2 2 2 2 2 1 3 2 2 2 2 3 1 2 2 2 2 2 1 3 2 2 1 3 1 3 1 2 1 3 1 3 1 3 0 3 0 3 1 3 0 0 1 -4 0 -3 -1 -2 0 -3 -1 -3 0 -3 -1 -3 -1 -3 -1 -2 -1 -3 -1 -2 -2 -3 -1 -2 -2 -2 -2 -2 -2 -2 -2 -2 -2 -2 -2 -2 -2 -2 -3 -1 -2 -2 -2 -1 -3 -1 -3 -1 -2 -1 -3 -1 -3 0 -3 -1 -3 0 -3 -1 -3 0 -3 0 0zm60 -59l0 1 0 0 -3 0 -3 0 -3 1 -3 0 -3 1 -3 0 -2 1 -3 1 -3 2 -2 1 -3 1 -2 2 -2 1 -2 2 -3 2 -2 2 -2 2 -1 2 -2 2 -2 3 -1 2 -2 2 -1 3 -1 3 -1 2 -1 3 -1 3 0 2 -1 3 0 3 -1 3 0 3 -1 0 0 -3 1 -3 0 -3 1 -3 0 -3 1 -2 1 -3 1 -3 1 -2 1 -3 2 -3 1 -2 2 -2 2 -3 2 -2 2 -2 2 -2 2 -2 2 -1 2 -2 3 -2 2 -1 3 -1 2 -1 3 -2 3 0 3 -1 3 -1 3 0 2 -1 3 0 4 0 0 0z"/>
     </g>
     <g>
      <path class="fil5" d="M656 201l-1 0 0 0 0 -2 0 -3 -1 -2 0 -2 -1 -2 0 -2 -1 -2 -1 -2 0 -2 -1 -2 -1 -1 -1 -2 -2 -2 -1 -1 -1 -2 -2 -1 -1 -2 -2 -1 -1 -1 -2 -2 -2 -1 -1 -1 -2 -1 -2 0 -2 -1 -2 -1 -2 0 -2 -1 -2 0 -2 -1 -2 0 -3 0 0 -1 3 0 2 0 2 1 2 0 2 1 2 0 2 1 2 1 2 0 2 1 2 1 2 2 1 1 2 1 2 1 1 2 2 1 1 2 1 2 1 1 2 2 1 2 1 2 0 2 1 2 1 2 0 2 1 2 0 2 1 2 0 3 0 2 0 0zm-44 43l0 -1 0 0 3 0 2 0 2 0 2 -1 2 0 2 -1 2 0 2 -1 2 -1 2 -1 1 -1 2 -1 2 -1 1 -1 2 -2 1 -1 2 -2 1 -1 1 -2 2 -1 1 -2 1 -2 1 -2 0 -2 1 -2 1 -2 0 -2 1 -2 0 -2 1 -2 0 -2 0 -2 1 0 0 2 0 2 -1 2 0 3 -1 2 0 2 -1 2 -1 2 0 2 -1 2 -1 1 -2 2 -1 2 -1 1 -1 2 -2 2 -1 1 -2 1 -2 2 -1 1 -2 1 -2 1 -2 1 -2 1 -2 1 -2 0 -2 1 -2 0 -2 1 -2 0 -2 0 -3 0 0 0zm-43 -43l1 0 0 0 0 2 0 2 1 2 0 2 0 2 1 2 1 2 0 2 1 2 1 2 1 2 1 2 1 1 2 2 1 1 1 2 2 1 1 2 2 1 2 1 1 1 2 1 2 1 2 1 2 1 2 0 2 1 2 0 2 1 2 0 2 0 2 0 0 1 -2 0 -2 0 -2 0 -2 -1 -2 0 -2 -1 -3 0 -1 -1 -2 -1 -2 -1 -2 -1 -2 -1 -2 -1 -1 -2 -2 -1 -1 -1 -2 -2 -1 -2 -1 -1 -2 -2 -1 -2 -1 -1 -1 -2 -1 -2 0 -2 -1 -2 -1 -2 0 -2 0 -3 -1 -2 0 -2 0 -2 0 0zm43 -44l0 1 0 0 -2 0 -2 0 -2 1 -2 0 -2 1 -2 0 -2 1 -2 1 -2 0 -2 1 -2 1 -1 1 -2 2 -2 1 -1 1 -2 2 -1 1 -1 2 -2 1 -1 2 -1 2 -1 1 -1 2 -1 2 0 2 -1 2 -1 2 0 2 0 2 -1 2 0 3 0 2 -1 0 0 -2 0 -3 1 -2 0 -2 0 -2 1 -2 1 -2 0 -2 1 -2 1 -2 1 -2 1 -2 2 -1 1 -2 1 -2 2 -1 1 -2 2 -1 1 -1 2 -1 2 -2 2 -1 2 -1 2 0 1 -1 3 -1 2 0 2 -1 2 0 2 -1 2 0 2 0 0 0z"/>
     </g>
     <g>
      <path class="fil5" d="M639 202l-1 0 0 0 0 -1 0 -1 0 -2 -1 -1 0 -1 0 -1 -1 -2 0 -1 -1 -1 0 -1 -1 -1 -1 -1 0 -1 -1 -1 -1 -1 -1 -1 -1 -1 0 -1 -1 0 -1 -1 -1 -1 -2 0 -1 -1 -1 0 -1 -1 -1 0 -1 -1 -2 0 -1 0 -1 0 -1 0 -2 0 0 -1 2 0 1 0 1 0 2 0 1 0 1 1 1 0 2 1 1 0 1 1 1 0 1 1 1 1 1 1 1 1 1 0 1 1 1 1 1 1 0 1 1 1 1 1 0 2 1 1 0 1 1 1 0 2 0 1 1 1 0 1 0 2 0 1 0 0zm-27 27l0 -1 0 0 2 0 1 0 1 -1 1 0 2 0 1 0 1 -1 1 0 1 -1 1 0 2 -1 1 -1 1 0 1 -1 0 -1 1 -1 1 -1 1 -1 1 -1 0 -1 1 -1 1 -1 0 -1 1 -1 0 -1 1 -1 0 -1 0 -2 1 -1 0 -1 0 -2 0 -1 1 0 0 2 0 1 0 1 -1 1 0 2 0 1 -1 1 0 1 -1 2 0 1 -1 1 -1 1 0 1 -1 1 -1 1 -1 1 -1 1 -1 1 -1 0 -1 1 -1 1 -1 0 -1 1 -1 1 -2 0 -1 0 -1 1 -1 0 -2 0 -1 1 -1 0 -2 0 0 0zm-26 -27l1 0 0 0 0 1 0 2 0 1 0 1 0 2 1 1 0 1 1 1 0 1 1 1 0 1 1 1 1 1 0 1 1 1 1 1 1 1 1 1 1 1 1 0 1 1 1 1 1 0 1 1 1 0 2 1 1 0 1 0 1 0 2 1 1 0 1 0 0 1 -1 0 -1 0 -2 -1 -1 0 -1 0 -2 -1 -1 0 -1 0 -1 -1 -1 -1 -2 0 -1 -1 -1 -1 -1 0 -1 -1 -1 -1 0 -1 -1 -1 -1 -1 -1 -1 -1 -1 0 -1 -1 -1 0 -2 -1 -1 0 -1 -1 -1 0 -2 0 -1 0 -1 0 -1 0 -2 0 0zm26 -26l0 1 0 0 -1 0 -1 0 -2 0 -1 0 -1 0 -1 1 -2 0 -1 1 -1 0 -1 1 -1 0 -1 1 -1 1 -1 0 -1 1 -1 1 -1 1 -1 1 0 1 -1 1 -1 1 0 1 -1 1 0 1 -1 1 0 2 -1 1 0 1 0 1 0 2 0 1 0 1 -1 0 0 -1 0 -2 0 -1 0 -1 0 -1 1 -2 0 -1 1 -1 0 -1 1 -2 0 -1 1 -1 1 -1 1 -1 1 -1 0 -1 1 0 1 -1 1 -1 1 -1 1 -1 2 0 1 -1 1 0 1 -1 1 0 2 -1 1 0 1 0 2 0 1 0 1 0 0 0z"/>
     </g>
     <g>
      <path class="fil5" d="M622 201l-1 0 0 0 0 0 -1 -1 0 0 0 -1 0 0 0 0 0 -1 0 0 0 0 0 -1 -1 0 0 0 0 -1 0 0 -1 0 0 -1 0 0 -1 0 0 0 0 -1 -1 0 0 0 0 0 -1 0 0 -1 0 0 -1 0 0 0 -1 0 0 0 0 0 -1 0 0 -1 1 0 0 0 1 0 0 0 0 0 1 0 0 0 1 1 0 0 1 0 0 0 0 0 1 1 0 0 0 0 1 1 0 0 0 0 1 1 0 0 0 0 0 1 1 0 0 1 0 0 0 0 0 1 0 0 0 1 0 0 1 1 0 0 0 0zm-10 9l0 -1 0 0 1 0 0 0 0 0 1 0 0 0 1 0 0 0 0 0 1 0 0 -1 0 0 1 0 0 0 0 0 1 -1 0 0 0 0 1 -1 0 0 0 0 0 -1 1 0 0 0 0 -1 0 0 0 0 0 -1 0 0 0 -1 0 0 1 0 0 -1 1 0 0 1 -1 0 0 1 0 0 0 0 0 1 0 0 0 1 0 0 -1 1 0 0 0 0 0 1 -1 0 0 0 0 1 -1 0 0 0 0 1 -1 0 0 0 0 0 -1 1 0 0 -1 0 0 0 -1 0 0 0 0 0 -1 0 0 0 -1 0 0 0zm-9 -9l1 0 0 0 0 1 0 0 0 0 0 1 0 0 0 1 0 0 0 0 0 1 1 0 0 0 0 1 0 0 1 0 0 1 0 0 0 0 1 1 0 0 0 0 1 0 0 0 0 1 1 0 0 0 1 0 0 0 0 0 1 0 0 0 1 0 0 0 0 1 0 0 -1 0 0 0 -1 0 0 0 -1 0 0 0 -1 0 0 0 0 -1 -1 0 0 0 -1 0 0 -1 0 0 -1 0 0 -1 0 0 -1 0 0 -1 0 0 0 0 0 -1 -1 0 0 -1 0 0 0 -1 0 0 0 0 0 -1 0 0 0 -1 0 0zm9 -9l0 1 0 0 0 0 -1 0 0 0 -1 0 0 0 0 0 -1 0 0 1 -1 0 0 0 0 0 -1 0 0 1 0 0 -1 0 0 0 0 1 0 0 -1 0 0 1 0 0 0 0 -1 1 0 0 0 0 0 1 0 0 0 0 0 1 0 0 0 1 0 0 -1 0 0 0 0 -1 0 0 0 -1 0 0 0 -1 0 0 0 0 1 -1 0 0 0 -1 0 0 0 0 1 -1 0 0 0 0 1 -1 0 0 0 0 1 -1 0 0 1 0 0 0 0 0 1 -1 0 0 1 0 0 0 1 0 0 0 1 0 0 0 0 0z"/>
     </g>
     <g>
      <line class="fil0 str0" x1="535" y1="202" x2="690" y2= "202" />
     </g>
     <g>
      <line class="fil0 str0" x1="612" y1="124" x2="612" y2= "279" />
     </g>
     <g>
      <line class="fil0 str0" x1="666" y1="257" x2="558" y2= "146" />
     </g>
     <g>
      <line class="fil0 str0" x1="557" y1="256" x2="667" y2= "146" />
     </g>
     <g>
      <polygon class="fil6" points="612,199 628,194 628,194 628,194 628,194 628,195 628,195 628,195 628,195 629,196 629,196 629,196 629,196 629,197 629,197 629,197 629,197 629,197 629,197 629,198 629,198 629,198 629,198 629,198 629,198 629,199 629,199 629,199 629,199 612,199 "/>
      <path id="1" class="fil7" d="M628 195l-16 4 -1 0 17 -5 1 0 -1 1zm0 -1c0,-1 0,0 1,0 0,0 -1,0 -1,1l0 -1zm0 0l0 0 1 0 0 0 0 0 -1 0zm1 0c0,0 0,0 -1,1 0,0 0,0 0,-1l1 0zm-1 0l0 0 1 0 0 0 0 0 -1 0zm1 0c0,0 0,1 -1,1 0,0 0,0 0,-1l1 0zm-1 1l0 -1 1 0 0 0 -1 1 0 0zm1 -1c0,1 0,1 -1,1 0,0 0,0 0,0l1 -1zm-1 1l0 0 1 -1 0 0 0 1 -1 0zm1 -1c0,1 0,1 -1,1 0,0 0,0 0,0l1 -1zm-1 1l0 0 1 0 0 0 -1 0 0 0zm1 0c0,0 0,0 -1,0 0,0 0,0 0,0l1 0zm-1 0l0 0 1 0 0 0 0 0 -1 0zm1 0c0,0 0,0 -1,0 0,1 0,0 0,0l1 0zm-1 0l0 0 1 0 0 0 0 0 -1 0zm1 0c0,0 0,1 0,1 -1,0 -1,0 -1,-1l1 0zm-1 1l0 -1 1 0 0 1 0 0 -1 0zm1 0c0,0 0,0 0,0 -1,0 -1,0 -1,0l1 0zm-1 0l0 0 1 0 0 0 0 0 -1 0zm1 0c0,0 0,0 0,0 -1,1 -1,0 -1,0l1 0zm-1 0l0 0 1 0 0 0 -1 0 0 0zm1 0c0,0 0,1 0,1 -1,0 -1,0 -1,-1l1 0zm-1 0l0 0 1 0 0 0 0 0 -1 0zm1 0c0,1 0,1 0,1 -1,0 -1,0 -1,-1l1 0zm-1 1l0 -1 1 0 0 1 0 0 -1 0zm1 0c0,0 0,0 0,0 -1,0 -1,0 -1,0l1 0zm-1 0l0 0 1 0 0 0 -1 0 0 0zm1 0c0,0 0,0 0,0 -1,0 -1,0 -1,0l1 0zm-1 0l0 0 1 0 0 0 0 0 -1 0zm1 0c0,0 0,0 0,0 0,0 -1,0 -1,0l1 0zm-1 0l0 0 1 0 0 0 -1 0 0 0zm1 0c0,0 0,1 0,1 -1,0 -1,-1 -1,-1l1 0zm-1 0l0 0 1 0 0 0 -1 0 0 0zm1 0c0,0 0,1 0,1 0,0 -1,0 -1,-1l1 0zm-1 0l0 0 1 0 0 0 0 0 -1 0zm1 0c0,1 0,1 0,1 0,0 -1,0 -1,-1l1 0zm-1 1l0 -1 1 0 0 1 -1 0 0 0zm1 0c0,0 0,0 0,0 0,0 -1,0 -1,0l1 0zm-1 0l0 0 1 0 0 0 0 0 -1 0zm1 0c0,0 0,0 0,0 0,0 -1,0 -1,0l1 0zm-1 0l0 0 1 0 0 0 -1 0 0 0zm1 0c0,0 0,0 0,0 0,0 -1,0 -1,0l1 0zm-1 0l0 0 1 0 0 0 0 0 -1 0zm1 0c0,0 0,1 0,1 0,0 -1,-1 -1,-1l1 0zm-1 0l0 0 1 0 0 0 0 0 -1 0zm1 0c0,1 0,1 0,1 0,0 -1,0 -1,-1l1 0zm-1 0l0 0 1 0 0 0 0 0 -1 0zm1 0c0,1 0,1 0,1 0,0 -1,0 -1,-1l1 0zm-1 1l0 -1 1 0 0 1 0 0 -1 0zm1 0c0,0 0,0 0,0 0,0 -1,0 -1,0l1 0zm-1 0l0 0 1 0 0 0 0 0 -1 0zm1 0c0,0 0,0 0,0 0,0 -1,0 -1,0l1 0zm-1 0l0 0 1 0 0 0 0 0 -1 0zm1 0c0,0 0,0 0,0 0,0 -1,0 -1,0l1 0zm-1 0l0 0 1 0 0 0 0 1 -1 -1zm1 0c0,0 0,1 0,1 0,0 -1,-1 -1,-1l1 0zm-17 0l17 0 0 1 -17 0 -1 0 1 -1zm0 1c-1,0 -1,-1 -1,-1 0,0 0,0 1,0l0 1zm0 -1l0 0 -1 1 0 -1 0 0 1 0zm-1 0c0,0 0,0 0,0 0,-1 1,-1 1,0l-1 0z"/>
     </g>
     <g>
      <polygon class="fil8" points="612,199 630,153 631,153 632,154 632,154 633,154 633,154 634,155 635,155 636,155 636,156 636,156 637,156 637,156 638,156 638,157 639,157 639,158 640,158 640,158 641,159 642,159 642,159 643,160 643,160 643,160 644,160 644,161 612,199 "/>
      <path id="1" class="fil9" d="M631 153l-19 46 -1 0 19 -46 0 0 1 0zm-1 0c0,0 0,0 0,0 1,0 1,0 1,0l-1 0zm1 1l-1 0 0 -1 1 0 0 0 0 1zm0 -1c0,0 1,0 1,1 -1,0 -1,0 -1,0l0 -1zm1 1l-1 0 0 -1 1 0 0 0 0 1zm0 -1c0,0 1,1 0,1 0,0 0,0 0,0l0 -1zm0 1l0 0 0 -1 0 0 0 1 0 0zm0 -1c1,1 1,1 1,1 -1,0 -1,0 -1,0l0 -1zm1 2l-1 -1 0 -1 1 1 0 0 0 1zm0 -1c0,0 0,0 0,0 0,1 0,1 0,1l0 -1zm0 1l0 0 0 -1 0 0 0 1 0 0zm0 -1c0,0 1,0 0,0 0,1 0,1 0,1l0 -1zm1 1l-1 0 0 -1 1 0 0 0 0 1zm0 -1c0,0 0,1 0,1 0,0 0,0 0,0l0 -1zm1 2l-1 -1 0 -1 1 1 0 0 0 1zm0 -1c0,0 0,0 0,0 0,1 0,1 0,1l0 -1zm0 1l0 0 0 -1 1 0 0 0 -1 1zm1 -1c0,0 0,0 0,1 0,0 0,0 -1,0l1 -1zm0 1l-1 0 1 -1 0 0 0 1 0 0zm0 -1c0,0 0,1 0,1 0,0 0,0 0,0l0 -1zm0 1l0 0 0 -1 1 0 0 0 -1 1zm1 -1c0,1 0,1 0,1 0,0 -1,0 -1,0l1 -1zm-1 1l0 0 1 -1 0 1 -1 0 0 0zm1 0c0,0 0,0 0,0 0,1 0,1 -1,0l1 0zm0 1l-1 -1 1 0 1 0 0 0 -1 1zm1 -1c0,0 0,0 0,1 0,0 -1,0 -1,0l1 -1zm-1 1l0 0 1 -1 0 0 -1 1 0 0zm1 -1c0,0 0,1 0,1 0,0 0,0 -1,0l1 -1zm0 1l-1 0 1 -1 1 1 0 0 -1 0zm1 0c0,0 0,0 0,0 0,0 -1,1 -1,0l1 0zm0 1l-1 -1 1 0 0 0 0 0 0 1zm0 -1c1,0 1,0 1,1 0,0 -1,0 -1,0l0 -1zm0 1l0 0 0 -1 1 0 -1 1 0 0zm1 -1c0,0 0,1 0,1 0,0 -1,0 -1,0l1 -1zm0 1l-1 0 1 -1 0 1 0 0 0 0zm0 0c1,0 1,0 0,0 0,0 0,1 0,0l0 0zm0 0l0 0 0 0 0 0 0 0 0 0zm0 0c1,0 1,0 1,0 -1,1 -1,1 -1,0l0 0zm1 1l-1 -1 0 0 1 0 0 0 0 1zm0 -1c1,0 1,1 0,1 0,0 0,0 0,0l0 -1zm1 2l-1 -1 0 -1 1 1 0 1 0 0zm0 -1c0,0 0,0 0,0 0,1 0,1 0,1l0 -1zm0 1l0 0 0 -1 0 0 0 0 0 1zm0 -1c0,0 1,0 0,0 0,1 0,1 0,1l0 -1zm0 1l0 0 0 -1 1 0 0 0 -1 1zm1 -1c0,0 0,1 0,1 0,0 0,0 -1,0l1 -1zm0 1l-1 0 1 -1 0 0 0 1 0 0zm0 -1c0,1 0,1 0,1 0,0 0,0 0,0l0 -1zm0 2l0 -1 0 -1 1 1 0 0 -1 1zm1 -1c0,0 0,0 0,0 0,1 -1,1 -1,1l1 -1zm-1 1l0 0 1 -1 0 0 -1 1 0 0zm1 -1c0,0 0,1 0,1 0,0 -1,0 -1,0l1 -1zm-1 1l0 0 1 -1 0 0 0 1 -1 0zm1 -1c0,0 0,1 0,1 0,0 0,0 -1,0l1 -1zm-33 38l32 -38 1 1 -32 38 -1 -1 0 0zm1 1c0,0 0,0 -1,0 0,0 0,0 0,-1l1 1zm-1 0l0 -1 1 1 0 0 -1 0 0 0zm1 0c0,1 0,1 -1,0 0,0 0,0 0,0l1 0z"/>
     </g>
     <g>
      <polygon class="fil10" points="612,199 567,149 568,148 569,147 570,146 571,146 571,146 572,145 572,145 573,145 573,144 574,144 575,144 575,143 576,143 577,142 578,142 579,141 580,140 581,140 582,140 583,139 584,139 585,138 586,138 587,138 588,137 590,137 591,137 591,136 592,136 593,136 595,135 596,135 596,135 611,198 "/>
      <path id="1" class="fil9" d="M568 148l44 51 -1 0 -44 -50 0 -1 1 0zm-1 1c0,0 0,0 0,-1 0,0 0,0 1,0l-1 1zm2 -1l-1 1 -1 -1 1 0 0 0 1 0zm-1 0c0,-1 0,-1 1,0 0,0 0,0 0,0l-1 0zm2 -1l-1 1 -1 0 1 -1 0 0 1 0zm-1 0c0,-1 1,-1 1,0 0,0 0,0 0,0l-1 0zm2 0l-1 0 -1 0 1 -1 1 1 0 0zm-1 -1c0,0 1,0 1,0 0,0 0,1 0,1l-1 -1zm1 1l0 0 -1 -1 0 0 0 0 1 1zm-1 -1c0,0 1,0 1,0 0,0 0,0 0,1l-1 -1zm2 0l-1 1 -1 -1 1 -1 0 0 1 1zm-1 -1c0,0 1,0 1,0 0,1 0,1 0,1l-1 -1zm1 1l0 0 -1 -1 1 0 0 0 0 1zm0 -1c0,0 0,0 0,0 0,0 0,1 0,1l0 -1zm1 0l-1 1 0 -1 0 0 1 0 0 0zm-1 0c0,-1 1,-1 1,0 0,0 0,0 0,0l-1 0zm1 0l0 0 -1 0 1 -1 0 0 0 1zm0 -1c0,0 0,0 0,0 0,1 0,1 0,1l0 -1zm1 1l-1 0 0 -1 0 0 0 0 1 1zm-1 -1c0,0 1,0 1,0 0,0 0,1 0,1l-1 -1zm2 0l-1 1 -1 -1 1 -1 1 1 0 0zm-1 -1c0,0 1,0 1,0 0,1 0,1 0,1l-1 -1zm1 1l0 0 -1 -1 0 0 0 0 1 1zm-1 -1c0,0 1,0 1,0 0,1 0,1 0,1l-1 -1zm2 1l-1 0 -1 -1 1 0 0 0 1 1zm-1 -1c0,0 1,0 1,0 0,0 0,0 0,1l-1 -1zm1 0l0 1 -1 -1 0 0 1 0 0 0zm-1 0c1,-1 1,-1 1,0 0,0 0,0 0,0l-1 0zm2 0l-1 0 -1 0 2 -1 0 0 0 1zm0 -1c0,0 0,0 0,0 0,0 0,1 0,1l0 -1zm1 0l-1 1 0 -1 1 -1 0 0 0 1zm0 -1c0,0 0,0 0,0 1,1 0,1 0,1l0 -1zm2 0l-2 1 0 -1 1 -1 0 0 1 1zm-1 -1c0,0 1,0 1,1 0,0 0,0 0,0l-1 -1zm1 1l0 0 -1 -1 1 0 0 0 0 1zm0 -1c0,0 1,0 1,0 0,1 0,1 -1,1l0 -1zm1 1l-1 0 0 -1 0 0 1 1 0 0zm-1 -1c1,0 1,0 1,0 0,0 0,1 0,1l-1 -1zm2 0l-1 1 -1 -1 2 -1 0 0 0 1zm0 -1c0,0 0,0 0,1 0,0 0,0 0,0l0 -1zm1 1l-1 0 0 -1 1 0 0 0 0 1zm0 -1c0,0 0,0 0,0 0,0 0,1 0,1l0 -1zm2 0l-2 1 0 -1 1 -1 0 0 1 1zm-1 -1c0,0 1,0 1,0 0,1 0,1 0,1l-1 -1zm1 1l0 0 -1 -1 1 0 0 0 0 1zm0 -1c0,0 1,0 1,0 0,0 0,1 -1,1l0 -1zm1 1l-1 0 0 -1 0 0 0 0 1 1zm-1 -1c1,0 1,0 1,0 0,0 0,1 0,1l-1 -1zm2 0l-1 1 -1 -1 2 -1 0 0 0 1zm0 -1c0,0 0,0 0,1 0,0 0,0 0,0l0 -1zm1 1l-1 0 0 -1 1 0 0 0 0 1zm0 -1c0,0 0,0 1,0 0,0 -1,1 -1,1l0 -1zm2 0l-2 1 0 -1 1 -1 0 0 1 1zm-1 -1c1,0 1,0 1,1 0,0 0,0 0,0l-1 -1zm2 1l-1 0 -1 -1 1 0 0 0 1 1zm-1 -1c1,0 1,0 1,0 0,1 0,1 0,1l-1 -1zm1 1l0 0 -1 -1 1 0 0 0 0 1zm0 -1c0,0 0,0 0,0 0,1 0,1 0,1l0 -1zm1 1l-1 0 0 -1 1 0 0 0 0 1zm0 -1c0,0 0,0 1,0 0,0 -1,1 -1,1l0 -1zm1 0l-1 1 0 -1 1 -1 0 0 0 1zm0 -1c0,0 1,0 1,1 0,0 0,0 -1,0l0 -1zm2 1l-2 0 0 -1 2 0 0 0 0 1zm0 -1c0,0 0,0 0,0 0,1 0,1 0,1l0 -1zm1 1l-1 0 0 -1 1 0 0 0 0 1zm0 -1c0,0 0,0 0,0 0,0 0,1 0,1l0 -1zm0 1l0 0 0 -1 0 0 1 0 -1 1zm0 -1c0,0 1,0 1,0 0,0 0,1 -1,1l0 -1zm15 63l-15 -63 1 0 15 63 -1 1 0 -1zm1 0c0,1 0,1 0,1 -1,0 -1,0 -1,-1l1 0zm-1 1l0 0 1 -1 0 1 -1 0 0 0zm1 0c0,0 0,0 0,1 -1,0 -1,-1 -1,-1l1 0z"/>
     </g>
     <g>
      <polygon class="fil11" points="612,199 552,209 552,209 552,208 552,207 552,207 552,206 551,206 551,205 551,205 551,204 551,203 551,202 551,201 551,201 551,200 551,200 551,199 551,198 551,198 551,197 551,197 551,196 551,196 551,195 551,195 551,194 551,193 551,193 551,192 551,192 552,191 552,191 552,190 552,190 552,188 552,187 552,186 553,186 553,185 553,185 553,184 553,184 553,183 554,182 554,182 554,181 554,181 554,180 555,180 555,179 555,179 555,178 555,178 555,177 556,176 556,175 557,174 557,174 611,199 "/>
      <path id="1" class="fil9" d="M552 209l59 -10 1 1 -60 10 -1 -1 1 0zm0 1c0,0 0,0 -1,-1 0,0 1,0 1,0l0 1zm0 -1l0 0 -1 0 0 0 0 0 1 0zm-1 0c0,0 1,-1 1,-1 0,0 0,1 0,1l-1 0zm1 -1l0 1 -1 0 0 -1 0 0 1 0zm-1 0c0,0 0,0 1,0 0,0 0,0 0,0l-1 0zm1 -1l0 1 -1 0 0 0 0 0 1 -1zm-1 1c0,-1 0,-1 1,-1 0,0 0,0 0,0l-1 1zm1 -1l0 0 -1 1 0 -1 0 0 1 0zm-1 0c0,0 0,0 1,0 0,0 0,0 0,0l-1 0zm1 -1l0 1 -1 0 0 -1 1 0 0 0zm-1 0c0,0 0,0 0,0 1,0 1,0 1,0l-1 0zm1 0l0 0 -1 0 0 0 0 0 1 0zm-1 0c0,0 0,0 0,0 1,0 1,0 1,0l-1 0zm1 -1l0 1 -1 0 0 -1 1 0 0 0zm-1 0c0,0 0,0 0,0 1,0 1,0 1,0l-1 0zm1 0l0 0 -1 0 0 0 0 0 1 0zm-1 0c0,0 0,0 0,-1 1,0 1,1 1,1l-1 0zm1 -1l0 1 -1 0 0 -1 0 0 1 0zm-1 0c0,0 0,-1 0,-1 0,0 1,1 1,1l-1 0zm1 -1l0 1 -1 0 0 -1 0 0 1 0zm-1 0c0,0 0,-1 0,-1 0,0 1,0 1,1l-1 0zm1 -1l0 1 -1 0 0 -1 1 0 0 0zm-1 0c0,-1 0,-1 0,-1 0,0 1,0 1,1l-1 0zm1 -1l0 1 -1 0 0 -1 0 0 1 0zm-1 0c0,0 0,0 0,0 0,0 1,0 1,0l-1 0zm1 0l0 0 -1 0 0 0 0 0 1 0zm-1 0c-1,-1 0,-1 0,-1 0,0 1,0 1,1l-1 0zm1 -1l0 1 -1 0 0 -1 1 0 0 0zm-1 0c0,0 0,0 0,0 0,0 1,0 1,0l-1 0zm0 0l1 0 -1 0 -1 0 0 0 1 0zm-1 0c0,-1 1,-1 1,-1 0,0 0,0 0,1l-1 0zm1 -1l0 1 -1 0 0 -1 0 0 1 0zm-1 0c0,0 1,0 1,0 0,0 0,0 0,0l-1 0zm1 -1l0 1 -1 0 0 -1 0 0 1 0zm-1 0c0,0 1,0 1,0 0,0 0,0 0,0l-1 0zm1 0l0 0 -1 0 0 0 0 0 1 0zm-1 0c0,-1 1,-1 1,-1 0,0 0,0 0,1l-1 0zm1 -1l0 1 -1 0 0 -1 0 0 1 0zm-1 0c0,0 1,0 1,0 0,0 0,0 0,0l-1 0zm2 0l-1 0 -1 0 1 0 0 0 1 0zm-1 0c0,-1 0,-1 0,-1 0,0 1,0 1,1l-1 0zm1 -1l0 1 -1 0 0 -1 1 0 0 0zm-1 0c0,0 0,0 0,0 0,0 1,0 1,0l-1 0zm1 0l0 0 -1 0 0 0 1 0zm-1 0c0,-1 0,-1 0,-1 0,0 1,0 1,1l-1 0zm1 -1l0 1 -1 0 0 -1 1 0 0 0zm-1 0c0,0 0,-1 0,-1 0,0 1,1 1,1l-1 0zm1 0l0 0 -1 0 0 0 0 -1 1 1zm-1 0c0,-1 0,-1 0,-1 0,0 1,0 1,1l-1 0zm1 -1l0 1 -1 -1 0 0 0 0 1 0zm-1 0c0,-1 0,-1 0,-1 1,0 1,1 1,1l-1 0zm1 0l0 0 -1 0 0 -1 1 0 0 1zm-1 -1c0,0 0,0 0,0 1,0 1,0 1,1l-1 -1zm1 0l0 0 -1 0 0 0 0 0 1 0zm-1 0c0,-1 0,-1 0,-1 1,0 1,0 1,1l-1 0zm1 -1l0 1 -1 0 0 -1 0 0 1 0zm-1 0c0,0 0,-1 0,0 1,0 1,0 1,0l-1 0zm1 0l0 0 -1 0 0 0 1 0 0 0zm-1 0c0,-1 0,-1 1,-1 0,0 0,0 0,1l-1 0zm1 -1l0 1 -1 0 0 -1 0 0 1 0zm-1 0c0,0 0,-1 1,-1 0,0 0,1 0,1l-1 0zm1 0l0 0 -1 0 0 0 0 0 1 0zm-1 0c0,-1 0,-1 1,-1 0,0 0,0 0,1l-1 0zm1 -1l0 1 -1 0 0 -1 0 0 1 0zm-1 0c0,0 1,-1 1,-1 0,0 0,1 0,1l-1 0zm1 0l0 0 -1 0 0 -1 0 0 1 1zm-1 -1c0,0 1,0 1,0 0,0 0,0 0,1l-1 -1zm1 0l0 1 -1 -1 1 -1 0 0 0 1zm0 -1c0,0 0,0 0,0 0,0 1,0 0,1l0 -1zm1 -1l-1 2 0 -1 0 -1 1 0zm-1 0c0,0 0,0 0,0 1,0 1,0 1,0l-1 0zm1 -1l0 1 -1 0 0 -1 0 0 1 0zm-1 0c0,0 0,0 1,0 0,0 0,0 0,0l-1 0zm1 0l0 0 -1 0 0 0 1 0 0 0zm-1 0c0,0 0,-1 1,-1 0,1 0,1 0,1l-1 0zm1 -1l0 1 -1 0 0 -1 0 0 1 0zm-1 0c0,0 1,0 1,0 0,0 0,0 0,0l-1 0zm1 0l0 0 -1 0 0 0 1 0 0 0zm-1 0c0,0 1,-1 1,-1 0,0 0,1 0,1l-1 0zm2 -1l-1 1 -1 0 1 -1 0 0 1 0zm-1 0c0,0 0,0 0,0 0,0 1,0 1,0l-1 0zm1 0l0 0 -1 0 0 0 0 0 1 0zm-1 0c0,-1 0,-1 0,-1 1,0 1,1 1,1l-1 0zm1 -1l0 1 -1 0 0 -1 1 0 0 0zm-1 0c0,0 0,0 1,0 0,0 0,0 0,0l-1 0zm1 0l0 0 -1 0 0 -1 0 0 1 1zm-1 -1c0,0 0,0 1,0 0,0 0,0 0,1l-1 -1zm1 0l0 1 -1 -1 0 0 0 0 1 0zm-1 0c0,0 1,0 1,0 0,0 0,0 0,0l-1 0zm1 0l0 0 -1 0 0 -1 1 1 0 0zm-1 -1c1,0 1,0 1,0 0,0 0,0 0,1l-1 -1zm2 0l-1 1 -1 -1 1 0 0 0 1 0zm-1 0c0,0 0,0 0,0 0,0 1,0 1,0l-1 0zm1 0l0 0 -1 0 0 -1 0 0 1 1zm-1 -1c0,0 0,0 0,0 1,0 1,0 1,1l-1 -1zm1 0l0 1 -1 -1 0 0 0 0 1 0zm-1 0c0,-1 0,-1 1,-1 0,0 0,1 0,1l-1 0zm1 0l0 0 -1 0 0 -1 1 1 0 0zm-1 -1c0,0 1,0 1,0 0,0 0,0 0,1l-1 -1zm1 0l0 1 -1 -1 0 0 0 0 1 0zm-1 0c0,-1 1,-1 1,-1 0,0 0,1 0,1l-1 0zm1 0l0 0 -1 0 1 -1 0 0 0 1zm0 -1c0,0 0,0 0,0 0,0 1,0 0,1l0 -1zm1 0l-1 1 0 -1 0 0 0 0 1 0zm-1 0c0,-1 0,-1 0,-1 1,0 1,1 1,1l-1 0zm1 0l0 0 -1 0 0 -1 0 0 1 1zm-1 -1c0,0 0,0 1,0 0,0 0,0 0,1l-1 -1zm1 0l0 1 -1 -1 0 -1 0 0 1 1zm-1 -1c1,0 1,0 1,0 0,0 0,0 0,1l-1 -1zm2 0l-1 1 -1 -1 1 -1 0 0 1 1zm-1 -1c0,0 0,0 1,0 0,0 0,0 0,1l-1 -1zm1 0l0 1 -1 -1 0 -1 0 0 1 1zm-1 -1c0,0 1,0 1,0 0,0 0,0 0,1l-1 -1zm1 0l0 1 -1 -1 1 0 0 0 0 0zm0 0c0,0 0,0 0,0 0,0 1,0 0,0l0 0zm54 25l-54 -24 0 -1 54 24 0 1 0 0zm0 -1c0,0 1,1 0,1 0,0 0,0 0,0l0 -1zm0 1l0 0 0 -1 1 1 0 1 -1 -1zm1 0c0,0 0,0 0,0 0,0 0,1 -1,0l1 0z"/>
     </g>
     <g>
      <polygon class="fil12" points="612,199 583,217 583,217 583,217 582,217 582,216 582,216 582,216 582,216 582,215 581,215 581,215 581,214 581,214 581,214 581,214 580,213 611,199 "/>
      <path id="1" class="fil13" d="M583 217l28 -18 1 0 -29 19 0 0 0 -1zm0 1c0,0 0,0 0,0 -1,0 -1,-1 0,-1l0 1zm0 -1l0 0 0 1 -1 0 1 -1 0 0zm-1 1c0,-1 0,-1 1,-1 0,0 0,0 0,0l-1 1zm1 -1l0 0 -1 1 0 -1 0 0 1 0zm-1 0c0,0 0,0 0,-1 1,0 1,0 1,1l-1 0zm1 -1l0 1 -1 0 0 0 0 0 1 -1zm-1 1c0,0 0,-1 0,-1 0,0 1,0 1,0l-1 1zm1 -1l0 0 -1 1 0 0 0 0 1 -1zm-1 1c0,-1 0,-1 0,-1 0,0 0,0 1,0l-1 1zm1 -1l0 0 -1 1 0 -1 1 0 0 0zm-1 0c0,0 0,0 0,0 0,0 0,0 1,0l-1 0zm0 0l1 0 -1 0 -1 0 0 0 1 0zm-1 0c0,0 0,0 1,-1 0,0 0,0 0,1l-1 0zm1 -1l0 1 -1 0 0 0 0 0 1 -1zm-1 1c0,0 0,-1 0,-1 1,0 1,0 1,0l-1 1zm1 -1l0 0 -1 1 0 0 1 -1 0 0zm-1 1c0,-1 0,-1 0,-1 1,0 1,0 1,0l-1 1zm1 -1l0 0 -1 1 0 -1 0 0 1 0zm-1 0c0,0 0,0 0,0 0,-1 1,0 1,0l-1 0zm1 -1l0 1 -1 0 0 0 1 -1 0 0zm-1 1c0,0 0,-1 0,-1 0,0 0,0 1,0l-1 1zm0 -1l1 0 -1 1 0 0 0 0 0 -1zm0 1c-1,-1 0,-1 0,-1 0,0 0,0 0,0l0 1zm0 -1l0 0 0 1 -1 -1 0 0 1 0zm-1 0c0,0 0,0 1,0 0,0 0,0 0,0l-1 0zm1 0l0 0 -1 0 0 0 0 0 1 0zm-1 0c0,0 0,0 0,-1 1,0 1,0 1,1l-1 0zm1 -1l0 1 -1 0 0 0 1 -1 0 0zm-1 1c0,0 0,-1 0,-1 1,0 1,0 1,0l-1 1zm1 -1l0 0 -1 1 0 -1 0 0 1 0zm-1 0c0,0 0,0 0,0 0,0 1,0 1,0l-1 0zm31 -13l-30 14 -1 -1 31 -14 0 0 0 1zm0 -1c0,0 1,0 1,0 0,0 0,0 -1,1l0 -1zm1 0l-1 1 0 -1 0 0 1 0 0 0zm-1 0c1,-1 1,0 1,0 0,0 0,0 0,0l-1 0z"/>
     </g>
     <g>
      <polygon class="fil14" points="612,199 666,239 665,240 664,241 663,242 663,243 662,244 661,245 660,246 659,247 658,248 657,249 656,250 655,250 612,200 "/>
      <path id="1" class="fil7" d="M666 240l-55 -41 1 0 54 40 0 1 0 0zm0 -1c1,0 1,1 0,1 0,0 0,0 0,0l0 -1zm-1 1l1 -1 0 1 0 1 0 0 -1 -1zm1 1c-1,0 -1,0 -1,0 0,0 0,-1 0,-1l1 1zm-2 0l1 -1 1 1 -1 1 0 0 -1 -1zm1 1c0,0 -1,0 -1,0 0,0 0,-1 0,-1l1 1zm-2 0l1 -1 1 1 -1 1 0 0 -1 -1zm1 1c0,0 -1,0 -1,0 0,0 0,-1 0,-1l1 1zm-2 0l1 -1 1 1 -1 1 0 0 -1 -1zm1 1c0,0 -1,0 -1,0 0,0 0,-1 0,-1l1 1zm-2 0l1 -1 1 1 -1 1 -1 -1 0 0zm1 1c0,0 -1,0 -1,0 0,-1 0,-1 0,-1l1 1zm-2 0l1 -1 1 1 -1 1 0 0 -1 -1zm1 1c0,0 -1,0 -1,0 0,-1 0,-1 0,-1l1 1zm-2 0l1 -1 1 1 -1 1 0 0 -1 -1zm1 1c0,0 -1,0 -1,0 0,-1 0,-1 0,-1l1 1zm-2 0l1 -1 1 1 -1 1 0 0 -1 -1zm1 1c0,0 -1,0 -1,0 0,-1 0,-1 0,-1l1 1zm-2 0l1 -1 1 1 -1 0 0 0 -1 0zm1 0c0,1 -1,1 -1,0 0,0 0,0 0,0l1 0zm-2 1l1 -1 1 0 -1 1 0 0 -1 0zm1 0c0,0 -1,0 -1,0 0,0 0,0 0,0l1 0zm-2 0l1 0 1 0 -1 1 0 0 -1 -1zm1 1c0,0 -1,0 -1,0 0,0 0,-1 0,-1l1 1zm-2 0l1 -1 1 1 -1 1 -1 0 0 -1zm1 1c0,0 0,0 -1,0 0,-1 0,-1 0,-1l1 1zm-43 -52l43 51 -1 1 -42 -51 0 -1 0 0zm0 1c-1,0 -1,-1 0,-1 0,0 0,0 0,0l0 1zm0 -1l0 0 0 1 -1 -1 1 0 0 0zm-1 0c0,0 0,0 0,0 0,-1 1,-1 1,0l-1 0z"/>
     </g>
     <g>
      <path class="fil7" d="M628 195l-16 4 -1 0 17 -5 1 0 -1 1zm0 -1c0,-1 0,0 1,0 0,0 -1,0 -1,1l0 -1zm0 0l0 0 1 0 0 0 0 0 -1 0zm1 0c0,0 0,0 -1,1 0,0 0,0 0,-1l1 0zm-1 0l0 0 1 0 0 0 0 0 -1 0zm1 0c0,0 0,1 -1,1 0,0 0,0 0,-1l1 0zm-1 1l0 -1 1 0 0 0 -1 1 0 0zm1 -1c0,1 0,1 -1,1 0,0 0,0 0,0l1 -1zm-1 1l0 0 1 -1 0 0 0 1 -1 0zm1 -1c0,1 0,1 -1,1 0,0 0,0 0,0l1 -1zm-1 1l0 0 1 0 0 0 -1 0 0 0zm1 0c0,0 0,0 -1,0 0,0 0,0 0,0l1 0zm-1 0l0 0 1 0 0 0 0 0 -1 0zm1 0c0,0 0,0 -1,0 0,1 0,0 0,0l1 0zm-1 0l0 0 1 0 0 0 0 0 -1 0zm1 0c0,0 0,1 0,1 -1,0 -1,0 -1,-1l1 0zm-1 1l0 -1 1 0 0 1 0 0 -1 0zm1 0c0,0 0,0 0,0 -1,0 -1,0 -1,0l1 0zm-1 0l0 0 1 0 0 0 0 0 -1 0zm1 0c0,0 0,0 0,0 -1,1 -1,0 -1,0l1 0zm-1 0l0 0 1 0 0 0 -1 0 0 0zm1 0c0,0 0,1 0,1 -1,0 -1,0 -1,-1l1 0zm-1 0l0 0 1 0 0 0 0 0 -1 0zm1 0c0,1 0,1 0,1 -1,0 -1,0 -1,-1l1 0zm-1 1l0 -1 1 0 0 1 0 0 -1 0zm1 0c0,0 0,0 0,0 -1,0 -1,0 -1,0l1 0zm-1 0l0 0 1 0 0 0 -1 0 0 0zm1 0c0,0 0,0 0,0 -1,0 -1,0 -1,0l1 0zm-1 0l0 0 1 0 0 0 0 0 -1 0zm1 0c0,0 0,0 0,0 0,0 -1,0 -1,0l1 0zm-1 0l0 0 1 0 0 0 -1 0 0 0zm1 0c0,0 0,1 0,1 -1,0 -1,-1 -1,-1l1 0zm-1 0l0 0 1 0 0 0 -1 0 0 0zm1 0c0,0 0,1 0,1 0,0 -1,0 -1,-1l1 0zm-1 0l0 0 1 0 0 0 0 0 -1 0zm1 0c0,1 0,1 0,1 0,0 -1,0 -1,-1l1 0zm-1 1l0 -1 1 0 0 1 -1 0 0 0zm1 0c0,0 0,0 0,0 0,0 -1,0 -1,0l1 0zm-1 0l0 0 1 0 0 0 0 0 -1 0zm1 0c0,0 0,0 0,0 0,0 -1,0 -1,0l1 0zm-1 0l0 0 1 0 0 0 -1 0 0 0zm1 0c0,0 0,0 0,0 0,0 -1,0 -1,0l1 0zm-1 0l0 0 1 0 0 0 0 0 -1 0zm1 0c0,0 0,1 0,1 0,0 -1,-1 -1,-1l1 0zm-1 0l0 0 1 0 0 0 0 0 -1 0zm1 0c0,1 0,1 0,1 0,0 -1,0 -1,-1l1 0zm-1 0l0 0 1 0 0 0 0 0 -1 0zm1 0c0,1 0,1 0,1 0,0 -1,0 -1,-1l1 0zm-1 1l0 -1 1 0 0 1 0 0 -1 0zm1 0c0,0 0,0 0,0 0,0 -1,0 -1,0l1 0zm-1 0l0 0 1 0 0 0 0 0 -1 0zm1 0c0,0 0,0 0,0 0,0 -1,0 -1,0l1 0zm-1 0l0 0 1 0 0 0 0 0 -1 0zm1 0c0,0 0,0 0,0 0,0 -1,0 -1,0l1 0zm-1 0l0 0 1 0 0 0 0 1 -1 -1zm1 0c0,0 0,1 0,1 0,0 -1,-1 -1,-1l1 0zm-17 0l17 0 0 1 -17 0 -1 0 1 -1zm0 1c-1,0 -1,-1 -1,-1 0,0 0,0 1,0l0 1zm0 -1l0 0 -1 1 0 -1 0 0 1 0zm-1 0c0,0 0,0 0,0 0,-1 1,-1 1,0l-1 0z"/>
     </g>
     <g>
      <path class="fil7" d="M631 153l-19 46 -1 0 19 -46 0 0 1 0zm-1 0c0,0 0,0 0,0 1,0 1,0 1,0l-1 0zm1 1l-1 0 0 -1 1 0 0 0 0 1zm0 -1c0,0 1,0 1,1 -1,0 -1,0 -1,0l0 -1zm1 1l-1 0 0 -1 1 0 0 0 0 1zm0 -1c0,0 1,1 0,1 0,0 0,0 0,0l0 -1zm0 1l0 0 0 -1 0 0 0 1 0 0zm0 -1c1,1 1,1 1,1 -1,0 -1,0 -1,0l0 -1zm1 2l-1 -1 0 -1 1 1 0 0 0 1zm0 -1c0,0 0,0 0,0 0,1 0,1 0,1l0 -1zm0 1l0 0 0 -1 0 0 0 1 0 0zm0 -1c0,0 1,0 0,0 0,1 0,1 0,1l0 -1zm1 1l-1 0 0 -1 1 0 0 0 0 1zm0 -1c0,0 0,1 0,1 0,0 0,0 0,0l0 -1zm1 2l-1 -1 0 -1 1 1 0 0 0 1zm0 -1c0,0 0,0 0,0 0,1 0,1 0,1l0 -1zm0 1l0 0 0 -1 1 0 0 0 -1 1zm1 -1c0,0 0,0 0,1 0,0 0,0 -1,0l1 -1zm0 1l-1 0 1 -1 0 0 0 1 0 0zm0 -1c0,0 0,1 0,1 0,0 0,0 0,0l0 -1zm0 1l0 0 0 -1 1 0 0 0 -1 1zm1 -1c0,1 0,1 0,1 0,0 -1,0 -1,0l1 -1zm-1 1l0 0 1 -1 0 1 -1 0 0 0zm1 0c0,0 0,0 0,0 0,1 0,1 -1,0l1 0zm0 1l-1 -1 1 0 1 0 0 0 -1 1zm1 -1c0,0 0,0 0,1 0,0 -1,0 -1,0l1 -1zm-1 1l0 0 1 -1 0 0 -1 1 0 0zm1 -1c0,0 0,1 0,1 0,0 0,0 -1,0l1 -1zm0 1l-1 0 1 -1 1 1 0 0 -1 0zm1 0c0,0 0,0 0,0 0,0 -1,1 -1,0l1 0zm0 1l-1 -1 1 0 0 0 0 0 0 1zm0 -1c1,0 1,0 1,1 0,0 -1,0 -1,0l0 -1zm0 1l0 0 0 -1 1 0 -1 1 0 0zm1 -1c0,0 0,1 0,1 0,0 -1,0 -1,0l1 -1zm0 1l-1 0 1 -1 0 1 0 0 0 0zm0 0c1,0 1,0 0,0 0,0 0,1 0,0l0 0zm0 0l0 0 0 0 0 0 0 0 0 0zm0 0c1,0 1,0 1,0 -1,1 -1,1 -1,0l0 0zm1 1l-1 -1 0 0 1 0 0 0 0 1zm0 -1c1,0 1,1 0,1 0,0 0,0 0,0l0 -1zm1 2l-1 -1 0 -1 1 1 0 1 0 0zm0 -1c0,0 0,0 0,0 0,1 0,1 0,1l0 -1zm0 1l0 0 0 -1 0 0 0 0 0 1zm0 -1c0,0 1,0 0,0 0,1 0,1 0,1l0 -1zm0 1l0 0 0 -1 1 0 0 0 -1 1zm1 -1c0,0 0,1 0,1 0,0 0,0 -1,0l1 -1zm0 1l-1 0 1 -1 0 0 0 1 0 0zm0 -1c0,1 0,1 0,1 0,0 0,0 0,0l0 -1zm0 2l0 -1 0 -1 1 1 0 0 -1 1zm1 -1c0,0 0,0 0,0 0,1 -1,1 -1,1l1 -1zm-1 1l0 0 1 -1 0 0 -1 1 0 0zm1 -1c0,0 0,1 0,1 0,0 -1,0 -1,0l1 -1zm-1 1l0 0 1 -1 0 0 0 1 -1 0zm1 -1c0,0 0,1 0,1 0,0 0,0 -1,0l1 -1zm-33 38l32 -38 1 1 -32 38 -1 -1 0 0zm1 1c0,0 0,0 -1,0 0,0 0,0 0,-1l1 1zm-1 0l0 -1 1 1 0 0 -1 0 0 0zm1 0c0,1 0,1 -1,0 0,0 0,0 0,0l1 0z"/>
     </g>
     <g>
      <path class="fil7" d="M568 148l44 51 -1 0 -44 -50 0 -1 1 0zm-1 1c0,0 0,0 0,-1 0,0 0,0 1,0l-1 1zm2 -1l-1 1 -1 -1 1 0 0 0 1 0zm-1 0c0,-1 0,-1 1,0 0,0 0,0 0,0l-1 0zm2 -1l-1 1 -1 0 1 -1 0 0 1 0zm-1 0c0,-1 1,-1 1,0 0,0 0,0 0,0l-1 0zm2 0l-1 0 -1 0 1 -1 1 1 0 0zm-1 -1c0,0 1,0 1,0 0,0 0,1 0,1l-1 -1zm1 1l0 0 -1 -1 0 0 0 0 1 1zm-1 -1c0,0 1,0 1,0 0,0 0,0 0,1l-1 -1zm2 0l-1 1 -1 -1 1 -1 0 0 1 1zm-1 -1c0,0 1,0 1,0 0,1 0,1 0,1l-1 -1zm1 1l0 0 -1 -1 1 0 0 0 0 1zm0 -1c0,0 0,0 0,0 0,0 0,1 0,1l0 -1zm1 0l-1 1 0 -1 0 0 1 0 0 0zm-1 0c0,-1 1,-1 1,0 0,0 0,0 0,0l-1 0zm1 0l0 0 -1 0 1 -1 0 0 0 1zm0 -1c0,0 0,0 0,0 0,1 0,1 0,1l0 -1zm1 1l-1 0 0 -1 0 0 0 0 1 1zm-1 -1c0,0 1,0 1,0 0,0 0,1 0,1l-1 -1zm2 0l-1 1 -1 -1 1 -1 1 1 0 0zm-1 -1c0,0 1,0 1,0 0,1 0,1 0,1l-1 -1zm1 1l0 0 -1 -1 0 0 0 0 1 1zm-1 -1c0,0 1,0 1,0 0,1 0,1 0,1l-1 -1zm2 1l-1 0 -1 -1 1 0 0 0 1 1zm-1 -1c0,0 1,0 1,0 0,0 0,0 0,1l-1 -1zm1 0l0 1 -1 -1 0 0 1 0 0 0zm-1 0c1,-1 1,-1 1,0 0,0 0,0 0,0l-1 0zm2 0l-1 0 -1 0 2 -1 0 0 0 1zm0 -1c0,0 0,0 0,0 0,0 0,1 0,1l0 -1zm1 0l-1 1 0 -1 1 -1 0 0 0 1zm0 -1c0,0 0,0 0,0 1,1 0,1 0,1l0 -1zm2 0l-2 1 0 -1 1 -1 0 0 1 1zm-1 -1c0,0 1,0 1,1 0,0 0,0 0,0l-1 -1zm1 1l0 0 -1 -1 1 0 0 0 0 1zm0 -1c0,0 1,0 1,0 0,1 0,1 -1,1l0 -1zm1 1l-1 0 0 -1 0 0 1 1 0 0zm-1 -1c1,0 1,0 1,0 0,0 0,1 0,1l-1 -1zm2 0l-1 1 -1 -1 2 -1 0 0 0 1zm0 -1c0,0 0,0 0,1 0,0 0,0 0,0l0 -1zm1 1l-1 0 0 -1 1 0 0 0 0 1zm0 -1c0,0 0,0 0,0 0,0 0,1 0,1l0 -1zm2 0l-2 1 0 -1 1 -1 0 0 1 1zm-1 -1c0,0 1,0 1,0 0,1 0,1 0,1l-1 -1zm1 1l0 0 -1 -1 1 0 0 0 0 1zm0 -1c0,0 1,0 1,0 0,0 0,1 -1,1l0 -1zm1 1l-1 0 0 -1 0 0 0 0 1 1zm-1 -1c1,0 1,0 1,0 0,0 0,1 0,1l-1 -1zm2 0l-1 1 -1 -1 2 -1 0 0 0 1zm0 -1c0,0 0,0 0,1 0,0 0,0 0,0l0 -1zm1 1l-1 0 0 -1 1 0 0 0 0 1zm0 -1c0,0 0,0 1,0 0,0 -1,1 -1,1l0 -1zm2 0l-2 1 0 -1 1 -1 0 0 1 1zm-1 -1c1,0 1,0 1,1 0,0 0,0 0,0l-1 -1zm2 1l-1 0 -1 -1 1 0 0 0 1 1zm-1 -1c1,0 1,0 1,0 0,1 0,1 0,1l-1 -1zm1 1l0 0 -1 -1 1 0 0 0 0 1zm0 -1c0,0 0,0 0,0 0,1 0,1 0,1l0 -1zm1 1l-1 0 0 -1 1 0 0 0 0 1zm0 -1c0,0 0,0 1,0 0,0 -1,1 -1,1l0 -1zm1 0l-1 1 0 -1 1 -1 0 0 0 1zm0 -1c0,0 1,0 1,1 0,0 0,0 -1,0l0 -1zm2 1l-2 0 0 -1 2 0 0 0 0 1zm0 -1c0,0 0,0 0,0 0,1 0,1 0,1l0 -1zm1 1l-1 0 0 -1 1 0 0 0 0 1zm0 -1c0,0 0,0 0,0 0,0 0,1 0,1l0 -1zm0 1l0 0 0 -1 0 0 1 0 -1 1zm0 -1c0,0 1,0 1,0 0,0 0,1 -1,1l0 -1zm15 63l-15 -63 1 0 15 63 -1 1 0 -1zm1 0c0,1 0,1 0,1 -1,0 -1,0 -1,-1l1 0zm-1 1l0 0 1 -1 0 1 -1 0 0 0zm1 0c0,0 0,0 0,1 -1,0 -1,-1 -1,-1l1 0z"/>
     </g>
     <g>
      <path class="fil13" d="M552 209l59 -10 1 1 -60 10 -1 -1 1 0zm0 1c0,0 0,0 -1,-1 0,0 1,0 1,0l0 1zm0 -1l0 0 -1 0 0 0 0 0 1 0zm-1 0c0,0 1,-1 1,-1 0,0 0,1 0,1l-1 0zm1 -1l0 1 -1 0 0 -1 0 0 1 0zm-1 0c0,0 0,0 1,0 0,0 0,0 0,0l-1 0zm1 -1l0 1 -1 0 0 0 0 0 1 -1zm-1 1c0,-1 0,-1 1,-1 0,0 0,0 0,0l-1 1zm1 -1l0 0 -1 1 0 -1 0 0 1 0zm-1 0c0,0 0,0 1,0 0,0 0,0 0,0l-1 0zm1 -1l0 1 -1 0 0 -1 1 0 0 0zm-1 0c0,0 0,0 0,0 1,0 1,0 1,0l-1 0zm1 0l0 0 -1 0 0 0 0 0 1 0zm-1 0c0,0 0,0 0,0 1,0 1,0 1,0l-1 0zm1 -1l0 1 -1 0 0 -1 1 0 0 0zm-1 0c0,0 0,0 0,0 1,0 1,0 1,0l-1 0zm1 0l0 0 -1 0 0 0 0 0 1 0zm-1 0c0,0 0,0 0,-1 1,0 1,1 1,1l-1 0zm1 -1l0 1 -1 0 0 -1 0 0 1 0zm-1 0c0,0 0,-1 0,-1 0,0 1,1 1,1l-1 0zm1 -1l0 1 -1 0 0 -1 0 0 1 0zm-1 0c0,0 0,-1 0,-1 0,0 1,0 1,1l-1 0zm1 -1l0 1 -1 0 0 -1 1 0 0 0zm-1 0c0,-1 0,-1 0,-1 0,0 1,0 1,1l-1 0zm1 -1l0 1 -1 0 0 -1 0 0 1 0zm-1 0c0,0 0,0 0,0 0,0 1,0 1,0l-1 0zm1 0l0 0 -1 0 0 0 0 0 1 0zm-1 0c-1,-1 0,-1 0,-1 0,0 1,0 1,1l-1 0zm1 -1l0 1 -1 0 0 -1 1 0 0 0zm-1 0c0,0 0,0 0,0 0,0 1,0 1,0l-1 0zm0 0l1 0 -1 0 -1 0 0 0 1 0zm-1 0c0,-1 1,-1 1,-1 0,0 0,0 0,1l-1 0zm1 -1l0 1 -1 0 0 -1 0 0 1 0zm-1 0c0,0 1,0 1,0 0,0 0,0 0,0l-1 0zm1 -1l0 1 -1 0 0 -1 0 0 1 0zm-1 0c0,0 1,0 1,0 0,0 0,0 0,0l-1 0zm1 0l0 0 -1 0 0 0 0 0 1 0zm-1 0c0,-1 1,-1 1,-1 0,0 0,0 0,1l-1 0zm1 -1l0 1 -1 0 0 -1 0 0 1 0zm-1 0c0,0 1,0 1,0 0,0 0,0 0,0l-1 0zm2 0l-1 0 -1 0 1 0 0 0 1 0zm-1 0c0,-1 0,-1 0,-1 0,0 1,0 1,1l-1 0zm1 -1l0 1 -1 0 0 -1 1 0 0 0zm-1 0c0,0 0,0 0,0 0,0 1,0 1,0l-1 0zm1 0l0 0 -1 0 0 0 1 0zm-1 0c0,-1 0,-1 0,-1 0,0 1,0 1,1l-1 0zm1 -1l0 1 -1 0 0 -1 1 0 0 0zm-1 0c0,0 0,-1 0,-1 0,0 1,1 1,1l-1 0zm1 0l0 0 -1 0 0 0 0 -1 1 1zm-1 0c0,-1 0,-1 0,-1 0,0 1,0 1,1l-1 0zm1 -1l0 1 -1 -1 0 0 0 0 1 0zm-1 0c0,-1 0,-1 0,-1 1,0 1,1 1,1l-1 0zm1 0l0 0 -1 0 0 -1 1 0 0 1zm-1 -1c0,0 0,0 0,0 1,0 1,0 1,1l-1 -1zm1 0l0 0 -1 0 0 0 0 0 1 0zm-1 0c0,-1 0,-1 0,-1 1,0 1,0 1,1l-1 0zm1 -1l0 1 -1 0 0 -1 0 0 1 0zm-1 0c0,0 0,-1 0,0 1,0 1,0 1,0l-1 0zm1 0l0 0 -1 0 0 0 1 0 0 0zm-1 0c0,-1 0,-1 1,-1 0,0 0,0 0,1l-1 0zm1 -1l0 1 -1 0 0 -1 0 0 1 0zm-1 0c0,0 0,-1 1,-1 0,0 0,1 0,1l-1 0zm1 0l0 0 -1 0 0 0 0 0 1 0zm-1 0c0,-1 0,-1 1,-1 0,0 0,0 0,1l-1 0zm1 -1l0 1 -1 0 0 -1 0 0 1 0zm-1 0c0,0 1,-1 1,-1 0,0 0,1 0,1l-1 0zm1 0l0 0 -1 0 0 -1 0 0 1 1zm-1 -1c0,0 1,0 1,0 0,0 0,0 0,1l-1 -1zm1 0l0 1 -1 -1 1 -1 0 0 0 1zm0 -1c0,0 0,0 0,0 0,0 1,0 0,1l0 -1zm1 -1l-1 2 0 -1 0 -1 1 0zm-1 0c0,0 0,0 0,0 1,0 1,0 1,0l-1 0zm1 -1l0 1 -1 0 0 -1 0 0 1 0zm-1 0c0,0 0,0 1,0 0,0 0,0 0,0l-1 0zm1 0l0 0 -1 0 0 0 1 0 0 0zm-1 0c0,0 0,-1 1,-1 0,1 0,1 0,1l-1 0zm1 -1l0 1 -1 0 0 -1 0 0 1 0zm-1 0c0,0 1,0 1,0 0,0 0,0 0,0l-1 0zm1 0l0 0 -1 0 0 0 1 0 0 0zm-1 0c0,0 1,-1 1,-1 0,0 0,1 0,1l-1 0zm2 -1l-1 1 -1 0 1 -1 0 0 1 0zm-1 0c0,0 0,0 0,0 0,0 1,0 1,0l-1 0zm1 0l0 0 -1 0 0 0 0 0 1 0zm-1 0c0,-1 0,-1 0,-1 1,0 1,1 1,1l-1 0zm1 -1l0 1 -1 0 0 -1 1 0 0 0zm-1 0c0,0 0,0 1,0 0,0 0,0 0,0l-1 0zm1 0l0 0 -1 0 0 -1 0 0 1 1zm-1 -1c0,0 0,0 1,0 0,0 0,0 0,1l-1 -1zm1 0l0 1 -1 -1 0 0 0 0 1 0zm-1 0c0,0 1,0 1,0 0,0 0,0 0,0l-1 0zm1 0l0 0 -1 0 0 -1 1 1 0 0zm-1 -1c1,0 1,0 1,0 0,0 0,0 0,1l-1 -1zm2 0l-1 1 -1 -1 1 0 0 0 1 0zm-1 0c0,0 0,0 0,0 0,0 1,0 1,0l-1 0zm1 0l0 0 -1 0 0 -1 0 0 1 1zm-1 -1c0,0 0,0 0,0 1,0 1,0 1,1l-1 -1zm1 0l0 1 -1 -1 0 0 0 0 1 0zm-1 0c0,-1 0,-1 1,-1 0,0 0,1 0,1l-1 0zm1 0l0 0 -1 0 0 -1 1 1 0 0zm-1 -1c0,0 1,0 1,0 0,0 0,0 0,1l-1 -1zm1 0l0 1 -1 -1 0 0 0 0 1 0zm-1 0c0,-1 1,-1 1,-1 0,0 0,1 0,1l-1 0zm1 0l0 0 -1 0 1 -1 0 0 0 1zm0 -1c0,0 0,0 0,0 0,0 1,0 0,1l0 -1zm1 0l-1 1 0 -1 0 0 0 0 1 0zm-1 0c0,-1 0,-1 0,-1 1,0 1,1 1,1l-1 0zm1 0l0 0 -1 0 0 -1 0 0 1 1zm-1 -1c0,0 0,0 1,0 0,0 0,0 0,1l-1 -1zm1 0l0 1 -1 -1 0 -1 0 0 1 1zm-1 -1c1,0 1,0 1,0 0,0 0,0 0,1l-1 -1zm2 0l-1 1 -1 -1 1 -1 0 0 1 1zm-1 -1c0,0 0,0 1,0 0,0 0,0 0,1l-1 -1zm1 0l0 1 -1 -1 0 -1 0 0 1 1zm-1 -1c0,0 1,0 1,0 0,0 0,0 0,1l-1 -1zm1 0l0 1 -1 -1 1 0 0 0 0 0zm0 0c0,0 0,0 0,0 0,0 1,0 0,0l0 0zm54 25l-54 -24 0 -1 54 24 0 1 0 0zm0 -1c0,0 1,1 0,1 0,0 0,0 0,0l0 -1zm0 1l0 0 0 -1 1 1 0 1 -1 -1zm1 0c0,0 0,0 0,0 0,0 0,1 -1,0l1 0z"/>
     </g>
     <g>
      <path class="fil9" d="M583 217l28 -18 1 0 -29 19 0 0 0 -1zm0 1c0,0 0,0 0,0 -1,0 -1,-1 0,-1l0 1zm0 -1l0 0 0 1 -1 0 1 -1 0 0zm-1 1c0,-1 0,-1 1,-1 0,0 0,0 0,0l-1 1zm1 -1l0 0 -1 1 0 -1 0 0 1 0zm-1 0c0,0 0,0 0,-1 1,0 1,0 1,1l-1 0zm1 -1l0 1 -1 0 0 0 0 0 1 -1zm-1 1c0,0 0,-1 0,-1 0,0 1,0 1,0l-1 1zm1 -1l0 0 -1 1 0 0 0 0 1 -1zm-1 1c0,-1 0,-1 0,-1 0,0 0,0 1,0l-1 1zm1 -1l0 0 -1 1 0 -1 1 0 0 0zm-1 0c0,0 0,0 0,0 0,0 0,0 1,0l-1 0zm0 0l1 0 -1 0 -1 0 0 0 1 0zm-1 0c0,0 0,0 1,-1 0,0 0,0 0,1l-1 0zm1 -1l0 1 -1 0 0 0 0 0 1 -1zm-1 1c0,0 0,-1 0,-1 1,0 1,0 1,0l-1 1zm1 -1l0 0 -1 1 0 0 1 -1 0 0zm-1 1c0,-1 0,-1 0,-1 1,0 1,0 1,0l-1 1zm1 -1l0 0 -1 1 0 -1 0 0 1 0zm-1 0c0,0 0,0 0,0 0,-1 1,0 1,0l-1 0zm1 -1l0 1 -1 0 0 0 1 -1 0 0zm-1 1c0,0 0,-1 0,-1 0,0 0,0 1,0l-1 1zm0 -1l1 0 -1 1 0 0 0 0 0 -1zm0 1c-1,-1 0,-1 0,-1 0,0 0,0 0,0l0 1zm0 -1l0 0 0 1 -1 -1 0 0 1 0zm-1 0c0,0 0,0 1,0 0,0 0,0 0,0l-1 0zm1 0l0 0 -1 0 0 0 0 0 1 0zm-1 0c0,0 0,0 0,-1 1,0 1,0 1,1l-1 0zm1 -1l0 1 -1 0 0 0 1 -1 0 0zm-1 1c0,0 0,-1 0,-1 1,0 1,0 1,0l-1 1zm1 -1l0 0 -1 1 0 -1 0 0 1 0zm-1 0c0,0 0,0 0,0 0,0 1,0 1,0l-1 0zm31 -13l-30 14 -1 -1 31 -14 0 0 0 1zm0 -1c0,0 1,0 1,0 0,0 0,0 -1,1l0 -1zm1 0l-1 1 0 -1 0 0 1 0 0 0zm-1 0c1,-1 1,0 1,0 0,0 0,0 0,0l-1 0z"/>
     </g>
     <g>
      <path class="fil13" d="M666 240l-55 -41 1 0 54 40 0 1 0 0zm0 -1c1,0 1,1 0,1 0,0 0,0 0,0l0 -1zm-1 1l1 -1 0 1 0 1 0 0 -1 -1zm1 1c-1,0 -1,0 -1,0 0,0 0,-1 0,-1l1 1zm-2 0l1 -1 1 1 -1 1 0 0 -1 -1zm1 1c0,0 -1,0 -1,0 0,0 0,-1 0,-1l1 1zm-2 0l1 -1 1 1 -1 1 0 0 -1 -1zm1 1c0,0 -1,0 -1,0 0,0 0,-1 0,-1l1 1zm-2 0l1 -1 1 1 -1 1 0 0 -1 -1zm1 1c0,0 -1,0 -1,0 0,0 0,-1 0,-1l1 1zm-2 0l1 -1 1 1 -1 1 -1 -1 0 0zm1 1c0,0 -1,0 -1,0 0,-1 0,-1 0,-1l1 1zm-2 0l1 -1 1 1 -1 1 0 0 -1 -1zm1 1c0,0 -1,0 -1,0 0,-1 0,-1 0,-1l1 1zm-2 0l1 -1 1 1 -1 1 0 0 -1 -1zm1 1c0,0 -1,0 -1,0 0,-1 0,-1 0,-1l1 1zm-2 0l1 -1 1 1 -1 1 0 0 -1 -1zm1 1c0,0 -1,0 -1,0 0,-1 0,-1 0,-1l1 1zm-2 0l1 -1 1 1 -1 0 0 0 -1 0zm1 0c0,1 -1,1 -1,0 0,0 0,0 0,0l1 0zm-2 1l1 -1 1 0 -1 1 0 0 -1 0zm1 0c0,0 -1,0 -1,0 0,0 0,0 0,0l1 0zm-2 0l1 0 1 0 -1 1 0 0 -1 -1zm1 1c0,0 -1,0 -1,0 0,0 0,-1 0,-1l1 1zm-2 0l1 -1 1 1 -1 1 -1 0 0 -1zm1 1c0,0 0,0 -1,0 0,-1 0,-1 0,-1l1 1zm-43 -52l43 51 -1 1 -42 -51 0 -1 0 0zm0 1c-1,0 -1,-1 0,-1 0,0 0,0 0,0l0 1zm0 -1l0 0 0 1 -1 -1 1 0 0 0zm-1 0c0,0 0,0 0,0 0,-1 1,-1 1,0l-1 0z"/>
     </g>
    </g>
   </g>
  </g>
 </g>
</svg>
