<?xml version="1.0" encoding="UTF-8"?>
<!DOCTYPE svg PUBLIC "-//W3C//DTD SVG 1.1//EN" "http://www.w3.org/Graphics/SVG/1.1/DTD/svg11.dtd">
<!-- Creator: CorelDRAW X7 -->
<svg xmlns="http://www.w3.org/2000/svg" xml:space="preserve" width="1500px" height="600px" version="1.1" style="shape-rendering:geometricPrecision; text-rendering:geometricPrecision; image-rendering:optimizeQuality; fill-rule:evenodd; clip-rule:evenodd"
viewBox="0 0 1022 409"
 xmlns:xlink="http://www.w3.org/1999/xlink">
 <defs>
  <style type="text/css">
   <![CDATA[
    .fil0 {fill:none}
    .fil2 {fill:#02C38E}
    .fil3 {fill:#118675}
    .fil1 {fill:#2E495E}
   ]]>
  </style>
 </defs>
 <g id="Capa_x0020_1">
  <metadata id="CorelCorpID_0Corel-Layer"/>
  <g id="_1816226063376">
   <rect class="fil0" width="1022" height="409"/>
   <path class="fil1" d="M305 146l0 111c0,17 18,17 18,0l0 -89c5,3 61,78 70,89 3,4 7,12 15,12 9,0 10,-8 9,-16l0 -109c0,-16 -17,-19 -17,3l0 88c-11,-7 -73,-101 -82,-103 -10,-2 -13,5 -13,14z"/>
   <path class="fil1" d="M157 165c4,4 24,41 27,46 5,9 26,43 26,48l-106 0c0,-4 32,-60 39,-71 4,-7 9,-19 14,-23zm-9 -19c-3,7 -11,21 -16,29l-31 55c-4,7 -12,20 -15,28 0,11 3,12 9,16l169 0 -43 1c3,-7 3,-3 6,-8 1,-3 1,-6 1,-9 -1,-8 -53,-95 -61,-109 -1,-2 -3,-6 -5,-9 0,0 -2,-3 -2,-4 -4,-4 3,-4 -5,-3 -1,4 -4,10 -7,13z"/>
   <path class="fil2" d="M944 132c-14,4 -24,8 -31,21 -6,15 0,33 7,41 18,16 65,14 66,37 2,23 -32,26 -50,18 -7,-3 -13,-10 -17,-11 -8,-3 -24,8 3,24 43,27 104,-7 79,-50 -14,-23 -58,-18 -69,-35 -13,-20 15,-36 42,-27 8,3 13,9 17,10 13,5 19,-13 -3,-23 -13,-6 -30,-10 -44,-5z"/>
   <path class="fil1" d="M441 147l0 68c0,32 21,56 55,56 35,-1 52,-26 52,-59l0 -68c0,-7 -2,-13 -10,-13 -7,1 -8,8 -8,16 0,19 4,75 -5,89 -6,9 -17,16 -32,16 -37,-2 -32,-42 -32,-62 0,-15 1,-32 0,-47 0,-6 -3,-12 -11,-11 -8,0 -9,7 -9,15z"/>
   <path class="fil1" d="M614 201l-36 49c-5,7 -10,12 -2,19 10,3 12,-2 16,-8 6,-9 30,-42 34,-45 6,5 18,23 23,31 7,9 21,32 30,20 6,-9 -9,-23 -17,-35 -8,-10 -17,-21 -24,-31 3,-6 18,-26 23,-32 9,-11 23,-26 18,-34 -11,-19 -33,32 -52,50 -5,-4 -28,-37 -35,-46 -2,-3 -4,-6 -8,-7 -4,-2 -8,1 -10,3 -6,8 9,24 17,34 8,9 17,21 23,32z"/>
   <path class="fil2" d="M95 274c-6,-4 -9,-5 -9,-16l-63 1c3,-8 40,-71 47,-84l45 -79c2,-2 0,0 3,-2l30 52c3,-3 6,-9 7,-13l1 -3c-8,-14 -15,-26 -23,-40 -11,-21 -21,-20 -32,-1l-89 157c-4,7 -10,15 -4,23 5,7 15,6 25,6 20,-1 42,0 62,-1z"/>
   <path class="fil1" d="M749 215c0,11 0,22 0,33 0,9 -2,21 9,21 13,1 11,-12 11,-22 0,-26 -2,-77 0,-97 11,-1 53,5 44,-14 -4,-8 -66,-5 -83,-5 -7,0 -21,-2 -24,5 -8,18 24,13 42,13 2,19 1,46 1,66z"/>
   <path class="fil3" d="M156 130l-1 3c8,-1 1,-1 5,3 0,1 2,4 2,4 2,3 4,7 5,9 -1,-6 10,-22 13,-25 4,3 75,128 77,135l-29 -1c0,3 0,6 -1,9 -3,5 -3,1 -6,8l43 -1c21,-9 5,-27 -9,-51 -10,-20 -19,-34 -29,-52 -9,-16 -20,-34 -29,-51 -22,-40 -32,6 -41,10z"/>
   <path class="fil2" d="M882 235c2,-17 1,-41 1,-59 0,-20 4,-52 -14,-43 -8,3 -6,15 -6,25 0,22 4,72 -4,84 -10,14 -31,14 -41,1 -14,-17 -28,2 -9,17 31,25 69,3 73,-25z"/>
  </g>
 </g>
</svg>
