<?xml version="1.0" encoding="UTF-8"?>
<!DOCTYPE svg PUBLIC "-//W3C//DTD SVG 1.1//EN" "http://www.w3.org/Graphics/SVG/1.1/DTD/svg11.dtd">
<!-- Creator: CorelDRAW X7 -->
<svg xmlns="http://www.w3.org/2000/svg" xml:space="preserve" width="1452px" height="427px" version="1.1" style="shape-rendering:geometricPrecision; text-rendering:geometricPrecision; image-rendering:optimizeQuality; fill-rule:evenodd; clip-rule:evenodd"
viewBox="0 0 962 283"
 xmlns:xlink="http://www.w3.org/1999/xlink">
 <defs>
  <style type="text/css">
   <![CDATA[
    .fil0 {fill:#2A6787}
    .fil2 {fill:#646464}
    .fil4 {fill:#BEBEBE}
    .fil1 {fill:#E4AF34}
    .fil3 {fill:white}
   ]]>
  </style>
 </defs>
 <g id="Capa_x0020_1">
  <metadata id="CorelCorpID_0Corel-Layer"/>
  <g id="_1816219897728">
   <path class="fil0" d="M98 19c8,-3 15,3 17,9 2,7 -4,14 -9,16 -16,5 -25,-20 -8,-25zm-27 43l71 0 0 9c-29,0 -57,0 -86,0 -21,0 -52,-3 -55,31 -1,11 -1,76 1,84 7,31 39,26 60,26 0,-24 -3,-44 11,-59 15,-17 28,-16 55,-16 18,0 53,3 66,-4 19,-11 18,-27 18,-53 0,-19 3,-52 -6,-64 -15,-18 -28,-15 -56,-15 -19,0 -50,-4 -64,6 -18,13 -15,28 -15,55z"/>
   <path class="fil1" d="M178 239c7,-2 14,4 16,9 2,8 -3,15 -9,16 -16,5 -25,-19 -7,-25zm43 -137c0,17 -11,30 -21,37 -23,15 -82,1 -105,9 -12,4 -24,17 -24,33l0 66c0,19 16,36 35,36l71 0c19,0 35,-17 35,-36l0 -26 -70 0 0 -9 105 0c22,0 36,-13 36,-35l0 -71c0,-20 -15,-35 -36,-35l-26 0 0 31z"/>
   <path class="fil2" d="M317 102c12,-7 33,-15 46,-5 21,15 26,106 -26,92 -6,-2 -18,-7 -20,-10l0 -77zm-20 1c0,48 -1,108 0,154l19 7 1 -70c12,4 15,10 36,10 61,0 61,-108 14,-123 -27,-8 -70,10 -70,22z"/>
   <path class="fil2" d="M422 86c0,17 0,34 0,51 0,15 -2,37 5,48 5,10 17,19 34,19 23,0 36,-8 42,-9 1,38 -5,52 -49,56l3 12c18,0 35,-5 47,-14 13,-9 17,-23 18,-44 1,-29 0,-90 0,-122l-20 -1 0 98c-11,4 -17,12 -34,10 -33,-3 -26,-36 -26,-65 0,-11 1,-37 0,-46l-20 7z"/>
   <path class="fil2" d="M623 18l0 184 20 0 0 -93c15,-9 47,-29 56,5 4,13 1,70 1,88l20 0c0,-18 0,-35 0,-52 0,-16 2,-37 -4,-50 -5,-11 -16,-19 -33,-19 -18,1 -28,7 -40,14l0 -83 -20 6z"/>
   <path class="fil2" d="M787 94c26,-6 38,19 39,42 1,21 -3,51 -28,55 -26,4 -36,-19 -38,-42 -2,-27 4,-51 27,-55zm-49 45c0,88 110,86 110,1 0,-33 -21,-61 -56,-61 -32,0 -54,28 -54,60z"/>
   <path class="fil2" d="M866 100l0 102 19 0c0,-26 0,-78 1,-101 28,-16 56,-9 56,19l0 82 20 0 0 -91c0,-34 -44,-37 -73,-26 -6,3 -21,10 -23,15z"/>
   <path class="fil2" d="M558 82c-1,0 -1,0 -1,0l-13 1 1 12 13 0c0,25 0,50 0,75 0,26 16,34 42,33l0 -10c-26,-1 -23,-14 -23,-37 0,-20 0,-41 0,-61l23 0 0 -12c-6,0 -17,1 -23,-1l0 -38c-1,-2 2,-2 -2,-1l-17 6 0 33z"/>
   <path class="fil3" d="M178 239c-18,6 -9,30 7,25 6,-1 11,-8 9,-16 -2,-5 -9,-11 -16,-9z"/>
   <path class="fil3" d="M98 19c-17,5 -8,30 8,25 5,-2 11,-9 9,-16 -2,-6 -9,-12 -17,-9z"/>
   <path class="fil4" d="M600 83c-4,-2 -17,-1 -22,-1l0 -40c-4,0 -1,0 -3,1 4,-1 1,-1 2,1l0 38c6,2 17,1 23,1z"/>
   <path class="fil4" d="M545 95l-1 -12 13 -1c0,0 0,0 1,0l-14 1c-1,1 -1,0 -1,6 0,0 0,3 0,3 1,3 0,2 2,3z"/>
  </g>
 </g>
</svg>
