<?xml version="1.0" encoding="UTF-8"?>
<!DOCTYPE svg PUBLIC "-//W3C//DTD SVG 1.1//EN" "http://www.w3.org/Graphics/SVG/1.1/DTD/svg11.dtd">
<!-- Creator: CorelDRAW X7 -->
<svg xmlns="http://www.w3.org/2000/svg" xml:space="preserve" width="1500px" height="600px" version="1.1" style="shape-rendering:geometricPrecision; text-rendering:geometricPrecision; image-rendering:optimizeQuality; fill-rule:evenodd; clip-rule:evenodd"
viewBox="0 0 1014 405"
 xmlns:xlink="http://www.w3.org/1999/xlink">
 <defs>
  <style type="text/css">
   <![CDATA[
    .fil0 {fill:none}
    .fil3 {fill:#252E3E}
    .fil1 {fill:#A166FE}
    .fil2 {fill:white}
   ]]>
  </style>
 </defs>
 <g id="Capa_x0020_1">
  <metadata id="CorelCorpID_0Corel-Layer"/>
  <g id="_1816219897408">
   <rect class="fil0" width="1014" height="405"/>
   <path class="fil1" d="M74 152c2,-39 -11,-27 33,-54 12,-8 20,-17 28,-13 5,3 23,17 27,17 4,1 22,-13 27,-16 9,-5 14,2 28,11 9,5 18,11 27,17 7,4 7,5 7,15 0,29 -5,17 22,39 8,6 5,18 5,35 0,25 5,20 -21,39 -12,9 -4,10 -6,33 -1,7 -5,7 -10,10 -9,6 -17,10 -25,15 -5,3 -22,14 -26,14 -7,0 -22,-13 -28,-13 -4,0 -19,12 -25,13 -5,1 -44,-23 -51,-27 -15,-9 -12,-7 -12,-29 0,-9 2,-10 -4,-14 -28,-20 -23,-15 -23,-38 0,-11 -3,-31 4,-37 5,-4 18,-15 23,-17zm-61 -113c-13,4 -11,15 -11,29 0,34 -1,274 1,281 3,12 15,11 28,11 34,0 274,1 281,-1 13,-3 11,-15 11,-29 0,-35 1,-272 -1,-280 -2,-13 -15,-11 -28,-11 -33,0 -275,-1 -281,0z"/>
   <path class="fil2" d="M102 189c0,15 -3,12 -13,19 -4,2 -8,4 -10,8 -1,5 2,9 6,9 6,0 16,-9 21,-12 6,-3 15,5 21,7l0 25c-39,15 -24,29 -12,23 7,-4 35,-20 40,-22l0 42c-13,6 -17,16 -31,4 5,-3 10,-6 15,-9 6,-4 8,-8 2,-14 -8,-1 -9,2 -15,5 -20,11 -15,11 -25,4 -5,-2 -9,-4 -13,-7l1 -18c5,-2 11,-6 16,-9 5,-3 12,-5 11,-12 -2,-14 -23,3 -29,6 -5,-2 -13,-8 -16,-11 -9,-8 -10,-4 -9,-19 2,-5 32,-12 27,-24 -6,-10 -19,4 -28,7l1 -13c6,-3 14,-12 20,-15 24,16 20,12 20,26zm14 -81c14,-7 10,-12 21,-4 5,4 12,8 18,12 1,16 0,33 0,50 0,19 16,13 24,24 4,5 6,12 16,8 6,-1 10,-8 6,-16 -4,-7 -10,-3 -17,-7 -5,-2 -12,-5 -14,-10l0 -49c33,-20 17,-21 47,-2 8,5 19,10 19,16 -3,1 -8,1 -13,1 -31,0 -14,-4 -26,-4 -8,-1 -14,8 -11,16 6,12 20,3 21,2 4,-1 24,0 30,0 0,16 0,13 10,21 5,4 11,9 17,12l0 40c-5,-1 -7,-3 -11,-6 -15,-9 -6,-11 -16,-13 -17,-4 -19,17 -8,21 5,1 11,-2 22,8 -4,7 -13,8 -14,15 -1,7 0,20 -1,28 -6,5 -24,15 -32,20 -22,13 -13,6 -34,-3l0 -26c4,0 10,0 14,0 7,0 4,2 9,3 19,7 20,-26 1,-21 -9,2 2,4 -24,4 -1,-11 0,-23 0,-34 0,-16 -1,-14 -12,-21 -4,-2 -19,-13 -19,0 -1,6 11,13 16,15l0 20c-4,4 -9,6 -14,8 -2,-21 10,-23 -25,-37l0 -22c6,-2 17,-9 22,-11 9,-6 5,-41 3,-42 -1,-3 -7,-5 -10,-1 -4,4 -2,23 -3,31 -2,2 -6,4 -10,6 -11,6 -9,4 -21,-4 -10,-6 -10,-6 -8,-30l13 -8c0,8 0,15 0,23 0,3 -1,6 2,8 3,2 6,2 9,0 5,-3 3,-32 3,-41zm-42 44c-5,2 -18,13 -23,17 -7,6 -4,26 -4,37 0,23 -5,18 23,38 6,4 4,5 4,14 0,22 -3,20 12,29 7,4 46,28 51,27 6,-1 21,-13 25,-13 6,0 21,13 28,13 4,0 21,-11 26,-14 8,-5 16,-9 25,-15 5,-3 9,-3 10,-10 2,-23 -6,-24 6,-33 26,-19 21,-14 21,-39 0,-17 3,-29 -5,-35 -27,-22 -22,-10 -22,-39 0,-10 0,-11 -7,-15 -9,-6 -18,-12 -27,-17 -14,-9 -19,-16 -28,-11 -5,3 -23,17 -27,16 -4,0 -22,-14 -27,-17 -8,-4 -16,5 -28,13 -44,27 -31,15 -33,54z"/>
   <path class="fil1" d="M116 108c0,9 2,38 -3,41 -3,2 -6,2 -9,0 -3,-2 -2,-5 -2,-8 0,-8 0,-15 0,-23l-13 8c-2,24 -2,24 8,30 12,8 10,10 21,4 4,-2 8,-4 10,-6 1,-8 -1,-27 3,-31 3,-4 9,-2 10,1 2,1 6,36 -3,42 -5,2 -16,9 -22,11l0 22c35,14 23,16 25,37 5,-2 10,-4 14,-8l0 -20c-5,-2 -17,-9 -16,-15 0,-13 15,-2 19,0 11,7 12,5 12,21 0,11 -1,23 0,34 26,0 15,-2 24,-4 19,-5 18,28 -1,21 -5,-1 -2,-3 -9,-3 -4,0 -10,0 -14,0l0 26c21,9 12,16 34,3 8,-5 26,-15 32,-20 1,-8 0,-21 1,-28 1,-7 10,-8 14,-15 -11,-10 -17,-7 -22,-8 -11,-4 -9,-25 8,-21 10,2 1,4 16,13 4,3 6,5 11,6l0 -40c-6,-3 -12,-8 -17,-12 -10,-8 -10,-5 -10,-21 -6,0 -26,-1 -30,0 -1,1 -15,10 -21,-2 -3,-8 3,-17 11,-16 12,0 -5,4 26,4 5,0 10,0 13,-1 0,-6 -11,-11 -19,-16 -30,-19 -14,-18 -47,2l0 49c2,5 9,8 14,10 7,4 13,0 17,7 4,8 0,15 -6,16 -10,4 -12,-3 -16,-8 -8,-11 -24,-5 -24,-24 0,-17 1,-34 0,-50 -6,-4 -13,-8 -18,-12 -11,-8 -7,-3 -21,4z"/>
   <path class="fil1" d="M62 178l-1 13c9,-3 22,-17 28,-7 5,12 -25,19 -27,24 -1,15 0,11 9,19 3,3 11,9 16,11 6,-3 27,-20 29,-6 1,7 -6,9 -11,12 -5,3 -11,7 -16,9l-1 18c4,3 8,5 13,7 10,7 5,7 25,-4 6,-3 7,-6 15,-5 6,6 4,10 -2,14 -5,3 -10,6 -15,9 14,12 18,2 31,-4l0 -42c-5,2 -33,18 -40,22 -12,6 -27,-8 12,-23l0 -25c-6,-2 -15,-10 -21,-7 -5,3 -15,12 -21,12 -4,0 -7,-4 -6,-9 2,-4 6,-6 10,-8 10,-7 13,-4 13,-19 0,-14 4,-10 -20,-26 -6,3 -14,12 -20,15z"/>
   <path class="fil3" d="M649 328l17 0 0 -60 20 38 17 0c4,-8 17,-32 19,-38l1 60 17 0 0 -89 -22 0 -22 47c-1,1 -1,2 -2,3l-23 -50 -22 0 0 89z"/>
   <path class="fil3" d="M537 93c-2,-1 -1,0 -2,-2 -1,0 -1,-1 -1,-1l-16 -3 0 66 19 0 0 -50c8,-3 12,-4 20,-2 4,11 2,37 2,52l18 0 0 -50c27,-7 21,-4 22,50l19 0c0,-11 2,-49 -1,-57 -7,-18 -30,-8 -43,-3 -10,-14 -30,-7 -37,0z"/>
   <path class="fil3" d="M540 277l1 32c-15,7 -24,3 -25,-15 0,-18 7,-23 24,-17zm0 44c4,30 -20,19 -37,18l0 11c20,10 46,8 54,-12 5,-12 3,-60 3,-76l-13 0c-8,2 1,1 -6,5 -9,-11 -43,-13 -43,26 -1,27 20,43 42,28z"/>
   <path class="fil3" d="M467 83l11 36 -22 0 11 -36zm-42 70l21 0 6 -20 29 0 8 20 15 0 5 0 -31 -89 -22 0 -31 89z"/>
   <path class="fil3" d="M354 311l0 14c13,7 36,7 48,0 18,-9 17,-30 9,-39 -10,-10 -33,-13 -37,-19 -6,-9 2,-14 11,-15 10,-1 17,3 25,3l0 -14c-55,-19 -69,25 -49,41 14,11 34,9 35,20 3,20 -31,11 -42,9z"/>
   <path class="fil3" d="M865 292c5,-3 25,-25 27,-30l-22 0c-8,9 -15,19 -23,28l0 -57 -18 0 0 95 18 0 0 -29c32,33 12,29 47,29 -7,-10 -25,-27 -29,-36z"/>
   <path class="fil3" d="M791 103c20,-16 27,27 14,35 -18,13 -25,-19 -18,-31 3,-4 3,-3 4,-4zm-25 26c3,18 19,30 41,25 18,-4 27,-20 23,-42 -6,-40 -72,-37 -64,17z"/>
   <path class="fil3" d="M865 104c29,-16 23,12 23,49l19 0c-1,-12 1,-49 -2,-57 -7,-17 -32,-10 -42,-2 -3,-7 2,-7 -17,-7l0 66 19 0 0 -49z"/>
   <path class="fil3" d="M465 301l0 11c-24,17 -34,-17 0,-11zm-34 -35l0 11c18,0 34,-13 35,13 -12,0 -17,-3 -28,2 -26,12 -7,54 28,31 4,5 -2,5 17,5 0,-13 2,-49 -3,-59 -7,-12 -35,-10 -49,-3z"/>
   <path class="fil3" d="M671 126l0 11c-24,17 -34,-17 0,-11zm-35 -35l0 12c27,-3 35,-11 35,12 -8,0 -41,-6 -39,23 2,21 24,20 39,10 4,6 -2,5 17,5 1,-13 2,-49 -3,-58 -6,-13 -35,-11 -49,-4z"/>
   <path class="fil3" d="M793 312c-26,16 -33,-17 0,-11l0 11zm-34 -46l0 11c13,0 17,-5 32,-1 2,5 2,7 2,15 -19,-2 -40,-2 -39,20 1,23 25,22 40,12 3,5 -3,5 17,5 0,-13 2,-49 -3,-59 -7,-12 -35,-11 -49,-3z"/>
   <path class="fil3" d="M591 288c1,-8 5,-14 13,-15 10,-1 12,6 13,15l-26 0zm41 11c1,-18 -1,-34 -18,-38 -19,-4 -33,5 -38,18 -9,26 3,63 55,46l0 -12c-15,2 -40,8 -39,-13l40 -1z"/>
   <path class="fil3" d="M913 288c1,-8 4,-14 13,-15 10,-1 12,6 12,15l-25 0zm40 37l0 -12c-15,2 -41,9 -39,-13l39 0c2,-18 1,-34 -16,-39 -19,-4 -34,5 -39,17 -9,24 -1,64 55,47z"/>
   <path class="fil3" d="M722 139c7,-7 13,-15 20,-23 10,-11 14,-9 14,-29l-53 0 0 15 31 -1c-4,7 -14,18 -19,24 -9,11 -14,8 -14,28l56 0 0 -13 -35 -1z"/>
   <path class="fil3" d="M968 274l0 54 19 0 0 -47c10,-3 13,-2 23,-2l0 -17c-15,0 -14,1 -23,9 -3,-3 -3,-4 -3,-9l-16 0 0 12z"/>
  </g>
 </g>
</svg>
