<?xml version="1.0" encoding="UTF-8"?>
<!DOCTYPE svg PUBLIC "-//W3C//DTD SVG 1.1//EN" "http://www.w3.org/Graphics/SVG/1.1/DTD/svg11.dtd">
<!-- Creator: CorelDRAW X7 -->
<svg xmlns="http://www.w3.org/2000/svg" xml:space="preserve" width="1500px" height="600px" version="1.1" style="shape-rendering:geometricPrecision; text-rendering:geometricPrecision; image-rendering:optimizeQuality; fill-rule:evenodd; clip-rule:evenodd"
viewBox="0 0 1077 431"
 xmlns:xlink="http://www.w3.org/1999/xlink">
 <defs>
  <style type="text/css">
   <![CDATA[
    .fil0 {fill:none}
    .fil3 {fill:#010101}
    .fil2 {fill:#3598CD}
    .fil1 {fill:#F89938}
    .fil5 {fill:#FCCFA1}
    .fil4 {fill:#FFFFFE}
   ]]>
  </style>
 </defs>
 <g id="Capa_x0020_1">
  <metadata id="CorelCorpID_0Corel-Layer"/>
  <g id="_1816242142352">
   <rect class="fil0" width="1077" height="431"/>
   <path class="fil1" d="M710 202l6 0 0 33 -6 0 0 -33zm-51 0l5 0 0 33 -5 0 0 -33zm67 0l0 -9 5 0c1,0 1,0 1,0 1,1 0,7 0,9l6 0 0 4 -6 0c0,6 0,11 0,16 0,10 -1,10 6,10l0 4c-10,1 -12,0 -12,-9 0,-7 0,-14 0,-21l-5 0 0 -4 5 0zm-81 22l6 0c1,15 -31,19 -31,-4 -1,-26 32,-22 30,-7l-5 0c-4,-12 -19,-9 -19,6 0,13 11,14 16,11 2,-1 2,-4 3,-6zm-61 1c7,0 6,0 6,2 3,7 16,5 17,1 2,-8 -10,-6 -19,-10 -5,-3 -5,-14 5,-16 8,-2 18,-1 19,9l-6 0c0,0 0,0 0,-1 -1,0 -1,-1 -1,-1 -1,-3 -4,-3 -8,-3 -4,0 -8,3 -5,7 3,4 16,2 20,9 2,3 1,7 -1,10 -4,5 -26,9 -27,-7zm95 -36c1,2 0,17 0,20 0,2 0,5 1,6l0 0 1 0 0 -1 1 0 0 -1 1 0 0 -1 1 0 0 -1 1 0 0 0 1 -1 0 0 1 -1 0 0 0 -1 1 0 0 0 1 -1 0 0 1 -1 0 0 1 -1 0 0 1 0 0 -1 1 0 0 -1 1 0 0 -1 1 0 7 0c-3,3 -11,8 -13,12 2,1 3,3 4,5l11 16 -7 0c-2,-3 -4,-6 -6,-9l-5 -6c0,-1 0,-1 0,-1l-1 -2c-3,2 -6,4 -6,7 0,3 0,7 0,11l-6 0 0 -46 6 0zm31 0l6 0 -1 6c0,1 0,1 -1,1l-4 -1c-1,-1 -1,-5 0,-6zm-51 0l5 0 0 6c-1,1 -4,1 -5,0 -1,-1 -1,-2 -1,-3 0,-1 0,-2 1,-3zm122 149c2,-6 1,-7 7,-19l9 -15c1,0 1,-1 1,-1 -2,0 0,0 -5,2 -3,1 -13,3 -14,4l-10 13c-5,5 -5,5 -11,11 -7,7 -18,15 -26,21 -10,7 -26,10 -32,-2 -3,-6 -3,-13 -3,-20 -1,1 -10,11 -14,15 -5,4 -10,9 -18,12 -10,3 -18,1 -24,-4 -2,-2 -5,-5 -6,-8 -1,-2 -2,-3 -2,-5 -1,-2 -1,-5 -2,-6 -1,1 -3,3 -4,4l-15 11c-21,14 -59,15 -66,-16 -1,1 -2,2 -4,3 -1,1 -2,1 -3,3 -16,13 -46,30 -63,11 -21,-23 6,-88 19,-115 3,-5 6,-11 9,-16 1,-2 6,-3 9,-4l19 -6c14,-5 12,17 11,24 -2,21 -14,42 -29,58 -2,3 -4,5 -6,7l-6 6c-4,4 -3,3 -4,9 0,8 -1,16 2,22 3,6 9,9 18,6 7,-3 11,-6 16,-10l7 -6c1,-1 3,-2 4,-3 1,-1 1,-2 1,-4 2,-18 16,-36 32,-44 33,-19 65,9 32,32 -10,7 -23,10 -37,15 2,19 23,24 38,17 4,-2 20,-14 21,-17 0,-2 0,-4 1,-6 11,-36 62,-62 77,-38l2 2 20 -10c4,-2 5,-1 9,-1 -3,14 -19,50 -17,64 1,7 6,8 13,5 4,-3 8,-7 12,-10 5,-4 11,-10 15,-15 2,-2 4,-4 5,-6 -3,-3 -5,-2 -8,-6 -6,-8 4,-25 9,-29 5,-3 18,-6 21,1 2,8 -3,16 -5,23 10,-1 16,-6 21,-10 3,-4 7,-8 10,-12 3,-6 1,-5 11,-5 0,-1 1,-3 2,-4l5 -13c8,-19 12,-39 14,-58 2,-13 1,-33 -1,-45 -4,-22 -9,-36 -19,-54 -4,-7 -16,-23 -22,-29l-6 -6c-2,-2 -4,-4 -7,-6 -16,-15 -45,-29 -67,-35 -7,-1 -13,-3 -21,-4 -3,-1 -7,-1 -11,-2 -2,0 -4,0 -6,0l-18 -2c-7,0 -31,2 -37,3 -26,3 -44,8 -67,17 -22,7 -53,24 -71,37 -5,4 -16,12 -21,17l-7 5c-6,6 -12,13 -18,19 -6,7 -16,21 -21,29 -16,30 -26,57 -30,91 -1,3 -1,8 -1,11 -1,4 -1,7 -1,11 -1,4 0,8 -1,12 0,3 0,8 0,11 0,3 1,3 1,6 0,30 8,84 30,109 14,16 76,25 101,27 4,0 9,0 12,1l13 0c40,0 60,0 96,-8 13,-2 20,-4 31,-8 18,-5 37,-14 53,-24 3,-1 5,-3 7,-5 9,-5 14,-9 21,-16 2,-2 5,-4 7,-6l12 -12c0,0 0,-1 0,-1 0,0 1,0 1,0z"/>
   <path class="fil2" d="M119 273c0,20 6,42 15,59l7 12c5,7 11,14 17,21 0,1 1,1 2,2 1,1 1,2 2,3 8,7 11,11 21,18 5,3 12,7 18,10 3,1 5,2 7,3l8 3c36,13 89,15 128,3 7,-2 16,-5 20,-10 10,-9 14,-37 16,-50 0,-2 0,-5 1,-7l0 -27c-1,-2 -1,-5 -1,-7 -2,-25 -13,-55 -30,-73l-6 -6c-3,-3 -7,-6 -10,-9 -13,-12 -38,-24 -55,-30 -24,-9 -52,-13 -77,-8 -12,2 -24,6 -34,11 -18,10 -32,25 -40,42 -5,11 -9,25 -9,40z"/>
   <path class="fil3" d="M781 338c-1,5 -1,8 1,11 0,2 1,3 2,5 11,15 34,1 45,-8 2,-2 3,-2 4,-3l8 -7c0,5 0,21 1,24 4,0 21,-4 26,-5 0,-8 0,-27 3,-34 2,-4 5,-7 8,-10 0,0 1,-1 1,-1 5,-5 10,-11 16,-15 2,-2 2,-2 6,-4 2,-1 2,-2 5,-1 2,3 1,6 -1,9 -1,3 -2,5 -3,8l-3 8c-4,10 -11,26 -6,36 9,17 32,7 42,0 3,-2 19,-14 19,-16 1,-2 0,-9 0,-12 -1,1 -17,18 -25,20 -15,2 -3,-22 0,-29 5,-10 17,-35 2,-43 -10,-6 -24,4 -32,10 -2,1 -2,2 -4,3 -6,4 -18,18 -20,18 0,-3 4,-13 5,-16 1,-3 2,-6 3,-8 1,-3 2,-6 4,-9l-27 5c-3,0 -1,0 -2,1 -1,1 -1,2 -2,3 -5,12 -11,23 -14,37 -2,10 0,7 -4,11 -4,3 -13,11 -18,13 -5,1 -9,0 -11,-3 -5,-9 8,-36 12,-45l8 -21 -2 0c-10,0 -8,-1 -11,5 -3,4 -7,8 -10,12 -5,4 -11,9 -21,10 2,-7 7,-15 5,-23 -3,-7 -16,-4 -21,-1 -5,4 -15,21 -9,29 3,4 5,3 8,6 -1,2 -3,4 -5,6 -4,5 -10,11 -15,15 -4,3 -8,7 -12,10 -7,3 -12,2 -13,-5 -2,-14 14,-50 17,-64 -4,0 -5,-1 -9,1l-20 10 -2 -2c-15,-24 -66,2 -77,38 -1,2 -1,4 -1,6 -1,3 -17,15 -21,17 -15,7 -36,2 -38,-17 14,-5 27,-8 37,-15 33,-23 1,-51 -32,-32 -16,8 -30,26 -32,44 0,2 0,3 -1,4 -1,1 -3,2 -4,3l-7 6c-5,4 -9,7 -16,10 -9,3 -15,0 -18,-6 -3,-6 -2,-14 -2,-22 1,-6 0,-5 4,-9l6 -6c2,-2 4,-4 6,-7 15,-16 27,-37 29,-58 1,-7 3,-29 -11,-24l-19 6c-3,1 -8,2 -9,4 -3,5 -6,11 -9,16 -13,27 -40,92 -19,115 17,19 47,2 63,-11 1,-2 2,-2 3,-3 2,-1 3,-2 4,-3 7,31 45,30 66,16l15 -11c1,-1 3,-3 4,-4 1,1 1,4 2,6 0,2 1,3 2,5 1,3 4,6 6,8 6,5 14,7 24,4 8,-3 13,-8 18,-12 4,-4 13,-14 14,-15 0,7 0,14 3,20 6,12 22,9 32,2 8,-6 19,-14 26,-21 6,-6 6,-6 11,-11l10 -13c1,-1 11,-3 14,-4 5,-2 3,-2 5,-2 0,0 0,1 -1,1l-9 15c-6,12 -5,13 -7,19zm-91 -60c9,-2 13,5 13,12 0,8 -2,15 -4,22 -3,6 -6,11 -10,17 -12,17 -28,14 -29,-1 0,-14 12,-46 30,-50zm-118 38c-1,-13 4,-28 14,-35 6,-5 19,-4 15,13 -3,11 -16,19 -29,22zm-69 -22c-1,-1 -1,0 -1,-2l5 -19c2,-7 4,-13 6,-20 1,-3 13,-38 20,-30 7,8 -5,33 -8,40 -4,8 -10,17 -16,24 -2,2 -5,5 -6,7z"/>
   <path class="fil1" d="M690 278c-18,4 -30,36 -30,50 1,15 17,18 29,1 4,-6 7,-11 10,-17 2,-7 4,-14 4,-22 0,-7 -4,-14 -13,-12z"/>
   <path class="fil1" d="M503 294c1,-2 4,-5 6,-7 6,-7 12,-16 16,-24 3,-7 15,-32 8,-40 -7,-8 -19,27 -20,30 -2,7 -4,13 -6,20l-5 19c0,2 0,1 1,2z"/>
   <path class="fil1" d="M572 316c13,-3 26,-11 29,-22 4,-17 -9,-18 -15,-13 -10,7 -15,22 -14,35z"/>
   <path class="fil4" d="M695 202l-1 0 0 1 -1 0 0 1 -1 0 0 1 -1 0 0 0 -1 1 0 0 -1 1 0 0 -1 1 0 0 -1 0 0 1 0 0 -1 1 0 0 -1 1 0 0 -1 0 0 1 -1 0 0 1 -1 0 0 1 -1 0 0 1 -1 0 0 0 -1 1 0 -27 -6 0 0 46 6 0c0,-4 0,-8 0,-11 0,-3 3,-5 6,-7l1 2c0,0 0,0 0,1l5 6c2,3 4,6 6,9l7 0 -11 -16c-1,-2 -2,-4 -4,-5 2,-4 10,-9 13,-12l-7 0z"/>
   <path class="fil4" d="M584 225c1,16 23,12 27,7 2,-3 3,-7 1,-10 -4,-7 -17,-5 -20,-9 -3,-4 1,-7 5,-7 4,0 7,0 8,3 0,0 0,1 1,1 0,1 0,1 0,1l6 0c-1,-10 -11,-11 -19,-9 -10,2 -10,13 -5,16 9,4 21,2 19,10 -1,4 -14,6 -17,-1 0,-2 1,-2 -6,-2z"/>
   <path class="fil4" d="M645 224c-1,2 -1,5 -3,6 -5,3 -16,2 -16,-11 0,-15 15,-18 19,-6l5 0c2,-15 -31,-19 -30,7 0,23 32,19 31,4l-6 0z"/>
   <path class="fil4" d="M726 202l-5 0 0 4 5 0c0,7 0,14 0,21 0,9 2,10 12,9l0 -4c-7,0 -6,0 -6,-10 0,-5 0,-10 0,-16l6 0 0 -4 -6 0 0 -2c0,-1 0,-2 0,-2 0,-2 0,-4 0,-5l-6 0 0 9c0,0 0,0 0,0z"/>
   <polygon class="fil4" points="659,235 664,235 664,202 659,202 "/>
   <polygon class="fil4" points="710,235 716,235 716,202 710,202 "/>
   <polygon class="fil4" points="659,195 664,195 664,189 659,189 "/>
   <polygon class="fil4" points="710,195 715,195 716,189 710,189 "/>
   <path class="fil5" d="M680 215l0 0 1 0 0 -1 1 0 0 -1 1 0 0 -1 1 0 0 -1 1 0 0 0 1 -1 0 0 1 -1 0 0 0 -1 1 0 0 0 1 -1 0 0 1 -1 0 0 1 -1 0 0 1 0 0 -1 1 0 0 -1 1 0 0 -1 1 0 -1 0 0 1 -1 0 0 1 -1 0 0 1 -1 0 0 0 -1 1 0 0 -1 1 0 0 -1 1 0 0 -1 0 0 1 0 0 -1 1 0 0 -1 1 0 0 -1 0 0 1 -1 0 0 1 -1 0 0 1 -1 0 0 1 -1 0 0 0c-1,-1 -1,-4 -1,-6 0,-3 1,-18 0,-20l0 27 1 -1z"/>
   <path class="fil5" d="M726 202c0,0 0,0 0,0l0 -9 6 0c0,1 0,3 0,5 0,0 0,1 0,2l0 2c0,-2 1,-8 0,-9 0,0 0,0 -1,0l-5 0 0 9z"/>
   <path class="fil5" d="M659 195c1,1 4,1 5,0l-5 0 0 -6c-1,1 -1,2 -1,3 0,1 0,2 1,3z"/>
   <path class="fil5" d="M710 195l4 1c1,0 1,0 1,-1l-5 0 0 -6c-1,1 -1,5 0,6z"/>
   <polygon class="fil3" points="952,387 958,387 958,386 952,386 "/>
  </g>
 </g>
</svg>
