<?xml version="1.0" encoding="UTF-8"?>
<!DOCTYPE svg PUBLIC "-//W3C//DTD SVG 1.1//EN" "http://www.w3.org/Graphics/SVG/1.1/DTD/svg11.dtd">
<!-- Creator: CorelDRAW X7 -->
<svg xmlns="http://www.w3.org/2000/svg" xml:space="preserve" width="1500px" height="600px" version="1.1" style="shape-rendering:geometricPrecision; text-rendering:geometricPrecision; image-rendering:optimizeQuality; fill-rule:evenodd; clip-rule:evenodd"
viewBox="0 0 1007 403"
 xmlns:xlink="http://www.w3.org/1999/xlink">
 <defs>
  <style type="text/css">
   <![CDATA[
    .fil0 {fill:none}
    .fil2 {fill:#A6A7A9}
    .fil4 {fill:#EB8C23}
    .fil3 {fill:#EF6639}
    .fil5 {fill:#F6B39D}
    .fil1 {fill:#F6BC3A}
   ]]>
  </style>
 </defs>
 <g id="Capa_x0020_1">
  <metadata id="CorelCorpID_0Corel-Layer"/>
  <g id="_1816219850848">
   <rect class="fil0" width="1007" height="403"/>
   <path class="fil1" d="M13 151c2,1 3,2 5,3l30 17 0 0c2,-1 48,-27 53,-30l26 -15c4,-2 25,-14 26,-14l1 0 1 1 0 0 1 0 61 36c1,0 4,2 5,2 1,-1 2,-1 4,-2l30 -18c0,-1 -2,-1 -5,-3 -5,-3 -15,-9 -21,-12 -1,-1 -2,-1 -4,-2l-11 -7c0,0 0,0 0,0l-4 -2c-2,-1 -5,-2 -7,-4 -1,-1 -1,-1 -2,-1l-32 -18c-2,-1 -3,-2 -4,-3l-12 -6c-2,-1 -2,0 -4,1l-21 11c-2,2 -7,4 -9,6 -2,1 -3,1 -4,2 -1,1 -3,1 -4,2 -7,4 -26,14 -30,17l-8 5c-1,0 -2,1 -4,2 -1,1 -2,1 -4,2 -1,1 -2,2 -3,2l-12 7c-1,1 -2,1 -4,2l-32 18c-1,1 -1,1 -2,1z"/>
   <path class="fil2" d="M908 286l15 0c0,-4 3,-11 4,-15 0,-1 0,-2 0,-2 0,-1 1,-2 1,-2l2 -8c0,-1 1,-3 1,-4 1,-3 1,-5 2,-8 0,-1 1,-2 1,-3 1,-5 3,-9 3,-14l2 -6c0,0 0,0 0,0 0,5 3,10 3,16 1,2 3,9 4,11l2 8c1,5 2,10 4,15l1 6c1,2 1,4 2,6l15 0c0,-2 1,-4 1,-5l3 -9c0,-2 1,-5 2,-8l8 -27c0,-1 0,-2 0,-3 1,-3 2,-5 3,-8 0,-3 2,-8 3,-11l1 -6c1,-3 3,-7 3,-11l-17 0c0,0 0,1 0,2l-3 9c0,1 0,3 -1,4l-3 15c-1,3 -3,9 -3,12 0,1 -1,2 -1,4 -2,6 -2,10 -4,15l-6 -26c-2,-4 -2,-8 -4,-12l-5 -19c0,-1 -1,-2 -1,-4l-14 0c-1,3 -2,5 -2,8l-7 26c-1,1 -1,2 -2,4 0,3 -1,5 -2,7 0,2 0,3 -1,4 0,1 0,3 0,4l-2 8c0,0 0,-1 0,0l-1 -4c-1,-1 -1,-2 -1,-4 0,-1 -1,-3 -1,-4 0,-1 -1,-2 -1,-3 0,-2 0,-3 -1,-4 0,-1 -1,-2 -1,-4 0,-1 0,-2 -1,-4 -1,-4 -2,-8 -3,-13 -1,-4 -2,-9 -3,-13 -1,-3 -1,-5 -2,-8l-17 0c0,2 1,4 1,6l2 8c1,1 1,2 1,3l2 8c0,1 1,2 1,3l2 8c1,0 1,1 1,1 1,4 2,8 3,12 0,1 0,2 1,3l3 11c1,4 2,7 3,11l2 8c0,2 2,5 2,6z"/>
   <path class="fil2" d="M824 242c0,-7 2,-18 8,-23 4,-5 7,-6 14,-6 4,0 8,2 10,3 3,1 5,4 6,6 4,6 5,13 5,20 0,10 -3,20 -11,26 -7,5 -18,4 -24,-2 -2,-2 -4,-6 -5,-8 -1,-3 -1,-2 -1,-5 -1,-2 -2,-8 -2,-11zm-17 0c0,8 1,16 4,22 2,6 6,11 11,15 2,2 4,3 6,5 1,0 2,1 4,1 4,2 6,3 13,3 6,0 13,-1 18,-4 1,-1 2,-1 4,-2 4,-2 9,-8 11,-12l2 -3c2,-6 3,-9 4,-14 2,-11 1,-24 -3,-33 -2,-5 -5,-10 -9,-13 -2,-2 -1,-2 -7,-6 -1,0 -1,0 -1,-1l-6 -2c-7,-2 -9,-1 -16,-1 -3,0 -6,1 -9,1 -3,1 -8,4 -11,6l-4 4c-2,3 -6,9 -7,13 -3,5 -4,14 -4,21z"/>
   <path class="fil3" d="M597 271c-4,0 -9,-1 -12,-3 -3,-3 -2,-2 -5,-5l-1 -2c-2,-3 -3,-7 -4,-10l0 -10c0,-4 0,-11 2,-15 1,-1 1,-1 1,-2 3,-6 10,-11 17,-11 4,0 10,1 13,4 1,1 1,1 2,2 0,0 0,0 0,0 0,0 0,0 0,0l4 5 2 7c1,2 2,6 2,8 0,2 0,2 0,3l-1 6c0,2 0,3 -1,5 0,3 -1,5 -2,7 -1,0 -1,1 -2,2 -3,4 -5,6 -10,8 -2,1 -3,1 -5,1zm-40 -31c0,8 0,10 2,17 1,5 2,7 4,11l3 5c1,1 1,1 1,1 2,3 6,6 8,8 2,1 4,2 7,3 4,1 6,3 13,3 7,0 8,-1 15,-2 2,-1 1,-1 4,-2 5,-3 4,-3 7,-5 4,-4 6,-7 8,-11 2,-2 1,-1 2,-4 1,-1 1,-2 2,-3 1,-4 1,-6 2,-9 1,-8 0,-21 -2,-28 -1,-1 -1,-2 -2,-4l-1 -3c-1,-3 -3,-5 -5,-8 -1,0 -1,0 -1,-1 -2,-3 -8,-7 -12,-8 -9,-4 -10,-3 -20,-3 -6,0 -16,4 -21,8 -1,2 -3,3 -4,5 -5,6 -6,10 -8,17 -1,4 -2,9 -2,13z"/>
   <path class="fil3" d="M349 238c0,-6 0,-11 3,-17 1,-4 2,-5 7,-7 4,-2 14,-3 18,-1 5,2 6,4 8,8 3,3 2,4 3,5l-15 5c-1,0 -2,0 -5,1l-19 6zm-18 1c0,6 0,16 3,22 1,2 2,4 3,7 1,2 3,5 5,7 1,1 1,2 3,3l3 2c2,2 7,5 10,5 4,1 5,2 11,2 5,0 13,-1 18,-3 1,-1 2,-1 3,-2 1,0 1,0 2,-1l2 -2c1,0 1,0 1,0 1,-1 1,-1 2,-1 0,-1 2,-2 2,-3l-2 -3c-1,0 -1,0 -1,-1l-7 -7 -4 2c-1,1 -2,2 -4,3 -3,2 -8,2 -12,2 -3,0 -8,-1 -10,-3l-3 -3c-1,-1 -2,-2 -2,-2 -2,-2 -3,-4 -4,-6 -1,-2 -1,-2 -1,-4l26 -8c1,0 1,0 2,-1 1,0 1,0 2,0l12 -4c4,0 8,-2 11,-3 0,0 1,0 2,0 0,-1 1,-1 2,-1 0,-3 0,-6 -1,-9 -1,-4 -1,-4 -2,-8l-1 -4c-3,-6 -6,-9 -12,-13 -2,-3 -1,-1 -3,-2 -1,-1 -2,-1 -3,-2 -1,0 -2,-1 -4,-1 -7,-2 -14,-2 -22,0 -1,0 -2,0 -3,1 -3,1 -7,3 -8,4 -2,2 -2,1 -4,4 -2,1 -1,1 -3,3 -2,2 -3,4 -4,7 -3,7 -3,6 -4,14 -1,3 -1,6 -1,9z"/>
   <polygon class="fil2" points="702,286 720,286 720,234 753,234 753,217 720,217 720,186 777,186 777,169 702,169 "/>
   <path class="fil3" d="M433 204l-1 1c-1,0 0,1 -1,-1l0 -7 -17 0 0 88 17 0 0 -44c0,-2 0,-5 0,-7l1 -6c0,0 0,0 0,-1 0,-2 3,-8 5,-10 1,-2 2,-3 4,-4 2,0 5,-1 6,-1 5,-1 9,0 13,2 3,3 5,6 6,10 2,8 1,20 1,30 0,10 0,21 0,31l18 0c0,-12 0,-25 0,-38 0,-8 0,-19 -1,-27 -1,-2 -2,-5 -3,-7 0,-1 0,-1 0,-2 -1,-1 -4,-6 -5,-7 0,0 -1,0 -1,-1 -3,-3 -3,-3 -7,-5 -1,0 -2,-1 -3,-1 -3,-1 -10,-2 -13,-2 -6,1 -8,1 -15,5 -1,0 -1,1 -2,2 -1,0 -2,1 -2,2z"/>
   <path class="fil3" d="M260 170l0 16 34 0 0 100 18 0 0 -100 34 0 0 -17 -85 0c-1,0 -1,0 -1,1z"/>
   <path class="fil3" d="M492 221c0,7 2,12 7,17 2,1 1,1 3,2l1 1c0,0 0,0 0,0l21 10c1,0 1,0 2,0 1,1 2,2 3,2 1,0 1,1 2,1 2,1 4,2 5,3 3,3 3,8 0,11 -5,5 -18,5 -24,2 -1,0 -2,0 -3,0 -4,-2 -4,-2 -8,-4l-4 -3c-1,1 -1,2 -2,3l0 1c-2,1 -3,4 -4,6 -1,1 -2,3 -2,4l3 2c1,0 1,1 2,1 3,2 10,5 13,6 10,2 19,3 29,0l4 -1c1,0 3,-1 4,-2 4,-3 4,-2 9,-9 3,-5 3,-18 0,-24 -2,-5 -9,-10 -14,-12 -2,-1 -4,-2 -7,-3 -1,-1 -1,-1 -2,-1 -2,-1 -3,-1 -5,-2l-5 -2c-2,-1 -7,-4 -8,-5 -4,-5 -3,-13 9,-13 5,0 9,1 13,2 1,1 2,1 3,1l3 2c3,1 2,1 4,3 2,-3 3,-5 4,-7l2 -3c1,-1 2,-3 2,-4 -2,-1 -1,-1 -4,-3 -4,-2 -9,-4 -14,-5 -7,-2 -10,-1 -17,-1 -6,0 -15,3 -19,8 -4,4 -6,9 -6,16z"/>
   <path class="fil3" d="M83 310l9 5c1,1 2,2 4,3l17 10c2,1 4,2 5,2l0 -77 30 16c2,0 3,1 5,2l0 -40 -2 -2c-2,-1 -6,-3 -8,-4 -7,-4 -17,-10 -24,-13l0 0 0 -1c-1,0 -1,-3 -1,-4l0 -35 -35 20 0 118z"/>
   <path class="fil4" d="M48 171l0 0 0 0c1,2 1,16 1,20 0,7 0,13 0,20l25 -14c1,-1 1,-1 2,-1l7 -4 0 118 0 -118 35 -20 0 35c0,1 0,4 1,4l0 1 0 0 0 0 0 -1c0,0 0,0 0,0l4 -2c1,-1 3,-2 4,-3 3,-1 6,-3 9,-5l17 -10c0,-10 0,-27 0,-37 0,-1 0,-2 0,-1l1 0 1 0 0 1 1 0 0 0 0 0c0,0 0,0 -1,0l0 -1c-1,0 0,0 -1,0l-1 0c-1,-2 0,-2 0,-5 0,-4 -1,-34 0,-36l1 0 1 1 0 0 1 0 -1 0 0 0 -1 -1 -1 0c-1,0 -22,12 -26,14l-26 15c-5,3 -51,29 -53,30z"/>
   <path class="fil3" d="M660 206l0 -8 -17 0c0,0 0,0 0,1l0 87 17 0 0 -51c0,-3 1,-6 2,-8 1,-5 3,-9 7,-11 4,-3 5,-2 10,-2 3,0 6,0 9,2 1,0 2,0 3,1l4 -17 -2 -1c-4,-3 -11,-2 -16,-2 -3,0 -5,1 -7,2l-8 5c0,0 0,0 0,0 -1,1 -1,1 -2,2z"/>
   <path class="fil2" d="M780 173l0 113 18 0 0 -122c-2,0 -8,4 -9,5 -2,0 -8,4 -9,4z"/>
   <path class="fil4" d="M151 229l2 2 0 40c-2,-1 -3,-2 -5,-2l-30 -16 0 77 7 -3c1,-1 1,-1 2,-1l13 -8c1,-1 3,-2 4,-2l9 -5 0 -40c3,-2 5,-3 8,-5l15 -8c1,-1 1,-1 2,-1l8 -5c0,-1 0,-1 1,-1l0 -40 -23 13c-1,1 -3,2 -4,3 -8,4 -6,3 -9,2z"/>
   <path class="fil3" d="M153 153l1 0c1,0 0,0 1,0l0 1c1,0 1,0 1,0l0 0 31 18c4,2 6,3 10,6 1,0 3,1 4,2 4,1 6,3 8,4 4,2 10,7 13,7l0 -40c-1,0 -4,-2 -5,-2l-61 -36 -1 0 0 0 -1 -1 -1 0c-1,2 0,32 0,36 0,3 -1,3 0,5z"/>
   <path class="fil3" d="M49 211c0,-7 0,-13 0,-20 0,-4 0,-18 -1,-20l0 0 -30 -17c-2,-1 -3,-2 -5,-3l0 39c1,0 1,1 2,1l29 18c2,1 3,2 5,2z"/>
   <path class="fil4" d="M222 151l0 40 8 -4c1,-1 0,0 1,-1 1,0 1,0 2,-1 1,0 1,-1 2,-1l7 -4c1,-1 1,0 2,-1 1,-1 1,-1 2,-2l11 -6c-1,-2 0,-16 0,-20 0,-7 -1,-13 -1,-20l-30 18c-2,1 -3,1 -4,2z"/>
   <path class="fil1" d="M119 211l0 1 0 0c7,3 17,9 24,13 2,1 6,3 8,4 3,1 1,2 9,-2 1,-1 3,-2 4,-3l23 -13 0 40c-1,0 -1,0 -1,1 1,0 1,0 1,-1 1,0 0,1 0,-4l0 -36c-1,-1 -2,-2 -4,-2 -2,-1 -3,-2 -4,-3 -4,-2 -5,-3 -9,-5l-8 -5c-2,-1 -7,-4 -9,-5l-17 10c-3,2 -6,4 -9,5 -1,1 -3,2 -4,3l-4 2c0,0 0,0 0,0z"/>
   <path class="fil5" d="M432 227c0,1 0,1 0,1l-1 6c0,2 0,5 0,7l0 44 -17 0 0 -88 17 0 0 7c1,2 0,1 1,1l1 -1c-1,0 -1,0 -1,0l0 1c0,0 0,0 0,0 0,0 0,0 0,0 0,-9 1,-8 -5,-8 -4,0 -9,0 -13,0 0,27 0,55 0,82 0,2 0,3 0,5 0,2 0,1 4,1l13 0c0,0 0,0 1,0 0,0 0,-1 0,-1l0 -57z"/>
  </g>
 </g>
</svg>
