<?xml version="1.0" encoding="UTF-8"?>
<!DOCTYPE svg PUBLIC "-//W3C//DTD SVG 1.1//EN" "http://www.w3.org/Graphics/SVG/1.1/DTD/svg11.dtd">
<!-- Creator: CorelDRAW X7 -->
<svg xmlns="http://www.w3.org/2000/svg" xml:space="preserve" width="1500px" height="600px" version="1.1" style="shape-rendering:geometricPrecision; text-rendering:geometricPrecision; image-rendering:optimizeQuality; fill-rule:evenodd; clip-rule:evenodd"
viewBox="0 0 1088 435"
 xmlns:xlink="http://www.w3.org/1999/xlink">
 <defs>
  <style type="text/css">
   <![CDATA[
    .fil0 {fill:none}
    .fil3 {fill:#0692F2}
    .fil4 {fill:#2450B2}
    .fil2 {fill:#FBC02D}
    .fil1 {fill:#373435;fill-rule:nonzero}
   ]]>
  </style>
 </defs>
 <g id="Capa_x0020_1">
  <metadata id="CorelCorpID_0Corel-Layer"/>
  <g id="_1816219884320">
   <rect class="fil0" width="1088" height="435"/>
   <path class="fil1" d="M450 305l-67 -173 25 0 45 126c3,10 6,19 9,28 2,-10 5,-19 9,-28l47 -126 23 0 -68 173 -23 0zm181 -41l22 3c-3,13 -10,23 -19,30 -9,7 -21,10 -36,10 -18,0 -33,-5 -43,-16 -11,-12 -16,-28 -16,-48 0,-21 5,-37 16,-49 11,-12 25,-17 42,-17 17,0 30,5 41,17 11,11 16,27 16,48 0,1 0,3 0,6l-94 0c1,13 5,24 12,31 7,7 16,11 26,11 8,0 15,-2 20,-6 6,-4 10,-11 13,-20zm-69 -34l69 0c-1,-10 -3,-18 -8,-24 -6,-8 -15,-12 -26,-12 -10,0 -18,3 -24,10 -7,6 -11,15 -11,26zm114 85l21 3c1,6 3,11 7,14 5,4 12,6 22,6 9,0 17,-2 22,-6 6,-4 9,-9 11,-16 1,-5 2,-14 2,-28 -10,11 -21,17 -35,17 -17,0 -31,-6 -40,-19 -10,-12 -14,-27 -14,-45 0,-11 2,-23 6,-33 5,-10 11,-18 19,-23 8,-6 18,-8 29,-8 15,0 27,6 37,18l0 -16 19 0 0 109c0,19 -2,33 -6,41 -4,8 -10,15 -19,20 -8,4 -19,7 -31,7 -15,0 -27,-4 -37,-10 -9,-7 -13,-17 -13,-31zm18 -75c0,16 3,28 9,36 7,7 15,11 25,11 10,0 18,-4 25,-11 6,-8 9,-19 9,-35 0,-16 -3,-27 -10,-35 -7,-8 -15,-12 -24,-12 -10,0 -18,4 -25,12 -6,7 -9,19 -9,34zm202 49c-7,7 -15,12 -22,14 -8,3 -15,4 -24,4 -14,0 -24,-3 -32,-10 -7,-6 -11,-15 -11,-25 0,-6 2,-12 4,-17 3,-5 7,-9 11,-12 5,-3 10,-6 16,-7 4,-1 10,-2 19,-3 17,-2 30,-5 38,-8 0,-3 0,-4 0,-5 0,-9 -2,-15 -6,-18 -6,-5 -14,-8 -25,-8 -10,0 -17,2 -22,6 -5,3 -8,9 -10,18l-21 -3c2,-9 5,-16 9,-21 5,-6 11,-10 19,-13 8,-3 18,-4 29,-4 10,0 19,1 26,3 6,3 11,6 15,10 3,4 5,9 6,14 1,4 1,11 1,20l0 28c0,20 1,32 2,38 0,5 2,10 5,15l-22 0c-3,-5 -4,-10 -5,-16zm-1 -47c-8,3 -20,6 -35,8 -9,1 -15,3 -19,4 -3,2 -6,4 -8,7 -2,3 -3,6 -3,10 0,6 2,10 6,14 5,4 11,6 19,6 8,0 16,-2 22,-6 7,-3 11,-8 14,-14 3,-5 4,-12 4,-21l0 -8z"/>
   <polygon class="fil2" points="299,163 330,68 369,164 "/>
   <rect class="fil3" transform="matrix(1.21277 -0 0.274526 0.905066 63.7864 67.7583)" width="72.5309" height="319.135"/>
   <rect class="fil4" transform="matrix(1.21277 -0 -0.290099 0.905066 241.669 67.7583)" width="72.5309" height="319.135"/>
  </g>
 </g>
</svg>
