<?xml version="1.0" encoding="UTF-8"?>
<!DOCTYPE svg PUBLIC "-//W3C//DTD SVG 1.1//EN" "http://www.w3.org/Graphics/SVG/1.1/DTD/svg11.dtd">
<!-- Creator: CorelDRAW X7 -->
<svg xmlns="http://www.w3.org/2000/svg" xml:space="preserve" width="400px" height="400px" version="1.1" style="shape-rendering:geometricPrecision; text-rendering:geometricPrecision; image-rendering:optimizeQuality; fill-rule:evenodd; clip-rule:evenodd"
viewBox="0 0 70991 70991"
 xmlns:xlink="http://www.w3.org/1999/xlink">
 <defs>
  <style type="text/css">
   <![CDATA[
    .str0 {stroke:#1E4158;stroke-width:839.31}
    .fil2 {fill:#1E4158}
    .fil7 {fill:#4E4E4E}
    .fil8 {fill:#616161}
    .fil6 {fill:#767677}
    .fil5 {fill:#9E9E9E}
    .fil0 {fill:#EAEBEC}
    .fil4 {fill:#F37726}
    .fil1 {fill:white}
    .fil3 {fill:#A8ADB0}
    .fil9 {fill:#373435;fill-rule:nonzero}
   ]]>
  </style>
 </defs>
 <g id="Capa_x0020_1">
  <metadata id="CorelCorpID_0Corel-Layer"/>
  <g id="_2921197471584">
   <rect class="fil0" width="70991" height="70991"/>
   <path class="fil1 str0" d="M23847 10105l25958 0c1057,0 1923,865 1923,1923l0 37666c0,1058 -866,1923 -1923,1923l-25958 0c-1058,0 -1923,-865 -1923,-1923l0 -36015 0 -1651c0,-1058 865,-1923 1923,-1923z"/>
   <rect class="fil1" x="21441" y="13586" width="2487" height="34212"/>
   <rect class="fil2" x="19263" y="14194" width="5322" height="1064" rx="1064" ry="1064"/>
   <rect class="fil2" x="19263" y="16855" width="5322" height="1064" rx="1064" ry="1064"/>
   <rect class="fil2" x="19263" y="19516" width="5322" height="1064" rx="1064" ry="1064"/>
   <rect class="fil2" x="19263" y="22177" width="5322" height="1064" rx="1064" ry="1064"/>
   <rect class="fil2" x="19263" y="24838" width="5322" height="1064" rx="1064" ry="1064"/>
   <rect class="fil2" x="19263" y="27499" width="5322" height="1064" rx="1064" ry="1064"/>
   <rect class="fil2" x="19263" y="30160" width="5322" height="1064" rx="1064" ry="1064"/>
   <rect class="fil2" x="19263" y="32821" width="5322" height="1064" rx="1064" ry="1064"/>
   <rect class="fil2" x="19263" y="35482" width="5322" height="1064" rx="1064" ry="1064"/>
   <rect class="fil2" x="19263" y="38143" width="5322" height="1064" rx="1064" ry="1064"/>
   <rect class="fil2" x="19263" y="40804" width="5322" height="1064" rx="1064" ry="1064"/>
   <rect class="fil2" x="19263" y="43465" width="5322" height="1064" rx="1064" ry="1064"/>
   <rect class="fil2" x="19263" y="46126" width="5322" height="1064" rx="1064" ry="1064"/>
   <circle class="fil3" cx="28581" cy="12660" r="139"/>
   <circle class="fil3" cx="29626" cy="12660" r="139"/>
   <circle class="fil3" cx="30566" cy="12660" r="139"/>
   <circle class="fil3" cx="25523" cy="12660" r="139"/>
   <circle class="fil3" cx="26588" cy="12660" r="139"/>
   <circle class="fil3" cx="27522" cy="12660" r="139"/>
   <circle class="fil3" cx="28581" cy="14522" r="139"/>
   <circle class="fil3" cx="29626" cy="14522" r="139"/>
   <circle class="fil3" cx="30566" cy="14522" r="139"/>
   <circle class="fil3" cx="25523" cy="14522" r="139"/>
   <circle class="fil3" cx="26588" cy="14522" r="139"/>
   <circle class="fil3" cx="27522" cy="14522" r="139"/>
   <circle class="fil3" cx="34967" cy="12660" r="139"/>
   <circle class="fil3" cx="36013" cy="12660" r="139"/>
   <circle class="fil3" cx="36953" cy="12660" r="139"/>
   <circle class="fil3" cx="31909" cy="12660" r="139"/>
   <circle class="fil3" cx="32975" cy="12660" r="139"/>
   <circle class="fil3" cx="33908" cy="12660" r="139"/>
   <circle class="fil3" cx="34967" cy="14522" r="139"/>
   <circle class="fil3" cx="36013" cy="14522" r="139"/>
   <circle class="fil3" cx="36953" cy="14522" r="139"/>
   <circle class="fil3" cx="31909" cy="14522" r="139"/>
   <circle class="fil3" cx="32975" cy="14522" r="139"/>
   <circle class="fil3" cx="33908" cy="14522" r="139"/>
   <circle class="fil3" cx="41354" cy="12660" r="139"/>
   <circle class="fil3" cx="42399" cy="12660" r="139"/>
   <circle class="fil3" cx="43339" cy="12660" r="139"/>
   <circle class="fil3" cx="38295" cy="12660" r="139"/>
   <circle class="fil3" cx="39361" cy="12660" r="139"/>
   <circle class="fil3" cx="40295" cy="12660" r="139"/>
   <circle class="fil3" cx="41354" cy="14522" r="139"/>
   <circle class="fil3" cx="42399" cy="14522" r="139"/>
   <circle class="fil3" cx="43339" cy="14522" r="139"/>
   <circle class="fil3" cx="38295" cy="14522" r="139"/>
   <circle class="fil3" cx="39361" cy="14522" r="139"/>
   <circle class="fil3" cx="40295" cy="14522" r="139"/>
   <circle class="fil3" cx="47740" cy="12660" r="139"/>
   <circle class="fil3" cx="48786" cy="12660" r="139"/>
   <circle class="fil3" cx="49726" cy="12660" r="139"/>
   <circle class="fil3" cx="44682" cy="12660" r="139"/>
   <circle class="fil3" cx="45748" cy="12660" r="139"/>
   <circle class="fil3" cx="46681" cy="12660" r="139"/>
   <circle class="fil3" cx="47740" cy="14522" r="139"/>
   <circle class="fil3" cx="48786" cy="14522" r="139"/>
   <circle class="fil3" cx="49726" cy="14522" r="139"/>
   <circle class="fil3" cx="44682" cy="14522" r="139"/>
   <circle class="fil3" cx="45748" cy="14522" r="139"/>
   <circle class="fil3" cx="46681" cy="14522" r="139"/>
   <circle class="fil3" cx="28581" cy="16385" r="139"/>
   <circle class="fil3" cx="29626" cy="16385" r="139"/>
   <circle class="fil3" cx="30566" cy="16385" r="139"/>
   <circle class="fil3" cx="25523" cy="16385" r="139"/>
   <circle class="fil3" cx="26588" cy="16385" r="139"/>
   <circle class="fil3" cx="27522" cy="16385" r="139"/>
   <circle class="fil3" cx="28581" cy="18247" r="139"/>
   <circle class="fil3" cx="29626" cy="18247" r="139"/>
   <circle class="fil3" cx="30566" cy="18247" r="139"/>
   <circle class="fil3" cx="25523" cy="18247" r="139"/>
   <circle class="fil3" cx="26588" cy="18247" r="139"/>
   <circle class="fil3" cx="27522" cy="18247" r="139"/>
   <circle class="fil3" cx="34967" cy="16385" r="139"/>
   <circle class="fil3" cx="36013" cy="16385" r="139"/>
   <circle class="fil3" cx="36953" cy="16385" r="139"/>
   <circle class="fil3" cx="31909" cy="16385" r="139"/>
   <circle class="fil3" cx="32975" cy="16385" r="139"/>
   <circle class="fil3" cx="33908" cy="16385" r="139"/>
   <circle class="fil3" cx="34967" cy="18247" r="139"/>
   <circle class="fil3" cx="36013" cy="18247" r="139"/>
   <circle class="fil3" cx="36953" cy="18247" r="139"/>
   <circle class="fil3" cx="31909" cy="18247" r="139"/>
   <circle class="fil3" cx="32975" cy="18247" r="139"/>
   <circle class="fil3" cx="33908" cy="18247" r="139"/>
   <circle class="fil3" cx="41354" cy="16385" r="139"/>
   <circle class="fil3" cx="42399" cy="16385" r="139"/>
   <circle class="fil3" cx="43339" cy="16385" r="139"/>
   <circle class="fil3" cx="38295" cy="16385" r="139"/>
   <circle class="fil3" cx="39361" cy="16385" r="139"/>
   <circle class="fil3" cx="40295" cy="16385" r="139"/>
   <circle class="fil3" cx="41354" cy="18247" r="139"/>
   <circle class="fil3" cx="42399" cy="18247" r="139"/>
   <circle class="fil3" cx="43339" cy="18247" r="139"/>
   <circle class="fil3" cx="38295" cy="18247" r="139"/>
   <circle class="fil3" cx="39361" cy="18247" r="139"/>
   <circle class="fil3" cx="40295" cy="18247" r="139"/>
   <circle class="fil3" cx="47740" cy="16385" r="139"/>
   <circle class="fil3" cx="48786" cy="16385" r="139"/>
   <circle class="fil3" cx="49726" cy="16385" r="139"/>
   <circle class="fil3" cx="44682" cy="16385" r="139"/>
   <circle class="fil3" cx="45748" cy="16385" r="139"/>
   <circle class="fil3" cx="46681" cy="16385" r="139"/>
   <circle class="fil3" cx="47740" cy="18247" r="139"/>
   <circle class="fil3" cx="48786" cy="18247" r="139"/>
   <circle class="fil3" cx="49726" cy="18247" r="139"/>
   <circle class="fil3" cx="44682" cy="18247" r="139"/>
   <circle class="fil3" cx="45748" cy="18247" r="139"/>
   <circle class="fil3" cx="46681" cy="18247" r="139"/>
   <circle class="fil3" cx="28581" cy="20110" r="139"/>
   <circle class="fil3" cx="29626" cy="20110" r="139"/>
   <circle class="fil3" cx="30566" cy="20110" r="139"/>
   <circle class="fil3" cx="25523" cy="20110" r="139"/>
   <circle class="fil3" cx="26588" cy="20110" r="139"/>
   <circle class="fil3" cx="27522" cy="20110" r="139"/>
   <circle class="fil3" cx="28581" cy="21973" r="139"/>
   <circle class="fil3" cx="29626" cy="21973" r="139"/>
   <circle class="fil3" cx="30566" cy="21973" r="139"/>
   <circle class="fil3" cx="25523" cy="21973" r="139"/>
   <circle class="fil3" cx="26588" cy="21973" r="139"/>
   <circle class="fil3" cx="27522" cy="21973" r="139"/>
   <circle class="fil3" cx="34967" cy="20110" r="139"/>
   <circle class="fil3" cx="36013" cy="20110" r="139"/>
   <circle class="fil3" cx="36953" cy="20110" r="139"/>
   <circle class="fil3" cx="31909" cy="20110" r="139"/>
   <circle class="fil3" cx="32975" cy="20110" r="139"/>
   <circle class="fil3" cx="33908" cy="20110" r="139"/>
   <circle class="fil3" cx="34967" cy="21973" r="139"/>
   <circle class="fil3" cx="36013" cy="21973" r="139"/>
   <circle class="fil3" cx="36953" cy="21973" r="139"/>
   <circle class="fil3" cx="31909" cy="21973" r="139"/>
   <circle class="fil3" cx="32975" cy="21973" r="139"/>
   <circle class="fil3" cx="33908" cy="21973" r="139"/>
   <circle class="fil3" cx="41354" cy="20110" r="139"/>
   <circle class="fil3" cx="42399" cy="20110" r="139"/>
   <circle class="fil3" cx="43339" cy="20110" r="139"/>
   <circle class="fil3" cx="38295" cy="20110" r="139"/>
   <circle class="fil3" cx="39361" cy="20110" r="139"/>
   <circle class="fil3" cx="40295" cy="20110" r="139"/>
   <circle class="fil3" cx="41354" cy="21973" r="139"/>
   <circle class="fil3" cx="42399" cy="21973" r="139"/>
   <circle class="fil3" cx="43339" cy="21973" r="139"/>
   <circle class="fil3" cx="38295" cy="21973" r="139"/>
   <circle class="fil3" cx="39361" cy="21973" r="139"/>
   <circle class="fil3" cx="40295" cy="21973" r="139"/>
   <circle class="fil3" cx="47740" cy="20110" r="139"/>
   <circle class="fil3" cx="48786" cy="20110" r="139"/>
   <circle class="fil3" cx="49726" cy="20110" r="139"/>
   <circle class="fil3" cx="44682" cy="20110" r="139"/>
   <circle class="fil3" cx="45748" cy="20110" r="139"/>
   <circle class="fil3" cx="46681" cy="20110" r="139"/>
   <circle class="fil3" cx="47740" cy="21973" r="139"/>
   <circle class="fil3" cx="48786" cy="21973" r="139"/>
   <circle class="fil3" cx="49726" cy="21973" r="139"/>
   <circle class="fil3" cx="44682" cy="21973" r="139"/>
   <circle class="fil3" cx="45748" cy="21973" r="139"/>
   <circle class="fil3" cx="46681" cy="21973" r="139"/>
   <circle class="fil3" cx="28581" cy="23836" r="139"/>
   <circle class="fil3" cx="29626" cy="23836" r="139"/>
   <circle class="fil3" cx="30566" cy="23836" r="139"/>
   <circle class="fil3" cx="25523" cy="23836" r="139"/>
   <circle class="fil3" cx="26588" cy="23836" r="139"/>
   <circle class="fil3" cx="27522" cy="23836" r="139"/>
   <circle class="fil3" cx="28581" cy="25698" r="139"/>
   <circle class="fil3" cx="29626" cy="25698" r="139"/>
   <circle class="fil3" cx="30566" cy="25698" r="139"/>
   <circle class="fil3" cx="25523" cy="25698" r="139"/>
   <circle class="fil3" cx="26588" cy="25698" r="139"/>
   <circle class="fil3" cx="27522" cy="25698" r="139"/>
   <circle class="fil3" cx="34967" cy="23836" r="139"/>
   <circle class="fil3" cx="36013" cy="23836" r="139"/>
   <circle class="fil3" cx="36953" cy="23836" r="139"/>
   <circle class="fil3" cx="31909" cy="23836" r="139"/>
   <circle class="fil3" cx="32975" cy="23836" r="139"/>
   <circle class="fil3" cx="33908" cy="23836" r="139"/>
   <circle class="fil3" cx="34967" cy="25698" r="139"/>
   <circle class="fil3" cx="36013" cy="25698" r="139"/>
   <circle class="fil3" cx="36953" cy="25698" r="139"/>
   <circle class="fil3" cx="31909" cy="25698" r="139"/>
   <circle class="fil3" cx="32975" cy="25698" r="139"/>
   <circle class="fil3" cx="33908" cy="25698" r="139"/>
   <circle class="fil3" cx="41354" cy="23836" r="139"/>
   <circle class="fil3" cx="42399" cy="23836" r="139"/>
   <circle class="fil3" cx="43339" cy="23836" r="139"/>
   <circle class="fil3" cx="38295" cy="23836" r="139"/>
   <circle class="fil3" cx="39361" cy="23836" r="139"/>
   <circle class="fil3" cx="40295" cy="23836" r="139"/>
   <circle class="fil3" cx="41354" cy="25698" r="139"/>
   <circle class="fil3" cx="42399" cy="25698" r="139"/>
   <circle class="fil3" cx="43339" cy="25698" r="139"/>
   <circle class="fil3" cx="38295" cy="25698" r="139"/>
   <circle class="fil3" cx="39361" cy="25698" r="139"/>
   <circle class="fil3" cx="40295" cy="25698" r="139"/>
   <circle class="fil3" cx="47740" cy="23836" r="139"/>
   <circle class="fil3" cx="48786" cy="23836" r="139"/>
   <circle class="fil3" cx="49726" cy="23836" r="139"/>
   <circle class="fil3" cx="44682" cy="23836" r="139"/>
   <circle class="fil3" cx="45748" cy="23836" r="139"/>
   <circle class="fil3" cx="46681" cy="23836" r="139"/>
   <circle class="fil3" cx="47740" cy="25698" r="139"/>
   <circle class="fil3" cx="48786" cy="25698" r="139"/>
   <circle class="fil3" cx="49726" cy="25698" r="139"/>
   <circle class="fil3" cx="44682" cy="25698" r="139"/>
   <circle class="fil3" cx="45748" cy="25698" r="139"/>
   <circle class="fil3" cx="46681" cy="25698" r="139"/>
   <circle class="fil3" cx="28581" cy="27561" r="139"/>
   <circle class="fil3" cx="29626" cy="27561" r="139"/>
   <circle class="fil3" cx="30566" cy="27561" r="139"/>
   <circle class="fil3" cx="25523" cy="27561" r="139"/>
   <circle class="fil3" cx="26588" cy="27561" r="139"/>
   <circle class="fil3" cx="27522" cy="27561" r="139"/>
   <circle class="fil3" cx="28581" cy="29423" r="139"/>
   <circle class="fil3" cx="29626" cy="29423" r="139"/>
   <circle class="fil3" cx="30566" cy="29423" r="139"/>
   <circle class="fil3" cx="25523" cy="29423" r="139"/>
   <circle class="fil3" cx="26588" cy="29423" r="139"/>
   <circle class="fil3" cx="27522" cy="29423" r="139"/>
   <circle class="fil3" cx="34967" cy="27561" r="139"/>
   <circle class="fil3" cx="36013" cy="27561" r="139"/>
   <circle class="fil3" cx="36953" cy="27561" r="139"/>
   <circle class="fil3" cx="31909" cy="27561" r="139"/>
   <circle class="fil3" cx="32975" cy="27561" r="139"/>
   <circle class="fil3" cx="33908" cy="27561" r="139"/>
   <circle class="fil3" cx="34967" cy="29423" r="139"/>
   <circle class="fil3" cx="36013" cy="29423" r="139"/>
   <circle class="fil3" cx="36953" cy="29423" r="139"/>
   <circle class="fil3" cx="31909" cy="29423" r="139"/>
   <circle class="fil3" cx="32975" cy="29423" r="139"/>
   <circle class="fil3" cx="33908" cy="29423" r="139"/>
   <circle class="fil3" cx="41354" cy="27561" r="139"/>
   <circle class="fil3" cx="42399" cy="27561" r="139"/>
   <circle class="fil3" cx="43339" cy="27561" r="139"/>
   <circle class="fil3" cx="38295" cy="27561" r="139"/>
   <circle class="fil3" cx="39361" cy="27561" r="139"/>
   <circle class="fil3" cx="40295" cy="27561" r="139"/>
   <circle class="fil3" cx="41354" cy="29423" r="139"/>
   <circle class="fil3" cx="42399" cy="29423" r="139"/>
   <circle class="fil3" cx="43339" cy="29423" r="139"/>
   <circle class="fil3" cx="38295" cy="29423" r="139"/>
   <circle class="fil3" cx="39361" cy="29423" r="139"/>
   <circle class="fil3" cx="40295" cy="29423" r="139"/>
   <circle class="fil3" cx="47740" cy="27561" r="139"/>
   <circle class="fil3" cx="48786" cy="27561" r="139"/>
   <circle class="fil3" cx="49726" cy="27561" r="139"/>
   <circle class="fil3" cx="44682" cy="27561" r="139"/>
   <circle class="fil3" cx="45748" cy="27561" r="139"/>
   <circle class="fil3" cx="46681" cy="27561" r="139"/>
   <circle class="fil3" cx="47740" cy="29423" r="139"/>
   <circle class="fil3" cx="48786" cy="29423" r="139"/>
   <circle class="fil3" cx="49726" cy="29423" r="139"/>
   <circle class="fil3" cx="44682" cy="29423" r="139"/>
   <circle class="fil3" cx="45748" cy="29423" r="139"/>
   <circle class="fil3" cx="46681" cy="29423" r="139"/>
   <circle class="fil3" cx="28581" cy="31287" r="139"/>
   <circle class="fil3" cx="29626" cy="31287" r="139"/>
   <circle class="fil3" cx="30566" cy="31287" r="139"/>
   <circle class="fil3" cx="25523" cy="31287" r="139"/>
   <circle class="fil3" cx="26588" cy="31287" r="139"/>
   <circle class="fil3" cx="27522" cy="31287" r="139"/>
   <circle class="fil3" cx="28581" cy="33149" r="139"/>
   <circle class="fil3" cx="29626" cy="33149" r="139"/>
   <circle class="fil3" cx="30566" cy="33149" r="139"/>
   <circle class="fil3" cx="25523" cy="33149" r="139"/>
   <circle class="fil3" cx="26588" cy="33149" r="139"/>
   <circle class="fil3" cx="27522" cy="33149" r="139"/>
   <circle class="fil3" cx="34967" cy="31287" r="139"/>
   <circle class="fil3" cx="36013" cy="31287" r="139"/>
   <circle class="fil3" cx="36953" cy="31287" r="139"/>
   <circle class="fil3" cx="31909" cy="31287" r="139"/>
   <circle class="fil3" cx="32975" cy="31287" r="139"/>
   <circle class="fil3" cx="33908" cy="31287" r="139"/>
   <circle class="fil3" cx="34967" cy="33149" r="139"/>
   <circle class="fil3" cx="36013" cy="33149" r="139"/>
   <circle class="fil3" cx="36953" cy="33149" r="139"/>
   <circle class="fil3" cx="31909" cy="33149" r="139"/>
   <circle class="fil3" cx="32975" cy="33149" r="139"/>
   <circle class="fil3" cx="33908" cy="33149" r="139"/>
   <circle class="fil3" cx="41354" cy="31287" r="139"/>
   <circle class="fil3" cx="42399" cy="31287" r="139"/>
   <circle class="fil3" cx="43339" cy="31287" r="139"/>
   <circle class="fil3" cx="38295" cy="31287" r="139"/>
   <circle class="fil3" cx="39361" cy="31287" r="139"/>
   <circle class="fil3" cx="40295" cy="31287" r="139"/>
   <circle class="fil3" cx="41354" cy="33149" r="139"/>
   <circle class="fil3" cx="42399" cy="33149" r="139"/>
   <circle class="fil3" cx="43339" cy="33149" r="139"/>
   <circle class="fil3" cx="38295" cy="33149" r="139"/>
   <circle class="fil3" cx="39361" cy="33149" r="139"/>
   <circle class="fil3" cx="40295" cy="33149" r="139"/>
   <circle class="fil3" cx="47740" cy="31287" r="139"/>
   <circle class="fil3" cx="48786" cy="31287" r="139"/>
   <circle class="fil3" cx="49726" cy="31287" r="139"/>
   <circle class="fil3" cx="44682" cy="31287" r="139"/>
   <circle class="fil3" cx="45748" cy="31287" r="139"/>
   <circle class="fil3" cx="46681" cy="31287" r="139"/>
   <circle class="fil3" cx="47740" cy="33149" r="139"/>
   <circle class="fil3" cx="48786" cy="33149" r="139"/>
   <circle class="fil3" cx="49726" cy="33149" r="139"/>
   <circle class="fil3" cx="44682" cy="33149" r="139"/>
   <circle class="fil3" cx="45748" cy="33149" r="139"/>
   <circle class="fil3" cx="46681" cy="33149" r="139"/>
   <circle class="fil3" cx="28581" cy="35012" r="139"/>
   <circle class="fil3" cx="29626" cy="35012" r="139"/>
   <circle class="fil3" cx="30566" cy="35012" r="139"/>
   <circle class="fil3" cx="25523" cy="35012" r="139"/>
   <circle class="fil3" cx="26588" cy="35012" r="139"/>
   <circle class="fil3" cx="27522" cy="35012" r="139"/>
   <circle class="fil3" cx="28581" cy="36874" r="139"/>
   <circle class="fil3" cx="29626" cy="36874" r="139"/>
   <circle class="fil3" cx="30566" cy="36874" r="139"/>
   <circle class="fil3" cx="25523" cy="36874" r="139"/>
   <circle class="fil3" cx="26588" cy="36874" r="139"/>
   <circle class="fil3" cx="27522" cy="36874" r="139"/>
   <circle class="fil3" cx="34967" cy="35012" r="139"/>
   <circle class="fil3" cx="36013" cy="35012" r="139"/>
   <circle class="fil3" cx="36953" cy="35012" r="139"/>
   <circle class="fil3" cx="31909" cy="35012" r="139"/>
   <circle class="fil3" cx="32975" cy="35012" r="139"/>
   <circle class="fil3" cx="33908" cy="35012" r="139"/>
   <circle class="fil3" cx="34967" cy="36874" r="139"/>
   <circle class="fil3" cx="36013" cy="36874" r="139"/>
   <circle class="fil3" cx="36953" cy="36874" r="139"/>
   <circle class="fil3" cx="31909" cy="36874" r="139"/>
   <circle class="fil3" cx="32975" cy="36874" r="139"/>
   <circle class="fil3" cx="33908" cy="36874" r="139"/>
   <circle class="fil3" cx="41354" cy="35012" r="139"/>
   <circle class="fil3" cx="42399" cy="35012" r="139"/>
   <circle class="fil3" cx="43339" cy="35012" r="139"/>
   <circle class="fil3" cx="38295" cy="35012" r="139"/>
   <circle class="fil3" cx="39361" cy="35012" r="139"/>
   <circle class="fil3" cx="40295" cy="35012" r="139"/>
   <circle class="fil3" cx="41354" cy="36874" r="139"/>
   <circle class="fil3" cx="42399" cy="36874" r="139"/>
   <circle class="fil3" cx="43339" cy="36874" r="139"/>
   <circle class="fil3" cx="38295" cy="36874" r="139"/>
   <circle class="fil3" cx="39361" cy="36874" r="139"/>
   <circle class="fil3" cx="40295" cy="36874" r="139"/>
   <circle class="fil3" cx="47740" cy="35012" r="139"/>
   <circle class="fil3" cx="48786" cy="35012" r="139"/>
   <circle class="fil3" cx="49726" cy="35012" r="139"/>
   <circle class="fil3" cx="44682" cy="35012" r="139"/>
   <circle class="fil3" cx="45748" cy="35012" r="139"/>
   <circle class="fil3" cx="46681" cy="35012" r="139"/>
   <circle class="fil3" cx="47740" cy="36874" r="139"/>
   <circle class="fil3" cx="48786" cy="36874" r="139"/>
   <circle class="fil3" cx="49726" cy="36874" r="139"/>
   <circle class="fil3" cx="44682" cy="36874" r="139"/>
   <circle class="fil3" cx="45748" cy="36874" r="139"/>
   <circle class="fil3" cx="46681" cy="36874" r="139"/>
   <circle class="fil3" cx="28581" cy="38738" r="139"/>
   <circle class="fil3" cx="29626" cy="38738" r="139"/>
   <circle class="fil3" cx="30566" cy="38738" r="139"/>
   <circle class="fil3" cx="25523" cy="38738" r="139"/>
   <circle class="fil3" cx="26588" cy="38738" r="139"/>
   <circle class="fil3" cx="27522" cy="38738" r="139"/>
   <circle class="fil3" cx="28581" cy="40600" r="139"/>
   <circle class="fil3" cx="29626" cy="40600" r="139"/>
   <circle class="fil3" cx="30566" cy="40600" r="139"/>
   <circle class="fil3" cx="25523" cy="40600" r="139"/>
   <circle class="fil3" cx="26588" cy="40600" r="139"/>
   <circle class="fil3" cx="27522" cy="40600" r="139"/>
   <circle class="fil3" cx="34967" cy="38738" r="139"/>
   <circle class="fil3" cx="36013" cy="38738" r="139"/>
   <circle class="fil3" cx="36953" cy="38738" r="139"/>
   <circle class="fil3" cx="31909" cy="38738" r="139"/>
   <circle class="fil3" cx="32975" cy="38738" r="139"/>
   <circle class="fil3" cx="33908" cy="38738" r="139"/>
   <circle class="fil3" cx="34967" cy="40600" r="139"/>
   <circle class="fil3" cx="36013" cy="40600" r="139"/>
   <circle class="fil3" cx="36953" cy="40600" r="139"/>
   <circle class="fil3" cx="31909" cy="40600" r="139"/>
   <circle class="fil3" cx="32975" cy="40600" r="139"/>
   <circle class="fil3" cx="33908" cy="40600" r="139"/>
   <circle class="fil3" cx="41354" cy="38738" r="139"/>
   <circle class="fil3" cx="42399" cy="38738" r="139"/>
   <circle class="fil3" cx="43339" cy="38738" r="139"/>
   <circle class="fil3" cx="38295" cy="38738" r="139"/>
   <circle class="fil3" cx="39361" cy="38738" r="139"/>
   <circle class="fil3" cx="40295" cy="38738" r="139"/>
   <circle class="fil3" cx="41354" cy="40600" r="139"/>
   <circle class="fil3" cx="42399" cy="40600" r="139"/>
   <circle class="fil3" cx="43339" cy="40600" r="139"/>
   <circle class="fil3" cx="38295" cy="40600" r="139"/>
   <circle class="fil3" cx="39361" cy="40600" r="139"/>
   <circle class="fil3" cx="40295" cy="40600" r="139"/>
   <circle class="fil3" cx="47740" cy="38738" r="139"/>
   <circle class="fil3" cx="48786" cy="38738" r="139"/>
   <circle class="fil3" cx="49726" cy="38738" r="139"/>
   <circle class="fil3" cx="44682" cy="38738" r="139"/>
   <circle class="fil3" cx="45748" cy="38738" r="139"/>
   <circle class="fil3" cx="46681" cy="38738" r="139"/>
   <circle class="fil3" cx="47740" cy="40600" r="139"/>
   <circle class="fil3" cx="48786" cy="40600" r="139"/>
   <circle class="fil3" cx="49726" cy="40600" r="139"/>
   <circle class="fil3" cx="44682" cy="40600" r="139"/>
   <circle class="fil3" cx="45748" cy="40600" r="139"/>
   <circle class="fil3" cx="46681" cy="40600" r="139"/>
   <circle class="fil3" cx="28581" cy="42984" r="139"/>
   <circle class="fil3" cx="29626" cy="42984" r="139"/>
   <circle class="fil3" cx="30566" cy="42984" r="139"/>
   <circle class="fil3" cx="25523" cy="42984" r="139"/>
   <circle class="fil3" cx="26588" cy="42984" r="139"/>
   <circle class="fil3" cx="27522" cy="42984" r="139"/>
   <circle class="fil3" cx="28581" cy="44846" r="139"/>
   <circle class="fil3" cx="29626" cy="44846" r="139"/>
   <circle class="fil3" cx="30566" cy="44846" r="139"/>
   <circle class="fil3" cx="25523" cy="44846" r="139"/>
   <circle class="fil3" cx="26588" cy="44846" r="139"/>
   <circle class="fil3" cx="27522" cy="44846" r="139"/>
   <circle class="fil3" cx="34967" cy="42984" r="139"/>
   <circle class="fil3" cx="36013" cy="42984" r="139"/>
   <circle class="fil3" cx="36953" cy="42984" r="139"/>
   <circle class="fil3" cx="31909" cy="42984" r="139"/>
   <circle class="fil3" cx="32975" cy="42984" r="139"/>
   <circle class="fil3" cx="33908" cy="42984" r="139"/>
   <circle class="fil3" cx="34967" cy="44846" r="139"/>
   <circle class="fil3" cx="36013" cy="44846" r="139"/>
   <circle class="fil3" cx="36953" cy="44846" r="139"/>
   <circle class="fil3" cx="31909" cy="44846" r="139"/>
   <circle class="fil3" cx="32975" cy="44846" r="139"/>
   <circle class="fil3" cx="33908" cy="44846" r="139"/>
   <circle class="fil3" cx="41354" cy="42984" r="139"/>
   <circle class="fil3" cx="42399" cy="42984" r="139"/>
   <circle class="fil3" cx="43339" cy="42984" r="139"/>
   <circle class="fil3" cx="38295" cy="42984" r="139"/>
   <circle class="fil3" cx="39361" cy="42984" r="139"/>
   <circle class="fil3" cx="40295" cy="42984" r="139"/>
   <circle class="fil3" cx="41354" cy="44846" r="139"/>
   <circle class="fil3" cx="42399" cy="44846" r="139"/>
   <circle class="fil3" cx="43339" cy="44846" r="139"/>
   <circle class="fil3" cx="38295" cy="44846" r="139"/>
   <circle class="fil3" cx="39361" cy="44846" r="139"/>
   <circle class="fil3" cx="40295" cy="44846" r="139"/>
   <circle class="fil3" cx="47740" cy="42984" r="139"/>
   <circle class="fil3" cx="48786" cy="42984" r="139"/>
   <circle class="fil3" cx="49726" cy="42984" r="139"/>
   <circle class="fil3" cx="44682" cy="42984" r="139"/>
   <circle class="fil3" cx="45748" cy="42984" r="139"/>
   <circle class="fil3" cx="46681" cy="42984" r="139"/>
   <circle class="fil3" cx="47740" cy="44846" r="139"/>
   <circle class="fil3" cx="48786" cy="44846" r="139"/>
   <circle class="fil3" cx="49726" cy="44846" r="139"/>
   <circle class="fil3" cx="44682" cy="44846" r="139"/>
   <circle class="fil3" cx="45748" cy="44846" r="139"/>
   <circle class="fil3" cx="46681" cy="44846" r="139"/>
   <circle class="fil3" cx="28581" cy="46709" r="139"/>
   <circle class="fil3" cx="29626" cy="46709" r="139"/>
   <circle class="fil3" cx="30566" cy="46709" r="139"/>
   <circle class="fil3" cx="25523" cy="46709" r="139"/>
   <circle class="fil3" cx="26588" cy="46709" r="139"/>
   <circle class="fil3" cx="27522" cy="46709" r="139"/>
   <circle class="fil3" cx="28581" cy="48571" r="139"/>
   <circle class="fil3" cx="29626" cy="48571" r="139"/>
   <circle class="fil3" cx="30566" cy="48571" r="139"/>
   <circle class="fil3" cx="25523" cy="48571" r="139"/>
   <circle class="fil3" cx="26588" cy="48571" r="139"/>
   <circle class="fil3" cx="27522" cy="48571" r="139"/>
   <circle class="fil3" cx="34967" cy="46709" r="139"/>
   <circle class="fil3" cx="36013" cy="46709" r="139"/>
   <circle class="fil3" cx="36953" cy="46709" r="139"/>
   <circle class="fil3" cx="31909" cy="46709" r="139"/>
   <circle class="fil3" cx="32975" cy="46709" r="139"/>
   <circle class="fil3" cx="33908" cy="46709" r="139"/>
   <circle class="fil3" cx="34967" cy="48571" r="139"/>
   <circle class="fil3" cx="36013" cy="48571" r="139"/>
   <circle class="fil3" cx="36953" cy="48571" r="139"/>
   <circle class="fil3" cx="31909" cy="48571" r="139"/>
   <circle class="fil3" cx="32975" cy="48571" r="139"/>
   <circle class="fil3" cx="33908" cy="48571" r="139"/>
   <circle class="fil3" cx="41354" cy="46709" r="139"/>
   <circle class="fil3" cx="42399" cy="46709" r="139"/>
   <circle class="fil3" cx="43339" cy="46709" r="139"/>
   <circle class="fil3" cx="38295" cy="46709" r="139"/>
   <circle class="fil3" cx="39361" cy="46709" r="139"/>
   <circle class="fil3" cx="40295" cy="46709" r="139"/>
   <circle class="fil3" cx="41354" cy="48571" r="139"/>
   <circle class="fil3" cx="42399" cy="48571" r="139"/>
   <circle class="fil3" cx="43339" cy="48571" r="139"/>
   <circle class="fil3" cx="38295" cy="48571" r="139"/>
   <circle class="fil3" cx="39361" cy="48571" r="139"/>
   <circle class="fil3" cx="40295" cy="48571" r="139"/>
   <circle class="fil3" cx="47740" cy="46709" r="139"/>
   <circle class="fil3" cx="48786" cy="46709" r="139"/>
   <circle class="fil3" cx="49726" cy="46709" r="139"/>
   <circle class="fil3" cx="44682" cy="46709" r="139"/>
   <circle class="fil3" cx="45748" cy="46709" r="139"/>
   <circle class="fil3" cx="46681" cy="46709" r="139"/>
   <circle class="fil3" cx="47740" cy="48571" r="139"/>
   <circle class="fil3" cx="48786" cy="48571" r="139"/>
   <circle class="fil3" cx="49726" cy="48571" r="139"/>
   <circle class="fil3" cx="44682" cy="48571" r="139"/>
   <circle class="fil3" cx="45748" cy="48571" r="139"/>
   <circle class="fil3" cx="46681" cy="48571" r="139"/>
   <circle class="fil3" cx="28581" cy="49914" r="139"/>
   <circle class="fil3" cx="29626" cy="49914" r="139"/>
   <circle class="fil3" cx="30566" cy="49914" r="139"/>
   <circle class="fil3" cx="25523" cy="49914" r="139"/>
   <circle class="fil3" cx="26588" cy="49914" r="139"/>
   <circle class="fil3" cx="27522" cy="49914" r="139"/>
   <circle class="fil3" cx="34967" cy="49914" r="139"/>
   <circle class="fil3" cx="36013" cy="49914" r="139"/>
   <circle class="fil3" cx="36953" cy="49914" r="139"/>
   <circle class="fil3" cx="31909" cy="49914" r="139"/>
   <circle class="fil3" cx="32975" cy="49914" r="139"/>
   <circle class="fil3" cx="33908" cy="49914" r="139"/>
   <circle class="fil3" cx="41354" cy="49914" r="139"/>
   <circle class="fil3" cx="42399" cy="49914" r="139"/>
   <circle class="fil3" cx="43339" cy="49914" r="139"/>
   <circle class="fil3" cx="38295" cy="49914" r="139"/>
   <circle class="fil3" cx="39361" cy="49914" r="139"/>
   <circle class="fil3" cx="40295" cy="49914" r="139"/>
   <circle class="fil3" cx="47740" cy="49914" r="139"/>
   <circle class="fil3" cx="48786" cy="49914" r="139"/>
   <circle class="fil3" cx="49726" cy="49914" r="139"/>
   <circle class="fil3" cx="44682" cy="49914" r="139"/>
   <circle class="fil3" cx="45748" cy="49914" r="139"/>
   <circle class="fil3" cx="46681" cy="49914" r="139"/>
   <path class="fil4" d="M37151 36418c-3062,0 -6149,-848 -8372,-2694 -225,-186 -648,-674 -805,-779 159,684 959,1952 1344,2471 1615,2173 4522,3899 7599,3899l450 0c3102,0 5964,-1723 7596,-3902 284,-379 1306,-1992 1347,-2486 -1818,2092 -5227,3491 -9159,3491z"/>
   <path class="fil4" d="M27974 26359c1818,-2091 5228,-3491 9159,-3491 2945,0 6271,865 8380,2705 219,191 646,676 797,786 -41,-493 -1064,-2107 -1347,-2485 -549,-733 -1187,-1365 -1913,-1921 -1296,-992 -3419,-1982 -5701,-1982l-396 0c-3115,0 -5988,1702 -7625,3892 -291,391 -1312,1986 -1354,2496z"/>
   <path class="fil5" d="M27992 40593c0,1027 835,1871 1907,1871 971,0 1835,-851 1835,-1817l0 -126c0,-950 -822,-1800 -1871,-1800 -1025,0 -1871,848 -1871,1872z"/>
   <path class="fil6" d="M42819 19306l0 162c0,758 707,1421 1475,1421 816,0 1494,-654 1494,-1511 0,-745 -640,-1458 -1350,-1458l-251 0c-680,0 -1368,703 -1368,1386z"/>
   <path class="fil7" d="M33570 29976l0 -540c0,-484 458,-953 936,-953 595,0 935,567 935,1169 0,1695 -1871,1494 -1871,324zm-54 -1367c-8,-184 -25,-342 -18,-522l-540 0c0,721 18,1515 18,2267 0,250 -45,2249 54,2249l540 0 0 -1727c254,186 231,341 670,445 909,217 1777,-529 1777,-1507l0 -306c0,-734 -550,-1493 -1259,-1493 -683,0 -794,78 -1242,594z"/>
   <path class="fil7" d="M43791 28411l54 0c409,0 773,388 773,809l0 126 -1709 0c0,-463 431,-935 882,-935zm-18 2951l252 0c196,0 953,-116 953,-216 0,-123 -79,-301 -90,-432 -796,382 -1979,153 -1979,-792l0 -108 2195 0c77,0 54,-69 54,-234 0,-1670 -1667,-2034 -2475,-999 -785,1005 -300,2781 1090,2781z"/>
   <path class="fil7" d="M31303 29994c0,442 -336,846 -756,846l-126 0c-453,0 -648,-437 -648,-900l0 -1853 -594 0 0 2015c0,1230 1139,1576 1908,972 74,-58 229,-267 252,-244 58,59 -30,460 90,460 647,0 450,106 449,-666 0,-249 18,-485 18,-756l0 -1799 -593 0 0 1925z"/>
   <path class="fil7" d="M37637 31164c0,337 -700,1033 -1044,1061l134 502c1351,-28 2164,-3505 2709,-4640l-630 0 -817 2497 -922 -2518 -654 3c131,563 1224,2766 1224,3095z"/>
   <path class="fil8" d="M27308 21249l0 126c0,535 508,1026 1044,1026 602,0 1115,-493 1115,-1080 0,-559 -480,-1080 -1025,-1080l-108 0c-521,0 -1026,491 -1026,1008z"/>
   <path class="fil7" d="M40409 27300l-1 769 -504 0 0 450 504 0 0 1691c0,572 150,1134 755,1134 360,0 278,10 630,-72l-23 -450c-502,81 -786,111 -786,-702l0 -1583 791 0c94,0 54,-191 54,-450l-845 0 0 -918 -575 131z"/>
   <path class="fil7" d="M27506 30894c0,738 -118,1295 -846,1295l52 451c518,-1 911,-217 1122,-536 302,-457 266,-702 266,-1372l0 -2681 -594 0 0 2843z"/>
   <path class="fil7" d="M46544 28699c0,-742 117,-630 -486,-630 -72,0 -42,612 -36,756 10,242 -18,478 -18,773 0,558 0,1116 0,1674l594 0 0 -1710c0,-593 295,-1007 881,-1007l126 0 0 -558c-865,0 -922,541 -1061,702z"/>
   <path class="fil9" d="M24930 60852c-87,0 -160,-29 -218,-87 -58,-58 -87,-131 -87,-218l0 -1471c0,-228 -41,-413 -125,-557 -84,-143 -196,-250 -338,-320 -142,-69 -304,-104 -487,-104 -168,0 -319,34 -455,101 -135,68 -243,159 -323,273 -79,113 -119,244 -119,391l-377 0c0,-251 61,-475 182,-672 122,-198 288,-354 500,-470 211,-116 448,-173 711,-173 275,0 521,58 739,176 217,118 388,290 514,517 126,228 188,507 188,838l0 1471c0,87 -29,160 -86,218 -58,58 -131,87 -219,87zm-2457 0c-88,0 -161,-29 -219,-87 -57,-58 -86,-131 -86,-218l0 -2667c0,-92 29,-166 86,-222 58,-56 131,-83 219,-83 91,0 165,27 221,83 56,56 84,130 84,222l0 2667c0,87 -28,160 -84,218 -56,58 -130,87 -221,87zm5256 18c-323,0 -608,-71 -855,-213 -247,-141 -442,-337 -583,-586 -142,-249 -212,-535 -212,-858 0,-327 70,-615 212,-864 141,-249 336,-445 583,-586 247,-142 532,-212 855,-212 319,0 602,70 849,212 247,141 442,337 583,586 142,249 213,537 213,864 0,323 -70,609 -210,858 -139,249 -333,445 -580,586 -247,142 -532,213 -855,213zm0 -539c207,0 391,-47 550,-143 160,-96 284,-227 374,-395 90,-167 135,-361 135,-580 0,-219 -45,-414 -135,-583 -90,-169 -214,-302 -374,-398 -159,-95 -343,-143 -550,-143 -207,0 -391,48 -550,143 -159,96 -285,229 -377,398 -91,169 -137,364 -137,583 0,219 46,413 137,580 92,168 218,299 377,395 159,96 343,143 550,143zm3744 515c-200,0 -379,-51 -539,-153 -159,-101 -285,-240 -376,-415 -92,-176 -138,-373 -138,-592l0 -2853c0,-88 28,-159 84,-215 56,-56 127,-84 215,-84 88,0 160,28 215,84 56,56 84,127 84,215l0 2853c0,159 44,293 132,400 87,108 195,162 323,162l203 0c72,0 133,28 182,83 50,56 75,128 75,216 0,87 -33,159 -99,215 -65,56 -150,84 -254,84l-107 0zm-1328 -2638c-84,0 -151,-24 -203,-71 -52,-48 -78,-108 -78,-180 0,-79 26,-143 78,-191 52,-48 119,-72 203,-72l1381 0c84,0 152,24 204,72 52,48 77,112 77,191 0,72 -25,132 -77,180 -52,47 -120,71 -204,71l-1381 0zm4072 2662c-330,0 -624,-71 -882,-213 -257,-141 -458,-337 -604,-586 -145,-249 -218,-535 -218,-858 0,-327 69,-615 206,-864 138,-249 328,-445 571,-586 244,-142 523,-212 838,-212 311,0 578,68 801,206 223,138 394,327 511,568 118,241 177,519 177,834 0,76 -26,139 -78,189 -52,49 -118,74 -197,74l-2410 0 0 -478 2392 0 -245 167c-4,-199 -44,-377 -120,-535 -76,-157 -183,-282 -323,-374 -139,-91 -309,-137 -508,-137 -227,0 -422,50 -583,149 -162,100 -284,237 -368,410 -84,173 -126,370 -126,589 0,219 50,415 150,586 100,172 237,307 412,407 176,99 377,149 604,149 124,0 251,-23 380,-69 130,-45 234,-98 314,-158 60,-44 125,-67 194,-69 70,-2 131,19 183,63 68,60 104,126 107,197 4,72 -27,134 -95,186 -136,107 -304,195 -505,263 -202,68 -394,102 -578,102zm3822 0c-311,0 -590,-73 -838,-219 -247,-145 -442,-344 -586,-595 -143,-251 -217,-534 -221,-849l0 -2727c0,-91 29,-165 87,-221 58,-56 130,-84 218,-84 92,0 166,28 221,84 56,56 84,130 84,221l0 1615c140,-168 308,-300 505,-398 198,-98 414,-146 649,-146 291,0 552,72 784,218 231,145 413,343 547,592 133,249 200,531 200,846 0,315 -73,598 -218,849 -146,251 -342,450 -589,595 -247,146 -528,219 -843,219zm0 -539c203,0 384,-48 544,-146 159,-98 286,-232 380,-404 93,-171 140,-363 140,-574 0,-215 -47,-407 -140,-574 -94,-167 -221,-300 -380,-398 -160,-97 -341,-146 -544,-146 -200,0 -380,49 -542,146 -161,98 -288,231 -379,398 -92,167 -138,359 -138,574 0,211 46,403 138,574 91,172 218,306 379,404 162,98 342,146 542,146zm4042 539c-323,0 -608,-71 -855,-213 -247,-141 -441,-337 -583,-586 -142,-249 -212,-535 -212,-858 0,-327 70,-615 212,-864 142,-249 336,-445 583,-586 247,-142 532,-212 855,-212 319,0 602,70 849,212 248,141 442,337 583,586 142,249 213,537 213,864 0,323 -70,609 -210,858 -139,249 -332,445 -580,586 -247,142 -532,213 -855,213zm0 -539c207,0 391,-47 550,-143 160,-96 284,-227 374,-395 90,-167 135,-361 135,-580 0,-219 -45,-414 -135,-583 -90,-169 -214,-302 -374,-398 -159,-95 -343,-143 -550,-143 -207,0 -390,48 -550,143 -159,96 -285,229 -377,398 -91,169 -137,364 -137,583 0,219 46,413 137,580 92,168 218,299 377,395 160,96 343,143 550,143zm4037 539c-323,0 -608,-71 -855,-213 -248,-141 -442,-337 -584,-586 -141,-249 -212,-535 -212,-858 0,-327 71,-615 212,-864 142,-249 336,-445 584,-586 247,-142 532,-212 855,-212 319,0 602,70 849,212 247,141 441,337 583,586 141,249 212,537 212,864 0,323 -70,609 -209,858 -140,249 -333,445 -580,586 -247,142 -532,213 -855,213zm0 -539c207,0 390,-47 550,-143 159,-96 284,-227 374,-395 89,-167 134,-361 134,-580 0,-219 -45,-414 -134,-583 -90,-169 -215,-302 -374,-398 -160,-95 -343,-143 -550,-143 -208,0 -391,48 -551,143 -159,96 -285,229 -376,398 -92,169 -138,364 -138,583 0,219 46,413 138,580 91,168 217,299 376,395 160,96 343,143 551,143zm3127 -681l-371 -407 1836 -1639c60,-55 127,-81 201,-77 73,4 136,36 188,95 56,60 82,126 78,198 -4,71 -36,135 -96,191l-1836 1639zm-281 1196c-88,0 -158,-27 -212,-81 -54,-54 -81,-125 -81,-212l0 -4085c0,-88 27,-158 81,-212 54,-54 124,-81 212,-81 88,0 159,27 212,81 54,54 81,124 81,212l0 4085c0,87 -27,158 -81,212 -53,54 -124,81 -212,81zm2135 -30c-64,52 -135,75 -212,68 -78,-5 -143,-40 -195,-104l-1214 -1501 419 -395 1244 1531c52,64 75,133 69,206 -6,74 -43,139 -111,195z"/>
  </g>
 </g>
</svg>
