<?xml version="1.0" encoding="UTF-8"?>
<!DOCTYPE svg PUBLIC "-//W3C//DTD SVG 1.1//EN" "http://www.w3.org/Graphics/SVG/1.1/DTD/svg11.dtd">
<!-- Creator: CorelDRAW X7 -->
<svg xmlns="http://www.w3.org/2000/svg" xml:space="preserve" width="400px" height="400px" version="1.1" style="shape-rendering:geometricPrecision; text-rendering:geometricPrecision; image-rendering:optimizeQuality; fill-rule:evenodd; clip-rule:evenodd"
viewBox="0 0 13026 13026"
 xmlns:xlink="http://www.w3.org/1999/xlink">
 <defs>
  <style type="text/css">
   <![CDATA[
    .str6 {stroke:#1E4158;stroke-width:324.47}
    .str1 {stroke:#1E4158;stroke-width:324.47}
    .str4 {stroke:#1E4158;stroke-width:324.47}
    .str3 {stroke:#1E4158;stroke-width:324.47}
    .str5 {stroke:#1E4158;stroke-width:324.47}
    .str2 {stroke:#1E4158;stroke-width:324.47}
    .str0 {stroke:#1E4158;stroke-width:324.47}
    .fil2 {fill:#010101}
    .fil4 {fill:#1E4158}
    .fil5 {fill:#767581}
    .fil0 {fill:#EAEBEC}
    .fil3 {fill:#EE3E36}
    .fil1 {fill:white}
    .fil6 {fill:#373435;fill-rule:nonzero}
   ]]>
  </style>
 </defs>
 <g id="Capa_x0020_1">
  <metadata id="CorelCorpID_0Corel-Layer"/>
  <g id="_2921213721104">
   <rect class="fil0" width="13026" height="13026"/>
   <g>
    <g>
     <path class="fil1" d="M7455 3344l0 -1348c28,17 645,649 681,686 113,117 225,225 338,342l255 258c21,21 72,68 86,93l-1360 -1 0 -30zm-4128 -1789l19 0c-26,92 -16,216 -16,357l7 3328 284 21 3 -3568 3538 2c-6,327 -1,659 -1,986l0 741c1,300 309,249 489,249 482,0 986,7 1463,0l0 5748 -320 -1c-70,78 -44,73 -36,89 -58,77 109,155 60,210 131,-5 330,21 448,-23l0 38 -5938 0 0 -8177zm4113 0l1825 1849c-80,-80 -155,-158 -234,-238 -46,-47 -86,-88 -133,-134l-132 -134c-443,-437 -882,-903 -1326,-1343z"/>
     <path class="fil2" d="M7455 3344l0 -1348c28,17 645,649 681,686 113,117 225,225 338,342l255 258c21,21 72,68 86,93l-1360 -1 0 -30zm1337 6074c-69,78 -43,73 -34,89 -59,77 108,155 59,210 151,-5 390,30 495,-47 125,-92 95,-250 95,-442l0 -3217c0,-717 0,-1435 0,-2152 0,-210 6,-309 -112,-425 -90,-90 -175,-177 -264,-268 -46,-47 -86,-88 -133,-134l-132 -134c-443,-438 -883,-904 -1327,-1344 -48,-48 -75,-83 -145,-121 -75,-40 -133,-36 -229,-36l-3447 0c-332,0 -288,223 -288,515l7 3328 284 21 3 -3568 3538 2c-6,327 -1,659 -1,986l0 741c1,300 309,249 489,249 482,0 986,7 1463,0l0 5748 -321 -1z"/>
     <path class="fil2" d="M4184 9716c5,-105 -7,-210 24,-298l-584 1 -3 -4222 -284 4c3,234 -8,511 -7,732l0 3316c0,94 -13,240 16,317 27,70 96,136 182,147 83,12 518,-1 656,3z"/>
     <path class="fil2" d="M4639 9717l3723 -1c-46,-58 26,-167 59,-233 13,-24 -42,-44 -35,-65l-3772 0c-7,26 -28,125 -24,141 12,51 13,106 49,158z"/>
     <path class="fil1" d="M7455 3374l1360 1c-14,-25 -65,-72 -86,-93l-255 -258c-113,-117 -225,-225 -338,-342 -36,-37 -653,-669 -681,-686l0 1348 0 30z"/>
     <path class="fil2" d="M4184 9716l455 1c32,-37 43,-118 31,-169 -7,-28 -15,-56 -25,-74 -9,-16 -35,-41 -31,-56l-406 0c-8,22 -24,37 -36,63 -11,22 -16,42 -20,71 -8,57 1,125 32,164z"/>
     <path class="fil2" d="M8362 9716l455 1c33,-37 43,-118 31,-169 -7,-28 -15,-56 -25,-74 -9,-16 -35,-41 -31,-56l-406 0c-7,21 -21,34 -34,58 -9,19 -17,45 -22,76 -8,57 1,125 32,164z"/>
    </g>
    <g>
     <path class="fil3" d="M8482 5312c-210,189 -333,160 -545,187 -194,25 -395,40 -603,-36 277,-126 872,-297 1148,-151zm-2089 191c-563,269 -932,506 -1440,817 -129,100 -242,196 -337,289 -1,117 46,360 57,449 76,-364 1467,-1106 1924,-1316 255,-117 203,-93 470,-30 443,104 1017,160 1432,-37 396,-188 378,-659 -106,-705 -410,-40 -1019,176 -1389,320 -230,90 -238,66 -481,-39 -273,-117 -1678,-947 -1888,-1397l-199 123c570,790 1076,1055 1957,1526zm-1501 -1655c3,2 5,4 7,6l0 -5 -7 -1z"/>
     <path class="fil4 str0" d="M4055 7962c31,-190 109,-351 246,-513 24,-30 30,-21 -36,-92 -87,80 -210,288 -249,405 -23,67 -39,133 -50,200l89 0z"/>
     <path class="fil4 str1" d="M4437 7159l56 66c182,-195 282,-441 302,-641l9 -78c1,-12 -1,-28 0,-39 1,-15 2,-26 2,-42 0,-68 -2,-92 -9,-161 -9,-102 -46,-230 -86,-322 -105,-244 -318,-419 -473,-643 -102,-148 -164,-312 -178,-481 -2,-28 -5,-55 -5,-81 0,-10 -1,-34 -1,-54 0,-114 24,-24 -58,-19l-28 -28c-4,-77 -1,42 -1,60l0 0c-1,41 5,107 7,132 7,120 58,285 120,403l47 77c17,28 36,55 55,82 184,257 439,435 504,805 15,87 16,116 17,199 1,15 1,26 1,41 -2,138 -17,256 -76,402 -36,88 -84,164 -143,242 -18,25 -47,55 -62,80z"/>
     <path class="fil4 str2" d="M4784 4962c-46,192 -143,373 -284,525l-56 -67c107,-119 199,-277 237,-409 32,-111 41,-187 44,-292l2 -27c0,-96 56,-127 74,-21 10,58 1,212 -17,291z"/>
     <path class="fil4 str3" d="M4028 6838l41 95c19,38 38,71 60,108 135,222 342,374 479,641 14,26 24,57 36,80 17,34 38,122 45,160 3,15 6,28 8,40l88 0c0,-3 -1,-6 -1,-8 -14,-80 -32,-158 -66,-235l-33 -79c-112,-232 -377,-457 -518,-706 -124,-218 -135,-480 -111,-663 1,-15 2,-25 4,-39 5,-55 48,-187 68,-234 34,-82 84,-162 139,-234 77,-102 78,-57 5,-145 -174,197 -270,405 -299,610 -23,169 -19,369 30,532 7,24 19,54 25,77z"/>
     <path class="fil4 str4" d="M4453 3622l55 66c148,-157 241,-348 282,-520l-88 0c-11,42 -25,86 -44,132 -36,88 -84,164 -143,242 -18,25 -47,55 -62,80z"/>
     <path class="fil4 str5" d="M4044 3301l41 96c4,16 51,93 60,107 135,222 342,374 479,641 14,26 24,57 36,81 17,33 38,121 45,159 6,30 10,49 13,78l9 120c-1,19 -3,26 -1,42 1,67 -2,120 70,94 28,-24 18,-215 3,-302 -13,-80 -31,-158 -65,-235l-33 -79c-112,-232 -377,-457 -518,-706 -42,-73 -71,-151 -90,-229l-89 0c4,19 9,38 15,56 7,24 19,54 25,77z"/>
     <path class="fil4 str6" d="M3968 4636l28 28c48,-3 56,-4 58,-68 9,-270 88,-476 262,-684 25,-30 31,-21 -35,-91 -87,79 -210,287 -249,405 -40,117 -61,236 -65,357 0,17 1,40 1,53z"/>
     <path class="fil5" d="M4329 7783c9,18 26,13 51,12 9,0 54,10 39,-24 -20,-44 -20,-39 -46,-39 -11,0 -16,-5 -27,14 -6,12 -13,26 -17,37z"/>
     <path class="fil5" d="M4486 7910c-1,-10 -6,-31 -9,-42 -5,-17 -18,-11 -28,-11l-153 -1c-12,0 -18,-4 -24,19 -11,46 -6,43 13,43l47 0c6,1 7,1 15,1l99 1c4,0 5,-1 8,-1 4,0 10,0 15,0 8,0 10,2 17,-9z"/>
     <path class="fil5" d="M4301 6040c-9,14 -21,48 -18,64 5,13 37,8 51,8l130 1c31,0 32,0 18,-50 -6,-23 -9,-22 -22,-22l-105 0c-19,0 -35,0 -54,-1z"/>
     <path class="fil5" d="M4489 6704c-9,-14 -31,-8 -51,-9l-130 0c-24,-1 -37,-5 -16,57 5,17 8,17 30,16 23,0 43,0 64,1 21,1 41,-1 64,0 9,0 21,7 28,-16 5,-14 11,-35 11,-49z"/>
     <path class="fil5" d="M4522 6321c1,-8 0,-50 -6,-58 -6,-9 -31,-5 -39,-5 -59,2 -130,-1 -191,-1 -11,0 -31,-7 -34,18 -7,67 0,55 42,55l210 2c7,0 15,4 18,-11z"/>
     <path class="fil5" d="M4248 6486c1,7 3,51 7,57 6,12 103,7 115,7l115 1c11,0 30,6 34,-15 13,-72 -9,-59 -40,-59 -26,0 -50,0 -76,-1l-115 0c-11,-1 -29,-7 -40,10z"/>
     <path class="fil5" d="M4301 4265c-9,14 -21,48 -18,64 5,13 37,8 51,8l130 1c31,0 32,0 18,-50 -6,-23 -9,-22 -22,-22l-105 0c-19,0 -35,0 -54,-1z"/>
     <path class="fil5" d="M4489 4929c-9,-14 -31,-8 -51,-9l-130 0c-24,-1 -37,-5 -16,57 5,17 8,17 30,16 23,0 43,0 64,1 21,1 41,-1 64,0 9,0 21,7 28,-16 5,-14 11,-35 11,-49z"/>
     <path class="fil5" d="M4522 4546c2,-8 0,-50 -6,-58 -6,-9 -31,-5 -39,-5 -59,2 -130,-1 -191,-1 -11,0 -31,-7 -34,18 -7,67 0,55 42,55l210 2c7,0 15,4 18,-11z"/>
     <path class="fil5" d="M4248 4711c1,7 3,51 7,57 6,12 103,7 115,7l115 1c11,0 30,6 34,-15 13,-72 -9,-59 -40,-59 -26,0 -50,0 -76,-1l-115 0c-11,-1 -29,-7 -40,10z"/>
     <path class="fil5" d="M4441 3306c-9,-18 -26,-13 -51,-13 -9,0 -54,-9 -39,25 20,45 19,40 45,40 11,0 17,5 27,-14 7,-13 14,-27 18,-38z"/>
     <path class="fil5" d="M4284 3177c1,9 5,31 9,42 5,17 18,11 27,11l154 1c11,1 18,4 24,-19 11,-47 5,-44 -13,-43l-47 -1c-6,0 -8,-1 -15,0l-100 -1c-3,0 -4,0 -8,0 -3,0 -9,0 -14,0 -8,0 -10,-2 -17,10z"/>
    </g>
    <path class="fil6" d="M3415 11629c-16,0 -29,-5 -40,-16 -10,-11 -16,-24 -16,-40l0 -501c1,-58 15,-110 41,-156 26,-46 62,-82 108,-109 45,-27 96,-40 153,-40 58,0 110,13 155,40 46,27 82,63 108,109 27,46 40,98 40,156 0,58 -12,110 -36,156 -25,45 -58,82 -101,108 -42,27 -90,40 -144,40 -43,0 -83,-9 -119,-27 -36,-18 -67,-42 -93,-73l0 297c0,16 -5,29 -15,40 -10,11 -24,16 -41,16zm246 -352c38,0 71,-8 100,-26 30,-18 53,-43 70,-74 17,-31 26,-66 26,-105 0,-39 -9,-75 -26,-106 -17,-31 -40,-55 -70,-73 -29,-18 -62,-27 -100,-27 -36,0 -69,9 -99,27 -30,18 -53,42 -70,73 -17,31 -25,67 -25,106 0,39 8,74 25,105 17,31 40,56 70,74 30,18 63,26 99,26zm524 -281c0,-44 11,-83 32,-118 22,-34 51,-62 88,-83 36,-20 77,-30 121,-30 44,0 76,7 98,21 21,14 30,31 25,51 -3,10 -7,18 -13,24 -6,5 -13,9 -21,10 -9,2 -17,1 -27,-1 -47,-9 -89,-10 -126,-2 -37,8 -67,23 -88,45 -22,22 -33,50 -33,83l-56 0zm1 376c-17,0 -31,-5 -40,-14 -10,-9 -15,-23 -15,-41l0 -491c0,-17 5,-31 15,-40 9,-10 23,-15 40,-15 18,0 32,5 41,14 10,9 14,23 14,41l0 491c0,18 -4,31 -14,41 -9,9 -23,14 -41,14zm717 4c-60,0 -114,-13 -162,-39 -47,-26 -84,-62 -111,-107 -26,-46 -40,-99 -40,-158 0,-60 13,-113 38,-159 25,-45 60,-81 105,-107 45,-26 96,-39 154,-39 57,0 106,13 147,38 41,25 72,60 94,104 21,44 32,95 32,153 0,14 -5,26 -14,35 -10,9 -22,14 -36,14l-443 0 0 -88 439 0 -45 30c0,-36 -8,-69 -22,-98 -13,-29 -33,-52 -59,-68 -25,-17 -57,-26 -93,-26 -42,0 -78,9 -107,28 -30,18 -52,43 -68,75 -15,32 -23,68 -23,108 0,40 9,76 28,108 18,31 43,56 75,74 33,19 70,28 111,28 23,0 46,-4 70,-13 24,-8 43,-18 58,-29 11,-8 23,-12 35,-12 13,-1 24,3 34,11 12,11 19,23 20,36 0,13 -6,25 -18,34 -25,20 -56,36 -93,49 -37,12 -72,18 -106,18zm456 253c-16,0 -29,-5 -40,-16 -11,-11 -16,-24 -16,-40l0 -501c1,-58 14,-110 41,-156 26,-46 62,-82 107,-109 46,-27 97,-40 154,-40 58,0 109,13 155,40 45,27 81,63 108,109 27,46 40,98 40,156 0,58 -12,110 -37,156 -24,45 -58,82 -100,108 -43,27 -91,40 -144,40 -43,0 -83,-9 -119,-27 -36,-18 -67,-42 -93,-73l0 297c0,16 -5,29 -15,40 -11,11 -24,16 -41,16zm246 -352c37,0 71,-8 100,-26 29,-18 52,-43 70,-74 17,-31 25,-66 25,-105 0,-39 -8,-75 -25,-106 -18,-31 -41,-55 -70,-73 -29,-18 -63,-27 -100,-27 -37,0 -70,9 -99,27 -30,18 -53,42 -70,73 -17,31 -25,67 -25,106 0,39 8,74 25,105 17,31 40,56 70,74 29,18 62,26 99,26zm524 -281c0,-44 11,-83 32,-118 22,-34 51,-62 87,-83 37,-20 77,-30 121,-30 44,0 77,7 99,21 21,14 29,31 24,51 -2,10 -6,18 -12,24 -7,5 -14,9 -22,10 -8,2 -17,1 -26,-1 -47,-9 -89,-10 -126,-2 -38,8 -67,23 -89,45 -21,22 -32,50 -32,83l-56 0zm1 376c-18,0 -31,-5 -41,-14 -9,-9 -14,-23 -14,-41l0 -491c0,-17 5,-31 14,-40 10,-10 23,-15 41,-15 18,0 32,5 41,14 9,9 14,23 14,41l0 491c0,18 -5,31 -14,41 -9,9 -23,14 -41,14zm707 4c-59,0 -112,-13 -157,-39 -45,-26 -81,-62 -107,-107 -26,-46 -39,-99 -39,-158 0,-60 13,-113 39,-159 26,-45 62,-81 107,-107 45,-26 98,-39 157,-39 59,0 111,13 156,39 45,26 81,62 107,107 26,46 39,99 39,159 0,59 -13,112 -38,158 -26,45 -62,81 -107,107 -45,26 -98,39 -157,39zm0 -99c38,0 72,-8 101,-26 29,-17 52,-42 69,-72 16,-31 24,-67 24,-107 0,-40 -8,-76 -24,-107 -17,-31 -40,-55 -69,-73 -29,-18 -63,-26 -101,-26 -38,0 -72,8 -101,26 -29,18 -52,42 -69,73 -17,31 -25,67 -25,107 0,40 8,76 25,107 17,30 40,55 69,72 29,18 63,26 101,26zm741 99c-58,0 -110,-13 -156,-40 -46,-26 -82,-63 -108,-108 -26,-46 -39,-98 -39,-156 0,-59 13,-112 39,-158 25,-46 60,-82 105,-108 45,-26 96,-39 154,-39 43,0 82,8 118,25 36,16 68,41 97,74 10,11 14,24 11,36 -3,12 -11,23 -24,33 -10,7 -22,10 -34,7 -13,-3 -24,-9 -34,-19 -36,-38 -81,-57 -134,-57 -38,0 -71,8 -99,26 -29,17 -51,41 -67,71 -16,31 -24,67 -24,109 0,40 8,75 24,106 17,30 40,55 69,73 29,18 63,26 102,26 26,0 48,-3 68,-9 19,-6 37,-16 53,-29 12,-9 24,-15 36,-16 13,-1 24,3 33,11 13,10 20,21 21,34 2,13 -3,24 -13,35 -53,49 -119,73 -198,73zm670 0c-61,0 -115,-13 -162,-39 -47,-26 -84,-62 -111,-107 -27,-46 -40,-99 -40,-158 0,-60 13,-113 38,-159 25,-45 60,-81 105,-107 45,-26 96,-39 154,-39 57,0 106,13 147,38 41,25 72,60 94,104 21,44 32,95 32,153 0,14 -5,26 -14,35 -10,9 -22,14 -36,14l-443 0 0 -88 439 0 -45 30c-1,-36 -8,-69 -22,-98 -14,-29 -33,-52 -59,-68 -26,-17 -57,-26 -93,-26 -42,0 -78,9 -107,28 -30,18 -53,43 -68,75 -15,32 -23,68 -23,108 0,40 9,76 27,108 19,31 44,56 76,74 32,19 69,28 111,28 23,0 46,-4 70,-13 24,-8 43,-18 57,-29 11,-8 23,-12 36,-12 13,-1 24,3 34,11 12,11 19,23 19,36 1,13 -5,25 -17,34 -25,20 -56,36 -93,49 -37,12 -72,18 -106,18zm618 0c-51,0 -98,-8 -142,-23 -43,-16 -77,-36 -101,-60 -11,-12 -16,-25 -14,-40 2,-15 9,-27 21,-37 15,-12 29,-17 44,-15 14,2 26,8 36,19 13,14 33,27 60,39 28,12 58,18 92,18 42,0 75,-6 97,-20 22,-14 34,-32 35,-54 0,-22 -10,-41 -32,-57 -21,-16 -61,-30 -118,-40 -74,-14 -127,-36 -161,-66 -33,-29 -49,-65 -49,-107 0,-38 10,-69 32,-93 22,-25 51,-43 85,-55 34,-12 70,-18 108,-18 48,0 91,8 128,23 37,15 67,37 89,64 10,11 15,24 14,36 0,13 -7,24 -18,33 -12,8 -26,10 -42,7 -16,-2 -30,-9 -41,-19 -18,-18 -38,-30 -59,-37 -21,-6 -46,-9 -74,-9 -32,0 -59,5 -81,16 -23,11 -34,27 -34,48 0,14 4,25 11,36 7,11 20,20 41,29 20,8 50,16 90,24 55,11 98,25 130,42 32,17 55,36 69,59 13,22 20,48 20,77 0,34 -9,64 -27,91 -17,27 -44,49 -79,65 -34,16 -78,24 -130,24zm597 0c-52,0 -99,-8 -143,-23 -43,-16 -77,-36 -101,-60 -11,-12 -16,-25 -14,-40 2,-15 9,-27 21,-37 15,-12 30,-17 44,-15 14,2 26,8 37,19 12,14 32,27 59,39 28,12 58,18 92,18 43,0 75,-6 97,-20 23,-14 34,-32 35,-54 1,-22 -10,-41 -31,-57 -22,-16 -61,-30 -118,-40 -74,-14 -128,-36 -161,-66 -34,-29 -50,-65 -50,-107 0,-38 11,-69 33,-93 22,-25 50,-43 84,-55 35,-12 71,-18 108,-18 48,0 91,8 128,23 38,15 67,37 89,64 11,11 15,24 15,36 -1,13 -7,24 -19,33 -12,8 -26,10 -42,7 -16,-2 -29,-9 -40,-19 -19,-18 -39,-30 -60,-37 -21,-6 -45,-9 -73,-9 -33,0 -60,5 -82,16 -22,11 -34,27 -34,48 0,14 4,25 11,36 7,11 20,20 41,29 20,8 51,16 90,24 55,11 98,25 130,42 32,17 55,36 69,59 14,22 21,48 21,77 0,34 -9,64 -27,91 -18,27 -45,49 -79,65 -35,16 -78,24 -130,24z"/>
   </g>
  </g>
 </g>
</svg>
