<?xml version="1.0" encoding="UTF-8"?>
<!DOCTYPE svg PUBLIC "-//W3C//DTD SVG 1.1//EN" "http://www.w3.org/Graphics/SVG/1.1/DTD/svg11.dtd">
<!-- Creator: CorelDRAW X7 -->
<svg xmlns="http://www.w3.org/2000/svg" xml:space="preserve" width="1787px" height="625px" version="1.1" style="shape-rendering:geometricPrecision; text-rendering:geometricPrecision; image-rendering:optimizeQuality; fill-rule:evenodd; clip-rule:evenodd"
viewBox="0 0 4972 1738"
 xmlns:xlink="http://www.w3.org/1999/xlink">
    <title property="dc:title">Iconic places from Serbia illustrated</title>
    <metadata id="license"
        xmlns:rdf="http://www.w3.org/1999/02/22-rdf-syntax-ns#"
        xmlns:dc="http://purl.org/dc/elements/1.1/"
        xmlns:cc="http://creativecommons.org/ns#">
        <rdf:RDF>
        <cc:Work rdf:about="">
            <dc:creator>Enma Lidia Muñoz García</dc:creator>
            <dc:contributor>Datwit</dc:contributor>
            <dc:format>image/svg+xml</dc:format>
            <dc:type rdf:resource="http://purl.org/dc/dcmitype/StillImage" />
            <cc:license rdf:resource="https://creativecommons.org/licenses/by-nc-sa/4.0/"/>
        </cc:Work>
        <cc:License rdf:about="https://creativecommons.org/licenses/by-nc-sa/4.0/">
            <cc:permits rdf:resource="http://creativecommons.org/ns#Reproduction" />
            <cc:permits rdf:resource="http://creativecommons.org/ns#Distribution" />
            <cc:requires rdf:resource="http://creativecommons.org/ns#Notice" />
            <cc:requires rdf:resource="http://creativecommons.org/ns#Attribution" />
            <cc:permits rdf:resource="http://creativecommons.org/ns#DerivativeWorks" />
            <cc:requires rdf:resource="http://creativecommons.org/ns#ShareAlike" />
        </cc:License>
        </rdf:RDF>
    </metadata>
 <defs>
  <style type="text/css">
   <![CDATA[
    .str6 {stroke:white;stroke-width:8.21364}
    .str9 {stroke:white;stroke-width:6.57092}
    .str5 {stroke:white;stroke-width:8.21364}
    .str8 {stroke:white;stroke-width:8.21364}
    .str10 {stroke:white;stroke-width:8.21364}
    .str4 {stroke:white;stroke-width:8.21364}
    .str3 {stroke:white;stroke-width:8.21364}
    .str0 {stroke:white;stroke-width:8.21364}
    .str2 {stroke:white;stroke-width:8.21364}
    .str1 {stroke:white;stroke-width:8.21364}
    .str7 {stroke:white;stroke-width:8.21364}
    .fil0 {fill:none}
    .fil4 {fill:#FEFEFE}
    .fil1 {fill:#F2F3F3}
    .fil2 {fill:white}
    .fil3 {fill:white;fill-rule:nonzero}
   ]]>
  </style>
 </defs>
 <g id="Capa_x0020_1">
  <metadata id="CorelCorpID_0Corel-Layer"/>
  <polygon class="fil0 str0" points="368,1214 1924,1214 1947,187 1958,187 1965,12 1969,187 1979,187 1991,1214 4968,1214 4968,1244 1991,1244 1997,1705 1913,1705 1924,1244 368,1244 "/>
  <circle class="fil0 str1" cx="1965" cy="12" r="7"/>
  <line class="fil0 str2" x1="1945" y1="297" x2="717" y2= "1214" />
  <line class="fil0 str2" x1="1980" y1="299" x2="4388" y2= "1214" />
  <line class="fil0 str2" x1="1944" y1="319" x2="942" y2= "1207" />
  <line class="fil0 str2" x1="1943" y1="350" x2="1123" y2= "1214" />
  <line class="fil0 str2" x1="1943" y1="378" x2="1315" y2= "1207" />
  <line class="fil0 str2" x1="1942" y1="416" x2="1507" y2= "1214" />
  <line class="fil0 str2" x1="1941" y1="469" x2="1708" y2= "1214" />
  <line class="fil0 str2" x1="1980" y1="326" x2="3801" y2= "1214" />
  <line class="fil0 str2" x1="1982" y1="476" x2="2184" y2= "1214" />
  <line class="fil0 str2" x1="1981" y1="361" x2="3176" y2= "1214" />
  <line class="fil0 str2" x1="1982" y1="428" x2="2594" y2= "1214" />
  <line class="fil0 str3" x1="1981" y1="395" x2="2856" y2= "1214" />
  <line class="fil0 str3" x1="1944" y1="319" x2="847" y2= "1214" />
  <line class="fil0 str3" x1="1943" y1="350" x2="1041" y2= "1214" />
  <line class="fil0 str3" x1="1943" y1="378" x2="1222" y2= "1214" />
  <line class="fil0 str3" x1="1942" y1="399" x2="1424" y2= "1214" />
  <line class="fil0 str3" x1="1941" y1="441" x2="1612" y2= "1214" />
  <line class="fil0 str3" x1="1940" y1="526" x2="1818" y2= "1214" />
  <line class="fil0 str3" x1="1991" y1="507" x2="2070" y2= "1199" />
  <line class="fil0 str3" x1="1982" y1="476" x2="2372" y2= "1201" />
  <line class="fil0 str3" x1="1981" y1="416" x2="2710" y2= "1214" />
  <line class="fil0 str3" x1="1981" y1="361" x2="2983" y2= "1199" />
  <line class="fil0 str3" x1="1981" y1="345" x2="3480" y2= "1214" />
  <line class="fil0 str3" x1="1980" y1="326" x2="4041" y2= "1199" />
  <path class="fil1 str4" d="M2231 1693l0 15 237 26 236 -35 0 -20 -68 2 0 -40 -12 -1 0 -129 8 0 0 -49 -20 0 -1 -21 -18 0 0 -19 -25 0 -1 -22 -36 -9 -20 -436 34 -24 0 -15 -48 -29c-1,-9 4,-24 3,-30 -1,-9 -7,-15 -5,-28 1,-11 -2,-9 -3,-14 0,-3 2,-4 4,-6 5,-6 -2,-13 -3,-19 5,-1 5,-15 5,-20 0,-4 2,-3 2,-6 0,-1 -2,-12 -2,-13 -2,-2 -1,1 -4,-5 -1,-4 -3,-7 -3,-9 1,-5 0,-6 2,-10 2,-3 5,-7 1,-12 -5,-6 -12,-2 -16,-2 -2,0 -5,-2 -6,1 0,2 1,3 1,3 0,3 -1,3 -2,6 -2,10 0,3 1,8 1,5 -2,4 4,6 1,5 0,8 -3,11l-8 7c-1,-1 -6,-6 -7,-8l-7 -7c-1,-1 -2,-2 -4,-1 -2,0 -2,1 -2,2 -2,-1 -3,-2 -5,-1 -1,1 -2,2 -2,4 6,-2 3,5 3,5 0,4 3,5 4,7 0,2 -1,3 -2,5 -2,1 -2,0 -4,2 -1,3 -1,1 -2,3 1,2 2,1 4,1 1,0 3,1 4,1 6,2 9,-2 15,6 2,2 1,1 1,3 0,2 1,2 1,4 0,0 0,0 0,0 0,0 0,0 0,0l-2 1c0,4 2,6 2,8 -5,1 -8,-2 -8,2 0,3 4,2 9,2 0,10 1,21 1,32 0,2 0,4 1,7 0,3 -1,3 -1,6 0,3 1,5 0,8 -1,2 -1,3 -1,6 -1,6 -3,15 -5,22l-5 0 -56 44 0 15 32 19 -18 439 -34 11 0 19 -26 0 0 19 -20 1 0 20 -9 0 -11 0 0 50 6 0 0 130 -16 0 -1 45 -69 6zm257 -811l-10 -7 -7 0c0,-2 0,-4 0,-5 0,-8 3,-6 4,-11 0,-5 0,-10 1,-14 0,-2 2,-10 3,-11 4,2 2,7 5,11 1,1 2,0 2,2 2,3 1,7 1,11 1,5 1,10 2,15 0,4 0,6 -1,9zm-21 -7l0 0 0 0 0 0zm-21 -114c0,-1 1,-2 2,-3 2,1 2,2 2,4l-4 -1zm14 4c1,-1 2,-1 1,-3 -1,-1 -3,-4 -4,-7l7 2c-2,10 2,6 2,11 -2,-1 -4,-2 -6,-3z"/>
  <g>
   <path class="fil1" d="M3280 505c-88,-10 -100,-137 3,-155 21,-92 119,-99 155,-18 43,-12 75,1 90,46 79,28 63,126 -10,127l-238 0z"/>
   <path id="1" class="fil2" d="M3280 505c-88,-10 -100,-137 3,-155 21,-92 119,-99 155,-18 43,-12 75,1 90,46 79,28 63,126 -10,127l-238 0zm-53 -43c10,18 28,32 54,35l237 0 0 0c19,0 34,-8 43,-20 6,-7 9,-16 11,-25 1,-9 0,-18 -3,-27 -7,-16 -20,-31 -43,-39l-4 -1 -1 -4c-7,-20 -18,-33 -31,-40 -13,-6 -30,-7 -49,-2l-7 2 -3 -6c-9,-20 -23,-35 -37,-43 -12,-6 -26,-9 -38,-8 -13,2 -25,7 -36,16 -13,11 -24,28 -29,51l-1 6 -5 1c-31,5 -50,20 -59,39 -6,10 -8,21 -8,33 0,11 4,22 9,32z"/>
  </g>
  <g>
   <path class="fil3" d="M3317 356c0,2 -2,3 -4,3 -3,0 -4,-2 -4,-5l8 2zm46 -55l0 8 -2 0 -2 0 -3 1 -2 0 -2 0 -2 1 -2 0 -1 1 -2 1 -2 0 -2 1 -1 1 -2 1 -2 1 -1 2 -2 1 -1 1 -1 2 -2 1 -1 2 -1 2 -1 2 -1 2 -1 2 -1 2 -1 3 -1 2 -1 3 -1 3 0 3 -1 3 -1 3 -8 -2 1 -3 1 -3 0 -3 1 -3 1 -3 1 -3 1 -3 1 -2 1 -3 2 -2 1 -2 1 -3 2 -2 1 -1 2 -2 2 -2 2 -2 1 -1 2 -1 2 -2 2 -1 2 -1 3 -1 2 -1 2 -1 2 0 3 -1 2 0 2 -1 3 0 2 0 3 0zm0 0c2,0 4,2 4,4 0,2 -2,4 -4,4l0 -8z"/>
  </g>
  <g>
   <path class="fil1" d="M1154 478c91,-11 103,-141 -3,-160 -22,-95 -123,-102 -161,-19 -44,-12 -76,1 -92,48 -81,29 -65,130 11,131l245 0z"/>
   <path id="1" class="fil2" d="M1154 478c91,-11 103,-141 -3,-160l-2 8c31,5 51,21 61,40 6,11 8,23 8,34 0,12 -3,24 -9,34 -11,19 -30,33 -56,36l-244 0 0 0 0 0 0 0 0 0c-20,0 -36,-8 -45,-21 -6,-7 -10,-16 -11,-25 -2,-10 -1,-20 3,-29 6,-17 21,-32 44,-40l-2 -8c-81,29 -65,130 11,131l245 0zm-3 -160c-22,-95 -123,-102 -161,-19l8 3c9,-21 23,-35 39,-44 12,-7 26,-9 39,-8 13,1 26,7 37,16 13,12 24,30 30,54l8 -2zm-161 -19c-44,-12 -76,1 -92,48l7 3c8,-21 18,-35 32,-41 14,-7 31,-7 51,-2l2 -8z"/>
  </g>
  <g>
   <path class="fil1" d="M1298 475c91,-11 104,-142 -3,-161 -21,-94 -123,-102 -160,-19 -44,-11 -77,2 -93,49 -81,28 -65,129 11,131l245 0z"/>
   <path id="1" class="fil2" d="M1298 475c91,-11 104,-142 -3,-161l-1 8c31,6 51,21 61,40 5,11 8,23 7,35 0,11 -3,23 -9,33 -10,19 -29,33 -55,37l-245 0 0 0 0 0 0 0 0 0c-20,-1 -35,-9 -45,-21 -6,-8 -9,-17 -11,-26 -1,-9 0,-19 3,-29 7,-16 21,-31 45,-40l-3 -7c-81,28 -65,129 11,131l245 0zm-3 -161c-21,-94 -123,-102 -160,-19l7 4c10,-21 24,-36 39,-44 13,-7 26,-10 39,-9 13,2 26,7 37,16 14,12 25,30 30,54l8 -2zm-160 -19c-44,-11 -77,2 -93,49l8 2c7,-21 18,-34 32,-41 13,-7 31,-7 51,-2l2 -8z"/>
  </g>
  <g>
   <path class="fil3" d="M3763 377l7 4 -7 0 -1 -2 -1 -1 -1 -1 -1 -2 -1 -1 -1 -1 -2 -1 -1 0 -2 -1 -2 -1 -1 -1 -2 0 -2 -1 -2 0 -2 -1 -2 0 -3 -1 -2 0 -2 0 -3 -1 -2 0 -2 0 -3 -1 -2 0 -3 0 -2 0 -3 0 -2 -1 -3 0 -2 0 -3 0 -2 -1 1 -8 2 0 3 1 2 0 3 0 2 0 3 1 2 0 3 0 2 0 3 0 2 1 2 0 3 0 2 1 3 0 2 1 3 0 2 1 2 0 2 1 2 1 3 0 2 1 2 1 2 2 1 1 2 1 2 2 1 1 2 2 1 2 1 2 -7 0zm7 4l-4 7 -3 -7 7 0zm51 -27l0 8 -2 0 -2 0 -2 0 -3 0 -2 0 -2 0 -2 1 -2 0 -2 0 -2 0 -1 0 -2 1 -2 0 -2 0 -2 1 -1 0 -2 1 -2 0 -1 1 -2 1 -1 0 -1 1 -2 1 -1 1 -1 1 -1 1 -1 1 -1 1 -1 1 -1 2 -1 1 -1 2 -7 -4 1 -2 1 -2 1 -2 1 -1 2 -2 1 -1 2 -1 1 -2 2 -1 1 -1 2 -1 2 -1 2 -1 2 0 1 -1 2 -1 2 0 2 -1 2 0 2 0 2 -1 2 0 2 0 3 -1 2 0 2 0 2 0 2 0 2 0 3 0 2 0 2 0z"/>
  </g>
  <g>
   <path class="fil3" d="M3877 423l8 4 -8 0 0 -2 -1 -1 -1 -1 -1 -2 -2 -1 -1 -1 -1 -1 -2 0 -1 -1 -2 -1 -2 -1 -2 0 -1 -1 -3 0 -2 -1 -2 0 -2 -1 -2 0 -3 -1 -2 0 -2 0 -3 0 -2 -1 -3 0 -2 0 -3 0 -2 -1 -3 0 -2 0 -3 0 -2 -1 -2 0 1 -8 2 0 2 1 3 0 2 0 3 0 2 1 3 0 2 0 3 0 2 0 3 1 2 0 3 0 2 1 2 0 3 1 2 0 2 1 3 0 2 1 2 1 2 0 2 1 2 1 2 1 2 2 2 1 1 2 2 1 1 2 2 2 1 2 -8 0zm8 4l-4 7 -4 -7 8 0zm51 -27l0 8 -2 0 -3 0 -2 0 -2 0 -2 0 -2 0 -2 1 -2 0 -2 0 -2 0 -2 0 -2 1 -2 0 -1 0 -2 1 -2 0 -1 1 -2 0 -1 1 -2 1 -1 0 -2 1 -1 1 -1 1 -1 1 -2 1 -1 1 -1 1 -1 1 -1 2 -1 1 0 2 -8 -4 1 -2 2 -2 1 -2 1 -1 1 -2 2 -1 1 -1 2 -2 1 -1 2 -1 2 -1 2 -1 1 -1 2 0 2 -1 2 -1 2 0 2 -1 2 0 2 0 2 -1 2 0 2 0 2 -1 2 0 3 0 2 0 2 0 2 0 2 0 3 0 2 0z"/>
  </g>
  <g>
   <path class="fil3" d="M3688 461l-7 0 1 -2 1 -2 1 -1 2 -2 2 -2 1 -1 2 -1 2 -1 2 -1 2 -1 2 -1 2 -1 3 0 2 -1 2 -1 2 0 3 -1 2 0 3 0 2 -1 3 0 2 0 3 0 2 -1 3 0 2 0 3 0 2 -1 2 0 3 0 2 0 3 -1 1 9 -3 0 -2 0 -3 0 -2 1 -3 0 -2 0 -3 0 -2 1 -3 0 -2 0 -2 0 -3 1 -2 0 -3 0 -2 1 -2 0 -2 0 -2 1 -2 0 -2 1 -2 1 -2 0 -1 1 -2 1 -2 1 -1 1 -1 1 -1 1 -1 1 -1 1 -1 2 -1 1 -7 0 7 -4zm0 4l-4 7 -3 -7 7 0zm-59 -27l3 0 2 0 2 0 2 0 3 0 2 1 2 0 2 0 2 0 2 0 2 1 2 0 2 0 2 1 2 0 2 1 2 0 2 1 2 1 2 1 1 1 2 1 2 1 1 1 2 1 1 1 2 2 1 1 1 2 2 2 1 1 1 2 -7 4 -1 -1 -1 -2 -1 -1 -1 -1 -1 -2 -1 -1 -1 -1 -2 -1 -1 -1 -1 0 -1 -1 -2 -1 -1 -1 -2 0 -1 -1 -2 0 -2 -1 -1 0 -2 -1 -2 0 -2 0 -2 -1 -2 0 -2 0 -2 0 -2 0 -2 0 -2 0 -2 0 -2 0 -2 0 -2 0 -1 -9z"/>
  </g>
  <path class="fil1 str5" d="M3422 811c-10,-26 -1,-29 24,-47 -19,-6 -25,-5 -30,-30 -15,16 -6,22 -36,28l12 8c1,1 2,2 3,3 1,1 3,2 3,3 17,17 5,35 3,49 -86,27 -118,28 -164,87 -32,41 -23,49 -46,76 -37,42 -8,39 -14,96 -42,-39 -10,-23 -46,-42 -28,-14 -16,5 -18,-25 -1,-9 13,-1 -6,-23 -21,35 8,-4 -8,42 -76,31 -63,83 -63,183 -20,9 -39,22 -52,39 -52,66 -47,15 -41,103 -19,-14 -34,-27 -58,-9 -36,28 10,27 -38,39 13,30 -8,264 -9,316l1151 1c-2,-95 -22,-224 -13,-316 -1,-31 14,32 -18,-16 -15,-23 -47,-58 -74,-14 -7,-35 2,-35 4,-62 -44,-23 -22,-15 -48,-46 -14,-16 -32,-25 -48,-38 -3,-81 15,-153 -69,-180 0,-42 14,-15 -4,-42 -17,21 -3,9 -6,27 -4,28 5,9 -18,22 -30,16 -11,11 -46,41 -1,-28 6,-44 5,-64 -2,-16 -69,-114 -79,-124 -18,-19 -50,-43 -81,-53 -66,-23 -60,-2 -72,-32z"/>
  <path class="fil0 str6" d="M3172 1018c169,-47 325,-47 473,-6"/>
  <path class="fil2 str6" d="M3688 1202l57 0 0 -41c0,-28 -14,-51 -44,-35 -19,11 -13,51 -13,76z"/>
  <path class="fil2 str6" d="M3193 1071l19 -4c2,-13 5,-42 -7,-44 -17,-4 -11,35 -12,48z"/>
  <path class="fil2 str6" d="M3224 1064l18 -4c2,-13 5,-41 -7,-44 -16,-4 -11,35 -11,48z"/>
  <path class="fil2 str6" d="M3256 1060l18 -4c2,-13 5,-42 -6,-44 -17,-4 -12,35 -12,48z"/>
  <path class="fil2 str6" d="M3292 1055l18 -4c2,-13 5,-42 -6,-44 -17,-4 -12,35 -12,48z"/>
  <path class="fil2 str6" d="M3320 1051l18 -4c2,-13 5,-41 -7,-44 -16,-4 -11,35 -11,48z"/>
  <path class="fil2 str6" d="M3350 1048l18 -4c2,-13 5,-42 -6,-44 -17,-4 -12,35 -12,48z"/>
  <path class="fil2 str6" d="M3381 1045l18 -4c2,-13 5,-41 -6,-44 -17,-4 -12,35 -12,48z"/>
  <path class="fil2 str6" d="M3413 1041l18 1c0,-12 3,-41 -6,-44 -18,-7 -12,30 -12,43z"/>
  <path class="fil2 str6" d="M3445 1042l18 1c1,-13 4,-41 -6,-44 -18,-7 -12,30 -12,43z"/>
  <path class="fil2 str6" d="M3477 1043l18 1c1,-13 4,-41 -6,-44 -18,-7 -12,30 -12,43z"/>
  <path class="fil2 str6" d="M3509 1048l18 2c1,-13 4,-41 -6,-45 -18,-7 -12,31 -12,43z"/>
  <path class="fil2 str6" d="M3541 1053l18 1c1,-12 4,-40 -6,-44 -18,-7 -12,31 -12,43z"/>
  <path class="fil2 str6" d="M3576 1058l18 1c0,-12 3,-41 -6,-44 -18,-7 -12,31 -12,43z"/>
  <path class="fil2 str6" d="M3607 1061l18 2c1,-13 4,-41 -6,-45 -18,-7 -12,31 -12,43z"/>
  <path class="fil2 str6" d="M3084 1189l57 0 0 -42c0,-27 -14,-50 -44,-34 -20,10 -13,51 -13,76z"/>
  <path class="fil2 str6" d="M3451 1703c4,-40 1,-92 1,-133 0,-42 1,-86 -47,-83 -44,3 -42,45 -42,87 0,38 -4,92 1,129l87 0z"/>
  <path class="fil2 str6" d="M3318 1702c4,-24 2,-74 1,-101 0,-32 5,-72 -32,-69 -34,2 -28,41 -29,73 -1,25 -2,74 1,98l59 -1z"/>
  <path class="fil2 str6" d="M3558 1703c3,-30 1,-70 1,-101 0,-30 5,-68 -29,-69 -36,0 -29,42 -29,73 1,30 -2,68 1,97l56 0z"/>
  <path class="fil2 str6" d="M3440 1403c22,-35 -31,-70 -52,-36 -22,38 36,62 52,36z"/>
  <path class="fil2 str6" d="M3214 1424c29,-5 186,-121 203,-121 14,1 179,118 201,120 -16,-16 -125,-80 -150,-97 -64,-43 -42,-37 -105,2 -20,12 -137,81 -149,96z"/>
  <path class="fil0 str6" d="M3200 1194c133,-51 281,-51 440,-6"/>
  <path class="fil2 str6" d="M3200 1247l18 -4c2,-13 5,-42 -7,-44 -16,-4 -11,35 -11,48z"/>
  <path class="fil2 str6" d="M3231 1240l18 -4c2,-13 5,-41 -7,-44 -16,-4 -11,35 -11,48z"/>
  <path class="fil2 str6" d="M3260 1230l19 -4c2,-13 5,-42 -7,-44 -16,-4 -11,35 -12,48z"/>
  <path class="fil2 str6" d="M3293 1225l18 -4c2,-13 5,-41 -6,-44 -17,-4 -12,35 -12,48z"/>
  <path class="fil2 str6" d="M3324 1219l18 -3c2,-14 5,-42 -6,-45 -17,-3 -12,35 -12,48z"/>
  <path class="fil2 str6" d="M3356 1215l18 -4c2,-13 5,-42 -7,-44 -16,-4 -11,35 -11,48z"/>
  <path class="fil2 str6" d="M3387 1215l18 -4c2,-13 5,-42 -7,-44 -16,-4 -11,35 -11,48z"/>
  <path class="fil2 str6" d="M3419 1211l18 1c0,-12 3,-41 -6,-44 -18,-7 -12,31 -12,43z"/>
  <path class="fil2 str6" d="M3449 1212l18 2c0,-13 3,-41 -6,-45 -18,-7 -12,31 -12,43z"/>
  <path class="fil2 str6" d="M3481 1217l18 1c1,-13 4,-41 -6,-44 -18,-7 -12,30 -12,43z"/>
  <path class="fil2 str6" d="M3514 1221l18 1c1,-13 4,-41 -5,-45 -19,-6 -13,31 -13,44z"/>
  <path class="fil2 str6" d="M3550 1225l18 1c1,-12 4,-40 -6,-44 -18,-7 -12,31 -12,43z"/>
  <path class="fil2 str6" d="M3582 1234l18 1c1,-12 4,-40 -6,-44 -18,-7 -12,31 -12,43z"/>
  <path class="fil2 str6" d="M3614 1237l18 2c1,-13 4,-41 -6,-45 -18,-7 -12,31 -12,43z"/>
  <path class="fil0 str6" d="M3196 1262c132,-51 281,-50 440,-6"/>
  <path class="fil0 str6" d="M3172 1018c169,-47 325,-47 473,-6"/>
  <path class="fil0 str6" d="M3178 1095c168,-47 325,-47 472,-6"/>
  <path class="fil0 str6" d="M3200 1194c85,-78 151,-118 221,-121 76,-3 155,38 219,115"/>
  <g>
   <line class="fil0 str7" x1="3414" y1="734" x2="3414" y2= "734" />
  </g>
  <line class="fil0 str6" x1="3169" y1="1676" x2="3169" y2= "1308" />
  <line class="fil0 str6" x1="3660" y1="1678" x2="3660" y2= "1311" />
  <path class="fil2 str6" d="M2898 1448l28 0 0 -20c0,-13 -7,-25 -22,-17 -9,5 -6,25 -6,37z"/>
  <path class="fil2 str6" d="M3904 1439l28 0 0 -20c0,-14 -7,-25 -22,-17 -9,5 -6,25 -6,37z"/>
  <path class="fil1 str8" d="M4131 1722l307 0 -1 -549 1 -65 0 -230 89 1 0 843 330 0 1 -843c2,-10 18,-14 15,-70 -16,-12 -23,-6 -39,-1 -9,3 -39,9 -42,16 -5,15 2,-9 -1,4 0,1 -1,6 -1,8 0,5 -1,10 -1,16 -29,-1 -53,-18 -71,-3 -13,10 -59,10 -77,11l-1 -103 -16 0 0 105 -30 1c0,11 4,13 -4,15l0 -121 30 0 0 -37c21,-11 12,15 15,-44 31,-21 -27,-26 -44,-29l0 -48c-1,-6 -1,-3 -2,-6l-27 -1 0 -70 -5 0 0 70 -28 5c-4,16 2,-12 -1,4l0 46c-18,4 -40,3 -52,16 0,13 3,3 5,16 1,3 0,15 0,19 0,26 0,15 16,22l0 37 30 0 -1 51 -88 -1 0 -51 -52 1 -1 51 -185 -1 0 -40 -101 0 0 68 32 1 0 886z"/>
  <polyline class="fil0 str6" points="4590,878 4590,1722 4527,1722 4526,808 "/>
  <polyline class="fil0 str6" points="4859,884 4859,1728 4795,1728 4795,814 "/>
  <polyline class="fil0 str6" points="4385,808 4383,1722 4438,1725 4438,811 "/>
  <polyline class="fil0 str6" points="4137,810 4135,1724 4189,1727 4190,813 "/>
  <rect class="fil4 str6" x="4207" y="838" width="156.467" height="23.1789"/>
  <rect class="fil4 str6" x="4207" y="889" width="156.467" height="23.1789"/>
  <rect class="fil4 str6" x="4207" y="940" width="156.467" height="23.1789"/>
  <rect class="fil4 str6" x="4207" y="991" width="156.467" height="23.1789"/>
  <rect class="fil4 str6" x="4207" y="1042" width="156.467" height="23.1789"/>
  <rect class="fil4 str6" x="4207" y="1093" width="156.467" height="23.1789"/>
  <rect class="fil4 str6" x="4207" y="1144" width="156.467" height="23.1789"/>
  <rect class="fil4 str6" x="4207" y="1195" width="156.467" height="23.1789"/>
  <rect class="fil4 str6" x="4207" y="1246" width="156.467" height="23.1789"/>
  <rect class="fil4 str6" x="4207" y="1296" width="156.467" height="23.1789"/>
  <rect class="fil4 str6" x="4207" y="1347" width="156.467" height="23.1789"/>
  <rect class="fil4 str6" x="4207" y="1398" width="156.467" height="23.1789"/>
  <rect class="fil4 str6" x="4207" y="1449" width="156.467" height="23.1789"/>
  <rect class="fil4 str6" x="4207" y="1500" width="156.467" height="23.1789"/>
  <rect class="fil4 str6" x="4207" y="1551" width="156.467" height="23.1789"/>
  <rect class="fil4 str6" x="4207" y="1602" width="156.467" height="23.1789"/>
  <rect class="fil4 str6" x="4207" y="1653" width="156.467" height="23.1789"/>
  <rect class="fil4 str6" x="4613" y="940" width="156.467" height="23.1789"/>
  <rect class="fil4 str6" x="4613" y="991" width="156.467" height="23.1789"/>
  <rect class="fil4 str6" x="4613" y="1042" width="156.467" height="23.1789"/>
  <rect class="fil4 str6" x="4613" y="1093" width="156.467" height="23.1789"/>
  <rect class="fil4 str6" x="4613" y="1144" width="156.467" height="23.1789"/>
  <rect class="fil4 str6" x="4613" y="1195" width="156.467" height="23.1789"/>
  <rect class="fil4 str6" x="4613" y="1245" width="156.467" height="23.1789"/>
  <rect class="fil4 str6" x="4613" y="1296" width="156.467" height="23.1789"/>
  <rect class="fil4 str6" x="4613" y="1347" width="156.467" height="23.1789"/>
  <rect class="fil4 str6" x="4613" y="1398" width="156.467" height="23.1789"/>
  <rect class="fil4 str6" x="4613" y="1449" width="156.467" height="23.1789"/>
  <rect class="fil4 str6" x="4613" y="1500" width="156.467" height="23.1789"/>
  <rect class="fil4 str6" x="4613" y="1551" width="156.467" height="23.1789"/>
  <rect class="fil4 str6" x="4613" y="1602" width="156.467" height="23.1789"/>
  <rect class="fil4 str6" x="4613" y="1653" width="156.467" height="23.1789"/>
  <path class="fil0 str6" d="M4497 720c41,-12 82,-13 123,0"/>
  <rect class="fil1 str6" x="4496" y="670" width="13.7951" height="30.724"/>
  <rect class="fil1 str6" x="4604" y="670" width="13.7951" height="30.724"/>
  <rect class="fil1 str6" x="4524" y="664" width="13.7951" height="30.724"/>
  <rect class="fil1 str6" x="4577" y="664" width="13.7951" height="30.724"/>
  <rect class="fil1 str6" x="4552" y="661" width="13.7951" height="30.724"/>
  <path class="fil0 str6" d="M4497 654c41,-12 82,-14 123,0"/>
  <path class="fil1 str6" d="M66 1699l71 0 236 0c-7,20 -11,8 -12,34l571 0c-1,-27 -3,-13 -12,-34l144 -1 16 1 70 -1 117 1 21 -1c0,-13 1,-25 1,-38 1,-29 0,-4 -6,-23 -4,-16 0,-13 -1,-24 -1,-15 -7,0 -6,-30l-1 -17 2 -102c1,-10 -2,-1 3,-10 3,-4 1,4 8,-11 -25,-10 -20,-14 -29,-42 -3,-8 6,3 -5,-10 0,0 -4,11 -4,11 -7,11 3,4 -10,10 -21,-9 -1,-2 -21,-32 -16,-24 -70,-49 -24,-93 -10,-2 -11,-2 -18,-5 -1,42 11,50 -21,74 -23,17 -23,35 -38,56l-263 0c5,-14 9,-16 13,-27 -20,-5 -15,4 -22,-18 -5,-18 -2,-20 8,-30 -18,-14 -10,-16 -9,-68 1,-27 -14,-28 -23,-36l-9 -10c-23,30 -42,17 -36,81 3,34 -8,29 -12,30 -6,-11 -5,-37 -5,-55 1,-42 9,-18 15,-46 -7,-18 -13,-13 -20,-31 -4,-11 2,-22 4,-37l-15 -7c-18,-10 -22,-57 -76,-77 1,-25 9,-24 4,-37 -9,-19 -14,-14 -24,-28 -43,36 -24,21 -23,66 -41,13 -54,51 -69,71 -5,6 -2,3 -5,5l-16 11c11,45 1,35 -17,64 7,31 16,4 16,50 0,46 4,46 -13,51 -13,-19 5,-41 -5,-66 -5,-13 -6,-20 -15,-28l-24 -18c-6,22 -21,13 -28,35 -6,20 9,30 -3,77 -3,10 1,8 2,18 5,34 -21,32 -22,33 5,11 7,11 13,27l-260 0c-11,-2 -10,-12 -18,-27 -4,-7 -13,-18 -16,-21 -9,-9 -50,-32 -16,-72 0,-1 2,-1 2,-3 0,-1 2,-1 2,-2 -9,-2 -11,-3 -18,-5 0,17 4,40 -1,55 -6,14 -18,16 -26,25 -16,15 -23,40 -26,44 -7,9 2,5 -15,6 -7,-12 4,-7 -8,-21 -16,21 1,38 -34,53 10,20 13,3 12,21l2 106c0,33 -6,25 -8,42 0,1 0,2 0,3 -1,51 -9,7 -6,44 1,13 1,25 1,38l60 1zm755 -402l-4 21 -18 0 1 -18c6,-3 -6,-1 9,-3 6,-1 6,0 12,0zm-347 -1l21 1 -3 20 -18 1 0 -22z"/>
  <g>
   <line class="fil0 str7" x1="647" y1="1016" x2="647" y2= "1016" />
  </g>
  <g>
   <line class="fil0 str7" x1="647" y1="1016" x2="647" y2= "1016" />
  </g>
  <g>
   <path class="fil3" d="M459 1418l370 1 0 8 -370 0 -2 -8 2 -1zm0 9l-17 0 15 -8 2 8zm188 -100l-186 99 -4 -7 186 -99 4 0 0 7zm-4 -7l2 -1 2 1 -4 0zm184 107l-184 -100 4 -7 184 100 -2 7 -2 0zm4 -7l14 7 -16 0 2 -7z"/>
  </g>
  <rect class="fil0 str6" x="457" y="1423" width="31.2808" height="227.774"/>
  <polyline class="fil0 str6" points="373,1699 405,1651 895,1649 920,1699 "/>
  <rect class="fil0 str6" x="561" y="1423" width="31.2808" height="227.193"/>
  <rect class="fil0 str6" x="704" y="1423" width="31.2808" height="226.378"/>
  <rect class="fil0 str6" x="803" y="1423" width="31.2808" height="225.823"/>
  <path class="fil2 str6" d="M1152 1499l45 0 0 -40c0,-26 -12,-48 -34,-32 -16,10 -11,48 -11,72z"/>
  <path class="fil2 str6" d="M674 1637c2,-25 1,-59 0,-85 0,-25 5,-58 -24,-58 -31,0 -25,35 -25,61 1,25 -1,57 1,82l48 0z"/>
  <path class="fil2 str6" d="M790 1540c2,-11 1,-26 1,-38 0,-11 3,-26 -21,-26 -26,0 -21,16 -21,27 0,12 -2,26 1,37l40 0z"/>
  <path class="fil2 str6" d="M792 1618c2,-11 0,-26 0,-37 0,-12 4,-26 -21,-26 -26,0 -21,15 -21,27 1,11 -1,25 1,36l41 0z"/>
  <path class="fil2 str6" d="M542 1540c2,-11 0,-26 0,-38 0,-11 4,-26 -21,-26 -26,0 -21,16 -21,27 1,12 -1,26 1,37l41 0z"/>
  <path class="fil2 str6" d="M543 1618c2,-11 1,-26 1,-37 0,-12 3,-26 -21,-26 -26,0 -21,15 -21,27 0,11 -2,25 1,36l40 0z"/>
  <path class="fil2 str6" d="M1154 1607l45 0 -1 -40c0,-26 -11,-48 -34,-33 -15,10 -10,49 -10,73z"/>
  <path class="fil2 str6" d="M85 1530l44 0 0 -40c0,-26 -11,-47 -34,-32 -15,10 -10,48 -10,72z"/>
  <path class="fil2 str6" d="M85 1643l44 0 0 -40c0,-26 -11,-47 -34,-32 -15,10 -10,48 -10,72z"/>
  <rect class="fil0 str6" x="267" y="1415" width="16.7526" height="286.584"/>
  <rect class="fil0 str6" x="179" y="1412" width="16.7526" height="286.584"/>
  <rect class="fil0 str6" x="349" y="1415" width="16.7526" height="286.584"/>
  <path class="fil2 str6" d="M210 1530l45 0 -1 -40c0,-26 -11,-47 -34,-32 -15,10 -10,48 -10,72z"/>
  <path class="fil2 str6" d="M210 1643l45 0 -1 -40c0,-26 -11,-47 -34,-32 -15,10 -10,48 -10,72z"/>
  <path class="fil2 str6" d="M295 1530l45 0 0 -40c0,-26 -12,-47 -35,-32 -15,10 -10,48 -10,72z"/>
  <path class="fil2 str6" d="M295 1643l45 0 0 -40c0,-26 -12,-47 -35,-32 -15,10 -10,48 -10,72z"/>
  <path class="fil2 str6" d="M384 1525l44 0 0 -40c0,-26 -11,-48 -34,-33 -15,10 -10,49 -10,73z"/>
  <path class="fil2 str6" d="M384 1638l44 0 0 -40c0,-26 -11,-48 -34,-33 -15,10 -10,49 -10,73z"/>
  <rect class="fil0 str6" x="1017" y="1411" width="16.7526" height="286.584"/>
  <rect class="fil0 str6" x="1105" y="1408" width="16.7526" height="286.584"/>
  <rect class="fil0 str6" x="934" y="1411" width="16.7526" height="286.584"/>
  <path class="fil2 str6" d="M1090 1526l-44 0 0 -40c0,-26 11,-48 34,-33 15,10 10,49 10,73z"/>
  <path class="fil2 str6" d="M1090 1639l-44 0 0 -40c0,-26 11,-48 34,-33 15,10 10,49 10,73z"/>
  <path class="fil2 str6" d="M1005 1526l-45 0 0 -40c0,-26 12,-48 35,-33 15,10 10,49 10,73z"/>
  <path class="fil2 str6" d="M1005 1639l-45 0 0 -40c0,-26 12,-48 35,-33 15,10 10,49 10,73z"/>
  <path class="fil2 str6" d="M916 1521l-44 0 0 -40c0,-26 11,-48 34,-33 15,10 10,49 10,73z"/>
  <path class="fil2 str6" d="M916 1634l-44 0 0 -40c0,-26 11,-48 34,-33 15,10 10,49 10,73z"/>
  <line class="fil0 str6" x1="389" y1="1675" x2="908" y2= "1674" />
  <line class="fil0 str6" x1="373" y1="1697" x2="920" y2= "1696" />
  <path class="fil0 str6" d="M519 1239c99,22 181,18 250,-4"/>
  <path class="fil0 str6" d="M543 1202c70,13 139,12 208,-4"/>
  <rect class="fil4 str6" x="565" y="1183" width="16.148" height="58.5731" rx="5" ry="6"/>
  <rect class="fil4 str6" x="614" y="1188" width="16.148" height="58.5731" rx="5" ry="6"/>
  <rect class="fil4 str6" x="665" y="1188" width="16.148" height="58.5731" rx="5" ry="6"/>
  <rect class="fil4 str6" x="713" y="1182" width="16.148" height="58.5731" rx="5" ry="6"/>
  <line class="fil0 str6" x1="627" y1="1078" x2="663" y2= "1079" />
  <path class="fil0 str6" d="M641 1086c-23,29 -49,60 -63,98"/>
  <line class="fil0 str6" x1="647" y1="1086" x2="626" y2= "1188" />
  <path class="fil0 str6" d="M635 1085c-38,33 -65,73 -85,118"/>
  <path class="fil0 str6" d="M658 1083c37,34 65,74 84,119"/>
  <path class="fil0 str6" d="M654 1084c25,33 48,62 64,98"/>
  <path class="fil0 str6" d="M648 1085c25,42 43,83 53,123"/>
  <path class="fil0 str6" d="M647 1086c-25,42 -43,83 -53,123"/>
  <line class="fil0 str6" x1="648" y1="1088" x2="669" y2= "1189" />
  <line class="fil0 str6" x1="543" y1="1330" x2="765" y2= "1324" />
  <rect class="fil0 str6" x="613" y="1247" width="15.2347" height="80.5101"/>
  <rect class="fil0 str6" x="560" y="1249" width="15.2347" height="80.5101"/>
  <rect class="fil0 str6" x="672" y="1246" width="15.2347" height="80.5101"/>
  <rect class="fil0 str6" x="717" y="1244" width="15.2347" height="80.5101"/>
  <path class="fil1 str9" d="M597 158c40,-4 77,17 95,50 6,10 10,23 12,36 6,57 -36,102 -86,108 -57,6 -102,-36 -108,-86 -4,-42 17,-77 50,-96 10,-6 23,-10 37,-12zm-96 103c3,56 51,103 112,100 56,-3 102,-51 100,-111 -3,-56 -52,-104 -112,-101 -56,4 -103,52 -100,112z"/>
  <path class="fil1 str9" d="M663 93c-2,1 -1,0 -2,2l-4 11c-2,5 -13,31 -12,34 1,2 4,4 7,2 2,-1 12,-32 15,-40 1,-2 2,-4 2,-7 -1,-2 -4,-3 -6,-2z"/>
  <path class="fil1 str9" d="M488 279c2,-2 1,-5 -1,-6 -2,-1 -5,0 -7,0 -8,2 -41,6 -43,9 -1,2 0,5 2,6 3,1 19,-2 22,-3 4,-1 25,-3 27,-6z"/>
  <path class="fil1 str9" d="M660 414c3,7 9,3 9,-1 -1,-4 -8,-23 -10,-28 -4,-9 -5,-18 -10,-18 -3,1 -4,3 -4,6l10 27c2,5 3,9 5,14z"/>
  <path class="fil1 str9" d="M568 374c3,-7 -5,-10 -8,-3 -1,4 -3,9 -5,13 -3,9 -7,19 -9,27 -2,7 5,9 7,4 2,-4 4,-10 5,-14 4,-9 7,-18 10,-27z"/>
  <path class="fil1 str9" d="M753 344c2,0 4,-2 4,-5 -1,-3 -8,-7 -12,-9 -3,-2 -28,-17 -31,-17 -3,0 -5,2 -4,5 1,3 9,7 12,8 4,3 8,5 12,7 4,3 8,5 12,8 2,0 5,3 7,3z"/>
  <path class="fil1 str9" d="M440 222c-5,2 -4,7 2,8 7,2 42,8 45,8 2,-1 6,-7 -4,-9 -5,-1 -9,-2 -14,-3 -4,0 -27,-5 -29,-4z"/>
  <path class="fil1 str9" d="M503 319c2,-2 0,-5 -2,-6 -3,0 -5,1 -7,2 -6,4 -35,20 -36,22 -2,3 -1,6 2,7 3,0 5,-2 7,-3 5,-3 35,-20 36,-22z"/>
  <path class="fil1 str9" d="M547 93c-2,1 -2,3 -1,6 0,2 1,5 2,7 2,5 3,9 5,13 2,5 3,9 5,14 1,4 3,12 8,10 5,-2 1,-10 0,-14l-10 -27c-2,-4 -3,-12 -9,-9z"/>
  <path class="fil1 str9" d="M689 360l14 16c4,6 11,17 16,11 2,-3 0,-5 -2,-7l-22 -27c-5,-6 -7,-9 -12,-6 -2,5 1,7 6,13z"/>
  <path class="fil1 str9" d="M725 278c1,4 9,4 12,4l30 6c3,0 11,2 10,-5 -1,-4 -8,-4 -13,-4l-29 -6c-4,0 -12,-2 -10,5z"/>
  <path class="fil1 str9" d="M751 167l-25 14c-7,5 -16,8 -16,12 0,3 3,5 6,4 3,-1 9,-5 12,-7l25 -14c2,-1 4,-2 4,-6 0,-3 -3,-4 -6,-3z"/>
  <path class="fil1 str9" d="M530 347c-4,-2 -5,-2 -7,2 -1,1 -3,3 -5,5l-22 27c-4,4 1,12 7,5l22 -27c6,-6 8,-8 5,-12z"/>
  <path class="fil1 str9" d="M714 122c-3,1 -8,8 -10,11l-18 21c-1,2 -4,4 -4,7 1,3 4,4 7,3 1,-1 23,-28 27,-32 1,-1 4,-4 3,-7 0,-2 -2,-4 -5,-3z"/>
  <path class="fil1 str9" d="M603 89l0 40c0,9 8,9 8,0l0 -41c0,-3 0,-6 -4,-6 -4,1 -4,3 -4,7z"/>
  <path class="fil1 str9" d="M459 167c-1,1 -2,1 -2,3 0,4 3,5 7,8l25 14c2,1 10,7 13,5 2,-2 2,-5 1,-7l-31 -18c-3,-1 -10,-7 -13,-5z"/>
  <path class="fil1 str9" d="M497 122c-2,1 -4,3 -2,7l28 32c7,8 10,0 8,-4 -1,-1 -24,-27 -28,-32 -1,-2 -3,-4 -6,-3z"/>
  <path class="fil1 str9" d="M771 222l-44 8c-4,1 -4,9 5,7 9,-1 19,-3 29,-5 2,0 12,-2 14,-3 4,-2 3,-8 -4,-7z"/>
  <path class="fil1 str9" d="M603 424c1,5 7,5 8,0l0 -46c-1,-4 -7,-4 -8,0l0 46z"/>
  <path class="fil1 str10" d="M1613 1394c1,-14 2,-21 9,-34l16 -23c17,7 37,27 38,52 -16,5 -43,8 -63,5zm228 -31l-133 18c-12,-16 -8,-19 -23,-34 -10,-10 -19,-15 -26,-27 17,-31 49,-40 65,-72 1,0 2,2 3,2 31,29 25,10 67,-3 -1,2 -3,4 -4,9 -2,12 -3,3 2,12 9,-25 20,-41 54,-38 3,14 1,56 0,72 -1,20 -5,20 -8,34 -3,18 1,8 3,27zm-62 -91c-5,6 -1,1 -4,9 16,-6 8,-1 12,-15 -4,3 -3,2 -8,6zm29 -291c0,0 1,-1 2,-2 1,0 2,-2 3,-2l73 -61c10,-11 0,7 2,-9 0,0 0,-1 0,-2 4,-28 5,14 2,-9 -36,12 -31,7 -76,46 -10,-7 3,2 -7,-7 -37,-33 -35,13 -52,27 -33,29 -38,94 -34,125 0,1 1,2 1,3l0 5c0,-1 0,2 -1,2 -26,15 -30,-2 -53,20 -30,27 -65,44 -69,80 -6,56 26,85 12,122 -29,71 -4,79 -58,92 -71,19 -45,27 -49,60 -2,13 -6,27 -8,39 -4,27 -1,61 -11,83 -20,43 -67,36 -140,43 3,18 7,16 15,31 8,15 5,24 6,43l720 0c17,-6 3,2 10,-12 19,-37 19,-13 27,-39l-117 -53 -27 -27c0,-34 6,-64 6,-97 0,-22 -6,-26 -7,-41 -3,-27 41,-36 -43,-67 -20,-8 -62,-9 -70,-23 -12,-22 -4,9 -6,-19 -1,-19 7,-55 20,-65 16,-13 12,9 49,-25l27 7c3,10 0,20 -2,34 -7,36 -8,27 -13,31 -1,0 -43,18 -6,47 7,-9 31,-38 37,-52 1,-4 9,-71 9,-77 -11,-12 -25,-20 -42,-25 6,-22 19,-25 21,-42 5,-23 -6,-22 -10,-43 -7,-46 16,-55 37,-69 2,-25 60,1 64,-27 1,-5 -5,-12 -13,-20 -6,-6 -13,-12 -19,-18 -7,-6 -19,-12 -25,-18 -7,-8 -7,-14 -8,-19 -38,-22 -12,2 -35,-31 -25,63 -13,-3 -59,73 -35,58 -16,52 -38,58 -1,0 -22,3 -24,3 -11,-54 2,-26 -21,-73z"/>
 </g>
</svg>
