<?xml version="1.0" encoding="UTF-8"?>
<!DOCTYPE svg PUBLIC "-//W3C//DTD SVG 1.1//EN" "http://www.w3.org/Graphics/SVG/1.1/DTD/svg11.dtd">
<!-- Creator: CorelDRAW X7 -->
<svg xmlns="http://www.w3.org/2000/svg" xml:space="preserve" width="177px" height="128px" version="1.1" style="shape-rendering:geometricPrecision; text-rendering:geometricPrecision; image-rendering:optimizeQuality; fill-rule:evenodd; clip-rule:evenodd"
viewBox="0 0 3519 2549"
 xmlns:xlink="http://www.w3.org/1999/xlink">
 <defs>
  <style type="text/css">
   <![CDATA[
    .str0 {stroke:#1E4158;stroke-width:8.0786}
    .fil0 {fill:none}
    .fil3 {fill:none;fill-rule:nonzero}
    .fil10 {fill:#FEFEFE}
    .fil7 {fill:#00BAFF}
    .fil5 {fill:#1A4058}
    .fil1 {fill:#1E4158}
    .fil6 {fill:#E69C24}
    .fil8 {fill:#ECECEC}
    .fil4 {fill:#FEFEFE}
    .fil9 {fill:#FEFEFE;fill-rule:nonzero}
    .fil2 {fill:#1E4158;fill-rule:nonzero}
   ]]>
  </style>
 </defs>
 <g id="Capa_x0020_1">
  <metadata id="CorelCorpID_0Corel-Layer"/>
  <g id="_2320096780000">
   <rect class="fil0" width="3519" height="2549"/>
   <path class="fil1" d="M1457 1896l510 -11 90 502 -698 0c12,-81 42,-159 58,-245 16,-80 19,-168 40,-246zm1443 -341c-3,97 15,147 -53,208 -84,32 -2187,31 -2273,0 -66,-61 -51,-113 -52,-208l2378 0zm-2378 -107c0,-249 0,-497 0,-746 0,-487 -51,-540 178,-540l2082 0c136,0 117,103 117,229l0 1056 -2377 1zm1555 441c1070,-63 924,286 924,-1109 0,-539 81,-727 -297,-726l-2007 0c-187,0 -274,53 -278,239 -3,167 1,339 1,507 0,1382 -138,1026 925,1089 -15,197 -69,328 -99,496 -69,4 -162,-8 -190,-1 -6,1 -8,7 -8,14 -1,30 4,38 2,75 10,28 902,21 1089,22 84,0 168,-10 220,-13 12,-1 27,0 28,-20 1,-18 1,-39 1,-65 -54,-14 -128,-9 -213,-11 -29,-167 -81,-300 -98,-497z"/>
   <g>
    <polygon class="fil2" points="907,825 907,723 1488,475 1488,584 1027,775 1488,968 1488,1077 "/>
    <polygon id="1" class="fil3 str0" points="907,825 907,723 1488,475 1488,584 1027,775 1488,968 1488,1077 "/>
   </g>
   <g>
    <polygon id="2" class="fil2" points="1557,1228 1813,310 1900,310 1644,1228 "/>
    <polygon id="3" class="fil3 str0" points="1557,1228 1813,310 1900,310 1644,1228 "/>
   </g>
   <g>
    <polygon id="4" class="fil2" points="2549,825 1968,1077 1968,968 2428,775 1968,584 1968,475 2549,723 "/>
    <polygon id="5" class="fil3 str0" points="2549,825 1968,1077 1968,968 2428,775 1968,584 1968,475 2549,723 "/>
   </g>
   <path class="fil4" d="M2574 1826c-4,-70 81,-134 160,-126 72,7 136,73 132,154 -6,48 -23,87 -51,109 -73,55 -162,44 -216,-22 -13,-15 -45,-92 -25,-115zm-85 15c36,1 56,7 60,45 3,25 1,68 1,96l-16 -2c5,27 37,34 52,65l-21 58 29 16 35 -52c24,0 35,7 60,10 66,9 74,-26 97,60l33 -8c-1,-64 -30,-56 19,-84 9,-6 17,-12 26,-19 21,-16 26,-24 40,-44 27,-1 42,13 70,20l11 -30c-61,-56 -54,0 -40,-95 4,-25 -2,-49 1,-73l58 -26 -9 -33c-23,3 -44,12 -68,9 -12,-19 -19,-36 -33,-52 -15,-18 -28,-24 -43,-42 -3,-26 12,-42 19,-69l-28 -12c-21,18 -23,58 -58,49 -96,-23 -112,26 -135,-68l-34 8c12,91 28,49 -42,102 -19,14 -29,24 -40,45 -29,2 -43,-13 -71,-20l-12 28 49 36c4,23 -9,53 -10,82z"/>
   <path class="fil5" d="M3057 1918c-33,12 -23,19 -40,59 -23,54 -59,84 -72,124 13,43 30,41 37,84 -41,0 -37,-21 -73,-51 -47,0 -84,28 -148,37 -113,15 -40,36 -93,98l-8 -27c-12,-62 16,-62 -62,-93 -65,-26 -70,-48 -118,-77l-94 38c45,-121 80,25 25,-171 -8,-32 -12,-75 -17,-106 -101,-46 -66,4 -88,-45l97 -11c16,-31 24,-64 40,-91 21,-37 33,-39 52,-72 -2,-61 -20,-50 -36,-100 52,5 1,-17 77,53 38,-2 99,-29 155,-39 99,-18 34,-64 92,-98l7 96c28,16 67,29 96,46 32,19 47,41 78,52 50,-8 64,-45 85,-29 31,39 -74,17 -38,115 24,65 25,94 40,160l87 32c-20,16 9,2 -24,9 -3,1 -17,-7 -57,7zm-378 -469l-121 29c-42,-43 -86,-105 -172,-3 -43,51 -5,69 21,117 -18,40 -45,69 -56,114 -54,0 -95,-14 -114,26 -29,59 -29,125 35,148 9,4 38,10 52,14l31 132c-31,18 -76,38 -57,91 5,16 64,86 72,92 62,-5 52,-26 101,-42 17,9 90,52 107,66 0,44 -15,88 28,107 33,15 93,15 121,10 34,-40 15,-57 43,-92l117 -37c22,29 47,70 95,57 30,-8 80,-54 94,-78 -4,-63 -24,-42 -39,-99 23,-38 38,-67 61,-108l100 1c16,-40 29,-104 17,-158l-93 -29 -33 -125c27,-23 46,-32 62,-68 -4,-44 -48,-103 -88,-122 -42,7 -55,25 -88,41 -22,-10 -79,-43 -108,-62 -4,-56 39,-141 -158,-121l-30 99z"/>
   <path class="fil4" d="M2948 1913c-99,310 -535,165 -452,-129 30,-107 140,-199 285,-163 104,27 212,148 167,292zm-412 -346c-76,-70 -25,-48 -77,-53 16,50 34,39 36,100 -19,33 -31,35 -52,72 -16,27 -24,60 -40,91l-97 11c22,49 -13,-1 88,45 5,31 9,74 17,106 55,196 20,50 -25,171l94 -38c48,29 53,51 118,77 78,31 50,31 62,93l8 27c53,-62 -20,-83 93,-98 64,-9 101,-37 148,-37 36,30 32,51 73,51 -7,-43 -24,-41 -37,-84 13,-40 49,-70 72,-124 17,-40 7,-47 40,-59 40,-14 54,-6 57,-7 33,-7 4,7 24,-9l-87 -32c-15,-66 -16,-95 -40,-160 -36,-98 69,-76 38,-115 -21,-16 -35,21 -85,29 -31,-11 -46,-33 -78,-52 -29,-17 -68,-30 -96,-46l-7 -96c-58,34 7,80 -92,98 -56,10 -117,37 -155,39z"/>
   <path class="fil5" d="M2811 1020c0,-2 64,-117 69,-123 17,-21 26,-19 68,-32 82,-25 141,-18 208,45l32 69c2,6 19,86 19,86 -1,26 -44,101 -67,125 -23,25 -117,51 -149,49 -39,-2 -132,-39 -159,-135l-21 -84zm-36 -210c-3,94 45,23 -10,125 -61,8 -94,18 -82,96 6,43 13,28 43,48 40,26 8,-2 35,48 -18,52 -47,28 -31,88 27,98 112,53 120,52 85,0 31,73 86,98 23,11 62,9 88,5 14,-23 19,-64 60,-71 81,-13 21,59 106,22 91,-41 27,-75 55,-162 26,-14 45,-8 76,-17 47,-137 -11,-123 -30,-136 -1,0 -40,-8 -29,-60 18,-86 76,18 -13,-138 -63,-4 -42,12 -82,11 -41,-1 -42,-17 -51,-44 -12,-37 2,-39 -36,-55 -118,-48 -82,60 -144,68 -100,13 -10,-99 -161,22z"/>
   <path class="fil6" d="M2865 1913c-80,182 -366,76 -287,-125 73,-187 373,-73 287,125zm83 0c45,-144 -63,-265 -167,-292 -145,-36 -255,56 -285,163 -83,294 353,439 452,129z"/>
   <path class="fil4" d="M2865 1913c86,-198 -214,-312 -287,-125 -79,201 207,307 287,125z"/>
   <path class="fil7" d="M3052 965c25,33 58,57 33,115 -14,33 -59,58 -105,41 -78,-31 -84,-176 72,-156zm-199 111c33,193 356,154 315,-66 -37,-198 -354,-155 -315,66z"/>
   <path class="fil8" d="M2853 1076c-39,-221 278,-264 315,-66 41,220 -282,259 -315,66zm-21 28c27,96 120,133 159,135 32,2 126,-24 149,-49 23,-24 66,-99 67,-125 0,0 -17,-80 -19,-86l-32 -69c-67,-63 -126,-70 -208,-45 -42,13 -51,11 -68,32 -5,6 -69,121 -69,123l21 84z"/>
   <g>
    <path class="fil7" d="M3010 860c99,0 179,81 179,180 0,100 -80,181 -179,181 -99,0 -179,-81 -179,-181 0,-99 80,-180 179,-180z"/>
    <path id="1" class="fil9" d="M3220 1040l-62 0 0 0 0 -7 -1 -8 -1 -7 -1 -8 -2 -7 -2 -7 -2 -7 -3 -7 -3 -6 -3 -7 -4 -6 -3 -6 -5 -6 -4 -5 -5 -6 -4 -5 -6 -5 -5 -5 -6 -4 -5 -4 -6 -4 -7 -4 -6 -3 -7 -3 -6 -3 -7 -2 -7 -2 -7 -2 -8 -1 -7 -1 -8 -1 -7 0 0 -62 11 0 10 1 11 1 10 2 10 2 10 3 10 3 10 4 9 4 9 5 9 5 8 6 9 6 8 6 7 7 7 7 7 7 7 8 6 8 6 8 6 9 5 8 4 10 5 9 3 10 4 9 2 11 3 10 2 10 1 11 1 11 0 10 0 0zm-210 212l0 -62 0 0 7 0 8 -1 7 -1 8 -1 7 -2 7 -2 7 -2 6 -3 7 -3 6 -3 7 -4 6 -4 5 -4 6 -4 5 -5 6 -5 4 -5 5 -6 4 -5 5 -6 3 -6 4 -6 3 -7 3 -6 3 -7 2 -7 2 -7 2 -7 1 -8 1 -7 1 -8 0 -8 62 0 0 11 -1 11 -1 11 -2 10 -3 10 -2 10 -4 10 -3 10 -5 9 -4 9 -5 9 -6 9 -6 8 -6 8 -7 8 -7 7 -7 7 -7 7 -8 6 -9 6 -8 6 -9 5 -9 4 -9 5 -10 4 -10 3 -10 3 -10 2 -10 2 -11 1 -10 1 -11 0 0 0zm-211 -212l63 0 0 0 0 8 0 8 1 7 2 8 1 7 2 7 3 7 2 7 3 6 3 7 4 6 4 6 4 6 4 5 5 6 5 5 5 5 6 5 5 4 6 4 6 4 6 4 7 3 6 3 7 3 7 2 7 2 7 2 7 1 8 1 7 1 8 0 0 62 -11 0 -11 -1 -10 -1 -11 -2 -10 -2 -10 -3 -10 -3 -9 -4 -9 -5 -9 -4 -9 -5 -9 -6 -8 -6 -8 -6 -8 -7 -7 -7 -7 -7 -7 -8 -6 -8 -6 -8 -5 -9 -5 -9 -5 -9 -4 -9 -4 -10 -3 -10 -3 -10 -2 -10 -2 -10 -1 -11 -1 -11 -1 -11 0 0zm211 -211l0 62 0 0 -8 0 -7 1 -8 1 -7 1 -7 2 -7 2 -7 2 -7 3 -6 3 -7 3 -6 4 -6 4 -6 4 -5 4 -6 5 -5 5 -5 5 -5 6 -4 5 -4 6 -4 6 -4 6 -3 7 -3 6 -2 7 -3 7 -2 7 -1 7 -2 8 -1 7 0 8 0 7 -63 0 1 -10 1 -11 1 -11 2 -10 2 -10 3 -11 3 -9 4 -10 4 -9 5 -10 5 -8 5 -9 6 -8 6 -8 7 -8 7 -7 7 -7 8 -7 8 -6 8 -6 9 -6 9 -5 9 -5 9 -4 9 -4 10 -3 10 -3 10 -2 11 -2 10 -1 11 -1 11 0 0 0z"/>
   </g>
   <ellipse class="fil10" cx="3010" cy="1040" rx="89" ry="90"/>
  </g>
 </g>
</svg>
