<?xml version="1.0" encoding="UTF-8"?>
<!DOCTYPE svg PUBLIC "-//W3C//DTD SVG 1.1//EN" "http://www.w3.org/Graphics/SVG/1.1/DTD/svg11.dtd">
<!-- Creator: CorelDRAW X7 -->
<svg xmlns="http://www.w3.org/2000/svg" xml:space="preserve" width="2691px" height="559px" version="1.1" style="shape-rendering:geometricPrecision; text-rendering:geometricPrecision; image-rendering:optimizeQuality; fill-rule:evenodd; clip-rule:evenodd"
viewBox="0 0 241053 50049"
 xmlns:xlink="http://www.w3.org/1999/xlink">
 <defs>
  <style type="text/css">
   <![CDATA[
    .str0 {stroke:#EAEBEC;stroke-width:528.973}
    .str70 {stroke:#606062;stroke-width:105.795}
    .str72 {stroke:#606062;stroke-width:167.05}
    .str92 {stroke:#E69C24;stroke-width:167.05}
    .str71 {stroke:#EAEBEC;stroke-width:167.05}
    .str91 {stroke:#606062;stroke-width:167.155}
    .str78 {stroke:#606062;stroke-width:167.155}
    .str86 {stroke:#606062;stroke-width:167.155}
    .str81 {stroke:#606062;stroke-width:167.155}
    .str89 {stroke:#606062;stroke-width:167.155}
    .str76 {stroke:#606062;stroke-width:167.155}
    .str84 {stroke:#606062;stroke-width:167.155}
    .str79 {stroke:#606062;stroke-width:167.155}
    .str87 {stroke:#606062;stroke-width:167.155}
    .str82 {stroke:#606062;stroke-width:167.155}
    .str90 {stroke:#606062;stroke-width:167.155}
    .str77 {stroke:#606062;stroke-width:167.155}
    .str85 {stroke:#606062;stroke-width:167.155}
    .str80 {stroke:#606062;stroke-width:167.155}
    .str88 {stroke:#606062;stroke-width:167.155}
    .str83 {stroke:#606062;stroke-width:167.155}
    .str75 {stroke:#606062;stroke-width:167.155}
    .str7 {stroke:#606062;stroke-width:167.155}
    .str38 {stroke:#606062;stroke-width:167.155}
    .str48 {stroke:#606062;stroke-width:167.155}
    .str27 {stroke:#606062;stroke-width:167.155}
    .str47 {stroke:#606062;stroke-width:167.155}
    .str61 {stroke:#606062;stroke-width:167.155}
    .str14 {stroke:#606062;stroke-width:167.155}
    .str25 {stroke:#606062;stroke-width:167.155}
    .str46 {stroke:#606062;stroke-width:167.155}
    .str51 {stroke:#606062;stroke-width:167.155}
    .str3 {stroke:#606062;stroke-width:167.155}
    .str12 {stroke:#606062;stroke-width:167.155}
    .str39 {stroke:#606062;stroke-width:167.155}
    .str15 {stroke:#606062;stroke-width:167.155}
    .str8 {stroke:#606062;stroke-width:167.155}
    .str43 {stroke:#606062;stroke-width:167.155}
    .str62 {stroke:#606062;stroke-width:167.155}
    .str69 {stroke:#606062;stroke-width:167.155}
    .str18 {stroke:#606062;stroke-width:167.155}
    .str52 {stroke:#606062;stroke-width:167.155}
    .str1 {stroke:#606062;stroke-width:167.155}
    .str16 {stroke:#606062;stroke-width:167.155}
    .str31 {stroke:#606062;stroke-width:167.155}
    .str4 {stroke:#606062;stroke-width:167.155}
    .str20 {stroke:#606062;stroke-width:167.155}
    .str54 {stroke:#606062;stroke-width:167.155}
    .str34 {stroke:#606062;stroke-width:167.155}
    .str45 {stroke:#606062;stroke-width:167.155}
    .str60 {stroke:#606062;stroke-width:167.155}
    .str66 {stroke:#606062;stroke-width:167.155}
    .str59 {stroke:#606062;stroke-width:167.155}
    .str37 {stroke:#606062;stroke-width:167.155}
    .str44 {stroke:#606062;stroke-width:167.155}
    .str58 {stroke:#606062;stroke-width:167.155}
    .str63 {stroke:#606062;stroke-width:167.155}
    .str22 {stroke:#606062;stroke-width:167.155}
    .str53 {stroke:#606062;stroke-width:167.155}
    .str9 {stroke:#606062;stroke-width:167.155}
    .str24 {stroke:#606062;stroke-width:167.155}
    .str40 {stroke:#606062;stroke-width:167.155}
    .str55 {stroke:#606062;stroke-width:167.155}
    .str5 {stroke:#606062;stroke-width:167.155}
    .str26 {stroke:#606062;stroke-width:167.155}
    .str28 {stroke:#606062;stroke-width:167.155}
    .str68 {stroke:#606062;stroke-width:167.155}
    .str30 {stroke:#606062;stroke-width:167.155}
    .str57 {stroke:#606062;stroke-width:167.155}
    .str13 {stroke:#606062;stroke-width:167.155}
    .str33 {stroke:#606062;stroke-width:167.155}
    .str36 {stroke:#606062;stroke-width:167.155}
    .str10 {stroke:#606062;stroke-width:167.155}
    .str56 {stroke:#606062;stroke-width:167.155}
    .str17 {stroke:#606062;stroke-width:167.155}
    .str49 {stroke:#606062;stroke-width:167.155}
    .str2 {stroke:#606062;stroke-width:167.155}
    .str6 {stroke:#606062;stroke-width:167.155}
    .str19 {stroke:#606062;stroke-width:167.155}
    .str65 {stroke:#606062;stroke-width:167.155}
    .str64 {stroke:#606062;stroke-width:167.155}
    .str21 {stroke:#606062;stroke-width:167.155}
    .str42 {stroke:#606062;stroke-width:167.155}
    .str11 {stroke:#606062;stroke-width:167.155}
    .str29 {stroke:#606062;stroke-width:167.155}
    .str67 {stroke:#606062;stroke-width:167.155}
    .str50 {stroke:#606062;stroke-width:167.155}
    .str23 {stroke:#606062;stroke-width:167.155}
    .str32 {stroke:#606062;stroke-width:167.155}
    .str41 {stroke:#606062;stroke-width:167.155}
    .str35 {stroke:#606062;stroke-width:167.155}
    .str94 {stroke:#606062;stroke-width:167.155}
    .str73 {stroke:#606062;stroke-width:167.155}
    .str74 {stroke:#606062;stroke-width:167.155}
    .str93 {stroke:#EAEBEC;stroke-width:105.795}
    .fil4 {fill:none}
    .fil9 {fill:#00BAFF}
    .fil7 {fill:#C3A17C}
    .fil8 {fill:#E69C24}
    .fil2 {fill:#EAEBEC}
    .fil0 {fill:#ECECEC}
    .fil1 {fill:#FEFEFE}
    .fil6 {fill:white}
    .fil5 {fill:#606062;fill-rule:nonzero}
    .fil3 {fill:#E69C24;fill-rule:nonzero}
   ]]>
  </style>
 </defs>
 <g id="Capa_x0020_1">
  <metadata id="CorelCorpID_0Corel-Layer"/>
  <path class="fil0" d="M107852 49963l0 0zm0 0l0 0z"/>
  <line class="fil1" x1="107852" y1="49963" x2="107852" y2= "49963" />
  <rect class="fil2 str0" x="265" y="265" width="240524" height="49520"/>
  <g id="_2320231290368">
   <g>
    <path class="fil3" d="M189750 19438c0,0 -41,7 -29,0 -2,0 -7,2 -8,2 3,-2 -148,-14 -276,-12 -156,5 -105,4 0,2 21,-6 278,14 278,15 0,0 32,-6 35,-7zm-395 971c7,-3 15,-6 23,-8 -8,2 -16,5 -23,8zm-299 -616c-2,-1 -20,4 -16,-3 -11,7 -22,14 -32,20 -65,42 38,-13 48,-17zm937 230c380,-41 707,-30 1065,127 -418,160 -683,216 -1122,253 -209,35 -279,12 -471,-4 -34,-4 -54,-5 -87,2 33,-4 54,-2 87,3 189,18 271,38 472,4 643,-48 468,-12 19,81 -221,42 -288,19 -488,16 -41,-1 -58,2 -97,16 42,-17 55,-18 97,-9 195,27 288,42 495,9 668,9 1489,144 161,105 870,228 588,257 -77,253 -52,8 -534,54 -568,-6 2,-4 88,-78 -15,-33 105,-38 18,32 15,41 30,62 520,18 570,10 7,6 3523,162 3760,174 8119,189 6592,-3895 2662,-3361 -1803,360 -5262,867 -6772,1675l-91 42c44,1 114,-4 101,-3 420,-106 506,-91 2,11 -1,0 -88,-7 -103,-8 -20,-1 -40,-2 -60,-3 59,4 176,8 164,14 0,0 91,-15 99,-16 -17,4 -76,14 -90,22 127,5 406,97 38,198 -62,13 -243,-9 -317,-11 -2,0 -5,0 -7,0 1,0 7,0 7,0 100,3 233,28 320,24 644,-64 514,-28 15,67 -88,14 -235,-8 -332,-8 -150,1 -256,23 -396,78 5,3 11,2 16,3 134,-52 238,-73 380,-66 115,5 239,37 342,36 329,12 900,135 206,264z"/>
   </g>
   <path class="fil4" d="M199407 19394c-1265,-217 -7911,51 -9602,442 -211,49 -446,-100 -878,182"/>
   <g>
    <path class="fil3" d="M193144 27277c0,0 -42,6 -30,0 -1,0 -6,1 -7,1 2,0 -149,-13 -276,-11 -156,5 -105,4 0,2 21,-6 278,14 278,15 0,0 32,-6 35,-7zm-395 971c7,-3 15,-6 22,-8 -7,2 -15,5 -22,8zm-299 -617c-3,-1 -20,5 -17,-2 -10,7 -21,13 -32,20 -64,41 39,-13 49,-18zm937 230c380,-40 707,-29 1064,128 -417,160 -682,216 -1121,253 -209,35 -279,11 -471,-5 -34,-4 -54,-4 -88,3 34,-4 55,-2 88,2 189,18 271,39 472,5 643,-48 468,-12 19,80 -220,43 -288,20 -488,17 -41,-1 -58,1 -97,16 42,-18 55,-18 97,-9 196,26 287,42 496,9 668,9 1487,144 160,105 870,228 588,257 -78,252 -51,9 -532,54 -567,-5 1,-4 88,-78 -15,-33 105,-38 18,32 15,41 30,61 520,18 570,10 8,6 3523,161 3759,174 8120,189 6593,-3895 2662,-3362 -1802,361 -5261,867 -6771,1675l-91 43c44,1 114,-4 100,-4 420,-105 508,-90 3,11 -1,0 -89,-6 -103,-7 -20,-1 -40,-2 -61,-3 60,3 177,8 165,14 0,0 91,-15 99,-16 -17,3 -76,14 -91,22 126,5 408,97 39,198 -62,13 -243,-9 -317,-11 -2,0 -5,0 -7,0 1,0 7,0 7,0 99,3 232,28 320,24 643,-65 514,-28 15,66 -88,15 -235,-7 -332,-8 -150,1 -257,24 -396,79 5,2 11,2 16,3 134,-52 237,-73 380,-66 115,5 239,37 342,35 329,13 900,135 206,264z"/>
   </g>
   <path class="fil4" d="M202801 27233c-1265,-217 -7911,51 -9602,442 -211,49 -446,-101 -879,182"/>
   <g>
    <path class="fil3" d="M188912 20922c-18,-2 -37,-4 -54,-5 -1,0 -87,-8 -45,-8 -1206,-93 -1636,-121 45,9 4,2 46,4 54,4zm-1823 701c35,12 71,23 106,33 -35,-10 -71,-21 -106,-33zm160 -669c0,-2 -14,-10 -7,-12 -10,-3 -19,-5 -28,-8 -54,-15 30,18 35,20zm1992 607c830,57 1603,91 2429,228 160,25 317,52 476,84 -158,17 -318,28 -476,45 -1006,85 -1869,75 -2872,-17 -537,-46 -1082,-101 -1603,-245 521,151 1064,204 1603,250 1939,170 1508,169 -5,81 -509,-35 -1384,-96 -1858,-304 558,214 1263,281 1856,340 1935,215 4197,502 468,157 3085,520 955,358 -490,209 -693,-68 -1465,-140 -2094,-460 -8,-2 -90,-49 -89,-51 42,21 75,36 120,53 163,58 306,71 478,48 376,-79 -94,19 -254,20 164,0 630,-98 254,-18 -172,22 -315,9 -478,-49 -45,-16 -79,-32 -121,-53 -5,-1 48,29 88,52 645,325 1386,398 2095,472 969,116 1932,182 2906,239 1597,75 3398,71 4966,227 143,5 286,6 429,5 13860,-2104 14536,-8077 4643,-4306 -1655,662 -3379,1248 -5141,1532 -1531,290 -3347,426 -4906,548 -924,95 -1875,148 -2803,196 -192,10 -700,-4 -680,-2 226,20 451,35 677,47 1189,55 1331,91 -1,12 -216,-7 -460,-34 -676,-59 -38,-4 -76,-8 -114,-13 264,34 525,57 790,77 16,5 208,15 240,17 -78,-4 -162,-11 -240,-12 -15,0 -30,-2 -45,-2 5,1 44,5 45,6 547,107 887,229 -12,198 -333,-19 -653,-48 -982,-101 328,54 650,88 981,116 1614,146 1402,157 -4,68 -388,-14 -1239,-96 -1591,-251 1,5 5,8 8,13 436,163 1112,233 1580,285 833,116 2548,402 403,318z"/>
   </g>
   <path class="fil4" d="M208203 18333c-1230,0 -7846,2839 -11603,2933 -1585,39 -8409,329 -9472,-218 -147,-75 -26,-32 -198,-32"/>
   <g>
    <path class="fil3" d="M188617 23403c-19,0 -79,0 -57,-5 -827,15 -576,12 57,5zm-905 967c24,0 49,0 73,-1 -24,1 -49,1 -73,1zm-70 -683c-2,-2 -20,-4 -15,-9 -12,2 -24,3 -36,5 -73,9 41,4 51,4zm1231 330c535,4 1081,-1 1586,204 -893,247 -1764,157 -2674,148 2804,79 1332,131 -153,112 739,9 4134,324 1291,152 2598,485 -1058,199 -1494,173 1872,144 3757,209 5620,441 58,7 119,12 177,17 9051,210 7887,-4454 2641,-3387 -905,246 -1893,438 -2818,584 -1415,227 -3388,587 -4783,930 1107,-59 1274,-17 0,0 -20,0 -40,1 -61,1 179,0 357,-1 535,-2 -50,2 -131,0 -180,8 943,108 -141,205 -451,204 2369,61 536,92 -471,76 3,5 9,6 14,9 224,5 3120,249 1221,330z"/>
   </g>
   <path class="fil4" d="M199844 23262c-2027,0 -4335,374 -6795,374 -1860,0 -3619,187 -5620,187"/>
   <g>
    <path class="fil3" d="M222975 17985c54,1 223,3 163,7 2415,9 1612,4 -163,-7zm2613 -948c-68,0 -135,0 -203,0 68,0 135,0 203,0zm180 684c2,0 55,4 39,8 34,-1 67,-3 101,-4 200,-9 -112,-5 -140,-4zm-3472 -358c-1537,-23 -3109,-40 -4630,-278 2586,-192 5134,-67 7719,-48 -7845,-137 -3794,-138 422,-110 -2196,-18 -11610,-466 -3590,-181 -7106,-567 2843,-174 4140,-143 -5665,-164 -11326,-425 -16989,-647 -15515,-374 -30547,4186 -10484,3366l2714 -111c7452,-456 14948,-720 22389,-1204 -3204,30 -3716,-17 0,0 58,0 116,0 174,0 -515,-3 -1030,-8 -1545,-13 170,0 353,6 522,-2 -2668,-135 554,-200 1309,-192 -6812,-122 -1583,-98 1332,-71 -12,-4 -27,-6 -40,-8 -512,-7 -8768,-351 -3443,-358z"/>
   </g>
   <path class="fil4" d="M189800 17585c12186,0 24372,0 36557,0"/>
   <g>
    <path class="fil3" d="M216849 20709c23,-1 95,-1 68,4 985,-31 653,-22 -68,-4zm1029 -986c-28,0 -55,1 -82,2 27,-1 54,-2 82,-2zm83 682c2,2 22,4 15,9 13,-2 26,-4 39,-5 78,-10 -44,-4 -54,-4zm-1415 -308c-583,-5 -1290,-24 -1791,-357 1017,-39 2025,-8 3041,-15 -3369,-21 -1502,-115 168,-114 -968,6 -4737,-387 -1468,-131 -2792,-524 1186,-219 1689,-195 -1108,-67 -2445,-21 -3486,-393 -787,-294 -1629,-409 -2455,-536 -11851,-1263 -10815,3154 -4383,2999 985,-57 5928,-153 6360,-398 721,54 2335,-26 3045,-243 -1329,84 -1565,45 0,0 24,-1 47,-2 71,-3 -213,5 -425,10 -638,12 64,-2 156,-1 218,-10 -1213,-101 216,-209 527,-213 -2796,-11 -703,-84 522,-86 -5,-4 -10,-6 -16,-9 -402,-1 -3605,-251 -1404,-308z"/>
   </g>
   <path class="fil4" d="M203462 19519c754,0 10229,495 10939,659 1170,271 2597,89 3784,89"/>
   <g>
    <path class="fil3" d="M220451 20176c0,0 48,14 32,14 538,130 242,57 -32,-14zm635 -840c-9,-1 -18,-3 -27,-4 9,1 18,3 27,4zm-74 680c0,3 8,6 5,10 5,-1 11,-2 16,-2 33,-5 -17,-7 -21,-8zm-557 -478c-393,-127 -727,-265 -1020,-569 780,36 955,199 1624,363 -1538,-478 -659,-246 71,-101 -631,-143 -2246,-1048 -544,-297 -1254,-872 198,-188 644,-17 -1315,-575 -2602,-1197 -3913,-1784 -172,-77 -349,-146 -521,-222 -952,-391 -1886,-707 -2928,-695 -3282,115 -2541,2632 -723,3258 372,110 713,138 1100,144 538,10 1146,82 1682,140 918,126 3912,611 4721,484 -706,-118 -754,-183 0,0 12,3 23,5 34,7 -103,-25 -206,-52 -308,-82 23,6 87,24 109,23 -539,-266 64,-194 292,-134 -1329,-412 -387,-169 237,-31 -1,-4 -2,-6 -5,-10 -541,-131 -1522,-714 -552,-477z"/>
   </g>
   <path class="fil4" d="M211635 17585c1549,-370 7740,2107 9482,2308"/>
   <g>
    <path class="fil3" d="M214742 19173c-14,0 -56,0 -41,-5 -55,2 -110,4 -166,5 -480,19 -404,17 1,4 68,-2 137,-3 206,-4zm-686 992c11,-1 22,-2 33,-4 -11,2 -22,3 -33,4zm-126 -672c-1,-2 -12,-3 -9,-8 -6,3 -12,5 -18,8 -35,16 22,1 27,0zm1007 296c323,8 589,18 905,94 189,37 349,80 528,151 -176,37 -344,65 -523,87 -456,63 -814,48 -1267,30 -155,-4 -336,0 -491,10 48,0 491,-7 491,-5 1228,48 872,68 5,93 -175,7 -362,24 -533,28 63,-9 532,-16 533,-10 401,28 877,77 1269,165 151,28 181,45 0,46 -282,-5 -595,-42 -876,-73 1557,411 262,281 -376,227 -348,-9 -701,66 -316,-94 -374,156 -20,92 316,104 1,2 1158,120 1259,137 292,25 1720,128 1912,270 13,12 640,73 707,79 7313,1 6323,-4383 2079,-3437 -904,276 -1870,523 -2786,759 -248,176 -1595,349 -1951,405 -420,85 -877,173 -1288,294 -10,3 -74,14 -65,14 13,-1 57,-2 66,-5 768,-60 907,-18 0,3 -22,0 -44,1 -66,2 -24,1 -48,2 -72,4 46,-2 92,-3 138,-5 99,-1 199,-1 298,-1 -31,1 -103,1 -132,7 454,73 354,193 -156,206 -82,1 -165,4 -247,6 82,-1 165,-2 247,-2 1119,40 897,62 3,76 -197,3 -426,9 -622,31 3,3 6,4 10,7 195,-21 417,-16 614,-12 388,40 1514,273 387,309z"/>
   </g>
   <path class="fil4" d="M223675 19207c-1121,-200 -4182,312 -5902,312 -198,0 -3671,24 -3893,125"/>
   <g>
    <path class="fil3" d="M216987 20133c0,1 23,10 15,11 207,67 194,61 -15,-11zm430 -844c23,1 46,4 69,9 -23,-5 -46,-8 -69,-9zm3 682c1,3 8,4 7,9 3,-2 7,-4 11,-6 21,-11 -14,-3 -18,-3zm-357 -460c-255,-94 -414,-152 -585,-381 416,-131 646,-5 1018,165 29,13 7,6 -10,3 18,2 40,8 11,-6 -819,-379 -621,-351 37,-102 42,17 -95,-25 -182,-10 62,-5 215,24 181,9 -324,-155 -1504,-835 -337,-281 -856,-717 155,-220 456,-52 4,5 -589,-21 -153,-8l154 2c-792,-453 -1564,-698 -2447,-913 -4039,-520 -3336,3982 -1142,3279 1038,-473 1947,-714 3015,-1033 -352,-69 -356,-122 0,0 5,1 11,3 16,5 -48,-19 -97,-38 -146,-55 7,2 46,12 53,11 -127,-111 -151,-285 184,-145 -639,-313 -306,-219 80,-55 58,23 92,37 157,36 -2,-4 -4,-5 -7,-8 -59,0 -94,-15 -147,-37 -178,-99 -793,-554 -206,-424z"/>
   </g>
   <path class="fil4" d="M212383 19644c1354,0 3710,-263 4929,171 104,37 73,16 187,16"/>
   <g>
    <path class="fil3" d="M219196 23399c27,-3 115,-13 83,-5 1314,-190 587,-84 -83,5zm946 -1140c-23,6 -47,12 -70,18 23,-6 47,-12 70,-18zm258 640c2,0 40,-7 30,0 21,-7 42,-15 63,-23 116,-43 -81,19 -93,23zm-1628 -73c-926,82 -1852,93 -2767,-95 1303,-174 2834,-213 4067,-454 -4211,619 -1327,194 84,-136 9,-1 56,-14 51,-13 -11,3 -42,13 -51,14 -1295,264 -5941,207 -1496,76 -3618,-182 403,-248 1411,-405 292,-59 384,-105 710,-94 -332,-12 -418,34 -711,91 -2959,399 -7198,-22 -10173,-331 -619,-68 -1239,-137 -1858,-207 -2226,-259 -4519,-552 -6756,-671 -7032,-603 -5758,1922 -582,3249 1114,241 2129,330 3267,365 1283,34 2547,73 3833,81 2886,19 9195,-34 11889,-951 -2095,380 -1662,245 0,0 26,-5 53,-10 80,-15 -251,42 -503,75 -756,102 80,-10 188,-19 265,-38 -1522,65 259,-242 581,-291 -3412,433 -886,107 498,-185 10,-1 41,-10 52,-13 -10,-2 -21,-1 -31,-1 -3,1 -21,6 -23,6 -995,199 -4084,193 -1584,-84z"/>
   </g>
   <path class="fil4" d="M196725 20891c2945,1843 19002,3083 23597,1888 161,-42 249,-85 421,-79"/>
   <g>
    <path class="fil3" d="M220808 22860c18,3 75,10 53,12 864,81 410,37 -53,-12zm820 -897c-16,-1 -33,-1 -49,-2 16,1 33,1 49,2zm28 684c1,2 14,5 10,9 9,-1 17,-2 26,-4 52,-8 -29,-5 -36,-5zm-1018 -428c-617,-91 -1203,-210 -1756,-513 1058,-2 1715,173 2697,255 -2793,-351 -984,-161 103,-107 -901,-63 -3879,-878 -1007,-252 -2350,-822 457,-156 1128,-71 -2117,-338 -4528,-1054 -6594,-1648 -10890,-2964 -9349,1547 -4424,2338 2631,292 7921,1022 10348,688 -1149,-56 -1226,-117 0,0 18,1 36,2 54,3 -167,-14 -335,-33 -502,-55 48,5 130,17 176,15 -954,-231 140,-191 426,-161 -2210,-294 -643,-126 372,-55 -3,-4 -7,-6 -10,-9 -659,-55 -2698,-604 -1011,-428z"/>
   </g>
   <path class="fil4" d="M207392 19519c1929,876 11537,2994 14411,2994"/>
   <g>
    <path class="fil3" d="M223958 21757c0,0 38,7 25,9 443,57 200,25 -25,-9zm442 -916c-8,0 -16,-1 -24,-1 8,0 16,1 24,1zm3 684c1,3 8,5 6,9 5,-1 9,-3 14,-4 29,-8 -15,-5 -20,-5zm-474 -398c-289,-69 -511,-156 -691,-408 550,-88 657,56 1138,121 -1164,-253 -465,-152 51,-108 -526,-61 -1540,-685 -426,-219 -893,-665 210,-167 485,-105 -807,-275 -1696,-777 -2465,-1163 -4773,-1912 -4693,2813 -2285,2765 1196,-110 3367,100 4382,-214 -519,-21 -626,-83 0,0 9,0 19,1 28,2 -83,-10 -166,-24 -248,-40 15,2 71,11 85,8 -369,-162 -103,-222 223,-171 -1054,-225 -265,-111 199,-61 -2,-4 -3,-6 -6,-9 -554,-72 -1120,-486 -470,-398z"/>
   </g>
   <path class="fil4" d="M218185 20143c1641,-45 4690,1247 6301,1247"/>
   <g>
    <path class="fil3" d="M222527 23352c0,0 37,2 25,6 374,7 247,3 -25,-6zm404 -950c-11,0 -22,0 -32,0 10,0 21,0 32,0zm28 684c1,2 9,4 7,8 5,-1 10,-3 15,-4 32,-9 -17,-4 -22,-4zm-542 -356c-288,-26 -507,-58 -725,-271 422,-206 772,-76 1207,-57 -1295,-140 -601,-138 66,-110 -648,-33 -1791,-447 -564,-179 -1086,-542 291,-200 650,-145 -900,-165 -1782,-410 -2672,-618 -4137,-574 -3620,3951 -1158,3273 1111,-454 2399,-800 3463,-1250 -493,32 -573,-15 0,0 9,0 18,0 27,0 -80,-3 -160,-7 -240,-12 15,0 69,1 81,-3 -322,-102 -181,-217 203,-193 -1136,-125 -236,-97 206,-71 -1,-4 -3,-5 -6,-8 -453,-35 -1256,-344 -538,-356z"/>
   </g>
   <path class="fil4" d="M217374 23012c1874,0 3781,-62 5677,-62"/>
   <g>
    <path class="fil3" d="M216298 25059c25,-3 104,-16 76,-7 14,-2 60,-12 71,-12 363,-62 707,-50 1039,-112 144,-30 102,-22 0,-2 -335,61 -675,47 -1040,109 -48,6 -98,16 -146,24zm1380 -1280c-28,22 -57,45 -86,66 29,-21 58,-44 86,-66zm541 438c2,-1 38,-28 31,-16 21,-21 42,-42 63,-64 131,-133 -75,63 -94,80zm-2342 276c-1098,112 -2251,99 -3343,-60 1233,-138 2509,-207 3722,-362 388,-64 694,-45 1036,-93 96,-17 152,-41 236,-92 11,-4 52,-33 64,-41 -21,14 -43,27 -65,40 -85,49 -140,73 -236,89 -350,45 -645,27 -1036,92 -2358,268 -1140,107 -16,-84 377,-67 706,-55 1032,-110 80,-16 127,-38 197,-80 91,-58 166,-119 247,-189 -79,69 -157,134 -247,189 -72,42 -116,62 -198,76 -348,43 -644,23 -1036,85 -2219,191 -4803,106 -476,-67 -3047,-103 -1099,-153 406,-293 360,-58 674,-77 1035,-77 43,0 34,5 81,-20 136,-69 284,-205 394,-308 43,-41 86,-81 128,-122 -41,38 -87,85 -129,120 -109,101 -261,240 -395,306 -50,25 -38,19 -80,17 -348,-7 -694,18 -1037,72 -3427,239 -7943,-40 -11375,-333 -946,-90 -2169,-188 -3091,-399 -10871,-1409 -18279,2557 -2553,3002 636,25 1263,89 1894,171 3343,203 12369,-53 15419,-928l553 -107c-195,16 -366,36 -559,73 -1687,318 -1219,189 -2,-9 195,-36 364,-53 561,-64 42,-2 83,-5 125,-8 -246,14 -440,26 -687,69 -107,18 -213,33 -320,47 72,-10 178,-22 248,-43 -668,49 -836,-49 32,-211 337,-62 582,-56 911,-86 -326,28 -577,20 -913,76 -2145,263 -1295,138 -13,-69 371,-66 694,-50 1038,-107 184,-38 307,-90 468,-187 122,-77 225,-157 335,-251 -11,4 -21,10 -31,16 -101,85 -196,158 -309,227 -160,96 -282,148 -466,182 -340,50 -672,26 -1043,80 -825,64 -2755,37 -506,-229z"/>
   </g>
   <path class="fil4" d="M190174 24011c3936,0 7279,-247 11163,559 2337,485 12472,566 15030,70 972,-189 1121,130 2005,-754l125 -125"/>
   <g>
    <path class="fil3" d="M220326 25742c24,5 99,21 70,20 47,9 95,18 142,27 809,69 485,43 1,-4 -71,-14 -142,-29 -213,-43zm1149 -904c-33,0 -65,0 -98,1 33,-1 65,-1 98,-1zm87 682c2,2 23,4 17,9 13,-2 26,-3 39,-5 75,-9 -47,-4 -56,-4zm-1406 -445c-599,-141 -1245,-300 -1752,-664 841,43 1504,221 2314,411 -265,-22 651,17 659,17 -118,-3 -926,-46 -658,-22 -1604,-382 -1185,-321 16,-86 -249,-30 679,-8 835,-5 -25,0 -1153,-40 -830,-21 -1112,-293 -3090,-1011 -497,-242 -2199,-899 -235,-326 564,-119 -423,-26 853,50 934,57 -49,-6 -1419,-99 -932,-68 -1773,-490 -3302,-1096 -5016,-1722 -8677,-2522 -11231,2434 -3306,2638 2579,-30 5427,413 8042,586l185 -21c-65,1 -114,4 -180,-6 -1109,-192 -1279,-261 2,-7 62,10 115,11 178,13 21,0 43,0 64,0 -42,-1 -212,-3 -242,-16 -122,-25 -244,-51 -366,-78 67,13 159,36 226,42 -639,-196 -614,-318 179,-172 111,11 216,14 328,16 -33,-1 -305,-9 -327,-23 -1453,-343 -1216,-320 14,-71 244,32 712,14 977,17 -5,-4 -11,-6 -16,-9 -101,0 -912,-4 -955,-43 -550,-156 -2098,-735 -440,-402z"/>
   </g>
   <path class="fil4" d="M207704 23262c5798,0 8014,1213 12909,2126 54,10 963,-5 1128,-5"/>
   <g>
    <path class="fil3" d="M222718 24824c0,0 26,7 17,9 309,55 129,22 -17,-9zm525 -862c0,0 -1,-1 -1,-1 -92,-44 -170,-62 -272,-61 -1,-1 -2,0 0,0 0,0 -1,0 -1,0 102,-1 180,17 272,61 1,0 2,1 2,1zm-279 625c0,2 7,8 2,11 6,1 12,2 17,3 35,8 -14,-12 -19,-14zm-211 -388c-243,-85 -400,-187 -534,-416 171,-23 627,-22 751,117l-3 -113c122,0 215,21 324,74 4,1 39,21 35,19 -12,-6 -23,-12 -35,-18 -109,-53 -202,-74 -323,-74 -37,-124 -894,-684 -108,-197 -531,-664 190,-210 100,-147 182,0 321,32 484,111 1,1 97,68 109,76 -33,-24 -73,-58 -107,-79 -163,-80 -303,-112 -484,-113 112,-136 -1747,-1111 -1914,-1205 -200,-111 -398,-213 -605,-310 -573,-268 -1192,-512 -1827,-335 -333,47 -539,138 -776,377 -138,97 -215,190 -310,327 -52,61 -92,124 -137,190 -24,34 -46,65 -74,96 -126,140 -254,-63 -228,293 -7,47 -11,90 -11,138 -18,87 -23,161 -19,250 -22,172 -14,301 38,467 33,335 156,533 412,748 287,280 640,328 1026,331 284,-1 604,25 889,42 650,62 2848,297 3401,13 -353,-16 -471,-84 0,0 6,1 12,1 19,2 -58,-9 -115,-23 -171,-38 9,2 52,10 60,8 -142,-91 -192,-250 158,-174 -667,-207 -251,-118 90,-70 -19,0 -33,-3 -50,-10 0,0 21,12 29,16 0,-4 -1,-6 -2,-10 -8,-5 -16,-9 -24,-14 0,0 37,15 46,10 -321,-72 -697,-470 -229,-382z"/>
   </g>
   <path class="fil4" d="M217312 22576c47,100 4937,1900 5677,1871l124 63"/>
   <g>
    <path class="fil3" d="M225882 19418c22,-3 93,-13 68,-5 113,-19 202,-34 306,-87 174,-84 292,-141 -2,-3 -122,60 -239,75 -372,95zm609 -1164c-23,5 -47,10 -71,15 -2,1 -4,2 -7,2 2,0 6,-1 7,-2 15,-5 53,-11 71,-15zm211 653c2,2 20,0 15,6 11,-4 22,-9 33,-13 64,-25 -40,5 -48,7zm-1234 -59c-436,28 -789,35 -1227,-11 -122,-28 -228,-60 -344,-106 94,-33 228,-80 324,-98 415,-79 789,-129 1210,-159 142,-14 559,-111 349,-2 219,-107 398,-153 633,-201 -235,43 -418,89 -635,196 207,-106 -203,-12 -348,1 -710,27 -571,2 -8,-67 177,-23 576,-145 310,-16 231,-120 413,-173 664,-225 46,-10 92,-20 138,-29 -44,10 -94,22 -138,29 -251,52 -437,98 -672,211 243,-127 -101,-42 -310,-29 -351,-5 -888,-3 -1226,-53 -22,-8 -29,-14 -2,-21 309,-47 869,-36 1185,-30 -1236,-191 -1168,-228 -2,-256 343,-27 527,-108 177,70 269,-128 484,-185 774,-229 15,-5 140,-23 162,-21 6,0 -50,23 -50,23 -109,50 -186,107 -272,190 87,-85 161,-140 271,-191 5,-3 51,-20 51,-25 -1,-6 -161,20 -163,19 -290,42 -509,99 -777,226 359,-184 149,-100 -175,-81 -404,-7 -807,-7 -1211,-6 -1089,-47 -2174,-76 -3263,-94 -144,-3 -288,-4 -432,-4 -9200,435 -7215,4495 -2596,3540 925,-236 1912,-427 2848,-623 1212,-275 2432,-546 3629,-880 412,-92 825,-188 1227,-318 229,-52 494,-108 695,-237 0,0 8,-10 6,-9 -2,2 -6,5 -8,6 -218,105 -466,127 -703,158 -382,47 -424,35 -2,-17 235,-29 485,-45 704,-142 2,-1 7,-4 9,-5 11,-5 22,-11 33,-16 -12,5 -31,16 -42,20 -167,80 -366,94 -548,116 65,-9 175,-20 237,-39 -98,10 -304,-8 -404,-18 -93,-34 -134,-66 -14,-109 183,-38 465,-70 626,-135 46,-24 89,-40 138,-56 -49,15 -93,31 -140,53 -153,60 -459,77 -629,93 -620,26 -537,5 -7,-55 148,-18 467,-49 599,-106 149,-75 290,-107 452,-139 46,-9 91,-17 137,-26 -5,-4 -10,-4 -16,-6 -40,9 -81,17 -122,25 -163,31 -309,60 -463,126 -120,37 -463,43 -597,47 -643,-55 -864,-163 -42,-259z"/>
   </g>
   <path class="fil4" d="M214192 20205c1664,-385 11482,-1024 11864,-1237 302,-168 723,-182 801,-260"/>
   <g>
    <path class="fil3" d="M226369 25824c54,1 223,3 163,6 2414,9 1612,5 -163,-6zm2613 -948c-68,0 -135,0 -203,0 68,0 135,0 203,0zm179 683c2,1 55,5 40,9 33,-1 67,-3 101,-4 200,-10 -112,-5 -141,-5zm-3472 -357c-1537,-24 -3108,-40 -4629,-278 2586,-192 5134,-67 7719,-48 -7845,-137 -3794,-138 422,-111 -2197,-18 -11610,-465 -3590,-180 -7106,-567 2843,-175 4140,-144 -5665,-163 -11326,-424 -16989,-646 -15515,-374 -30547,4185 -10484,3366l2714 -111c7452,-456 14948,-720 22388,-1204 -3203,30 -3715,-18 0,0 59,0 116,0 175,0 -515,-4 -1030,-8 -1545,-13 170,0 353,6 522,-3 -2668,-134 554,-199 1309,-191 -6812,-122 -1583,-99 1332,-71 -12,-5 -27,-6 -40,-9 -513,-6 -8768,-350 -3444,-357z"/>
   </g>
   <path class="fil4" d="M193194 25424c12186,0 24371,0 36557,0"/>
   <g>
    <path class="fil3" d="M192306 28761c-18,-2 -37,-4 -54,-5 -1,0 -87,-8 -45,-8 -1206,-94 -1636,-121 45,9 4,1 46,3 54,4zm-1823 701c35,12 71,22 106,32 -35,-10 -71,-20 -106,-32zm160 -669c0,-2 -14,-10 -7,-13 -10,-2 -19,-4 -28,-7 -54,-15 30,18 35,20zm1992 607c830,57 1603,91 2429,228 160,24 317,52 476,83 -158,18 -318,28 -476,46 -1006,85 -1869,74 -2872,-17 -537,-47 -1082,-101 -1603,-246 521,152 1064,205 1603,251 1939,170 1508,169 -5,81 -511,-36 -1383,-96 -1858,-304 558,213 1263,281 1856,339 1935,215 4197,503 468,158 3085,519 955,358 -490,209 -693,-68 -1465,-141 -2094,-460 -8,-3 -89,-49 -88,-51 41,21 75,36 119,53 163,57 305,71 476,48 376,-79 -93,19 -252,19 163,1 628,-96 253,-17 -172,22 -314,9 -477,-49 -46,-17 -78,-32 -120,-53 -5,-1 47,30 88,52 645,325 1385,397 2094,471 969,117 1932,183 2906,240 1598,75 3398,71 4966,226 143,5 285,7 429,6 13859,-2104 14536,-8078 4643,-4306 -1655,662 -3379,1248 -5141,1532 -1530,290 -3348,425 -4906,548 -924,95 -1875,147 -2803,196 -192,10 -700,-4 -680,-2 226,20 451,35 677,47 1189,54 1331,90 -1,12 -216,-7 -460,-34 -676,-59 -38,-4 -76,-8 -114,-13 263,34 525,57 790,76 16,6 208,16 240,18 -78,-4 -162,-11 -240,-12 -15,0 -30,-2 -45,-2 5,1 44,5 45,5 546,108 887,230 -12,199 -333,-19 -653,-49 -982,-101 328,54 650,88 981,116 1614,145 1402,156 -4,67 -388,-14 -1239,-95 -1591,-250 1,5 5,8 8,12 436,164 1112,234 1580,285 833,116 2548,402 403,319z"/>
   </g>
   <path class="fil4" d="M211597 26172c-1231,0 -7846,2839 -11603,2932 -1585,40 -8409,330 -9472,-217 -147,-76 -26,-32 -198,-32"/>
   <g>
    <path class="fil3" d="M220243 28547c23,0 95,-1 68,4 985,-30 653,-21 -68,-4zm1028 -985c-27,0 -54,1 -81,2 27,-1 54,-2 81,-2zm84 682c2,2 21,4 15,8 13,-1 26,-3 39,-5 78,-9 -44,-3 -54,-3zm-1415 -309c-583,-4 -1290,-23 -1791,-356 1017,-39 2024,-8 3041,-15 -3369,-21 -1503,-115 168,-114 -968,6 -4737,-387 -1468,-131 -2792,-524 1186,-220 1689,-195 -1109,-68 -2444,-21 -3486,-393 -786,-294 -1630,-409 -2455,-536 -11851,-1263 -10816,3154 -4383,2999 985,-58 5929,-154 6359,-398 723,54 2335,-26 3046,-243 -1329,84 -1565,44 0,0 24,-1 47,-2 71,-3 -213,5 -425,9 -638,11 64,-2 156,0 218,-10 -1214,-99 216,-208 527,-213 -2796,-11 -704,-84 521,-85 -4,-5 -10,-6 -15,-9 -402,-2 -3605,-251 -1404,-309z"/>
   </g>
   <path class="fil4" d="M206856 27358c754,0 10229,495 10939,659 1170,271 2597,89 3784,89"/>
   <g>
    <path class="fil3" d="M223845 28015c0,0 48,14 32,14 538,130 242,57 -32,-14zm635 -840c-9,-2 -18,-3 -27,-4 9,1 18,2 27,4zm-74 680c0,2 8,5 5,10 5,-1 11,-2 16,-3 33,-4 -17,-6 -21,-7zm-557 -478c-393,-127 -727,-265 -1020,-569 780,36 955,198 1624,363 -1539,-479 -659,-246 71,-101 -631,-143 -2246,-1048 -544,-297 -1254,-872 198,-188 644,-17 -1316,-575 -2603,-1197 -3913,-1784 -173,-77 -349,-146 -521,-222 -953,-392 -1886,-707 -2928,-695 -3282,114 -2541,2632 -723,3258 372,110 713,137 1100,144 538,9 1146,81 1682,140 913,125 3918,611 4721,484 -706,-118 -754,-183 0,0 12,2 23,5 34,7 -103,-25 -206,-53 -308,-82 23,6 87,23 109,23 -539,-266 64,-194 292,-134 -1329,-413 -387,-169 237,-31 -1,-4 -3,-6 -5,-10 -542,-131 -1522,-714 -552,-477z"/>
   </g>
   <path class="fil4" d="M215028 25424c1550,-370 7740,2107 9483,2308"/>
   <g>
    <path class="fil3" d="M218136 27012c-14,0 -57,-1 -41,-5 -55,2 -110,3 -166,5 -480,19 -405,17 1,3 68,-1 137,-2 206,-3zm-686 992c11,-1 22,-3 32,-4 -10,1 -21,3 -32,4zm-126 -672c-2,-3 -12,-3 -9,-8 -6,3 -12,5 -18,8 -36,15 22,0 27,0zm1007 295c322,9 589,19 905,95 189,36 349,79 528,150 -176,38 -345,65 -523,88 -456,63 -814,47 -1267,29 -156,-4 -336,0 -492,11 49,-1 492,-8 492,-5 1228,48 872,67 4,93 -172,6 -364,25 -532,28 63,-9 532,-17 533,-11 401,29 877,78 1268,166 152,28 182,45 1,46 -282,-6 -595,-42 -876,-73 1557,410 262,281 -376,227 -347,-9 -702,66 -316,-94 -375,156 -19,91 316,103 1,2 1158,120 1258,138 293,25 1720,127 1913,269 13,13 640,74 706,80 7314,1 6324,-4383 2080,-3437 -903,276 -1871,523 -2786,759 -248,176 -1595,349 -1952,405 -419,85 -877,172 -1287,294 -10,2 -74,14 -65,14 13,-1 56,-2 66,-5 768,-60 907,-18 0,3 -22,0 -44,1 -66,2 -24,1 -48,2 -72,3 46,-1 92,-3 138,-4 99,-1 198,-1 298,-1 -31,1 -103,0 -132,7 451,71 358,192 -156,206 -82,0 -165,4 -247,6 82,-2 164,-2 247,-2 1119,40 897,62 3,76 -197,2 -426,9 -622,30 3,4 6,5 9,8 197,-21 417,-16 614,-12 389,39 1515,272 388,308z"/>
   </g>
   <path class="fil4" d="M227069 27046c-1121,-200 -4182,312 -5902,312 -198,0 -3671,24 -3893,124"/>
   <g>
    <path class="fil3" d="M220381 27972c0,0 23,9 15,11 207,67 194,61 -15,-11zm430 -844c23,1 46,4 69,8 -23,-4 -46,-7 -69,-8zm3 682c1,2 8,4 6,8 4,-1 8,-3 12,-5 21,-11 -14,-3 -18,-3zm-357 -460c-255,-94 -414,-152 -585,-382 416,-130 646,-4 1018,166 30,12 7,5 -10,2 19,3 40,9 11,-5 -819,-379 -621,-351 37,-102 42,17 -96,-25 -182,-10 61,-6 215,24 181,9 -324,-155 -1504,-835 -337,-281 -856,-717 155,-220 456,-52 4,6 -590,-21 -153,-8l155 2c-794,-454 -1565,-698 -2448,-914 -4039,-520 -3335,3983 -1142,3280 1038,-474 1946,-714 3015,-1034 -352,-68 -356,-121 0,0 5,2 11,4 16,5 -48,-19 -97,-37 -146,-55 7,2 46,13 53,12 -126,-110 -151,-285 184,-145 -639,-314 -306,-219 80,-55 59,23 92,36 157,36 -2,-4 -4,-6 -7,-9 -60,1 -93,-14 -147,-36 -178,-100 -794,-554 -206,-424z"/>
   </g>
   <path class="fil4" d="M215777 27482c1354,0 3709,-262 4929,171 104,37 73,17 187,17"/>
   <g>
    <path class="fil3" d="M222590 31238c27,-3 115,-14 83,-5 1314,-190 587,-84 -83,5zm946 -1140c-23,6 -47,12 -70,17 23,-5 47,-11 70,-17zm257 639c3,1 40,-6 31,1 21,-8 42,-15 62,-23 117,-43 -80,19 -93,22zm-1627 -72c-927,82 -1852,93 -2768,-95 1304,-174 2834,-213 4068,-455 -4212,619 -1327,195 84,-135 9,-1 55,-15 51,-13 -11,3 -42,13 -51,13 -1295,265 -5941,208 -1496,77 -3619,-182 403,-249 1411,-405 292,-60 384,-105 710,-95 -332,-12 -418,35 -712,92 -2958,399 -7197,-22 -10172,-331 -620,-68 -1239,-137 -1858,-207 -2226,-259 -4519,-552 -6757,-672 -7032,-602 -5757,1923 -582,3250 1115,241 2130,330 3268,364 1283,35 2547,73 3833,82 2886,19 9195,-34 11888,-952 -2094,381 -1661,246 0,0 27,-4 54,-9 81,-14 -251,42 -504,75 -756,102 79,-10 187,-19 265,-38 -1522,64 259,-243 581,-291 -3413,433 -886,106 498,-185 9,-1 41,-11 52,-14 -10,-2 -21,0 -31,0 -3,1 -22,6 -23,6 -995,198 -4084,192 -1584,-84z"/>
   </g>
   <path class="fil4" d="M200119 28730c2945,1843 19002,3083 23597,1888 161,-42 248,-86 421,-79"/>
   <g>
    <path class="fil3" d="M224202 30699c18,2 75,9 53,11 864,82 410,38 -53,-11zm820 -898c-16,0 -33,-1 -49,-1 16,0 33,1 49,1zm28 685c1,2 14,5 10,9 8,-1 17,-3 26,-4 52,-8 -29,-5 -36,-5zm-1018 -428c-617,-91 -1203,-211 -1756,-514 1058,-2 1715,174 2697,256 -2793,-352 -985,-161 103,-108 -901,-63 -3879,-878 -1007,-251 -2350,-822 457,-156 1128,-71 -2117,-338 -4528,-1054 -6594,-1648 -10891,-2964 -9349,1546 -4424,2338 2632,292 7920,1022 10348,687 -1149,-55 -1227,-116 0,0 18,2 36,3 54,4 -168,-15 -335,-34 -502,-55 48,5 130,17 176,14 -954,-231 140,-190 426,-160 -2210,-294 -643,-127 372,-55 -3,-5 -7,-6 -10,-9 -659,-55 -2699,-605 -1011,-428z"/>
   </g>
   <path class="fil4" d="M210786 27358c1929,876 11537,2994 14411,2994"/>
   <g>
    <path class="fil3" d="M227352 29596c0,0 38,7 25,9 443,57 200,24 -25,-9zm442 -916c-8,0 -16,-1 -24,-1 8,0 16,1 24,1zm3 684c1,2 8,4 6,9 5,-2 9,-3 14,-4 29,-9 -15,-5 -20,-5zm-474 -399c-289,-69 -511,-155 -691,-408 550,-87 657,56 1138,122 -1164,-253 -465,-153 51,-109 -526,-60 -1540,-684 -426,-218 -893,-665 210,-167 485,-105 -807,-275 -1696,-778 -2465,-1163 -4773,-1912 -4693,2813 -2285,2765 1197,-110 3366,100 4382,-215 -519,-20 -627,-82 0,0 9,1 19,2 28,3 -83,-11 -166,-24 -248,-40 15,2 71,11 85,8 -369,-162 -103,-222 223,-172 -1054,-224 -265,-110 199,-60 -2,-4 -3,-6 -6,-9 -554,-73 -1120,-486 -470,-399z"/>
   </g>
   <path class="fil4" d="M221579 27981c1641,-44 4690,1248 6301,1248"/>
   <g>
    <path class="fil3" d="M225921 31191c0,0 37,2 25,6 374,7 247,3 -25,-6zm403 -950c-10,0 -21,0 -31,0 10,0 21,0 31,0zm29 684c1,2 9,4 6,8 6,-1 11,-3 16,-4 32,-9 -17,-4 -22,-4zm-542 -356c-288,-26 -508,-58 -725,-271 422,-207 772,-77 1207,-57 -1295,-140 -601,-138 66,-110 -649,-33 -1791,-447 -564,-179 -1087,-542 291,-200 650,-146 -901,-165 -1782,-409 -2673,-618 -4137,-574 -3619,3952 -1157,3274 1109,-454 2402,-800 3463,-1250 -493,32 -573,-15 0,0 9,0 18,0 27,0 -80,-3 -160,-8 -240,-12 14,0 69,1 81,-3 -325,-104 -178,-216 202,-193 -1136,-126 -235,-97 207,-71 -2,-4 -4,-5 -6,-8 -453,-36 -1256,-345 -538,-356z"/>
   </g>
   <path class="fil4" d="M220768 30851c1874,0 3781,-62 5677,-62"/>
   <g>
    <path class="fil3" d="M219692 32898c25,-4 104,-16 76,-7 14,-2 60,-13 71,-13 363,-61 707,-49 1039,-112 144,-30 102,-21 0,-1 -335,61 -675,47 -1041,108 -47,7 -97,17 -145,25zm1380 -1281c-28,23 -57,45 -86,66 29,-21 58,-43 86,-66zm541 439c2,-1 38,-28 31,-16 21,-21 42,-43 63,-64 131,-134 -75,62 -94,80zm-2342 276c-1098,111 -2251,99 -3343,-61 1233,-138 2508,-206 3722,-361 388,-64 694,-45 1036,-93 96,-17 152,-42 236,-92 11,-4 52,-33 64,-42 -21,15 -43,28 -65,41 -84,49 -140,73 -236,89 -351,45 -645,27 -1035,92 -2358,268 -1141,106 -17,-84 377,-67 705,-56 1032,-110 80,-16 127,-38 197,-81 91,-58 165,-118 247,-189 -79,70 -157,134 -247,189 -72,43 -116,63 -198,76 -348,44 -644,24 -1036,86 -2218,191 -4804,105 -476,-67 -3047,-103 -1099,-153 406,-294 358,-57 675,-77 1035,-76 43,0 34,4 81,-20 135,-68 284,-206 394,-309 43,-40 85,-80 128,-121 -41,38 -87,85 -129,120 -109,101 -261,239 -395,306 -50,25 -38,19 -80,17 -347,-8 -694,18 -1037,71 -3426,240 -7945,-40 -11375,-332 -946,-90 -2169,-188 -3091,-399 -10872,-1409 -18279,2557 -2553,3002 636,25 1264,88 1894,171 3344,203 12368,-54 15419,-928l553 -107c-195,15 -366,35 -560,73 -1686,317 -1218,188 -1,-9 195,-36 364,-53 561,-64 42,-3 83,-5 124,-8 -245,14 -439,25 -686,68 -107,19 -213,34 -320,48 72,-11 178,-22 248,-43 -669,49 -836,-49 32,-211 337,-62 582,-57 911,-86 -326,28 -577,20 -913,75 -2145,263 -1295,138 -14,-69 372,-65 696,-50 1039,-106 183,-37 307,-91 468,-188 122,-76 225,-157 335,-250 -11,3 -21,10 -31,15 -101,86 -196,159 -309,228 -160,96 -282,148 -466,182 -340,50 -672,25 -1043,80 -825,64 -2755,37 -506,-229z"/>
   </g>
   <path class="fil4" d="M193568 31849c3936,0 7279,-246 11163,560 2337,485 12472,566 15030,69 972,-188 1120,131 2005,-753l125 -125"/>
   <g>
    <path class="fil3" d="M192011 31242c-19,-1 -79,-1 -57,-5 -827,15 -576,12 57,5zm-905 967c24,0 49,-1 73,-1 -24,0 -49,1 -73,1zm-71 -683c-1,-2 -20,-5 -14,-9 -12,2 -24,3 -36,5 -74,9 41,4 50,4zm1232 329c535,4 1081,0 1585,205 -892,247 -1763,157 -2673,148 2804,79 1332,130 -153,112 739,8 4134,324 1291,151 2598,485 -1058,200 -1494,174 1872,144 3757,208 5620,441 58,7 119,11 177,17 9051,209 7887,-4454 2641,-3387 -906,246 -1893,437 -2818,583 -1414,227 -3389,588 -4783,931 1107,-59 1274,-18 0,0 -20,0 -41,0 -61,1 178,-1 357,-1 535,-2 -50,2 -132,0 -180,8 943,108 -141,205 -451,203 2369,61 535,93 -472,77 4,4 10,6 14,9 225,5 3121,249 1222,329z"/>
   </g>
   <path class="fil4" d="M203238 31101c-2027,0 -4335,374 -6795,374 -1860,0 -3619,187 -5620,187"/>
   <g>
    <path class="fil3" d="M223720 33580c24,6 99,22 70,20 47,10 94,19 142,28 809,69 485,43 1,-4 -71,-15 -142,-29 -213,-44zm1149 -904c-33,1 -65,1 -98,1 33,0 65,0 98,-1zm87 683c2,2 23,4 16,9 14,-2 27,-4 40,-5 75,-10 -47,-4 -56,-4zm-1406 -445c-599,-141 -1245,-300 -1752,-664 841,43 1504,220 2314,410 -265,-21 651,17 659,17 -118,-2 -926,-45 -658,-22 -1604,-382 -1185,-320 16,-86 -249,-29 679,-7 834,-4 -24,0 -1152,-41 -829,-21 -1112,-294 -3090,-1012 -497,-242 -2199,-900 -236,-326 564,-119 -423,-26 853,50 934,56 -49,-5 -1419,-98 -932,-67 -1773,-491 -3302,-1096 -5016,-1722 -8677,-2522 -11231,2434 -3306,2638 2579,-30 5427,412 8042,585l184 -20c-64,1 -113,4 -179,-6 -1109,-192 -1279,-262 2,-7 62,10 115,11 177,13 22,0 44,0 65,0 -42,-1 -212,-4 -242,-16 -122,-25 -244,-51 -366,-78 67,13 159,36 226,41 -639,-195 -614,-317 179,-171 111,11 216,13 328,16 -33,-1 -305,-10 -327,-24 -1453,-343 -1216,-320 14,-71 244,33 712,15 977,18 -5,-5 -11,-6 -17,-9 -100,0 -911,-4 -954,-44 -550,-155 -2098,-734 -440,-401z"/>
   </g>
   <path class="fil4" d="M211098 31101c5798,0 8014,1213 12909,2126 53,10 963,-5 1128,-5"/>
   <g>
    <path class="fil3" d="M226112 32662c0,0 26,8 17,10 309,55 129,21 -17,-10zm525 -861c0,-1 -1,-1 -1,-1 -92,-44 -170,-62 -272,-62 -1,0 -2,0 0,0 0,0 -1,0 -1,0 102,0 180,17 272,62 0,0 2,0 2,1zm-279 624c0,3 7,9 2,11 6,1 12,3 17,4 35,8 -14,-12 -19,-15zm-211 -388c-243,-84 -400,-186 -534,-415 171,-23 627,-22 751,116l-3 -112c121,0 215,21 324,74 4,1 39,21 35,18 -12,-5 -23,-11 -35,-17 -109,-53 -202,-74 -323,-74 -37,-125 -894,-684 -108,-198 -531,-664 190,-209 100,-147 181,1 321,33 484,112 1,0 97,68 109,76 -33,-25 -74,-58 -107,-79 -163,-80 -303,-113 -484,-113 112,-137 -1747,-1112 -1914,-1205 -200,-111 -399,-213 -606,-310 -572,-268 -1191,-512 -1826,-335 -333,47 -539,137 -776,377 -138,97 -215,189 -310,327 -52,61 -92,124 -137,190 -24,33 -46,65 -74,96 -140,128 -260,-43 -228,293 -8,46 -11,90 -12,137 -17,87 -22,162 -18,250 -22,172 -14,302 37,468 33,335 157,533 413,747 287,281 640,329 1026,332 284,-2 604,25 889,42 649,62 2849,297 3401,13 -353,-16 -471,-84 0,0 6,1 12,1 19,2 -58,-10 -115,-23 -171,-38 9,2 52,10 60,8 -141,-90 -193,-251 158,-174 -667,-207 -252,-118 90,-70 -19,0 -34,-3 -50,-11 0,0 21,13 29,17 0,-4 -1,-7 -2,-11 -8,-4 -16,-9 -24,-13 0,0 37,14 46,9 -321,-71 -697,-470 -229,-382z"/>
   </g>
   <path class="fil4" d="M220706 30414c47,101 4937,1901 5677,1872l124 62"/>
   <g>
    <path class="fil3" d="M229276 27257c22,-3 93,-13 68,-5 113,-19 202,-35 305,-87 175,-84 294,-142 -1,-3 -122,60 -239,75 -372,95zm609 -1164c-24,5 -48,9 -71,15 -2,1 -4,1 -7,2 2,-1 6,-1 7,-2 15,-5 53,-12 71,-15zm211 653c2,1 20,0 15,5 11,-4 22,-8 33,-12 64,-25 -40,5 -48,7zm-1234 -59c-436,28 -789,35 -1227,-11 -122,-28 -228,-60 -344,-106 94,-33 228,-80 324,-98 415,-79 789,-130 1210,-159 141,-14 559,-111 349,-2 219,-108 398,-153 633,-201 -236,42 -418,89 -635,196 207,-106 -202,-12 -348,0 -710,28 -572,3 -9,-67 177,-22 577,-144 311,-15 231,-120 413,-173 663,-226 46,-9 93,-20 139,-28 -44,10 -94,22 -138,29 -251,51 -438,98 -672,211 244,-127 -101,-42 -310,-29 -350,-6 -889,-3 -1226,-54 -22,-7 -29,-13 -2,-20 309,-47 869,-36 1185,-31 -1236,-190 -1168,-227 -2,-256 343,-26 527,-107 178,71 268,-129 482,-186 773,-230 15,-5 139,-22 162,-21 6,0 -50,24 -50,24 -110,50 -185,105 -272,189 87,-84 162,-140 271,-190 6,-4 51,-20 51,-25 -1,-7 -161,20 -163,19 -291,42 -509,99 -777,226 359,-184 149,-101 -175,-82 -404,-6 -808,-6 -1211,-6 -1089,-46 -2174,-76 -3263,-94 -144,-2 -288,-3 -432,-3 -9200,435 -7215,4494 -2596,3540 925,-237 1912,-427 2848,-623 1212,-275 2432,-546 3629,-880 411,-92 826,-188 1227,-318 231,-52 492,-108 695,-237 0,0 9,-10 6,-9 -2,1 -6,4 -8,5 -218,105 -466,128 -703,159 -382,47 -424,35 -2,-17 235,-29 485,-45 704,-142 2,-1 7,-4 9,-5 11,-6 22,-11 33,-16 -12,5 -31,15 -42,19 -167,80 -366,95 -548,117 65,-9 175,-20 237,-39 -98,10 -304,-9 -404,-18 -94,-35 -134,-67 -14,-110 183,-38 465,-69 626,-135 46,-23 89,-39 138,-55 -49,15 -93,31 -140,53 -153,60 -459,77 -629,93 -620,26 -537,5 -7,-56 148,-18 467,-49 599,-105 149,-75 290,-107 452,-139 46,-9 91,-18 137,-27 -5,-3 -10,-3 -16,-5 -41,8 -82,16 -122,24 -164,31 -309,61 -463,126 -119,38 -463,43 -597,48 -643,-55 -864,-163 -42,-259z"/>
   </g>
   <path class="fil4" d="M217586 28044c1664,-385 11482,-1024 11864,-1237 302,-168 723,-183 800,-260"/>
   <g>
    <path class="fil2" d="M183070 23006l31327 0c287,0 521,235 521,521l0 12527c0,287 -234,521 -521,521l-31327 0c-287,0 -521,-234 -521,-521l0 -12527c0,-286 234,-521 521,-521z"/>
    <path id="1" class="fil5" d="M214397 23090l-31327 0 0 -167 31327 0 0 0 0 167zm605 437l-168 0 0 0 0 -22 -2 -22 -3 -22 -3 -22 -6 -21 -5 -20 -7 -21 -8 -20 -9 -19 -10 -19 -10 -18 -12 -18 -12 -17 -13 -17 -14 -16 -14 -15 -15 -14 -16 -14 -17 -13 -17 -12 -18 -12 -18 -10 -19 -10 -19 -9 -20 -8 -20 -7 -21 -5 -21 -5 -22 -4 -21 -3 -23 -2 -22 0 0 -167 31 0 31 3 30 4 30 5 29 7 28 8 28 10 28 10 27 13 26 13 25 15 25 15 23 17 23 18 22 19 21 20 20 21 19 22 18 23 17 24 16 24 14 25 14 26 12 27 11 28 9 28 8 28 7 30 6 30 3 29 3 31 1 31 0 0zm-168 12527l0 -12527 168 0 0 12527 0 0 -168 0zm-437 604l0 -166 0 0 22 -1 23 -2 21 -3 22 -3 21 -5 21 -6 20 -7 20 -8 19 -9 19 -9 18 -11 18 -11 17 -13 17 -13 16 -14 15 -14 14 -15 14 -16 13 -17 12 -17 12 -18 10 -18 10 -19 9 -19 8 -20 7 -20 5 -21 6 -21 3 -22 3 -21 2 -23 0 -22 168 0 -1 31 -3 31 -3 30 -6 30 -7 29 -8 28 -9 29 -11 27 -12 27 -14 26 -14 25 -16 25 -17 23 -18 23 -19 22 -20 21 -21 20 -22 19 -23 18 -23 17 -25 16 -25 14 -26 14 -27 12 -28 11 -28 9 -28 8 -29 7 -30 5 -30 4 -31 3 -31 0 0 0zm-31327 -166l31327 0 0 166 -31327 0 0 0 0 -166zm-605 -438l167 0 0 0 1 22 2 23 2 21 4 22 5 21 6 21 7 20 8 20 9 19 9 19 11 18 11 18 13 17 13 17 13 16 15 15 15 14 16 14 17 13 17 13 18 11 18 11 19 9 19 9 20 8 20 7 21 6 21 5 21 3 22 3 22 2 23 1 0 166 -31 0 -31 -3 -30 -4 -30 -5 -29 -7 -29 -8 -28 -9 -27 -11 -27 -12 -26 -14 -26 -14 -24 -16 -24 -17 -23 -18 -21 -19 -21 -20 -20 -21 -19 -22 -18 -23 -17 -23 -16 -25 -15 -25 -13 -26 -12 -27 -11 -27 -9 -29 -9 -28 -6 -29 -6 -30 -4 -30 -2 -31 -1 -31 0 0zm167 -12527l0 12527 -167 0 0 -12527 0 0 167 0zm438 -604l0 167 0 0 -23 0 -22 2 -22 3 -21 4 -21 5 -21 5 -20 7 -20 8 -19 9 -19 10 -18 10 -18 12 -17 12 -17 13 -16 14 -15 14 -15 15 -13 16 -13 17 -13 17 -11 18 -11 18 -9 19 -9 19 -8 20 -7 21 -6 20 -5 21 -4 22 -2 22 -2 22 -1 22 -167 0 1 -31 2 -31 4 -29 6 -30 6 -30 9 -28 9 -28 11 -28 12 -27 13 -26 15 -25 16 -24 17 -24 18 -23 19 -22 20 -21 21 -20 21 -19 23 -18 24 -17 24 -15 26 -15 26 -13 27 -13 27 -10 28 -10 29 -8 29 -7 30 -5 30 -4 31 -3 31 0 0 0z"/>
   </g>
   <g>
    <path class="fil6" d="M183126 23547l2642 0c98,0 177,80 177,178l0 1492c0,98 -79,177 -177,177l-2642 0c-98,0 -178,-79 -178,-177l0 -1492c0,-98 80,-178 178,-178z"/>
    <path id="1" class="fil5" d="M185768 23631l-2642 0 0 -168 2642 0 0 0 0 168zm261 94l-167 0 0 0 0 -5 -1 -5 0 -5 -1 -4 -1 -4 -1 -5 -2 -5 -1 -4 -2 -4 -2 -3 -3 -4 -2 -5 -3 -3 -3 -4 -2 -3 -4 -3 -3 -4 -3 -3 -4 -2 -4 -3 -4 -3 -4 -2 -4 -2 -4 -2 -4 -1 -4 -2 -5 -1 -4 -1 -4 -1 -5 -1 -5 0 -5 0 0 -168 13 1 13 1 13 1 14 3 12 3 12 3 12 4 12 5 12 5 12 6 10 7 11 6 10 7 10 8 10 9 8 8 9 9 8 10 8 10 7 10 7 10 6 11 6 11 5 12 5 12 4 12 4 12 3 13 2 13 2 13 1 13 0 14 0 0zm-167 1492l0 -1492 167 0 0 1492 0 0 -167 0zm-94 261l0 -167 0 0 5 0 5 -1 5 0 4 -1 4 -1 5 -2 4 -1 4 -2 4 -1 4 -2 4 -3 4 -3 4 -2 4 -3 3 -3 3 -3 4 -3 2 -4 3 -3 3 -4 2 -4 3 -4 2 -4 2 -4 1 -4 2 -4 1 -5 1 -5 1 -4 0 -4 1 -5 0 -5 167 0 0 13 -1 13 -2 13 -2 14 -3 12 -4 13 -4 11 -5 13 -5 11 -6 12 -6 10 -7 11 -7 10 -8 10 -8 10 -9 8 -8 9 -10 8 -10 8 -10 7 -11 7 -10 6 -12 6 -12 5 -12 5 -12 4 -12 4 -12 3 -14 2 -13 2 -13 1 -13 0 0 0zm-2642 -167l2642 0 0 167 -2642 0 0 0 0 -167zm-261 -94l167 0 0 0 0 5 0 5 1 4 1 4 1 5 1 5 2 4 1 4 2 4 2 4 2 4 3 4 3 4 2 3 3 4 3 3 4 3 3 3 4 3 3 2 5 3 4 3 3 2 4 1 5 2 4 1 5 2 4 1 4 1 5 0 5 1 5 0 0 167 -14 0 -13 -1 -13 -2 -13 -2 -12 -3 -13 -4 -12 -4 -12 -5 -12 -5 -11 -6 -11 -6 -10 -7 -10 -7 -10 -8 -10 -8 -9 -9 -8 -8 -9 -10 -7 -10 -8 -10 -6 -11 -6 -10 -6 -12 -6 -11 -4 -13 -4 -11 -4 -13 -3 -12 -2 -14 -2 -13 -1 -13 0 -13 0 0zm167 -1492l0 1492 -167 0 0 -1492 0 0 167 0zm94 -262l0 168 0 0 -5 0 -5 0 -5 1 -4 1 -4 1 -5 1 -4 2 -5 1 -4 2 -3 2 -4 2 -5 3 -3 3 -4 2 -3 3 -4 4 -3 3 -3 3 -2 4 -3 3 -3 5 -2 4 -2 3 -2 4 -1 4 -2 5 -1 5 -1 4 -1 4 -1 5 0 5 0 5 -167 0 0 -14 1 -13 2 -13 2 -13 3 -13 4 -12 4 -12 4 -12 6 -12 6 -11 6 -11 6 -10 8 -10 7 -10 9 -10 8 -9 9 -8 10 -9 10 -8 10 -7 10 -6 11 -7 11 -6 12 -5 12 -5 12 -4 13 -3 12 -3 13 -3 13 -1 13 -1 14 -1 0 0z"/>
   </g>
   <rect class="fil6 str1" x="186272" y="23517" width="1873" height="1839" rx="163" ry="163"/>
   <rect class="fil6 str2" x="188471" y="23517" width="1873" height="1839" rx="163" ry="163"/>
   <rect class="fil6 str3" x="190670" y="23517" width="1873" height="1839" rx="163" ry="163"/>
   <rect class="fil6 str4" x="192870" y="23517" width="1873" height="1839" rx="163" ry="163"/>
   <rect class="fil6 str5" x="195069" y="23517" width="1873" height="1839" rx="163" ry="163"/>
   <rect class="fil6 str6" x="197268" y="23517" width="1873" height="1839" rx="163" ry="163"/>
   <rect class="fil6 str7" x="199468" y="23517" width="1873" height="1839" rx="163" ry="163"/>
   <rect class="fil6 str8" x="201667" y="23517" width="1873" height="1839" rx="163" ry="163"/>
   <rect class="fil6 str9" x="203867" y="23517" width="1873" height="1839" rx="163" ry="163"/>
   <rect class="fil6 str10" x="206066" y="23517" width="1873" height="1839" rx="163" ry="163"/>
   <rect class="fil6 str11" x="208265" y="23517" width="1873" height="1839" rx="163" ry="163"/>
   <rect class="fil6 str12" x="210465" y="23517" width="1873" height="1839" rx="163" ry="163"/>
   <rect class="fil6 str13" x="212664" y="23517" width="1873" height="1839" rx="163" ry="163"/>
   <rect class="fil6 str14" x="183067" y="25731" width="1873" height="1839" rx="163" ry="163"/>
   <rect class="fil6 str15" x="187435" y="25731" width="1873" height="1839" rx="163" ry="163"/>
   <rect class="fil6 str16" x="189618" y="25731" width="1873" height="1839" rx="163" ry="163"/>
   <rect class="fil6 str17" x="191802" y="25731" width="1873" height="1839" rx="163" ry="163"/>
   <rect class="fil6 str18" x="193986" y="25731" width="1873" height="1839" rx="163" ry="163"/>
   <rect class="fil6 str19" x="196169" y="25731" width="1873" height="1839" rx="163" ry="163"/>
   <rect class="fil6 str20" x="198353" y="25731" width="1873" height="1839" rx="163" ry="163"/>
   <rect class="fil6 str21" x="200537" y="25731" width="1873" height="1839" rx="163" ry="163"/>
   <rect class="fil6 str22" x="202720" y="25731" width="1873" height="1839" rx="163" ry="163"/>
   <rect class="fil6 str23" x="204904" y="25731" width="1873" height="1839" rx="163" ry="163"/>
   <rect class="fil6 str24" x="207088" y="25731" width="1873" height="1839" rx="163" ry="163"/>
   <rect class="fil6 str25" x="209271" y="25731" width="1873" height="1839" rx="163" ry="163"/>
   <rect class="fil6 str26" x="211455" y="25799" width="2997" height="1771" rx="170" ry="170"/>
   <rect class="fil6 str27" x="182982" y="27945" width="2997" height="1771" rx="170" ry="170"/>
   <g>
    <path class="fil6" d="M183084 32202l2078 0c94,0 170,77 170,170l0 1431c0,93 -76,170 -170,170l-2078 0c-93,0 -170,-77 -170,-170l0 -1431c0,-93 77,-170 170,-170z"/>
    <path id="1" class="fil5" d="M185162 32286l-2078 0 0 -168 2078 0 0 0 0 168zm254 86l-167 0 0 0 0 -4 -1 -4 0 -4 -1 -5 -1 -4 -1 -4 -2 -4 -1 -4 -2 -4 -1 -3 -3 -4 -2 -4 -2 -3 -3 -3 -3 -3 -3 -4 -3 -3 -3 -2 -3 -3 -4 -2 -3 -3 -4 -2 -4 -2 -3 -1 -4 -2 -4 -1 -4 -1 -4 -1 -5 -1 -4 -1 -4 0 -5 0 0 -168 13 0 13 1 13 2 12 2 13 3 11 4 12 4 12 4 11 5 11 6 11 6 10 7 10 7 9 7 10 8 8 9 9 8 8 10 7 9 7 10 7 10 6 11 6 11 5 11 4 12 4 12 4 12 3 12 2 12 2 13 1 13 0 13 0 0zm-167 1431l0 -1431 167 0 0 1431 0 0 -167 0zm-87 254l0 -168 0 0 5 0 4 0 4 -1 5 -1 4 -1 4 -1 4 -1 4 -2 3 -1 4 -2 4 -3 3 -2 4 -2 3 -3 3 -2 3 -4 3 -3 3 -3 3 -3 2 -4 2 -3 3 -4 1 -3 2 -4 1 -4 2 -4 1 -4 1 -4 1 -5 0 -4 1 -4 0 -4 167 0 0 13 -1 13 -2 13 -2 12 -3 12 -4 12 -4 12 -4 12 -5 11 -6 11 -6 11 -7 10 -7 10 -7 9 -8 10 -9 8 -8 9 -10 8 -9 7 -10 7 -10 7 -11 6 -11 6 -11 5 -12 4 -12 4 -11 4 -13 3 -12 2 -13 2 -13 1 -13 0 0 0zm-2078 -168l2078 0 0 168 -2078 0 0 0 0 -168zm-253 -86l167 0 0 0 0 4 0 4 1 4 1 5 0 4 2 4 1 4 2 4 1 4 2 3 2 4 2 3 3 4 3 3 2 3 3 3 3 4 3 2 4 3 3 2 4 2 3 3 4 2 4 1 4 2 4 1 4 1 4 1 5 1 4 1 4 0 4 0 0 168 -12 0 -14 -1 -12 -2 -12 -2 -13 -3 -12 -4 -12 -4 -11 -4 -12 -5 -10 -6 -11 -6 -10 -7 -10 -7 -10 -7 -9 -8 -9 -9 -8 -8 -8 -10 -8 -9 -7 -10 -6 -10 -6 -11 -6 -11 -5 -11 -5 -12 -4 -12 -3 -12 -3 -12 -2 -12 -2 -13 -1 -13 0 -13 0 0zm167 -1431l0 1431 -167 0 0 -1431 0 0 167 0zm86 -254l0 168 0 0 -4 0 -4 0 -4 1 -5 1 -4 1 -4 1 -4 1 -4 2 -4 1 -4 2 -3 2 -4 3 -3 2 -4 3 -3 2 -3 3 -3 4 -2 3 -3 3 -3 3 -2 4 -2 4 -2 3 -1 4 -2 4 -1 4 -2 4 0 4 -1 5 -1 4 0 4 0 4 -167 0 0 -13 1 -13 2 -13 2 -12 3 -12 3 -12 4 -12 5 -12 5 -11 6 -11 6 -11 6 -10 7 -10 8 -9 8 -10 8 -8 9 -9 9 -8 10 -7 10 -7 10 -7 11 -6 10 -6 12 -5 11 -4 12 -4 12 -4 13 -3 12 -2 12 -2 14 -1 12 0 0 0z"/>
   </g>
   <g>
    <path class="fil6" d="M183153 30022l3167 0c94,0 170,77 170,171l0 1430c0,94 -76,170 -170,170l-3167 0c-94,0 -171,-76 -171,-170l0 -1430c0,-94 77,-171 171,-171z"/>
    <path id="1" class="fil5" d="M186320 30106l-3167 0 0 -167 3167 0 0 0 0 167zm254 87l-167 0 0 0 0 -5 0 -4 -1 -4 -1 -5 0 -4 -2 -4 -1 -4 -2 -4 -1 -3 -2 -4 -2 -4 -2 -3 -3 -4 -3 -3 -2 -3 -3 -3 -3 -3 -3 -3 -4 -3 -3 -2 -4 -3 -4 -2 -3 -2 -4 -1 -4 -2 -4 -1 -4 -1 -4 -1 -5 -1 -4 -1 -4 0 -5 0 0 -167 13 0 13 1 13 2 12 2 12 3 12 3 12 4 12 5 11 5 11 5 10 7 11 6 10 7 9 8 9 8 9 8 8 9 8 9 8 10 7 9 7 11 6 10 5 11 5 12 5 11 4 12 3 12 3 13 2 12 2 12 1 14 1 13 0 0zm-167 1430l0 -1430 167 0 0 1430 0 0 -167 0zm-87 254l0 -167 0 0 5 0 4 -1 4 0 5 -1 4 -1 4 -1 4 -2 4 -1 4 -2 3 -2 4 -2 4 -2 3 -3 4 -2 3 -3 3 -3 3 -3 2 -3 3 -4 3 -3 2 -3 2 -4 2 -4 1 -4 2 -3 1 -4 2 -5 0 -4 1 -4 1 -4 0 -4 0 -5 167 0 -1 13 -1 13 -2 13 -2 12 -3 13 -3 11 -4 12 -5 12 -5 11 -5 11 -6 11 -7 10 -7 10 -8 10 -8 9 -8 8 -9 9 -9 8 -9 7 -10 7 -11 7 -10 6 -11 6 -11 5 -12 4 -12 4 -12 4 -12 3 -12 2 -13 2 -13 1 -13 0 0 0zm-3167 -167l3167 0 0 167 -3167 0 0 0 0 -167zm-254 -87l167 0 0 0 0 5 0 4 0 4 1 4 1 4 1 5 2 4 1 3 2 4 2 4 2 4 2 3 3 3 2 4 3 3 3 3 3 3 3 3 4 2 3 3 4 2 3 2 4 2 4 2 4 1 4 2 4 1 4 1 5 1 4 0 4 1 5 0 0 167 -13 0 -13 -1 -13 -2 -12 -2 -13 -3 -11 -4 -12 -4 -12 -4 -11 -5 -11 -6 -11 -6 -10 -7 -10 -7 -9 -7 -10 -8 -8 -9 -9 -8 -8 -9 -7 -10 -7 -10 -7 -10 -6 -11 -6 -11 -5 -11 -4 -12 -4 -12 -4 -11 -3 -13 -2 -12 -1 -13 -1 -13 -1 -13 0 0zm167 -1430l0 1430 -167 0 0 -1430 0 0 167 0zm87 -254l0 167 0 0 -5 0 -4 0 -4 1 -5 1 -4 1 -4 1 -4 1 -4 2 -4 1 -4 2 -3 2 -4 3 -3 2 -4 3 -3 3 -3 3 -3 3 -3 3 -2 3 -3 4 -2 3 -2 4 -2 4 -2 3 -1 4 -2 4 -1 4 -1 4 -1 5 0 4 0 4 0 5 -167 0 1 -13 1 -14 1 -12 2 -12 3 -13 4 -12 4 -12 4 -11 5 -12 6 -11 6 -10 7 -11 7 -9 7 -10 8 -9 9 -9 8 -8 10 -8 9 -8 10 -7 10 -6 11 -7 11 -5 11 -5 12 -5 12 -4 11 -3 13 -3 12 -2 13 -2 13 -1 13 0 0 0z"/>
   </g>
   <rect class="fil6 str28" x="186302" y="27877" width="1873" height="1839" rx="163" ry="163"/>
   <rect class="fil6 str29" x="188497" y="27877" width="1873" height="1839" rx="163" ry="163"/>
   <rect class="fil6 str30" x="190692" y="27877" width="1873" height="1839" rx="163" ry="163"/>
   <rect class="fil6 str31" x="192888" y="27877" width="1873" height="1839" rx="163" ry="163"/>
   <rect class="fil6 str32" x="195083" y="27877" width="1873" height="1839" rx="163" ry="163"/>
   <rect class="fil6 str33" x="197278" y="27877" width="1873" height="1839" rx="163" ry="163"/>
   <rect class="fil6 str34" x="199474" y="27877" width="1873" height="1839" rx="163" ry="163"/>
   <rect class="fil6 str35" x="201669" y="27877" width="1873" height="1839" rx="163" ry="163"/>
   <rect class="fil6 str36" x="203864" y="27877" width="1873" height="1839" rx="163" ry="163"/>
   <rect class="fil6 str37" x="206060" y="27877" width="1873" height="1839" rx="163" ry="163"/>
   <rect class="fil6 str38" x="208255" y="27877" width="1873" height="1839" rx="163" ry="163"/>
   <rect class="fil6 str39" x="185251" y="25731" width="1873" height="1839" rx="163" ry="163"/>
   <rect class="fil6 str40" x="210450" y="27877" width="1873" height="1839" rx="163" ry="163"/>
   <rect class="fil6 str41" x="186746" y="29989" width="1873" height="1839" rx="163" ry="163"/>
   <rect class="fil6 str42" x="188925" y="29989" width="1873" height="1839" rx="163" ry="163"/>
   <rect class="fil6 str43" x="191241" y="29989" width="1873" height="1839" rx="163" ry="163"/>
   <rect class="fil6 str44" x="193455" y="29989" width="1873" height="1839" rx="163" ry="163"/>
   <rect class="fil6 str45" x="195635" y="29989" width="1873" height="1839" rx="163" ry="163"/>
   <rect class="fil6 str46" x="197781" y="29989" width="1873" height="1839" rx="163" ry="163"/>
   <rect class="fil6 str47" x="199960" y="29989" width="1873" height="1839" rx="163" ry="163"/>
   <rect class="fil6 str48" x="202174" y="29989" width="1873" height="1839" rx="163" ry="163"/>
   <rect class="fil6 str49" x="204286" y="29989" width="1873" height="1839" rx="163" ry="163"/>
   <rect class="fil6 str50" x="206534" y="29989" width="1873" height="1839" rx="163" ry="163"/>
   <rect class="fil6 str51" x="208747" y="29989" width="1873" height="1839" rx="163" ry="163"/>
   <rect class="fil6 str52" x="210961" y="29989" width="1873" height="1839" rx="163" ry="163"/>
   <rect class="fil6 str53" x="182931" y="34280" width="1873" height="1839" rx="163" ry="163"/>
   <rect class="fil6 str54" x="185111" y="34280" width="1873" height="1839" rx="163" ry="163"/>
   <rect class="fil6 str55" x="190186" y="32134" width="1873" height="1839" rx="163" ry="163"/>
   <rect class="fil6 str56" x="192399" y="32134" width="1873" height="1839" rx="163" ry="163"/>
   <rect class="fil6 str57" x="194579" y="32134" width="1873" height="1839" rx="163" ry="163"/>
   <rect class="fil6 str58" x="196725" y="32134" width="1873" height="1839" rx="163" ry="163"/>
   <rect class="fil6 str59" x="198905" y="32134" width="1873" height="1839" rx="163" ry="163"/>
   <rect class="fil6 str60" x="201118" y="32134" width="1873" height="1839" rx="163" ry="163"/>
   <rect class="fil6 str61" x="203230" y="32134" width="1873" height="1839" rx="163" ry="163"/>
   <rect class="fil6 str62" x="205478" y="32134" width="1873" height="1839" rx="163" ry="163"/>
   <rect class="fil6 str63" x="207692" y="32134" width="1873" height="1839" rx="163" ry="163"/>
   <g>
    <path class="fil6" d="M209991 32202l4325 0c94,0 170,77 170,170l0 1431c0,93 -76,170 -170,170l-4325 0c-94,0 -171,-77 -171,-170l0 -1431c0,-93 77,-170 171,-170z"/>
    <path id="1" class="fil5" d="M214316 32286l-4325 0 0 -168 4325 0 0 0 0 168zm254 86l-167 0 0 0 0 -4 0 -4 -1 -5 -1 -4 -1 -4 -1 -4 -1 -4 -2 -4 -1 -4 -2 -4 -2 -3 -3 -4 -2 -3 -3 -4 -2 -3 -3 -3 -4 -3 -3 -2 -3 -3 -4 -3 -3 -2 -4 -2 -4 -2 -3 -2 -4 -1 -4 -2 -4 -1 -4 -1 -5 0 -4 -1 -4 0 -5 0 0 -168 13 1 13 1 13 1 12 3 12 2 12 4 12 4 12 4 11 6 11 5 10 6 11 7 10 7 9 7 9 9 9 8 8 9 8 9 8 9 7 10 7 10 6 11 5 11 5 11 5 12 4 12 3 12 3 12 2 12 2 13 1 13 1 13 0 0zm-167 1431l0 -1431 167 0 0 1431 0 0 -167 0zm-87 254l0 -168 0 0 5 0 4 0 4 -1 5 0 4 -1 4 -2 4 -1 4 -1 3 -2 4 -2 4 -2 3 -2 4 -3 3 -3 3 -2 4 -3 3 -3 2 -3 3 -4 2 -3 3 -4 2 -4 2 -3 1 -4 2 -4 1 -4 1 -4 1 -4 1 -4 1 -5 0 -4 0 -4 167 0 -1 13 -1 13 -2 13 -2 12 -3 12 -3 12 -4 12 -5 12 -5 11 -5 11 -6 10 -7 11 -7 10 -8 9 -8 9 -8 9 -9 8 -9 9 -9 7 -10 7 -11 7 -10 6 -11 5 -11 6 -12 4 -12 4 -12 4 -12 2 -12 2 -13 2 -13 1 -13 1 0 0zm-4325 -168l4325 0 0 168 -4325 0 0 0 0 -168zm-254 -86l167 0 0 0 0 4 0 4 1 5 0 4 1 4 1 4 2 4 1 4 2 4 2 3 2 4 2 4 3 3 3 4 2 3 3 3 3 3 3 2 4 3 3 3 4 2 3 2 4 2 4 2 4 1 4 1 4 2 4 1 5 0 4 1 4 0 5 0 0 168 -13 -1 -13 -1 -13 -2 -12 -2 -13 -2 -12 -4 -11 -4 -12 -4 -11 -6 -11 -5 -11 -6 -10 -7 -10 -7 -9 -7 -10 -9 -8 -8 -9 -9 -8 -9 -7 -9 -7 -10 -7 -11 -6 -10 -6 -11 -5 -11 -4 -12 -4 -12 -4 -12 -3 -12 -2 -12 -2 -13 -1 -13 0 -13 0 0zm167 -1431l0 1431 -167 0 0 -1431 0 0 167 0zm87 -254l0 168 0 0 -5 0 -4 0 -4 1 -5 0 -4 1 -4 1 -4 2 -4 1 -4 2 -4 2 -3 2 -4 2 -3 3 -4 3 -3 2 -3 3 -3 3 -2 3 -3 4 -3 3 -2 4 -2 3 -2 4 -2 4 -1 4 -2 4 -1 4 -1 4 0 4 -1 5 0 4 0 4 -167 0 0 -13 1 -13 2 -13 2 -12 3 -12 4 -12 4 -12 4 -12 5 -11 6 -11 6 -11 7 -10 7 -10 7 -9 8 -9 9 -9 8 -8 10 -9 9 -7 10 -7 10 -7 11 -6 11 -5 11 -6 12 -4 11 -4 12 -4 13 -2 12 -3 13 -1 13 -1 13 -1 0 0z"/>
   </g>
   <g>
    <path class="fil6" d="M192485 34348l10251 0c94,0 170,76 170,170l0 1430c0,94 -76,171 -170,171l-10251 0c-94,0 -171,-77 -171,-171l0 -1430c0,-94 77,-170 171,-170z"/>
    <path id="1" class="fil5" d="M202736 34431l-10251 0 0 -167 10251 0 0 0 0 167zm253 87l-165 0 0 0 0 -5 -1 -4 0 -4 -1 -4 -1 -4 -1 -4 -1 -5 -2 -3 -2 -4 -2 -4 -2 -3 -2 -4 -2 -3 -3 -4 -3 -3 -3 -3 -3 -3 -3 -3 -3 -2 -4 -3 -3 -2 -4 -2 -4 -2 -4 -2 -3 -1 -5 -2 -4 -1 -4 -1 -5 -1 -4 0 -4 -1 -5 0 0 -167 13 0 13 1 13 2 12 2 12 3 12 4 12 3 11 5 12 5 10 6 11 6 10 7 10 7 10 7 9 8 9 8 8 9 8 9 7 10 7 10 7 10 6 11 6 10 5 12 5 12 4 11 3 12 3 13 2 12 2 13 1 13 0 13 0 0zm-165 1430l0 -1430 165 0 0 1430 0 0 -165 0zm-88 254l0 -167 0 0 5 0 4 0 4 -1 5 -1 4 -1 4 -1 5 -1 3 -2 4 -1 4 -2 4 -3 3 -2 4 -2 3 -3 3 -3 3 -3 3 -3 3 -3 3 -3 2 -4 2 -3 2 -4 2 -4 2 -3 2 -4 1 -4 1 -4 1 -4 1 -5 0 -4 1 -4 0 -5 165 0 0 13 -1 14 -2 12 -2 12 -3 13 -3 12 -4 12 -5 12 -5 11 -6 11 -6 10 -7 11 -7 10 -7 9 -8 9 -8 9 -9 8 -9 8 -10 8 -10 7 -10 6 -11 6 -10 6 -12 5 -11 5 -12 4 -12 3 -12 3 -12 2 -13 2 -13 1 -13 0 0 0zm-10251 -167l10251 0 0 167 -10251 0 0 0 0 -167zm-253 -87l165 0 0 0 0 5 0 4 1 4 1 5 1 4 1 4 1 4 2 4 1 3 2 4 2 4 3 3 2 4 3 3 2 3 4 3 3 3 3 3 3 3 4 2 3 2 4 3 4 2 3 1 4 2 4 1 5 1 4 1 4 1 5 1 4 0 5 0 0 167 -13 0 -13 -1 -13 -2 -12 -2 -13 -3 -11 -3 -12 -4 -12 -5 -11 -5 -11 -6 -10 -6 -11 -6 -9 -7 -10 -8 -9 -8 -9 -8 -8 -9 -8 -9 -8 -9 -7 -10 -6 -11 -6 -10 -6 -11 -5 -11 -5 -12 -4 -12 -3 -12 -3 -13 -2 -12 -2 -12 -1 -14 0 -13 0 0zm165 -1430l0 1430 -165 0 0 -1430 0 0 165 0zm88 -254l0 167 0 0 -5 0 -4 1 -5 0 -4 1 -4 1 -5 1 -4 2 -4 1 -3 2 -4 2 -4 2 -3 2 -4 3 -3 2 -3 3 -3 3 -4 3 -2 3 -3 4 -2 3 -3 4 -2 3 -2 4 -1 4 -2 3 -1 5 -1 4 -1 4 -1 4 -1 4 0 4 0 5 -165 0 0 -13 1 -13 2 -13 2 -12 3 -13 3 -12 4 -11 5 -12 5 -12 6 -10 6 -11 6 -10 7 -10 8 -10 8 -9 8 -9 9 -8 9 -8 10 -7 9 -7 11 -7 10 -6 11 -6 11 -5 12 -5 12 -3 11 -4 13 -3 12 -2 13 -2 13 -1 13 0 0 0z"/>
   </g>
   <rect class="fil6 str64" x="187427" y="34280" width="1873" height="1839" rx="163" ry="163"/>
   <rect class="fil6 str65" x="185622" y="32134" width="1873" height="1839" rx="163" ry="163"/>
   <rect class="fil6 str66" x="187938" y="32134" width="1873" height="1839" rx="163" ry="163"/>
   <g>
    <path class="fil6" d="M189702 34280l2108 0c90,0 164,73 164,163l0 1512c0,90 -74,164 -164,164l-2108 0c-90,0 -163,-74 -163,-164l0 -1512c0,-90 73,-163 163,-163z"/>
    <path id="1" class="fil5" d="M191810 34363l-2108 0 0 -167 2108 0 0 0 0 167zm247 80l-167 0 0 0 0 -4 0 -4 -1 -4 -1 -4 0 -4 -2 -4 -1 -3 -1 -4 -2 -3 -2 -4 -1 -3 -2 -3 -3 -4 -2 -3 -3 -3 -2 -2 -3 -3 -3 -3 -3 -2 -4 -2 -3 -3 -3 -1 -3 -2 -4 -2 -3 -1 -4 -1 -4 -1 -4 -1 -4 -1 -4 0 -4 -1 -4 0 0 -167 13 0 12 1 13 2 12 2 12 3 12 3 11 4 12 5 10 5 11 5 11 6 10 7 9 6 9 8 9 7 9 9 8 8 8 9 7 9 7 10 6 10 7 11 5 10 5 11 4 11 4 12 4 12 2 11 2 12 2 13 1 12 0 13 0 0zm-167 1512l0 -1512 167 0 0 1512 0 0 -167 0zm-80 247l0 -167 0 0 4 0 4 0 4 -1 4 0 4 -1 4 -1 4 -2 3 -1 4 -2 3 -2 3 -1 3 -2 4 -3 3 -2 3 -3 3 -2 2 -3 3 -3 2 -3 3 -4 2 -3 1 -3 2 -3 2 -4 1 -3 1 -4 2 -4 0 -4 1 -4 1 -4 0 -4 0 -4 167 0 0 13 -1 12 -2 13 -2 12 -2 12 -4 11 -4 12 -4 12 -5 10 -5 11 -7 11 -6 10 -7 9 -7 9 -8 9 -8 9 -9 8 -9 8 -9 7 -9 7 -10 6 -11 6 -11 6 -10 5 -12 4 -11 4 -12 3 -12 3 -12 2 -13 2 -12 1 -13 0 0 0zm-2108 -167l2108 0 0 167 -2108 0 0 0 0 -167zm-247 -80l167 0 0 0 0 4 1 4 0 4 1 4 1 4 1 4 1 4 1 3 2 4 2 3 2 3 2 3 2 4 3 3 2 3 3 3 2 2 4 3 2 2 4 3 3 2 3 1 4 2 3 2 4 1 3 2 4 1 4 1 4 0 4 1 4 0 4 0 0 167 -13 0 -12 -1 -13 -2 -12 -2 -12 -3 -11 -3 -12 -4 -11 -4 -11 -5 -10 -6 -11 -6 -10 -6 -10 -7 -9 -7 -9 -8 -9 -8 -8 -9 -8 -9 -7 -9 -7 -9 -6 -10 -6 -11 -6 -11 -4 -10 -5 -12 -4 -12 -3 -11 -3 -12 -2 -12 -2 -13 -1 -12 0 -13 0 0zm167 -1512l0 1512 -167 0 0 -1512 0 0 167 0zm80 -247l0 167 0 0 -4 0 -4 1 -4 0 -4 1 -4 1 -4 1 -3 1 -4 1 -3 2 -4 2 -3 1 -3 3 -4 2 -2 2 -4 3 -2 3 -3 2 -2 3 -3 3 -2 4 -2 3 -2 3 -2 4 -2 3 -1 4 -1 3 -1 4 -1 4 -1 4 0 4 -1 4 0 4 -167 0 0 -13 1 -12 2 -13 2 -12 3 -11 3 -12 4 -12 5 -11 4 -11 6 -10 6 -11 6 -10 7 -10 7 -9 8 -9 8 -8 9 -9 9 -7 9 -8 10 -6 10 -7 11 -6 10 -5 11 -5 11 -5 12 -4 11 -3 12 -3 12 -2 13 -2 12 -1 13 0 0 0z"/>
   </g>
   <g>
    <path class="fil6" d="M203428 34280l2108 0c90,0 163,73 163,163l0 1512c0,90 -73,164 -163,164l-2108 0c-90,0 -164,-74 -164,-164l0 -1512c0,-90 74,-163 164,-163z"/>
    <path id="1" class="fil5" d="M205536 34363l-2108 0 0 -167 2108 0 0 0 0 167zm247 80l-167 0 0 0 0 -4 -1 -4 0 -4 -1 -4 -1 -4 -1 -4 -1 -3 -2 -4 -1 -3 -2 -4 -2 -3 -2 -3 -2 -4 -3 -3 -2 -3 -3 -2 -3 -3 -3 -3 -3 -2 -3 -2 -3 -3 -3 -1 -4 -2 -4 -2 -3 -1 -4 -1 -3 -1 -4 -1 -4 -1 -4 0 -4 -1 -4 0 0 -167 12 0 13 1 13 2 12 2 11 3 12 3 12 4 11 5 11 5 10 5 11 6 10 7 10 6 9 8 9 7 8 9 9 8 7 9 8 9 6 10 7 10 6 11 5 10 5 11 5 11 4 12 3 12 3 11 2 12 2 13 1 12 0 13 0 0zm-167 1512l0 -1512 167 0 0 1512 0 0 -167 0zm-80 247l0 -167 0 0 4 0 4 0 4 -1 4 0 4 -1 3 -1 4 -2 3 -1 4 -2 4 -2 3 -1 3 -2 3 -3 3 -2 3 -3 3 -2 3 -3 2 -3 3 -3 2 -4 2 -3 2 -3 2 -3 1 -4 2 -3 1 -4 1 -4 1 -4 1 -4 0 -4 1 -4 0 -4 167 0 0 13 -1 12 -2 13 -2 12 -3 12 -3 11 -4 12 -5 12 -5 10 -5 11 -6 11 -7 10 -6 9 -8 9 -7 9 -9 9 -8 8 -9 8 -9 7 -10 7 -10 6 -11 6 -10 6 -11 5 -11 4 -12 4 -12 3 -11 3 -12 2 -13 2 -13 1 -12 0 0 0zm-2108 -167l2108 0 0 167 -2108 0 0 0 0 -167zm-248 -80l168 0 0 0 0 4 0 4 1 4 0 4 1 4 1 4 2 4 1 3 2 4 2 3 1 3 2 3 3 4 2 3 3 3 2 3 3 2 3 3 3 2 4 3 3 2 2 1 4 2 4 2 3 1 4 2 4 1 4 1 4 0 4 1 3 0 5 0 0 167 -13 0 -13 -1 -12 -2 -12 -2 -12 -3 -12 -3 -11 -4 -12 -4 -10 -5 -11 -6 -11 -6 -10 -6 -9 -7 -10 -7 -9 -8 -8 -8 -8 -9 -8 -9 -7 -9 -7 -9 -6 -10 -7 -11 -5 -11 -5 -10 -4 -12 -4 -12 -4 -11 -2 -12 -3 -12 -1 -13 -1 -12 -1 -13 0 0zm168 -1512l0 1512 -168 0 0 -1512 0 0 168 0zm80 -247l0 167 0 0 -5 0 -3 1 -4 0 -4 1 -4 1 -4 1 -4 1 -3 1 -4 2 -4 2 -2 1 -3 3 -4 2 -3 2 -3 3 -3 3 -2 2 -3 3 -2 3 -3 4 -2 3 -1 3 -2 4 -2 3 -1 4 -2 3 -1 4 -1 4 0 4 -1 4 0 4 0 4 -168 0 1 -13 1 -12 1 -13 3 -12 2 -11 4 -12 4 -12 4 -11 5 -11 5 -10 7 -11 6 -10 7 -10 7 -9 8 -9 8 -8 8 -9 9 -7 10 -8 9 -6 10 -7 11 -6 11 -5 10 -5 12 -5 11 -4 12 -3 12 -3 12 -2 12 -2 13 -1 13 0 0 0z"/>
   </g>
   <rect class="fil6 str67" x="205955" y="34280" width="1873" height="1839" rx="163" ry="163"/>
   <rect class="fil6 str68" x="208175" y="34280" width="1873" height="1839" rx="163" ry="163"/>
   <rect class="fil6 str69" x="212596" y="34280" width="1873" height="1839" rx="163" ry="163"/>
   <g>
    <path class="fil6" d="M210551 34314l1536 0c90,0 164,73 164,163l0 722 -1864 0 0 -722c0,-90 74,-163 164,-163z"/>
    <path id="1" class="fil5" d="M212087 34397l-1536 0 0 -167 1536 0 0 0 0 167zm247 80l-167 0 0 0 0 -4 0 -4 -1 -4 0 -4 -1 -4 -1 -4 -2 -3 -1 -3 -2 -4 -2 -4 -1 -3 -2 -3 -3 -3 -2 -3 -3 -3 -2 -3 -3 -3 -3 -2 -3 -3 -4 -2 -3 -2 -3 -2 -3 -2 -4 -1 -3 -2 -4 -1 -4 -1 -4 -1 -4 -1 -4 0 -4 -1 -4 0 0 -167 13 0 12 1 13 2 12 2 12 3 11 3 12 4 12 5 10 4 11 6 11 6 10 6 9 7 9 7 9 8 9 8 8 9 8 9 7 9 7 10 6 10 6 11 6 10 5 11 4 11 4 12 3 12 3 11 2 12 2 13 1 12 0 13 0 0zm-167 722l0 -722 167 0 0 722 -83 84 -84 -84zm167 0l0 84 -83 0 83 -84zm-1947 -84l1864 0 0 168 -1864 0 -84 -84 84 -84zm0 168l-84 0 0 -84 84 84zm84 -806l0 722 -168 0 0 -722 0 0 168 0zm80 -247l0 167 0 0 -5 0 -4 1 -3 0 -4 1 -4 1 -4 1 -4 1 -3 2 -4 1 -4 2 -2 2 -4 2 -3 2 -3 3 -3 2 -3 3 -3 3 -2 3 -2 3 -3 3 -2 3 -2 3 -2 4 -1 4 -2 3 -1 3 -1 4 -1 4 -1 4 0 4 0 4 0 4 -168 0 1 -13 1 -12 1 -13 3 -12 2 -11 4 -12 4 -12 4 -11 5 -11 5 -10 7 -11 6 -10 7 -10 7 -9 8 -9 8 -9 9 -8 9 -8 9 -7 9 -7 10 -6 11 -6 11 -6 10 -4 12 -5 11 -4 12 -3 12 -3 12 -2 12 -2 13 -1 13 0 0 0z"/>
   </g>
   <g>
    <path class="fil6" d="M210404 35199l1864 0 0 722c0,90 -74,164 -164,164l-1536 0c-90,0 -164,-74 -164,-164l0 -722z"/>
    <path id="1" class="fil5" d="M212268 35282l-1864 0 0 -166 1864 0 83 83 -83 83zm0 -166l83 0 0 83 -83 -83zm-84 805l0 -722 167 0 0 722 0 0 -167 0zm-80 247l0 -167 0 0 4 0 4 0 4 0 4 -1 4 -1 4 -1 4 -1 3 -2 4 -1 3 -2 3 -2 3 -2 4 -2 3 -3 3 -2 2 -3 3 -3 3 -3 2 -3 3 -3 2 -4 1 -2 2 -4 2 -4 1 -3 1 -4 2 -4 1 -4 0 -4 1 -4 0 -4 0 -4 167 0 0 13 -1 12 -2 13 -2 12 -2 12 -4 11 -4 12 -4 11 -5 11 -5 10 -7 11 -6 10 -7 9 -7 10 -8 9 -8 8 -8 8 -10 8 -9 7 -9 7 -10 7 -11 6 -11 5 -10 5 -12 5 -11 4 -12 3 -12 3 -12 2 -12 2 -13 0 -13 1 0 0zm-1536 -167l1536 0 0 167 -1536 0 0 0 0 -167zm-247 -80l167 0 0 0 0 4 0 4 1 4 0 4 1 4 1 4 2 4 1 3 2 4 2 4 1 2 2 4 3 3 2 3 3 3 2 3 3 3 3 2 3 3 4 2 3 2 3 2 3 2 4 1 3 2 4 1 4 1 4 1 4 1 4 0 3 0 5 0 0 167 -13 -1 -13 0 -12 -2 -12 -2 -12 -3 -12 -3 -11 -4 -12 -5 -11 -5 -10 -5 -11 -6 -10 -7 -9 -7 -10 -7 -9 -8 -8 -8 -8 -8 -8 -9 -7 -10 -7 -9 -7 -10 -6 -11 -5 -10 -5 -11 -4 -11 -4 -12 -4 -11 -2 -12 -3 -12 -1 -13 -1 -12 0 -13 0 0zm167 -722l0 722 -167 0 0 -722 83 -83 84 83zm-167 0l0 -83 83 0 -83 83z"/>
   </g>
   <g>
    <path class="fil6" d="M214412 31591c0,40 -30,73 -67,73l-1105 0c-37,0 -67,-33 -67,-73l0 -1935 -336 0c-48,0 -88,-42 -88,-94l0 -1549c0,-53 40,-95 88,-95l1520 0c49,0 88,42 88,95l0 1549c0,641 -33,1360 -33,2029z"/>
    <path id="1" class="fil5" d="M214345 31747l0 -167 0 0 -2 0 -1 0 0 1 -2 0 -1 0 -1 0 -1 1 -1 0 -1 1 0 0 -1 0 -1 1 -1 1 0 0 0 0 -1 1 -1 0 0 1 0 -1 0 1 -1 1 1 0 -1 0 0 1 0 0 0 0 0 1 0 0 0 0 -1 1 0 0 0 0 168 0 -1 8 0 7 -1 8 -1 8 -2 7 -2 7 -2 7 -2 6 -3 8 -4 7 -3 5 -4 7 -4 7 -4 5 -4 5 -6 6 -5 6 -5 4 -5 5 -7 4 -6 5 -7 4 -6 3 -6 4 -8 3 -7 2 -7 2 -7 2 -9 2 -8 1 -7 1 -8 0 0 0zm-1105 -167l1105 0 0 167 -1105 0 0 0 0 -167zm-151 11l167 0 0 0 0 0 0 0 0 -1 0 0 0 0 0 -1 0 0 0 0 0 -1 -1 0 0 0 0 -1 -1 -1 1 1 -1 -1 0 0 -1 -1 0 0 0 0 -1 -1 -1 -1 -1 0 0 0 -2 -1 0 0 -1 -1 -1 0 -1 0 -2 0 0 -1 -1 0 -2 0 0 167 -8 0 -8 -1 -7 -1 -9 -2 -7 -2 -7 -2 -8 -3 -6 -2 -7 -4 -7 -3 -6 -4 -7 -5 -6 -4 -5 -5 -6 -5 -5 -5 -4 -5 -5 -6 -4 -5 -5 -7 -3 -7 -3 -5 -4 -7 -3 -8 -2 -6 -2 -7 -2 -7 -2 -7 -1 -8 -1 -8 -1 -7 0 -8 0 0zm167 -1935l0 1935 -167 0 0 -1935 84 -83 83 83zm-83 -83l83 0 0 83 -83 -83zm-336 0l336 0 0 167 -336 0 0 0 0 -167zm-172 -11l167 0 0 0 0 1 0 0 1 1 0 2 0 -1 0 1 0 1 0 1 1 1 0 0 0 0 1 1 0 1 1 0 0 1 0 0 0 0 0 0 1 0 0 1 0 0 0 0 1 0 -1 0 1 0 0 0 -1 0 1 0 -1 0 0 0 1 0 -1 0 0 167 -9 -1 -9 0 -8 -2 -10 -1 -8 -2 -9 -3 -8 -3 -8 -3 -8 -4 -7 -4 -7 -5 -8 -5 -6 -5 -6 -5 -6 -6 -6 -6 -6 -6 -6 -7 -4 -6 -5 -7 -4 -7 -4 -8 -4 -7 -3 -8 -3 -8 -2 -8 -3 -8 -2 -9 -1 -8 -1 -9 -1 -9 0 -8 0 0zm167 -1549l0 1549 -167 0 0 -1549 0 0 167 0zm5 -178l0 166 0 0 1 0 -1 0 0 0 1 0 -1 0 1 0 0 0 -1 0 1 0 -1 0 0 0 0 0 0 1 -1 0 0 0 0 0 0 0 0 1 -1 0 0 1 -1 1 0 0 0 1 -1 0 0 1 0 1 0 1 0 0 0 1 -1 1 0 0 0 2 -167 0 0 -9 1 -9 1 -9 1 -7 2 -10 3 -8 2 -8 3 -8 3 -7 4 -8 4 -8 4 -7 5 -6 4 -7 6 -7 6 -6 6 -6 6 -6 6 -5 6 -5 8 -5 7 -5 7 -4 8 -3 8 -3 8 -4 9 -2 8 -3 10 -1 8 -1 9 -1 9 0 0 0zm1520 166l-1520 0 0 -166 1520 0 0 0 0 166zm172 12l-167 0 0 0 0 -2 0 0 0 -1 -1 -1 1 0 -1 -1 0 -1 0 -1 -1 0 0 -1 0 -1 0 1 0 -1 -1 -1 -1 -1 0 0 0 0 0 0 0 0 -1 -1 0 0 0 0 -1 0 1 0 -1 0 0 0 1 0 0 0 0 0 0 0 -1 0 1 0 0 -166 9 0 9 1 8 1 10 1 8 3 10 2 8 4 7 3 8 3 7 4 8 5 7 5 6 4 6 6 7 6 6 6 5 6 6 7 4 6 5 7 4 8 5 7 3 8 3 7 3 8 3 8 2 8 2 10 1 7 1 9 1 9 0 9 0 0zm-167 1549l0 -1549 167 0 0 1549 0 0 -167 0zm134 2029l-168 0 0 0 1 -63 0 -63 0 -64 1 -64 1 -64 1 -64 1 -64 1 -64 1 -65 1 -65 2 -64 1 -65 2 -65 1 -64 2 -65 1 -64 2 -64 1 -65 2 -64 1 -64 2 -64 1 -63 1 -63 2 -63 1 -63 1 -63 1 -62 0 -62 1 -61 0 -61 1 -60 0 -60 167 0 0 60 0 61 -1 62 0 61 -1 62 -1 63 -1 63 -1 63 -1 63 -2 63 -1 64 -2 64 -1 64 -2 64 -1 65 -2 64 -1 64 -2 65 -1 64 -2 65 -1 64 -2 65 -1 64 -1 65 -1 64 -1 64 -1 63 -1 64 -1 64 0 63 0 63 0 62 0 0z"/>
   </g>
   <circle class="fil6 str70" cx="217210" cy="41703" r="5178"/>
   <ellipse class="fil2 str71" cx="217202" cy="41887" rx="3484" ry="3500"/>
   <path class="fil6 str72" d="M216822 37819c1689,0 3057,1369 3057,3059 0,1690 -1368,3060 -3057,3060 -1688,0 -3056,-1370 -3056,-3060 0,-647 201,-1247 543,-1742 -197,-82 -452,-243 -706,-457 -473,-396 -767,-823 -657,-954 109,-130 581,85 1053,481 250,211 451,429 567,608 559,-612 1363,-995 2256,-995z"/>
   <g>
    <path class="fil7" d="M216822 38212c-1472,0 -2666,1193 -2666,2666 0,1473 1194,2667 2666,2667 1473,0 2667,-1194 2667,-2667 0,-1473 -1194,-2666 -2667,-2666z"/>
    <path id="1" class="fil5" d="M214072 40878l0 0 4 -141 11 -140 17 -138 24 -135 31 -133 37 -131 43 -128 50 -124 55 -122 60 -119 67 -115 71 -112 77 -107 81 -104 87 -100 91 -95 95 -92 100 -86 104 -82 108 -76 111 -72 116 -66 118 -61 122 -55 125 -49 128 -43 130 -37 133 -31 136 -24 137 -18 140 -10 141 -4 0 167 -133 4 -131 10 -129 16 -127 23 -125 28 -123 35 -120 41 -117 46 -114 52 -112 57 -108 62 -105 67 -101 72 -97 77 -94 81 -90 86 -86 89 -81 94 -76 98 -72 101 -68 105 -62 108 -57 111 -52 115 -46 117 -40 120 -35 123 -29 124 -23 128 -16 129 -10 131 -3 133 0 0 -168 0zm2750 2750l0 0 -141 -3 -140 -11 -137 -18 -136 -24 -133 -30 -130 -38 -128 -43 -125 -49 -122 -55 -118 -61 -116 -66 -111 -72 -108 -76 -104 -82 -100 -86 -95 -91 -91 -96 -87 -100 -81 -103 -77 -108 -71 -112 -67 -115 -60 -119 -55 -121 -50 -125 -43 -128 -37 -131 -31 -133 -24 -135 -17 -138 -11 -139 -4 -142 168 0 3 133 10 131 16 130 23 127 29 125 35 122 40 120 46 117 52 115 57 111 62 108 68 105 72 101 76 98 81 94 86 90 90 85 94 81 97 77 101 72 105 67 108 62 112 57 114 52 117 46 120 41 123 35 125 28 127 23 129 17 131 10 133 3 0 0 0 167zm2750 -2750l0 0 -3 142 -11 139 -17 138 -24 135 -31 133 -37 131 -43 128 -50 125 -55 121 -61 119 -66 115 -71 112 -77 108 -82 103 -86 100 -91 96 -95 91 -100 86 -104 82 -108 76 -112 72 -115 66 -118 61 -122 55 -125 49 -128 43 -130 38 -133 30 -136 24 -138 18 -139 11 -142 3 0 -167 133 -3 132 -10 129 -17 127 -23 125 -28 123 -35 119 -41 118 -46 114 -52 112 -57 108 -62 105 -67 101 -72 97 -77 94 -81 90 -85 85 -90 82 -94 76 -98 72 -101 67 -105 63 -108 57 -111 51 -115 47 -117 40 -120 35 -122 29 -125 23 -127 16 -130 10 -131 3 -133 0 0 167 0zm-2750 -2750l0 0 142 4 139 10 138 18 136 24 133 31 130 37 128 43 125 49 122 55 118 61 115 66 112 72 108 76 104 82 100 86 95 92 91 95 86 100 82 104 77 107 71 112 66 115 61 119 55 122 50 124 43 128 37 131 31 133 24 135 17 138 11 140 3 141 -167 0 -3 -133 -10 -131 -16 -129 -23 -128 -29 -124 -35 -123 -40 -120 -47 -117 -51 -115 -57 -111 -63 -108 -67 -105 -72 -101 -76 -98 -82 -94 -85 -89 -90 -86 -94 -81 -97 -77 -101 -72 -105 -67 -108 -62 -112 -57 -114 -52 -118 -46 -119 -41 -123 -35 -125 -28 -127 -23 -129 -16 -132 -10 -133 -4 0 0 0 -167z"/>
   </g>
   <path class="fil6 str70" d="M219388 43848c-455,-164 -1046,125 -1376,697 -359,623 -273,1347 193,1616 467,269 1137,-18 1496,-641 311,-538 289,-1152 -23,-1482l3493 -4989c55,-78 36,-186 -42,-241l0 0c-78,-55 -187,-36 -242,42l-3499 4998z"/>
   <path class="fil6 str73" d="M172735 27657l602 -75c592,-573 239,-1480 1795,-3076 844,-867 1975,-1554 3632,-1589 4320,-92 5023,3964 5688,4641l582 7c417,-1119 -1501,-6028 -5918,-6173 -2035,-68 -3386,742 -4429,1778 -930,923 -2189,2628 -1952,4487z"/>
   <path class="fil8 str73" d="M182706 34396l-29 -4861c-161,-732 -386,-824 -1194,-624 -350,638 -418,5593 -21,6006 607,632 1077,48 1244,-521z"/>
   <rect class="fil6 str74" transform="matrix(1.51311 -0.453325 0.453325 1.51311 174769 34424.1)" width="3452" height="6065" rx="467" ry="467"/>
   <g>
    <polygon class="fil2" points="175514,34805 179580,33587 181843,41140 177777,42359 "/>
    <path id="1" class="fil5" d="M179604 33667l-4066 1218 -48 -160 4066 -1218 104 56 -56 104zm-48 -160l80 -24 24 80 -104 -56zm2207 7657l-2263 -7553 160 -48 2263 7553 -56 104 -104 -56zm160 -48l24 81 -80 23 56 -104zm-4170 1162l4066 -1218 48 160 -4066 1219 -104 -57 56 -104zm48 161l-80 24 -24 -81 104 57zm-2207 -7658l2263 7554 -160 47 -2263 -7553 56 -104 104 56zm-160 48l-24 -80 80 -24 -56 104z"/>
   </g>
   <g>
    <path class="fil6" d="M179860 41915c187,-56 384,51 440,238 56,187 -50,384 -237,440 -188,56 -385,-50 -441,-237 -56,-187 50,-385 238,-441z"/>
    <path id="1" class="fil5" d="M180380 42129l-160 48 0 0 -4 -14 -5 -13 -6 -12 -6 -12 -7 -11 -7 -12 -7 -10 -8 -11 -9 -10 -9 -9 -10 -9 -9 -9 -10 -7 -11 -8 -11 -7 -12 -6 -11 -6 -12 -6 -12 -4 -12 -4 -13 -4 -12 -3 -14 -2 -13 -2 -12 -1 -14 -1 -13 0 -13 1 -14 2 -13 2 -14 3 -13 4 -49 -161 22 -6 22 -5 22 -3 21 -3 22 -1 22 0 21 0 22 2 21 3 20 4 21 5 20 5 20 7 20 8 19 8 18 10 19 11 17 11 17 12 17 13 16 13 15 15 15 15 14 16 13 17 13 18 11 18 11 19 10 19 9 21 8 20 7 22 0 0zm-293 544l-48 -160 0 0 13 -5 13 -5 12 -5 12 -6 12 -7 11 -7 11 -8 10 -8 10 -9 10 -9 9 -9 8 -10 8 -10 8 -11 7 -11 6 -11 6 -11 5 -12 5 -13 4 -12 4 -12 3 -13 2 -13 2 -13 1 -13 0 -13 0 -13 -1 -14 -1 -13 -2 -13 -3 -14 -4 -13 160 -48 6 21 5 22 3 22 3 22 1 21 0 22 0 21 -2 22 -3 21 -4 21 -5 20 -5 21 -7 20 -8 19 -8 19 -10 19 -10 18 -12 18 -12 17 -12 17 -14 16 -15 15 -15 15 -16 14 -17 13 -18 12 -18 12 -18 11 -20 10 -20 8 -21 8 -21 7 0 0zm-545 -293l160 -48 0 0 5 13 5 13 5 12 6 12 7 12 7 11 8 11 8 10 8 10 9 9 10 9 10 9 10 8 11 7 11 7 11 7 11 6 12 5 12 5 13 4 12 3 13 3 13 3 13 2 13 1 13 0 13 0 14 -1 13 -2 14 -2 13 -3 14 -3 48 160 -22 6 -22 5 -22 4 -21 2 -22 2 -21 0 -22 -1 -21 -2 -21 -3 -21 -3 -21 -5 -20 -6 -20 -7 -19 -8 -20 -8 -18 -10 -18 -10 -18 -11 -17 -12 -17 -13 -16 -14 -15 -15 -15 -15 -14 -16 -13 -17 -13 -17 -11 -18 -11 -19 -10 -20 -9 -20 -8 -21 -7 -21 0 0zm293 -545l49 161 0 0 -14 4 -13 5 -12 6 -12 6 -12 6 -11 8 -11 7 -10 8 -10 9 -9 9 -9 9 -9 10 -8 10 -7 11 -7 11 -7 11 -5 12 -6 12 -5 12 -4 12 -3 12 -3 13 -3 13 -2 13 -1 13 0 13 0 14 1 13 2 14 2 13 3 13 3 14 -160 48 -6 -22 -4 -22 -4 -22 -2 -21 -2 -22 0 -22 0 -21 2 -22 3 -21 4 -20 5 -21 6 -20 6 -20 8 -20 9 -19 9 -19 11 -18 11 -17 12 -18 13 -16 14 -16 14 -16 15 -14 16 -14 17 -13 18 -13 18 -11 19 -11 19 -10 20 -9 21 -8 21 -7 0 0z"/>
   </g>
   <path class="fil8 str73" d="M175144 29232l-7 5473c571,845 1267,500 1404,-313l1 -4672c-90,-1108 -870,-1341 -1398,-488z"/>
   <path class="fil6 str73" d="M173950 30041l1 3838c68,272 3,227 126,573 159,32 486,50 596,75 460,106 168,-76 464,178l7 -5473c-550,464 510,-134 -344,132 -226,71 -128,-20 -411,114 -486,229 -346,259 -439,563z"/>
   <path class="fil6 str73" d="M183954 30036c-374,522 -235,1296 -235,2022 1,606 -127,1355 222,1818 333,-646 297,-1148 543,-1638 212,-421 587,-560 751,-1341 144,-685 -16,-1088 112,-1736 253,-1278 -269,-399 -313,-1596l-582 -7c-115,964 -509,645 -447,1260 102,1011 1602,207 522,2390 -32,-39 -74,-152 -86,-124 -13,28 -66,-93 -82,-123l-405 -925z"/>
   <path class="fil6 str73" d="M182677 29535l29 4861 681 165c380,-374 232,-314 554,-685 -349,-463 -221,-1212 -222,-1818 0,-726 -139,-1500 235,-2022 -353,-355 -173,-293 -559,-623l-718 122z"/>
   <path class="fil6 str73" d="M173951 33879l-1 -3838 -730 1176c-173,-527 -334,-1014 -351,-1728l914 -376c-17,-1291 -326,-572 -446,-1531l-602 75c-136,841 -497,272 -339,1474 81,623 34,1412 201,1982 349,1192 237,-314 955,2068l399 698z"/>
   <rect class="fil6 str75" x="219488" y="20142" width="10870" height="16382" rx="735" ry="735"/>
   <rect class="fil6 str76" x="218809" y="21355" width="1359" height="306" rx="367" ry="367"/>
   <rect class="fil6 str77" x="218809" y="22240" width="1359" height="306" rx="367" ry="367"/>
   <rect class="fil6 str78" x="218809" y="23124" width="1359" height="306" rx="367" ry="367"/>
   <rect class="fil6 str79" x="218809" y="24008" width="1359" height="306" rx="367" ry="367"/>
   <rect class="fil6 str80" x="218809" y="24892" width="1359" height="306" rx="367" ry="367"/>
   <rect class="fil6 str81" x="218809" y="25776" width="1359" height="306" rx="367" ry="367"/>
   <rect class="fil6 str82" x="218809" y="26660" width="1359" height="306" rx="367" ry="367"/>
   <rect class="fil6 str83" x="218809" y="27544" width="1359" height="306" rx="367" ry="367"/>
   <rect class="fil6 str84" x="218809" y="28428" width="1359" height="306" rx="367" ry="367"/>
   <rect class="fil6 str85" x="218809" y="29313" width="1359" height="306" rx="367" ry="367"/>
   <rect class="fil6 str86" x="218809" y="30197" width="1359" height="306" rx="367" ry="367"/>
   <rect class="fil6 str87" x="218809" y="31081" width="1359" height="306" rx="367" ry="367"/>
   <rect class="fil6 str88" x="218809" y="31965" width="1359" height="306" rx="367" ry="367"/>
   <rect class="fil6 str89" x="218809" y="32849" width="1359" height="306" rx="367" ry="367"/>
   <rect class="fil6 str90" x="218809" y="33733" width="1359" height="306" rx="367" ry="367"/>
   <rect class="fil6 str91" x="218809" y="34617" width="1359" height="306" rx="367" ry="367"/>
   <ellipse class="fil8 str92" cx="224962" cy="26783" rx="3711" ry="3694"/>
   <g>
    <line class="fil4 str93" x1="221931" y1="31893" x2="227994" y2= "31893" />
   </g>
   <g>
    <line class="fil4 str93" x1="222031" y1="32812" x2="228094" y2= "32812" />
   </g>
   <g>
    <line class="fil4 str93" x1="222031" y1="33730" x2="228094" y2= "33730" />
   </g>
   <g>
    <polygon class="fil6" points="228005,35082 227792,39682 228329,39681 228531,35311 232924,29036 232480,28753 228018,35040 "/>
    <path id="1" class="fil5" d="M227876 39686l-84 80 -83 -87 212 -4601 167 8 -212 4600zm-84 80l-87 0 4 -87 83 87zm537 -168l84 87 -84 80 -537 1 0 -167 537 -1zm84 87l-4 80 -80 0 84 -80zm34 -4378l15 -44 152 52 -201 4370 -167 -7 201 -4371zm0 0l1 -24 14 -20 -15 44zm4409 -6319l114 -22 23 118 -4394 6275 -137 -96 4394 -6275zm114 -22l73 47 -50 71 -23 -118zm-535 -143l-23 -119 114 -22 444 284 -91 141 -444 -284zm-23 -119l46 -65 68 43 -114 22zm-4326 6384l-148 -73 12 -23 4462 -6288 137 97 -4463 6287zm-148 -73l4 -13 8 -10 -12 23zm146 92l-163 -29 4 -21 13 -42 160 50 -14 42zm-163 -29l1 -11 3 -10 -4 21z"/>
   </g>
   <g>
    <polygon class="fil6" points="232512,30125 236965,29437 237020,29960 232790,30613 227145,35544 226823,35141 232473,30142 "/>
    <path id="1" class="fil5" d="M236978 29520l-4454 688 -25 -166 4454 -687 95 73 -70 92zm-25 -165l86 -14 9 87 -95 -73zm-16 614l-55 -523 166 -18 55 523 -70 91 -96 -73zm166 -18l9 79 -79 12 70 -91zm-4326 579l4231 -653 25 165 -4230 654 -68 -146 42 -20zm-42 20l18 -16 24 -4 -42 20zm-5644 4931l5644 -4931 110 126 -5645 4931 -120 -11 11 -115zm109 126l-65 57 -55 -68 120 11zm-312 -518l323 402 -131 105 -322 -402 10 -115 120 10zm-130 105l-50 -62 60 -53 -10 115zm5770 -4989l-5650 4999 -110 -125 5649 -4999 22 -14 89 139zm-111 -125l10 -9 12 -5 -22 14zm128 122l-39 17 -67 -153 39 -18 21 -6 46 160zm-67 -154l10 -4 11 -2 -21 6z"/>
   </g>
   <path class="fil6 str94" d="M227265 32688c608,0 1164,227 1587,601l975 -1162c-404,-429 -651,-1007 -651,-1642 0,-1323 1072,-2396 2395,-2396 1323,0 2396,1073 2396,2396 0,1323 -1073,2395 -2396,2395 -485,0 -937,-144 -1314,-392l-1028 1225c272,388 431,861 431,1371 0,1323 -1072,2395 -2395,2395 -1323,0 -2396,-1072 -2396,-2395 0,-1323 1073,-2396 2396,-2396z"/>
   <g>
    <path class="fil2" d="M231559 28455c1089,0 1973,883 1973,1973 0,1090 -884,1973 -1973,1973 -1090,0 -1974,-883 -1974,-1973 0,-1090 884,-1973 1974,-1973z"/>
    <path id="1" class="fil5" d="M233616 30428l-168 0 0 0 -2 -97 -7 -96 -12 -95 -17 -93 -21 -91 -26 -90 -29 -88 -34 -86 -38 -84 -42 -81 -45 -79 -49 -77 -53 -74 -56 -71 -60 -69 -62 -66 -66 -62 -68 -60 -72 -56 -74 -52 -77 -50 -79 -45 -81 -42 -84 -38 -86 -33 -87 -30 -90 -26 -91 -21 -94 -16 -94 -12 -96 -8 -97 -2 0 -167 105 3 105 8 103 13 101 18 100 23 97 28 96 32 93 37 91 41 89 45 86 50 84 54 80 57 78 61 75 65 71 68 68 71 65 75 61 77 57 81 54 83 49 87 46 88 41 91 37 94 32 95 28 98 23 100 18 101 13 103 8 104 3 106 0 0zm-2057 2057l0 -167 0 0 97 -3 96 -7 94 -12 94 -16 91 -22 90 -25 87 -30 86 -34 84 -37 81 -42 79 -46 77 -49 74 -53 72 -56 68 -59 66 -62 62 -66 60 -69 56 -71 53 -74 49 -77 45 -79 42 -82 38 -83 34 -86 29 -88 26 -90 21 -91 17 -93 12 -95 7 -96 2 -97 168 0 -3 106 -8 104 -13 103 -18 101 -23 100 -28 98 -32 95 -37 93 -41 92 -46 88 -49 86 -54 84 -57 80 -61 78 -65 75 -68 71 -71 68 -75 65 -78 61 -80 57 -84 54 -86 49 -89 46 -91 41 -93 37 -96 32 -97 28 -100 23 -101 18 -103 13 -105 8 -105 3 0 0zm-2057 -2057l167 0 0 0 2 97 7 96 13 95 16 93 21 91 26 90 29 88 34 86 38 83 42 82 45 79 50 77 52 74 56 71 60 69 62 66 66 62 69 59 71 56 74 53 77 49 79 46 81 42 84 37 86 34 88 30 89 25 92 22 93 16 94 12 96 7 98 3 0 167 -106 -3 -105 -8 -103 -13 -101 -18 -99 -23 -98 -28 -96 -32 -93 -37 -91 -41 -89 -46 -86 -49 -84 -54 -80 -57 -78 -61 -75 -65 -71 -68 -68 -71 -65 -75 -61 -78 -57 -80 -54 -84 -49 -86 -46 -88 -41 -92 -37 -93 -32 -95 -28 -98 -23 -100 -18 -101 -13 -103 -8 -104 -2 -106 0 0zm2057 -2057l0 167 0 0 -98 2 -96 8 -94 12 -93 16 -92 21 -89 26 -88 30 -86 33 -84 38 -81 42 -79 45 -77 50 -74 52 -71 56 -69 60 -66 62 -62 66 -60 69 -56 71 -52 74 -50 77 -45 79 -42 81 -38 84 -34 86 -29 88 -26 90 -21 91 -16 93 -13 95 -7 96 -2 97 -167 0 2 -106 8 -104 13 -103 18 -101 23 -100 28 -98 32 -95 37 -94 41 -91 46 -88 49 -87 54 -83 57 -81 61 -77 65 -75 68 -71 71 -68 75 -65 78 -61 80 -57 84 -54 86 -50 89 -45 91 -41 93 -37 96 -32 98 -28 99 -23 101 -18 103 -13 105 -8 106 -3 0 0z"/>
   </g>
   <g>
    <path class="fil2" d="M227254 33102c1090,0 1973,884 1973,1974 0,1089 -883,1973 -1973,1973 -1090,0 -1973,-884 -1973,-1973 0,-1090 883,-1974 1973,-1974z"/>
    <path id="1" class="fil5" d="M229311 35076l-167 0 0 0 -3 -98 -7 -96 -12 -94 -17 -94 -21 -91 -25 -90 -30 -87 -34 -86 -38 -84 -41 -81 -46 -79 -49 -77 -53 -74 -56 -72 -59 -68 -63 -66 -65 -63 -69 -59 -71 -56 -75 -53 -76 -49 -79 -45 -82 -42 -84 -38 -85 -34 -88 -30 -90 -25 -91 -21 -93 -17 -95 -12 -96 -7 -97 -2 0 -167 106 2 104 8 103 14 101 18 100 23 98 27 95 33 94 36 91 42 89 45 86 50 83 53 81 57 77 62 75 64 71 68 69 72 64 74 61 78 58 81 53 83 50 86 45 89 41 91 37 93 32 96 28 98 23 99 18 101 13 103 8 105 3 106 0 0zm-2057 2056l0 -166 0 0 97 -3 96 -7 95 -12 93 -17 91 -21 90 -25 88 -30 85 -34 84 -38 82 -41 79 -46 76 -49 75 -53 71 -56 69 -59 65 -63 63 -66 59 -68 56 -72 53 -74 49 -76 46 -79 41 -82 38 -84 34 -85 30 -88 25 -90 21 -91 17 -93 12 -95 7 -96 3 -97 167 0 -3 105 -8 105 -13 103 -18 101 -23 100 -28 97 -32 96 -37 93 -41 91 -45 89 -50 86 -53 83 -58 81 -61 78 -64 74 -69 72 -71 68 -75 65 -77 61 -81 57 -83 54 -86 49 -89 46 -91 41 -94 36 -95 33 -98 28 -100 23 -101 18 -103 13 -104 8 -106 2 0 0zm-2057 -2056l167 0 0 0 3 97 7 96 12 95 17 93 21 91 25 90 30 88 34 85 37 84 42 82 46 79 49 76 53 74 56 72 59 68 63 66 65 63 69 59 71 56 75 53 76 49 79 46 82 41 83 38 86 34 88 30 90 25 91 21 93 17 95 12 96 7 97 3 0 166 -106 -2 -104 -8 -103 -13 -101 -18 -100 -23 -98 -28 -95 -33 -94 -36 -91 -41 -89 -46 -86 -49 -83 -54 -81 -57 -77 -61 -75 -65 -72 -68 -68 -72 -64 -74 -61 -78 -58 -80 -53 -84 -50 -86 -45 -89 -41 -91 -37 -93 -32 -96 -28 -97 -23 -100 -18 -101 -13 -103 -8 -105 -3 -105 0 0zm2057 -2057l0 167 0 0 -97 2 -96 7 -95 12 -93 17 -91 21 -90 25 -88 30 -86 34 -83 38 -82 42 -79 45 -76 49 -75 53 -71 56 -69 59 -65 63 -63 66 -59 68 -56 72 -53 74 -49 77 -46 79 -42 81 -37 84 -34 86 -30 87 -25 90 -21 91 -17 94 -12 94 -7 96 -3 98 -167 0 3 -106 8 -105 13 -103 18 -101 23 -99 28 -98 32 -96 37 -93 41 -91 45 -89 50 -86 53 -83 58 -81 61 -78 64 -74 68 -72 72 -68 75 -64 77 -62 81 -57 83 -53 86 -50 89 -45 91 -42 94 -36 95 -33 98 -27 100 -23 101 -18 103 -14 104 -8 106 -2 0 0z"/>
   </g>
   <path class="fil9" d="M224801 26693l0 -3725c2196,0 3977,1668 3977,3725l-3977 0z"/>
  </g>
 </g>
</svg>
