<?xml version="1.0" encoding="UTF-8"?>
<!DOCTYPE svg PUBLIC "-//W3C//DTD SVG 1.1//EN" "http://www.w3.org/Graphics/SVG/1.1/DTD/svg11.dtd">
<!-- Creator: CorelDRAW X7 -->
<svg xmlns="http://www.w3.org/2000/svg" xml:space="preserve" width="1706px" height="356px" version="1.1" style="shape-rendering:geometricPrecision; text-rendering:geometricPrecision; image-rendering:optimizeQuality; fill-rule:evenodd; clip-rule:evenodd"
viewBox="0 0 959 200"
 xmlns:xlink="http://www.w3.org/1999/xlink">
 <defs>
  <style type="text/css">
   <![CDATA[
    .str0 {stroke:#EAEBEC;stroke-width:3.32088}
    .str1 {stroke:#606062;stroke-width:0.664175}
    .str4 {stroke:#00BAFF;stroke-width:0.664175}
    .str3 {stroke:#E69C24;stroke-width:0.664175}
    .str2 {stroke:#EAEBEC;stroke-width:0.664175}
    .str5 {stroke:#EAEBEC;stroke-width:0.664175}
    .fil2 {fill:none}
    .fil6 {fill:#00BAFF}
    .fil4 {fill:#C3A17C}
    .fil5 {fill:#E69C24}
    .fil0 {fill:#EAEBEC}
    .fil3 {fill:white}
    .fil1 {fill:#E69C24;fill-rule:nonzero}
   ]]>
  </style>
 </defs>
 <g id="Capa_x0020_1">
  <metadata id="CorelCorpID_0Corel-Layer"/>
  <g id="_2167287992352">
   <rect class="fil0 str0" x="2" y="2" width="956" height="197"/>
   <g>
    <path class="fil1" d="M763 76c0,0 0,0 0,0 0,0 0,0 0,0 0,0 -1,-1 -1,0 -1,0 -1,0 0,0 0,-1 1,0 1,0 0,0 0,0 0,0zm-1 3c0,0 0,0 0,0 0,0 0,0 0,0zm-2 -2c0,0 0,0 0,0 0,0 0,0 0,0 0,0 0,0 0,0zm4 1c2,0 3,0 4,0 -1,1 -2,1 -4,1 -1,1 -1,0 -2,0 0,0 0,0 0,0 0,0 0,0 0,0 1,0 1,1 2,0 2,0 2,0 0,1 -1,0 -1,0 -2,0 0,0 0,0 0,0 0,0 0,0 0,0 1,0 1,0 2,0 3,0 6,0 1,0 3,1 2,1 -1,1 0,0 -2,0 -2,0 0,0 0,0 0,0 0,0 0,0 0,0 0,1 2,0 2,0 0,0 14,1 15,1 32,1 26,-15 11,-13 -7,1 -21,3 -27,6l0 0c0,0 0,0 0,0 2,0 2,0 0,1 0,0 0,-1 0,-1 -1,0 -1,0 -1,0 1,0 1,0 1,1 0,0 0,-1 0,-1 0,0 0,1 0,1 0,0 2,0 0,0 0,0 -1,0 -1,0 0,0 0,0 0,0 0,0 0,0 0,0 0,0 1,0 1,0 3,0 2,0 0,1 0,0 -1,0 -1,0 -1,0 -1,0 -2,0 0,0 0,0 0,0 1,0 1,0 2,0 0,0 1,0 1,0 2,0 4,0 1,1z"/>
   </g>
   <path class="fil2" d="M801 75c-5,0 -31,1 -38,2 -1,0 -1,0 -3,1"/>
   <g>
    <path class="fil1" d="M777 107c0,0 -1,0 -1,0 0,0 0,0 0,0 0,0 0,0 -1,0 0,0 0,0 0,0 0,0 1,0 1,0 0,0 1,0 1,0zm-2 4c0,0 0,0 0,0 0,0 0,0 0,0zm-1 -3c0,0 0,0 0,0 0,0 0,0 0,0 -1,0 0,0 0,0zm4 1c1,0 2,0 4,1 -2,0 -3,0 -5,1 -1,0 -1,0 -2,0 0,-1 0,-1 0,0 0,0 0,0 0,0 1,0 2,0 2,0 3,-1 2,0 0,0 0,0 -1,0 -2,0 0,0 0,0 0,0 0,0 0,0 0,0 1,0 2,0 2,0 3,0 6,1 1,0 4,1 2,1 0,1 0,0 -2,1 -3,0 0,0 1,0 0,0 1,0 0,0 0,0 1,1 3,1 3,0 0,0 14,1 15,1 32,1 26,-15 10,-13 -7,1 -21,3 -27,6l0 1c0,0 0,0 0,0 2,-1 2,-1 0,0 0,0 0,0 0,0 0,0 0,0 0,0 0,0 0,0 0,0 0,0 1,0 1,0 0,0 0,0 -1,0 1,0 2,0 1,0 -1,1 -1,0 -2,0 0,0 0,0 0,0 0,0 0,0 0,0 1,0 1,1 2,1 2,-1 2,-1 0,0 -1,0 -1,0 -2,0 0,0 -1,0 -1,0 0,0 0,0 0,0 0,0 1,0 1,0 1,0 1,0 2,0 1,0 3,1 1,1z"/>
   </g>
   <path class="fil2" d="M815 107c-5,-1 -31,0 -38,1 -1,0 -2,0 -4,1"/>
   <g>
    <path class="fil1" d="M760 81c0,0 0,0 0,0 0,0 -1,0 -1,0 -4,0 -6,0 1,0 0,0 0,0 0,0zm-8 3c1,0 1,0 1,0 0,0 0,0 -1,0zm1 -2c0,0 0,0 0,0 0,0 0,-1 0,-1 0,0 0,1 0,1zm8 2c3,0 6,0 10,1 0,0 1,0 2,0 -1,0 -2,0 -2,0 -4,1 -8,1 -12,0 -2,0 -4,0 -6,-1 2,1 4,1 6,1 8,1 6,1 0,1 -2,0 -5,-1 -7,-2 2,1 5,2 7,2 8,1 17,2 2,0 12,3 4,2 -2,1 -3,0 -6,0 -8,-2 0,0 -1,0 0,0 0,0 0,0 0,0 1,1 1,1 2,1 1,-1 0,0 -1,0 1,0 2,-1 1,0 -1,0 -1,0 -2,-1 0,0 0,0 -1,0 0,0 1,0 1,0 2,2 5,2 8,2 4,1 8,1 12,1 6,1 13,1 19,1 1,0 2,0 2,0 55,-8 58,-32 19,-17 -7,3 -14,5 -21,6 -6,1 -13,2 -19,2 -4,1 -8,1 -11,1 -1,0 -3,0 -3,0 1,0 2,0 3,0 4,1 5,1 0,0 -1,0 -2,0 -3,0 0,0 0,0 -1,0 1,0 2,0 4,0 0,0 0,0 0,0 0,0 0,0 0,0 -1,0 -1,0 -1,0 0,0 1,0 1,0 2,1 3,1 -1,1 -1,0 -2,0 -3,0 1,0 2,0 3,0 7,1 6,1 0,1 -1,-1 -4,-1 -6,-1 0,0 0,0 0,0 2,0 5,1 6,1 4,0 11,1 2,1z"/>
   </g>
   <path class="fil2" d="M836 71c-4,0 -31,11 -46,12 -6,0 -33,1 -37,-1 -1,0 0,0 -1,0"/>
   <g>
    <path class="fil1" d="M759 91c-1,0 -1,0 -1,0 -3,0 -2,0 1,0zm-4 4c0,0 0,0 0,0 0,0 0,0 0,0zm0 -3c0,0 0,0 0,0 0,0 0,0 -1,0 0,0 1,0 1,0zm5 2c2,0 4,0 6,1 -4,1 -7,0 -11,0 11,0 6,1 0,1 3,0 16,1 5,0 10,2 -4,1 -6,1 7,0 15,1 22,2 0,0 1,0 1,0 36,1 31,-18 10,-14 -3,1 -7,2 -11,3 -5,0 -13,2 -19,3 5,0 5,0 0,0 0,0 0,0 0,0 1,0 1,0 2,0 0,0 0,0 -1,0 4,1 0,1 -1,1 9,0 2,0 -2,0 0,0 0,0 0,0 1,0 12,1 5,2z"/>
   </g>
   <path class="fil2" d="M803 91c-8,0 -17,1 -27,1 -7,0 -14,1 -22,1"/>
   <g>
    <path class="fil1" d="M895 70c0,0 1,0 1,0 9,0 6,0 -1,0zm11 -4c-1,0 -1,0 -1,0 0,0 0,0 1,0zm0 3c0,0 0,0 0,0 1,0 1,0 1,0 1,0 -1,0 -1,0zm-14 -2c-6,0 -12,0 -18,-1 10,-1 20,0 31,0 -31,-1 -15,-1 1,0 -8,-1 -46,-2 -14,-1 -28,-2 11,-1 17,-1 -23,0 -45,-1 -68,-2 -62,-2 -121,16 -42,13l11 0c30,-2 60,-3 89,-5 -13,0 -15,0 0,0 0,0 1,0 1,0 -2,0 -4,0 -6,0 0,0 1,0 2,0 -11,-1 2,-1 5,-1 -27,0 -6,0 5,0 0,0 0,0 0,0 -2,0 -35,-2 -14,-2z"/>
   </g>
   <path class="fil2" d="M763 68c49,0 97,0 146,0"/>
   <g>
    <path class="fil1" d="M871 81c0,0 0,0 0,0 4,-1 3,0 0,0zm4 -4c0,0 0,0 0,0 0,0 0,0 0,0zm0 2c0,0 0,0 0,0 0,0 0,0 0,0 1,0 0,0 0,0zm-5 -1c-3,0 -6,0 -8,-1 4,0 9,0 13,0 -14,0 -6,-1 0,-1 -4,0 -19,-1 -6,0 -11,-2 5,-1 7,-1 -4,0 -10,0 -14,-2 -3,-1 -6,-1 -10,-2 -47,-5 -43,13 -17,12 4,0 24,0 25,-1 3,0 10,-1 12,-1 -5,0 -6,0 0,0 1,0 1,0 1,0 -1,0 -2,0 -3,0 0,0 1,0 1,0 -5,-1 1,-1 2,-1 -11,0 -3,-1 2,-1 0,0 0,0 0,0 -1,0 -14,-1 -5,-1z"/>
   </g>
   <path class="fil2" d="M818 76c3,0 40,2 43,2 5,2 10,1 15,1"/>
   <g>
    <path class="fil1" d="M885 78c0,0 0,1 0,1 2,0 1,0 0,-1zm3 -3c0,0 0,0 0,0 0,0 0,0 0,0zm-1 3c0,0 0,0 0,0 0,0 0,0 0,0 1,0 0,0 0,0zm-2 -2c-1,-1 -3,-1 -4,-2 3,0 4,0 7,1 -7,-2 -3,-1 0,0 -3,-1 -9,-4 -2,-1 -5,-4 0,-1 2,-1 -5,-2 -10,-4 -15,-7 -1,0 -2,0 -2,-1 -4,-1 -8,-2 -12,-2 -13,0 -10,10 -3,13 2,0 3,0 4,0 3,0 5,1 7,1 4,0 16,2 19,2 -3,-1 -3,-1 0,0 0,0 0,0 0,0 0,0 -1,0 -1,-1 0,0 0,1 0,1 -2,-2 0,-1 1,-1 -5,-2 -1,-1 1,0 0,0 0,0 0,0 -2,-1 -6,-3 -2,-2z"/>
   </g>
   <path class="fil2" d="M850 68c6,-1 31,9 38,9"/>
   <g>
    <path class="fil1" d="M862 74c0,0 0,0 0,0 0,0 0,0 0,0 -2,1 -2,1 0,1 0,-1 0,-1 0,-1zm-2 4c0,0 0,0 0,0 0,0 0,0 0,0zm-1 -2c0,0 0,0 0,0 0,0 0,0 0,0 0,0 0,0 0,0zm4 1c1,0 3,0 4,0 1,0 1,1 2,1 -1,0 -1,0 -2,0 -2,1 -3,0 -5,0 -1,0 -2,0 -2,0 0,0 2,0 2,0 5,1 3,1 0,1 -1,0 -2,0 -2,0 0,0 2,0 2,0 1,0 3,0 5,0 0,1 1,1 0,1 -1,0 -3,0 -4,-1 7,2 1,1 -1,1 -2,0 -3,1 -1,0 -2,1 0,0 1,0 0,0 4,1 5,1 1,0 7,0 7,1 1,0 3,0 3,0 29,0 25,-17 9,-13 -4,1 -8,2 -12,3 -1,0 -6,1 -7,1 -2,1 -4,1 -5,1 0,0 -1,0 -1,0 0,0 1,0 1,0 3,0 3,0 0,0 -1,0 -1,0 -1,0 0,0 0,0 0,0 0,0 0,0 1,0 0,0 0,0 1,0 0,0 -1,0 -1,0 2,1 2,1 0,1 -1,0 -1,0 -1,0 0,0 0,0 1,0 4,0 3,1 0,1 -1,0 -2,0 -3,0 0,0 0,0 0,0 1,0 2,0 3,0 1,0 6,1 1,1z"/>
   </g>
   <path class="fil2" d="M898 75c-5,-1 -17,1 -24,1 0,0 -14,0 -15,0"/>
   <g>
    <path class="fil1" d="M871 78c0,0 0,0 0,0 1,1 1,1 0,0zm2 -3c0,0 0,0 0,0 0,0 0,0 0,0zm0 3c0,0 0,0 0,0 0,0 0,0 0,0 0,0 0,0 0,0zm-1 -2c-1,-1 -2,-1 -3,-2 2,0 3,0 4,1 0,0 0,0 0,0 0,0 0,0 0,0 -3,-2 -2,-1 1,0 0,0 -1,-1 -1,0 0,-1 1,0 1,0 -2,-1 -6,-4 -2,-2 -3,-2 1,0 2,0 0,0 -2,0 -1,0l1 0c-3,-2 -6,-3 -10,-3 -16,-2 -13,15 -4,13 4,-2 7,-3 12,-5 -2,0 -2,0 0,0 0,1 0,1 0,1 0,-1 -1,-1 -1,-1 0,0 0,0 0,0 0,0 0,-1 1,0 -2,-1 -1,-1 0,0 1,0 1,0 1,0 0,0 0,0 0,0 0,0 0,0 -1,0 0,-1 -3,-3 0,-2z"/>
   </g>
   <path class="fil2" d="M853 76c5,0 15,-1 20,1 0,0 0,0 0,0"/>
   <g>
    <path class="fil1" d="M880 91c0,0 1,0 0,0 6,0 3,0 0,0zm4 -4c0,0 0,0 0,0 0,0 0,0 0,0zm1 2c0,0 0,0 0,0 0,0 0,0 0,0 1,0 0,0 0,0zm-7 0c-3,0 -7,0 -11,0 6,-1 12,-1 17,-2 -17,2 -6,1 0,-1 0,0 0,0 0,0 0,0 0,0 0,0 -5,1 -24,1 -6,1 -14,-1 2,-1 6,-2 1,0 1,0 2,0 -1,0 -1,0 -2,0 -12,2 -29,0 -41,-1 -2,-1 -5,-1 -7,-1 -9,-1 -18,-2 -27,-3 -28,-2 -23,8 -2,13 4,1 8,1 13,2 5,0 10,0 15,0 11,0 36,0 47,-4 -8,2 -7,1 0,0 0,0 0,0 0,0 -1,0 -2,0 -3,0 1,0 1,0 1,0 -6,1 1,-1 3,-1 -14,2 -4,1 2,-1 0,0 0,0 0,0 0,0 0,0 0,0 0,0 0,0 0,0 -4,1 -17,1 -7,0z"/>
   </g>
   <path class="fil2" d="M791 81c12,8 75,13 94,8 0,0 1,-1 1,0"/>
   <g>
    <path class="fil1" d="M887 89c0,0 0,0 0,0 3,1 1,0 0,0zm3 -3c0,0 0,0 0,0 0,0 0,0 0,0zm0 2c0,0 0,0 0,0 0,0 0,0 0,0 0,0 0,0 0,0zm-4 -1c-3,-1 -5,-1 -7,-2 4,0 7,0 11,1 -12,-2 -4,-1 0,-1 -4,0 -15,-3 -4,-1 -9,-3 2,0 4,0 -8,-1 -18,-4 -26,-7 -43,-11 -37,6 -17,10 10,1 31,4 41,2 -5,0 -5,0 0,0 0,0 0,0 0,0 -1,0 -1,0 -2,0 0,0 1,0 1,0 -4,-1 0,-1 1,0 -8,-2 -2,-1 2,-1 0,0 0,0 0,0 -3,0 -11,-2 -4,-1z"/>
   </g>
   <path class="fil2" d="M833 76c8,3 46,12 57,12"/>
   <g>
    <path class="fil1" d="M899 85c0,0 0,0 0,0 2,0 1,0 0,0zm2 -4c0,0 0,0 0,0 0,0 0,0 0,0zm0 3c0,0 0,0 0,0 0,0 0,0 0,0 0,0 0,0 0,0zm-2 -2c-1,0 -2,0 -3,-1 2,-1 3,0 5,0 -5,-1 -2,0 0,0 -2,-1 -6,-3 -2,-1 -3,-3 1,-1 2,-1 -3,-1 -7,-3 -10,-4 -19,-8 -18,11 -9,11 5,-1 14,0 18,-1 -2,0 -3,0 0,0 0,0 0,0 0,0 -1,0 -1,0 -1,0 0,0 0,0 0,0 -1,-1 0,-1 1,-1 -4,-1 -1,0 1,0 0,0 0,0 0,0 -2,0 -5,-2 -2,-2z"/>
   </g>
   <path class="fil2" d="M876 78c7,0 19,5 25,5"/>
   <g>
    <path class="fil1" d="M893 91c0,0 0,0 0,0 2,0 1,0 0,0zm2 -4c0,0 0,0 0,0 0,0 0,0 0,0zm0 3c0,0 0,0 0,0 0,0 0,0 0,0 0,0 0,0 0,0zm-2 -1c-1,0 -2,-1 -3,-1 2,-1 3,-1 5,-1 -5,0 -3,0 0,0 -2,0 -7,-2 -2,-1 -4,-2 1,-1 2,0 -3,-1 -7,-2 -10,-3 -17,-2 -15,16 -5,13 5,-2 10,-3 14,-5 -2,0 -2,0 0,0 0,0 0,0 0,0 0,0 -1,0 -1,0 0,0 0,0 0,0 -1,0 0,-1 1,-1 -4,0 -1,0 1,0 0,0 0,0 0,0 -2,0 -5,-1 -2,-1z"/>
   </g>
   <path class="fil2" d="M873 90c7,0 15,-1 22,-1"/>
   <g>
    <path class="fil1" d="M869 98c0,0 0,0 0,0 0,0 0,0 0,0 2,0 3,0 4,-1 1,0 1,0 0,0 -1,1 -2,1 -4,1 0,0 0,0 0,0zm5 -5c0,0 0,0 0,0 0,0 0,0 0,0zm2 2c0,0 0,-1 0,-1 0,0 1,0 1,0 0,0 -1,0 -1,1zm-9 1c-4,0 -9,0 -13,-1 5,0 10,0 14,-1 2,0 3,0 5,0 0,0 0,-1 0,-1 1,0 1,0 1,0 0,0 0,0 -1,0 0,0 0,1 0,1 -2,0 -3,0 -5,0 -9,1 -4,0 0,0 2,-1 3,-1 4,-1 1,0 1,0 1,0 1,0 1,-1 1,-1 0,0 0,1 -1,1 0,0 0,0 -1,0 -1,0 -2,0 -4,0 -8,1 -19,1 -2,0 -12,0 -4,0 2,-1 1,0 3,0 4,0 0,0 0,0 0,0 1,-1 2,-1 2,-2 0,0 0,0 1,0 -1,0 -1,0 -1,0 0,1 -1,1 -2,2 0,0 0,0 0,0 -1,0 -3,0 -4,0 -14,1 -32,0 -45,-1 -4,-1 -9,-1 -12,-2 -44,-6 -73,10 -11,12 3,0 5,0 8,1 13,1 49,-1 61,-4l2 0c0,0 -1,0 -2,0 -7,1 -5,1 0,0 1,0 2,0 2,0 1,0 1,0 1,0 -1,0 -2,0 -3,0 0,0 -1,0 -1,0 0,0 1,0 1,0 -3,0 -3,0 0,-1 1,0 2,0 4,0 -2,0 -3,0 -4,0 -9,1 -5,1 0,0 1,-1 3,-1 4,-1 1,0 1,0 2,0 0,-1 1,-1 1,-1 0,0 0,0 0,0 0,0 -1,0 -1,1 -1,0 -1,0 -2,0 -1,0 -3,0 -4,1 -3,0 -11,0 -2,-1z"/>
   </g>
   <path class="fil2" d="M765 94c15,0 29,-1 44,2 9,2 50,2 60,0 4,-1 4,1 8,-3l0 0"/>
   <g>
    <path class="fil1" d="M885 101c0,0 0,0 0,0 0,0 0,0 0,0 4,0 2,0 0,0 0,0 0,0 0,0zm4 -4c0,0 0,0 0,0 0,0 0,0 0,0zm1 3c0,0 0,0 0,0 0,0 0,0 0,0 0,0 0,0 0,0zm-6 -2c-2,-1 -5,-1 -7,-3 3,0 6,1 9,2 -1,0 3,0 3,0 -1,0 -4,0 -3,0 -6,-2 -5,-1 0,0 -1,-1 3,0 4,0 -1,0 -5,-1 -4,-1 -4,-1 -12,-4 -2,0 -8,-4 -1,-2 3,-1 -2,0 3,0 3,0 0,0 -5,0 -3,0 -8,-2 -14,-4 -20,-7 -35,-10 -45,10 -14,11 11,0 22,1 32,2l1 0c0,0 0,0 -1,0 -4,-1 -5,-1 0,0 1,0 1,0 1,0 0,0 0,0 0,0 0,0 0,0 -1,0 0,0 -1,0 -1,0 0,0 1,0 1,0 -3,-1 -3,-2 1,-1 0,0 0,0 1,0 0,0 -1,0 -1,0 -6,-1 -5,-1 0,0 1,0 2,0 4,0 0,0 -1,0 -1,0 0,0 -3,0 -3,0 -3,-1 -9,-3 -2,-2z"/>
   </g>
   <path class="fil2" d="M834 91c23,0 32,5 52,8 0,0 4,0 4,0"/>
   <g>
    <path class="fil1" d="M894 97c0,0 0,0 0,0 1,0 1,0 0,0zm2 -3c0,0 0,0 0,0 0,-1 0,-1 -1,-1 0,0 0,0 0,0 0,0 0,0 0,0 1,0 1,0 1,1 0,0 0,0 0,0zm-1 2c0,0 0,0 0,0 0,0 0,0 0,0 0,0 0,0 0,0zm-1 -2c-1,0 -1,0 -2,-1 1,0 3,0 3,0l0 0c1,0 1,0 1,0 0,0 1,0 1,0 -1,0 -1,0 -1,0 0,0 0,0 -1,0 0,-1 -3,-3 0,-1 -2,-3 0,-1 0,-1 1,0 1,1 2,1 0,0 0,0 0,0 0,0 0,0 0,0 -1,0 -1,-1 -2,-1 1,0 -7,-4 -8,-4 0,-1 -1,-1 -2,-2 -2,-1 -5,-2 -7,-1 -2,0 -2,1 -3,2 -1,0 -1,0 -2,1 0,0 0,0 0,1 0,0 0,0 0,0 -1,1 -1,0 -1,1 0,0 0,1 0,1 0,0 0,0 0,1 0,0 0,1 0,2 0,1 0,2 1,3 2,1 3,1 4,1 2,0 3,0 4,0 3,0 11,1 14,0 -2,0 -2,0 0,0 0,0 0,0 0,0 -1,0 -1,0 -1,0 0,0 0,0 0,0 0,0 -1,-1 1,-1 -3,-1 -1,0 0,0 0,0 0,0 0,0 0,0 0,0 0,0 0,0 0,0 0,0 0,0 0,0 0,0 0,0 0,0 0,0 -1,0 -3,-2 -1,-2z"/>
   </g>
   <path class="fil2" d="M873 88c0,0 19,8 22,7l1 1"/>
   <g>
    <path class="fil1" d="M907 75c0,0 0,0 0,0 0,0 1,0 1,0 1,0 1,0 0,0 0,0 -1,0 -1,0zm2 -4c0,0 0,0 0,0 0,0 0,0 0,0 0,0 0,0 0,0 0,0 0,0 0,0zm1 2c0,0 0,0 0,0 0,0 0,0 0,0 0,0 0,0 0,0zm-5 0c-2,0 -3,0 -5,0 0,0 -1,0 -1,0 0,0 1,-1 1,-1 2,0 3,0 5,0 0,0 2,-1 1,0 1,-1 2,-1 3,-1 -1,0 -2,0 -3,1 1,-1 -1,0 -1,0 -3,0 -2,0 0,-1 1,0 2,0 1,0 1,0 2,0 3,-1 0,0 0,0 0,0 0,0 0,0 0,0 -1,1 -2,1 -3,1 1,0 0,0 -1,0 -2,0 -4,0 -5,0 0,0 0,0 0,0 1,0 3,0 5,0 -5,-1 -5,-1 0,-1 1,0 2,-1 0,0 1,0 2,-1 3,-1 0,0 1,0 1,0 0,0 0,0 0,0 -1,0 -1,1 -1,1 0,0 0,-1 1,-1 0,0 0,0 0,0 0,0 -1,0 -1,0 -1,0 -2,0 -3,1 2,-1 1,0 0,0 -2,0 -4,0 -5,0 -5,-1 -9,-1 -13,-1 -1,0 -1,0 -2,0 -36,2 -29,18 -10,14 3,-1 7,-1 11,-2 5,-1 10,-2 15,-4 1,0 3,0 4,-1 1,0 2,0 3,-1 0,0 0,0 0,0 0,0 0,0 0,0 -1,1 -2,1 -3,1 -1,0 -1,0 0,0 1,0 2,0 3,-1 0,0 0,0 0,0 0,0 0,0 0,0 0,0 0,0 0,0 0,0 -1,1 -2,1 0,0 1,0 1,-1 0,0 -1,0 -2,0 0,0 0,0 0,0 1,0 2,0 3,-1 0,0 0,0 0,0 0,0 0,0 0,0 -1,1 -2,1 -3,1 -2,0 -2,0 0,0 1,-1 2,-1 3,-1 0,0 1,0 1,0 1,0 1,-1 1,-1 0,0 0,0 0,0 0,0 0,1 -1,1 0,0 -1,0 -1,0 -1,0 -2,0 -3,0 -2,0 -3,0 0,-1z"/>
   </g>
   <path class="fil2" d="M860 79c7,-2 46,-4 47,-5 2,-1 3,-1 4,-1"/>
   <g>
    <path class="fil1" d="M909 101c0,0 1,0 0,0 10,0 7,0 0,0zm10 -4c0,0 -1,0 -1,0 0,0 1,0 1,0zm1 3c0,0 0,0 0,0 0,0 0,0 0,0 1,0 0,0 0,0zm-14 -2c-6,0 -12,0 -18,-1 10,0 20,0 30,0 -31,0 -15,0 2,0 -9,0 -46,-2 -14,-1 -29,-2 11,-1 16,-1 -22,0 -45,-1 -67,-2 -62,-2 -122,16 -42,13l11 0c29,-2 59,-3 89,-5 -13,0 -15,0 0,0 0,0 0,0 0,0 -2,0 -4,0 -6,0 1,0 2,0 2,0 -10,-1 2,-1 5,-1 -27,0 -6,0 6,0 0,0 0,0 0,0 -2,0 -35,-2 -14,-2z"/>
   </g>
   <path class="fil2" d="M777 99c48,0 97,0 145,0"/>
   <g>
    <path class="fil1" d="M773 113c0,0 0,0 0,0 0,0 0,0 0,0 -5,-1 -7,-1 0,0 0,0 0,0 0,0zm-7 2c0,0 0,0 0,1 0,-1 0,-1 0,-1zm1 -2c0,0 0,0 0,0 0,0 0,0 -1,0 0,0 1,0 1,0zm8 2c3,0 6,0 9,1 1,0 1,0 2,0 -1,0 -1,0 -2,1 -4,0 -7,0 -11,-1 -2,0 -5,0 -7,0 2,0 5,0 7,1 7,0 6,0 0,0 -2,0 -6,-1 -8,-1 3,0 5,1 8,1 7,1 16,2 2,1 12,2 3,1 -2,0 -3,0 -6,0 -9,-1 0,0 0,-1 0,-1 0,0 0,1 0,1 1,0 2,0 2,0 2,-1 0,0 -1,0 1,0 3,-1 1,0 0,0 -1,0 -2,0 0,0 0,-1 0,-1 0,0 0,1 0,1 3,1 6,1 9,1 4,1 7,1 11,1 7,1 14,1 20,1 1,0 1,0 2,0 55,-8 57,-32 18,-17 -6,3 -13,5 -20,6 -6,1 -14,2 -20,3 -3,0 -7,0 -11,0 -1,0 -3,0 -3,0 1,0 2,0 3,0 5,1 5,1 0,1 -1,-1 -2,-1 -3,-1 0,0 0,0 0,0 1,0 2,0 3,1 0,0 1,0 1,0 0,0 -1,0 -1,0 0,0 0,0 0,0 0,0 0,0 0,0 2,0 4,0 0,0 -1,0 -3,0 -4,0 1,0 3,0 4,0 6,1 6,1 0,1 -2,0 -5,-1 -6,-1 0,0 0,0 0,0 1,0 4,1 6,1 3,0 10,1 2,1z"/>
   </g>
   <path class="fil2" d="M850 102c-5,0 -31,12 -46,12 -7,0 -34,1 -38,-1 0,0 0,0 -1,0"/>
   <g>
    <path class="fil1" d="M884 112c0,0 1,0 1,0 3,0 2,0 -1,0zm4 -4c0,0 0,0 0,0 0,0 0,0 0,0zm1 3c0,0 0,0 0,0 0,0 0,0 0,0 0,0 0,0 0,0zm-6 -2c-2,0 -5,0 -7,-1 4,0 8,0 12,0 -13,0 -6,-1 1,-1 -4,0 -19,-1 -6,0 -11,-2 5,-1 7,-1 -5,0 -10,0 -14,-1 -3,-2 -7,-2 -10,-3 -47,-5 -43,13 -17,12 3,0 23,0 25,-1 3,0 9,0 12,-1 -5,0 -6,0 0,0 0,0 0,0 0,0 -1,0 -1,0 -2,0 0,0 0,0 1,0 -5,-1 0,-1 2,-1 -11,0 -3,0 2,0 0,0 0,0 0,0 -2,0 -15,-1 -6,-2z"/>
   </g>
   <path class="fil2" d="M831 107c3,0 41,2 44,3 4,1 10,0 15,0"/>
   <g>
    <path class="fil1" d="M899 110c0,0 0,0 0,0 2,0 1,0 0,0zm2 -4c0,0 0,0 0,0 0,0 0,0 0,0zm0 3c0,0 0,0 0,0 0,0 0,0 0,0 0,0 0,0 0,0zm-2 -2c-2,0 -3,-1 -4,-2 3,0 3,1 6,1 -6,-2 -3,-1 0,0 -2,-1 -9,-4 -2,-1 -5,-4 1,-1 3,0 -6,-3 -11,-5 -16,-7 -1,-1 -1,-1 -2,-1 -4,-2 -7,-3 -12,-3 -13,0 -10,10 -2,13 1,0 2,0 4,0 2,0 4,1 7,1 3,0 15,2 18,2 -2,-1 -3,-1 0,0 0,0 0,0 1,0 -1,0 -1,0 -2,0 0,0 1,0 1,0 -2,-1 0,-1 1,-1 -5,-1 -2,-1 1,0 0,0 0,0 0,0 -2,-1 -6,-3 -2,-2z"/>
   </g>
   <path class="fil2" d="M864 99c6,-1 30,9 37,10"/>
   <g>
    <path class="fil1" d="M876 106c0,0 0,0 0,0 0,0 -1,0 -1,0 -2,0 -2,0 0,0 0,0 1,0 1,0zm-3 4c0,0 0,0 0,0 0,0 0,0 0,0zm0 -3c0,0 0,0 0,0 0,0 0,0 0,0 -1,0 0,0 0,0zm4 1c1,0 2,0 3,0 1,1 2,1 2,1 0,0 -1,0 -2,0 -2,1 -3,1 -5,1 0,0 -1,0 -2,0 0,0 2,0 2,0 5,0 4,0 0,0 0,0 -1,0 -2,0 0,0 2,0 2,0 2,0 4,0 5,1 1,0 1,0 0,0 -1,0 -2,0 -3,0 6,1 1,1 -2,0 -1,0 -2,1 -1,0 -1,1 0,0 1,0 0,0 5,1 5,1 2,0 7,1 8,1 0,0 2,0 3,0 29,0 25,-17 8,-13 -4,1 -7,2 -11,3 -1,0 -6,1 -8,1 -1,1 -3,1 -5,2 0,0 0,0 0,0 0,0 0,0 0,0 3,-1 4,0 0,0 0,0 0,0 0,0 0,0 0,0 0,0 0,0 0,0 0,0 0,0 1,0 1,0 0,0 0,0 0,0 2,0 1,0 -1,0 0,0 -1,0 -1,0 0,0 1,0 1,0 5,1 4,1 0,1 -1,0 -2,0 -2,0 0,0 0,0 0,0 0,0 1,0 2,0 2,0 6,1 2,1z"/>
   </g>
   <path class="fil2" d="M911 106c-4,-1 -16,1 -23,1 -1,0 -15,0 -16,1"/>
   <g>
    <path class="fil1" d="M885 109c0,0 0,0 0,1 1,0 1,0 0,-1zm2 -3c0,0 0,0 0,0 0,0 0,0 0,0zm0 3c0,0 0,0 0,0 0,0 0,0 0,0 0,0 0,0 0,0zm-2 -2c-1,0 -2,-1 -2,-2 1,0 2,0 4,1 0,0 0,0 0,0 0,0 0,0 0,0 -3,-1 -3,-1 0,0 0,0 0,0 -1,0 0,0 1,0 1,0 -1,-1 -6,-4 -1,-1 -4,-3 0,-1 1,-1 0,0 -2,0 0,0l0 0c-3,-1 -6,-2 -9,-3 -16,-2 -14,16 -5,13 4,-2 8,-3 12,-4 -1,-1 -1,-1 0,0 0,0 0,0 0,0 0,0 0,0 0,-1 0,0 0,1 0,1 -1,-1 -1,-2 1,-1 -3,-1 -2,-1 0,0 0,0 0,0 1,0 0,0 0,0 0,0 -1,0 -1,0 -1,0 -1,-1 -3,-3 -1,-2z"/>
   </g>
   <path class="fil2" d="M867 108c5,0 14,-2 19,0 1,0 0,0 1,0"/>
   <g>
    <path class="fil1" d="M894 122c0,0 0,0 0,0 5,0 2,0 0,0zm3 -4c0,0 0,0 0,0 0,0 0,0 0,0zm1 2c0,0 1,0 0,0 1,0 1,0 1,0 0,0 -1,0 -1,0zm-6 0c-4,0 -7,1 -11,0 5,-1 11,-1 16,-2 -17,2 -5,1 0,-1 0,0 1,0 1,0 0,0 -1,0 -1,0 -5,1 -23,1 -6,1 -14,-1 2,-1 6,-2 1,0 2,0 3,0 -1,0 -2,0 -3,0 -12,2 -29,0 -40,-1 -3,0 -5,-1 -8,-1 -9,-1 -18,-2 -27,-3 -28,-2 -22,8 -2,13 5,1 9,2 13,2 5,0 10,0 15,0 12,0 37,0 48,-4 -9,2 -7,1 0,0 0,0 0,0 0,0 -1,0 -2,0 -3,1 0,0 1,-1 1,-1 -6,1 1,-1 2,-1 -13,2 -3,1 2,0 0,0 0,-1 0,-1 0,0 0,0 0,0 0,0 0,0 0,0 -4,1 -16,1 -6,0z"/>
   </g>
   <path class="fil2" d="M804 112c12,8 76,13 94,8 1,0 1,0 2,0"/>
   <g>
    <path class="fil1" d="M900 120c0,0 0,0 0,0 4,1 2,0 0,0zm3 -3c0,0 0,0 0,0 0,0 0,0 0,0zm0 2c0,0 0,0 0,0 0,0 0,0 1,0 0,0 -1,0 -1,0zm-4 -1c-2,-1 -4,-1 -7,-2 5,0 7,0 11,1 -11,-2 -4,-1 0,-1 -3,0 -15,-3 -4,-1 -9,-3 2,0 5,0 -8,-1 -18,-4 -26,-7 -44,-11 -37,7 -18,10 11,1 32,4 41,2 -4,0 -5,0 0,0 0,0 0,0 1,1 -1,-1 -2,-1 -2,-1 0,0 0,0 0,0 -4,-1 1,0 2,0 -9,-1 -3,-1 1,-1 0,0 0,0 0,0 -2,0 -10,-2 -4,-1z"/>
   </g>
   <path class="fil2" d="M847 107c7,4 46,12 57,12"/>
   <g>
    <path class="fil1" d="M913 116c0,0 0,0 0,0 1,0 0,0 0,0zm1 -4c0,0 0,0 0,0 0,0 0,0 0,0zm0 3c0,0 0,0 0,0 0,0 0,0 0,0 0,0 0,0 0,0zm-2 -2c-1,0 -2,0 -2,-1 2,-1 2,0 4,0 -4,-1 -2,0 0,0 -2,0 -6,-3 -1,-1 -4,-3 1,-1 2,0 -4,-2 -7,-4 -10,-5 -19,-8 -19,11 -9,11 4,-1 13,0 17,-1 -2,0 -2,0 0,0 0,0 0,0 0,0 0,0 0,0 -1,0 0,0 1,0 1,0 -2,-1 -1,-1 1,-1 -5,-1 -2,0 0,0 0,0 0,0 0,0 -2,0 -4,-2 -2,-2z"/>
   </g>
   <path class="fil2" d="M890 109c6,0 18,5 25,5"/>
   <g>
    <path class="fil1" d="M907 122c0,0 0,0 0,0 1,0 1,0 0,0zm1 -4c0,0 0,0 0,0 0,0 0,0 0,0zm1 3c0,0 0,0 0,0 0,0 0,0 0,0 0,0 0,0 0,0zm-3 -1c-1,0 -2,0 -2,-1 1,-1 3,-1 4,-1 -5,0 -2,0 1,0 -3,0 -8,-2 -3,-1 -4,-2 1,0 3,0 -4,-1 -7,-2 -11,-3 -16,-2 -14,16 -4,13 4,-1 9,-3 13,-5 -1,0 -2,0 0,0 0,0 1,0 1,0 -1,0 -1,0 -1,0 0,0 0,0 0,0 -1,0 -1,-1 1,0 -5,-1 -1,-1 1,-1 0,0 0,0 0,0 -2,0 -5,-1 -3,-1z"/>
   </g>
   <path class="fil2" d="M886 121c8,0 15,0 23,0"/>
   <g>
    <path class="fil1" d="M882 129c0,0 0,0 0,0 0,0 1,0 1,0 1,0 2,0 4,0 0,-1 0,-1 0,0 -2,0 -3,0 -4,0 -1,0 -1,0 -1,0zm6 -5c-1,0 -1,0 -1,0 0,0 0,0 1,0zm2 2c0,0 0,0 0,0 0,0 0,-1 0,-1 1,0 0,1 0,1zm-10 1c-4,0 -9,0 -13,0 5,-1 10,-1 15,-2 1,0 3,0 4,0 0,0 1,0 1,-1 0,0 0,0 0,0 0,0 0,0 0,0 0,1 -1,1 -1,1 -1,0 -3,0 -4,0 -9,1 -5,1 0,0 1,-1 3,0 4,-1 0,0 0,0 1,0 0,0 0,0 1,-1 -1,1 -1,1 -1,1 -1,0 -1,0 -1,0 -1,0 -3,0 -4,1 -9,0 -19,0 -2,-1 -12,0 -4,0 2,-1 1,0 2,0 4,0 0,0 0,0 0,0 1,0 1,-1 2,-1 0,-1 0,-1 0,-1 0,0 0,0 0,1 -1,0 -1,1 -2,1 0,0 0,0 0,0 -2,0 -3,0 -4,0 -14,1 -32,0 -46,-1 -3,-1 -8,-1 -12,-2 -43,-5 -73,10 -10,12 2,0 5,1 7,1 14,1 50,0 62,-4l2 0c-1,0 -2,0 -2,0 -7,1 -5,1 0,0 0,0 1,0 2,0 0,0 0,0 0,0 -1,0 -1,0 -2,0 -1,0 -1,0 -2,0 1,0 1,0 1,0 -2,0 -3,0 1,-1 1,0 2,0 3,0 -1,0 -2,0 -4,0 -8,1 -5,1 0,0 2,0 3,0 5,-1 0,0 1,0 1,0 1,-1 1,-1 2,-1 0,0 0,0 0,0 -1,0 -1,0 -2,1 0,0 -1,0 -1,0 -2,1 -3,0 -5,1 -3,0 -11,0 -2,-1z"/>
   </g>
   <path class="fil2" d="M778 125c16,0 29,-1 45,2 9,2 49,2 59,0 4,0 5,1 8,-3l1 0"/>
   <g>
    <path class="fil1" d="M772 122c0,0 0,0 0,0 -3,0 -2,0 0,0zm-4 4c1,0 1,0 1,0 0,0 0,0 -1,0zm0 -2c0,0 0,0 0,0 0,0 0,0 0,0 0,0 0,0 0,0zm5 1c2,0 4,0 6,1 -3,1 -7,0 -10,0 11,1 5,1 -1,1 3,0 17,1 5,0 11,2 -4,1 -6,1 8,1 15,1 23,2 0,0 0,0 0,0 36,1 32,-18 11,-14 -4,1 -8,2 -11,3 -6,1 -14,2 -19,3 4,0 5,0 0,0 0,0 0,0 -1,0 1,0 2,0 3,0 -1,0 -1,0 -1,0 4,1 -1,1 -2,1 9,0 2,1 -2,1 0,0 0,0 0,0 1,0 13,1 5,1z"/>
   </g>
   <path class="fil2" d="M817 122c-8,0 -18,1 -27,1 -8,0 -15,1 -23,1"/>
   <g>
    <path class="fil1" d="M898 132c0,0 0,0 0,0 1,0 1,0 1,0 3,0 2,0 0,0 0,0 -1,0 -1,0zm5 -4c0,0 -1,0 -1,0 0,0 1,0 1,0zm0 3c0,0 0,0 0,0 0,0 0,0 0,0 1,0 0,0 0,0zm-6 -2c-2,0 -5,-1 -7,-3 4,1 6,1 10,2 -1,0 2,0 2,0 0,0 -3,0 -2,0 -7,-1 -5,-1 0,0 -1,0 2,0 3,0 0,0 -5,0 -3,0 -5,-2 -13,-4 -2,-1 -9,-4 -1,-2 2,-1 -2,0 3,0 4,0 0,0 -6,0 -4,0 -7,-2 -13,-4 -20,-7 -34,-10 -45,10 -13,11 10,0 22,1 32,2l1 0c-1,0 -1,0 -1,0 -4,-1 -5,-1 0,0 0,0 0,0 1,0 0,0 0,0 0,0 0,0 -1,0 -1,0 -1,0 -1,0 -2,0 1,0 1,0 1,0 -2,-1 -2,-1 1,-1 1,0 1,0 1,0 0,0 -1,0 -1,0 -6,-1 -5,-1 0,0 1,0 3,0 4,0 0,0 0,0 0,0 0,0 -4,0 -4,0 -2,-1 -8,-3 -2,-2z"/>
   </g>
   <path class="fil2" d="M848 122c23,0 32,5 51,8 0,0 4,0 5,0"/>
   <g>
    <path class="fil1" d="M908 128c0,0 0,0 0,0 1,0 0,0 0,0zm2 -3c0,0 0,0 0,0 -1,-1 -1,-1 -1,-1 0,0 0,0 0,0 0,0 0,0 0,0 0,0 0,0 1,1 0,0 0,0 0,0zm-1 2c0,0 0,0 0,0 0,0 0,0 0,0 0,0 0,0 0,0zm-1 -1c-1,-1 -2,-1 -2,-2 0,0 2,0 3,0l0 0c0,0 0,0 1,0 0,0 0,0 0,0 0,0 0,0 0,0 -1,0 -1,0 -1,0 -1,-1 -4,-3 -1,-1 -2,-2 1,-1 1,0 0,0 1,0 1,0 0,0 1,0 1,0 0,0 0,0 -1,0 0,0 -1,0 -1,0 0,-1 -7,-5 -8,-5 -1,-1 -2,-1 -2,-1 -3,-1 -5,-2 -8,-2 -1,0 -2,1 -3,2 0,0 -1,0 -1,1 0,0 0,1 -1,1 0,0 0,0 0,0 0,1 -1,0 -1,1 0,1 0,1 0,1 0,0 0,1 0,1 0,1 0,1 0,2 0,1 1,2 2,3 1,1 2,1 4,1 1,0 2,0 4,0 2,0 11,1 13,0 -1,0 -2,0 0,0 0,0 0,0 0,0 0,0 0,0 -1,0 0,0 1,0 1,0 -1,0 -1,-1 0,-1 -2,0 -1,0 1,0 0,0 0,0 -1,0 0,0 1,0 1,0 0,0 0,0 0,0 0,0 -1,0 -1,0 0,0 1,0 1,0 -2,0 -3,-2 -1,-1z"/>
   </g>
   <path class="fil2" d="M886 119c0,1 20,8 23,8l0 0"/>
   <g>
    <path class="fil1" d="M920 107c0,0 1,0 0,0 1,0 1,-1 2,-1 0,0 1,0 0,0 -1,0 -1,1 -2,1zm3 -5c-1,0 -1,0 -1,0 0,0 0,0 0,0 0,0 0,0 0,0 0,0 1,0 1,0zm0 3c0,0 1,0 0,0 1,0 1,0 1,0 0,-1 -1,0 -1,0zm-4 -1c-2,0 -4,0 -5,0 -1,0 -1,0 -2,0 1,0 1,0 2,-1 1,0 3,0 4,0 1,0 3,-1 2,0 1,-1 1,-1 2,-1 -1,0 -1,0 -2,1 1,-1 -1,0 -2,0 -2,0 -2,0 0,0 1,-1 3,-1 2,0 0,-1 1,-1 2,-1 0,0 1,0 1,0 0,0 -1,0 -1,0 -1,0 -2,0 -2,0 1,0 -1,0 -2,0 -1,0 -3,0 -5,0 0,0 0,0 0,0 2,0 4,0 5,0 -5,-1 -5,-1 0,-1 1,0 2,-1 1,0 1,0 2,-1 3,-1 0,0 0,0 1,0 0,0 -1,0 -1,0 0,0 0,1 -1,1 1,0 1,-1 1,-1 0,0 1,0 1,0 0,0 -1,0 -1,0 -1,0 -2,1 -3,1 1,-1 0,0 -1,0 -1,0 -3,0 -5,0 -4,0 -8,0 -13,-1 0,0 -1,0 -1,0 -37,2 -29,18 -11,14 4,0 8,-1 12,-2 4,-1 9,-2 14,-3 2,-1 3,-1 5,-2 1,0 2,0 3,-1 0,0 0,0 0,0 0,0 0,0 0,0 -1,1 -2,1 -3,1 -2,0 -2,0 0,0 1,0 2,0 3,-1 0,0 0,0 0,0 0,0 0,0 0,0 0,0 0,0 0,0 -1,1 -2,1 -3,1 1,0 1,0 1,0 0,0 -1,0 -1,0 -1,-1 -1,-1 0,-1 1,0 2,0 2,0 0,-1 1,-1 1,-1 0,0 -1,0 -1,1 0,0 -2,0 -2,0 -3,0 -2,0 0,0 0,0 2,-1 2,-1 1,0 1,0 2,0 0,0 0,0 0,0 0,0 0,0 0,0 0,0 0,0 0,0 -1,0 -1,0 -2,0 0,0 -2,0 -2,0 -3,0 -4,0 0,-1z"/>
   </g>
   <path class="fil2" d="M874 110c6,-2 45,-4 47,-5 1,-1 3,-1 3,-1"/>
   <rect class="fil0 str1" x="734" y="90" width="128.652" height="53.9296" rx="2" ry="2"/>
   <rect class="fil3 str1" x="736" y="92" width="11.9122" height="7.34221" rx="1" ry="1"/>
   <rect class="fil3 str1" x="749" y="92" width="7.44512" height="7.30982" rx="1" ry="1"/>
   <rect class="fil3 str1" x="758" y="92" width="7.44512" height="7.30982" rx="1" ry="1"/>
   <rect class="fil3 str1" x="767" y="92" width="7.44512" height="7.30982" rx="1" ry="1"/>
   <rect class="fil3 str1" x="775" y="92" width="7.44512" height="7.30982" rx="1" ry="1"/>
   <rect class="fil3 str1" x="784" y="92" width="7.44512" height="7.30982" rx="1" ry="1"/>
   <rect class="fil3 str1" x="793" y="92" width="7.44512" height="7.30982" rx="1" ry="1"/>
   <rect class="fil3 str1" x="802" y="92" width="7.44512" height="7.30982" rx="1" ry="1"/>
   <rect class="fil3 str1" x="810" y="92" width="7.44512" height="7.30982" rx="1" ry="1"/>
   <rect class="fil3 str1" x="819" y="92" width="7.44512" height="7.30982" rx="1" ry="1"/>
   <rect class="fil3 str1" x="828" y="92" width="7.44512" height="7.30982" rx="1" ry="1"/>
   <rect class="fil3 str1" x="837" y="92" width="7.44512" height="7.30982" rx="1" ry="1"/>
   <rect class="fil3 str1" x="845" y="92" width="7.44512" height="7.30982" rx="1" ry="1"/>
   <rect class="fil3 str1" x="854" y="92" width="7.44512" height="7.30982" rx="1" ry="1"/>
   <rect class="fil3 str1" x="737" y="101" width="7.44512" height="7.30982" rx="1" ry="1"/>
   <rect class="fil3 str1" x="754" y="101" width="7.44512" height="7.30982" rx="1" ry="1"/>
   <rect class="fil3 str1" x="763" y="101" width="7.44512" height="7.30982" rx="1" ry="1"/>
   <rect class="fil3 str1" x="771" y="101" width="7.44512" height="7.30982" rx="1" ry="1"/>
   <rect class="fil3 str1" x="780" y="101" width="7.44512" height="7.30982" rx="1" ry="1"/>
   <rect class="fil3 str1" x="789" y="101" width="7.44512" height="7.30982" rx="1" ry="1"/>
   <rect class="fil3 str1" x="797" y="101" width="7.44512" height="7.30982" rx="1" ry="1"/>
   <rect class="fil3 str1" x="806" y="101" width="7.44512" height="7.30982" rx="1" ry="1"/>
   <rect class="fil3 str1" x="815" y="101" width="7.44512" height="7.30982" rx="1" ry="1"/>
   <rect class="fil3 str1" x="823" y="101" width="7.44512" height="7.30982" rx="1" ry="1"/>
   <rect class="fil3 str1" x="832" y="101" width="7.44512" height="7.30982" rx="1" ry="1"/>
   <rect class="fil3 str1" x="841" y="101" width="7.44512" height="7.30982" rx="1" ry="1"/>
   <rect class="fil3 str1" x="849" y="101" width="11.9122" height="7.03907" rx="1" ry="1"/>
   <rect class="fil3 str1" x="736" y="109" width="11.9122" height="7.03907" rx="1" ry="1"/>
   <rect class="fil3 str1" x="736" y="126" width="9.61095" height="7.03907" rx="1" ry="1"/>
   <rect class="fil3 str1" x="736" y="118" width="13.9427" height="7.03907" rx="1" ry="1"/>
   <rect class="fil3 str1" x="749" y="109" width="7.44512" height="7.30982" rx="1" ry="1"/>
   <rect class="fil3 str1" x="758" y="109" width="7.44512" height="7.30982" rx="1" ry="1"/>
   <rect class="fil3 str1" x="767" y="109" width="7.44512" height="7.30982" rx="1" ry="1"/>
   <rect class="fil3 str1" x="776" y="109" width="7.44512" height="7.30982" rx="1" ry="1"/>
   <rect class="fil3 str1" x="784" y="109" width="7.44512" height="7.30982" rx="1" ry="1"/>
   <rect class="fil3 str1" x="793" y="109" width="7.44512" height="7.30982" rx="1" ry="1"/>
   <rect class="fil3 str1" x="802" y="109" width="7.44512" height="7.30982" rx="1" ry="1"/>
   <rect class="fil3 str1" x="810" y="109" width="7.44512" height="7.30982" rx="1" ry="1"/>
   <rect class="fil3 str1" x="819" y="109" width="7.44512" height="7.30982" rx="1" ry="1"/>
   <rect class="fil3 str1" x="828" y="109" width="7.44512" height="7.30982" rx="1" ry="1"/>
   <rect class="fil3 str1" x="837" y="109" width="7.44512" height="7.30982" rx="1" ry="1"/>
   <rect class="fil3 str1" x="745" y="101" width="7.44512" height="7.30982" rx="1" ry="1"/>
   <rect class="fil3 str1" x="845" y="109" width="7.44512" height="7.30982" rx="1" ry="1"/>
   <rect class="fil3 str1" x="751" y="117" width="7.44512" height="7.30982" rx="1" ry="1"/>
   <rect class="fil3 str1" x="760" y="117" width="7.44512" height="7.30982" rx="1" ry="1"/>
   <rect class="fil3 str1" x="769" y="117" width="7.44512" height="7.30982" rx="1" ry="1"/>
   <rect class="fil3 str1" x="778" y="117" width="7.44512" height="7.30982" rx="1" ry="1"/>
   <rect class="fil3 str1" x="786" y="117" width="7.44512" height="7.30982" rx="1" ry="1"/>
   <rect class="fil3 str1" x="795" y="117" width="7.44512" height="7.30982" rx="1" ry="1"/>
   <rect class="fil3 str1" x="804" y="117" width="7.44512" height="7.30982" rx="1" ry="1"/>
   <rect class="fil3 str1" x="812" y="117" width="7.44512" height="7.30982" rx="1" ry="1"/>
   <rect class="fil3 str1" x="821" y="117" width="7.44512" height="7.30982" rx="1" ry="1"/>
   <rect class="fil3 str1" x="830" y="117" width="7.44512" height="7.30982" rx="1" ry="1"/>
   <rect class="fil3 str1" x="839" y="117" width="7.44512" height="7.30982" rx="1" ry="1"/>
   <rect class="fil3 str1" x="847" y="117" width="7.44512" height="7.30982" rx="1" ry="1"/>
   <rect class="fil3 str1" x="736" y="135" width="7.44512" height="7.30982" rx="1" ry="1"/>
   <rect class="fil3 str1" x="745" y="135" width="7.44512" height="7.30982" rx="1" ry="1"/>
   <rect class="fil3 str1" x="765" y="126" width="7.44512" height="7.30982" rx="1" ry="1"/>
   <rect class="fil3 str1" x="774" y="126" width="7.44512" height="7.30982" rx="1" ry="1"/>
   <rect class="fil3 str1" x="782" y="126" width="7.44512" height="7.30982" rx="1" ry="1"/>
   <rect class="fil3 str1" x="791" y="126" width="7.44512" height="7.30982" rx="1" ry="1"/>
   <rect class="fil3 str1" x="799" y="126" width="7.44512" height="7.30982" rx="1" ry="1"/>
   <rect class="fil3 str1" x="808" y="126" width="7.44512" height="7.30982" rx="1" ry="1"/>
   <rect class="fil3 str1" x="817" y="126" width="7.44512" height="7.30982" rx="1" ry="1"/>
   <rect class="fil3 str1" x="826" y="126" width="7.44512" height="7.30982" rx="1" ry="1"/>
   <rect class="fil3 str1" x="834" y="126" width="7.44512" height="7.30982" rx="1" ry="1"/>
   <rect class="fil3 str1" x="843" y="126" width="18.5451" height="7.03907" rx="1" ry="1"/>
   <rect class="fil3 str1" x="773" y="135" width="42.0987" height="7.03907" rx="2" ry="1"/>
   <rect class="fil3 str1" x="754" y="135" width="7.44512" height="7.30982" rx="1" ry="1"/>
   <rect class="fil3 str1" x="747" y="126" width="7.44512" height="7.30982" rx="1" ry="1"/>
   <rect class="fil3 str1" x="756" y="126" width="7.44512" height="7.30982" rx="1" ry="1"/>
   <rect class="fil3 str1" x="762" y="135" width="9.67856" height="7.30982" rx="1" ry="1"/>
   <rect class="fil3 str1" x="817" y="135" width="9.67856" height="7.30982" rx="1" ry="1"/>
   <rect class="fil3 str1" x="827" y="135" width="7.44512" height="7.30982" rx="1" ry="1"/>
   <rect class="fil3 str1" x="836" y="135" width="7.44512" height="7.30982" rx="1" ry="1"/>
   <rect class="fil3 str1" x="854" y="135" width="7.44512" height="7.30982" rx="1" ry="1"/>
   <path class="fil3 str1" d="M846 135l6 0c0,0 1,0 1,0l0 3 -8 0 0 -3c0,0 0,0 1,0z"/>
   <path class="fil3 str1" d="M845 138l8 0 0 3c0,0 -1,1 -1,1l-6 0c-1,0 -1,-1 -1,-1l0 -3z"/>
   <path class="fil3 str1" d="M861 124c0,0 0,0 0,0l-5 0c0,0 0,0 0,0l0 -8 -1 0c0,0 -1,0 -1,0l0 -6c0,-1 1,-1 1,-1l6 0c0,0 0,0 0,1l0 6c0,2 0,5 0,8z"/>
   <circle class="fil3 str1" cx="872" cy="164" r="21"/>
   <circle class="fil0 str2" cx="872" cy="165" r="14"/>
   <path class="fil3 str1" d="M871 149c6,0 12,5 12,12 0,6 -6,12 -12,12 -7,0 -12,-6 -12,-12 0,-3 0,-5 2,-7 -1,0 -2,-1 -3,-2 -2,-2 -3,-3 -3,-4 1,0 3,1 4,2 1,1 2,2 3,3 2,-3 5,-4 9,-4z"/>
   <circle class="fil4 str1" cx="871" cy="161" r="11"/>
   <path class="fil3 str1" d="M881 173c-2,-1 -4,0 -6,2 -1,3 -1,6 1,7 2,1 5,0 6,-3 1,-2 1,-4 0,-6l14 -20c0,0 0,0 0,0l0 0c-1,-1 -1,-1 -1,0l-14 20z"/>
   <path class="fil3 str1" d="M695 108l3 0c2,-2 1,-6 7,-12 3,-4 8,-6 14,-7 18,0 20,16 23,19l2 0c2,-5 -6,-24 -23,-25 -8,0 -14,3 -18,7 -3,4 -8,11 -8,18z"/>
   <path class="fil5 str1" d="M735 135l0 -19c-1,-3 -2,-4 -5,-3 -1,3 -1,22 0,24 3,3 4,0 5,-2z"/>
   <g>
    <rect class="fil3 str1" transform="matrix(0.957932 -0.286995 0.286995 0.957932 703.531 135.103)" width="21.6734" height="38.0752" rx="3" ry="3"/>
    <rect class="fil0 str1" transform="matrix(1.22601 -0.367313 0.286995 0.957932 706.492 136.616)" width="13.1812" height="31.3404"/>
    <circle class="fil3 str1" transform="matrix(0.766527 -0.229651 0.250485 0.836067 724.168 166.223)" r="2"/>
   </g>
   <path class="fil5 str1" d="M705 114l0 22c2,4 5,2 6,-1l0 -19c-1,-4 -4,-5 -6,-2z"/>
   <path class="fil3 str1" d="M700 118l0 15c1,1 0,1 1,2 0,0 2,0 2,1 2,0 1,-1 2,0l0 -22c-2,2 2,0 -1,1 -1,0 -1,0 -2,0 -2,1 -1,1 -2,3z"/>
   <path class="fil3 str1" d="M740 118c-1,2 -1,5 -1,8 0,2 0,5 1,7 1,-3 1,-5 2,-7 1,-1 2,-2 3,-5 1,-3 0,-4 1,-7 1,-5 -1,-1 -2,-6l-2 0c0,4 -2,2 -2,5 1,4 7,1 2,9 0,0 0,0 0,0 0,0 0,-1 0,-1l-2 -3z"/>
   <path class="fil3 str1" d="M735 116l0 19 3 1c1,-2 1,-2 2,-3 -1,-2 -1,-5 -1,-7 0,-3 0,-6 1,-8 -1,-2 -1,-2 -2,-3l-3 1z"/>
   <path class="fil3 str1" d="M700 133l0 -15 -3 4c0,-2 -1,-4 -1,-7l4 -1c0,-5 -2,-2 -2,-6l-3 0c0,4 -2,1 -1,6 0,3 0,6 1,8 1,5 1,-1 4,8l1 3z"/>
   <rect class="fil3 str1" x="881" y="78" width="43.2035" height="65.1096" rx="3" ry="3"/>
   <rect class="fil3 str1" x="879" y="83" width="5.40043" height="1.21699" rx="1" ry="1"/>
   <rect class="fil3 str1" x="879" y="87" width="5.40043" height="1.21699" rx="1" ry="1"/>
   <rect class="fil3 str1" x="879" y="90" width="5.40043" height="1.21699" rx="1" ry="1"/>
   <rect class="fil3 str1" x="879" y="94" width="5.40043" height="1.21699" rx="1" ry="1"/>
   <rect class="fil3 str1" x="879" y="97" width="5.40043" height="1.21699" rx="1" ry="1"/>
   <rect class="fil3 str1" x="879" y="101" width="5.40043" height="1.21699" rx="1" ry="1"/>
   <rect class="fil3 str1" x="879" y="104" width="5.40043" height="1.21699" rx="1" ry="1"/>
   <rect class="fil3 str1" x="879" y="108" width="5.40043" height="1.21699" rx="1" ry="1"/>
   <rect class="fil3 str1" x="879" y="111" width="5.40043" height="1.21699" rx="1" ry="1"/>
   <rect class="fil3 str1" x="879" y="115" width="5.40043" height="1.21699" rx="1" ry="1"/>
   <rect class="fil3 str1" x="879" y="118" width="5.40043" height="1.21699" rx="1" ry="1"/>
   <rect class="fil3 str1" x="879" y="122" width="5.40043" height="1.21699" rx="1" ry="1"/>
   <rect class="fil3 str1" x="879" y="125" width="5.40043" height="1.21699" rx="1" ry="1"/>
   <rect class="fil3 str1" x="879" y="129" width="5.40043" height="1.21699" rx="1" ry="1"/>
   <rect class="fil3 str1" x="879" y="132" width="5.40043" height="1.21699" rx="1" ry="1"/>
   <rect class="fil3 str1" x="879" y="136" width="5.40043" height="1.21699" rx="1" ry="1"/>
   <circle class="fil5 str3" cx="903" cy="105" r="15"/>
   <polygon class="fil6 str4" points="917,102 918,103 918,105 918,106 917,107 917,108 917,109 916,110 916,111 915,113 914,114 913,116 911,117 909,118 906,119 903,103 "/>
   <g>
    <line class="fil2 str5" x1="891" y1="125" x2="915" y2= "125" />
   </g>
   <g>
    <line class="fil2 str5" x1="891" y1="129" x2="915" y2= "129" />
   </g>
   <g>
    <line class="fil2 str5" x1="891" y1="132" x2="915" y2= "132" />
   </g>
   <polygon class="fil3 str1" points="915,138 914,156 916,156 917,139 935,114 933,113 915,138 "/>
   <polygon class="fil3 str1" points="933,118 951,115 951,117 934,120 912,140 910,138 933,118 "/>
   <path class="fil3 str1" d="M912 128c3,0 5,1 6,3l4 -5c-1,-2 -2,-4 -2,-7 0,-5 4,-9 9,-9 6,0 10,4 10,9 0,6 -4,10 -10,10 -2,0 -3,-1 -5,-2l-4 5c1,2 2,4 2,6 0,5 -5,9 -10,9 -5,0 -9,-4 -9,-9 0,-6 4,-10 9,-10z"/>
   <circle class="fil0 str1" cx="929" cy="119" r="8"/>
   <circle class="fil0 str1" cx="912" cy="138" r="8"/>
  </g>
 </g>
</svg>
