<?xml version="1.0" encoding="UTF-8"?>
<!DOCTYPE svg PUBLIC "-//W3C//DTD SVG 1.1//EN" "http://www.w3.org/Graphics/SVG/1.1/DTD/svg11.dtd">
<!-- Creator: CorelDRAW X7 -->
<svg xmlns="http://www.w3.org/2000/svg" xml:space="preserve" width="176px" height="127px" version="1.1" style="shape-rendering:geometricPrecision; text-rendering:geometricPrecision; image-rendering:optimizeQuality; fill-rule:evenodd; clip-rule:evenodd"
viewBox="0 0 8201 5914"
 xmlns:xlink="http://www.w3.org/1999/xlink">
 <defs>
  <style type="text/css">
   <![CDATA[
    .str3 {stroke:#1E4158;stroke-width:76.0721}
    .str1 {stroke:#EAEBEC;stroke-width:76.0721}
    .str2 {stroke:#EAEBEC;stroke-width:76.0721}
    .str0 {stroke:#EAEBEC;stroke-width:76.0721}
    .fil0 {fill:none}
    .fil4 {fill:#00BAFF}
    .fil1 {fill:#1E4158}
    .fil6 {fill:#E69C24}
    .fil8 {fill:#EAEBEC}
    .fil2 {fill:#FEFEFE}
    .fil5 {fill:#00BAFF;fill-rule:nonzero}
    .fil3 {fill:#1E4158;fill-rule:nonzero}
    .fil7 {fill:#E69C24;fill-rule:nonzero}
   ]]>
  </style>
 </defs>
 <g id="Capa_x0020_1">
  <metadata id="CorelCorpID_0Corel-Layer"/>
  <rect class="fil0" width="8201" height="5914"/>
  <path class="fil1" d="M3567 4518l1072 -22 190 1055 -1469 0c27,-171 88,-335 123,-515 33,-168 39,-353 84,-518zm3033 -716c-6,205 32,310 -112,438 -176,66 -4597,65 -4779,0 -138,-130 -106,-239 -108,-439l4999 1zm-4999 -225c0,-523 0,-1045 0,-1568 0,-1024 -107,-1135 374,-1135l4377 0c286,0 246,217 246,480l-1 2222 -4996 1zm3268 927c2250,-133 1943,601 1943,-2331 0,-1133 171,-1529 -624,-1526l-4218 0c-395,0 -577,110 -585,501 -6,353 1,713 1,1066 0,2906 -290,2157 1945,2290 -32,414 -145,689 -208,1042 -145,10 -340,-16 -400,-2 -12,3 -17,16 -17,29 -1,65 9,81 6,158 19,59 1896,46 2288,46 177,0 353,-20 463,-27 26,-2 56,1 59,-41 2,-38 2,-82 2,-137 -114,-30 -269,-19 -449,-23 -59,-351 -170,-632 -206,-1045z"/>
  <path class="fil2" d="M1601 3801c2,200 -30,309 108,439 182,65 4603,66 4779,0 144,-128 106,-233 112,-438l-4999 -1z"/>
  <path class="fil2" d="M3567 4518c-45,165 -51,350 -84,518 -35,180 -96,344 -123,515l1469 0 -190 -1055 -1072 22z"/>
  <g>
   <path class="fil3" d="M2239 2505l-258 0 0 -76 258 0 38 38 -38 38zm38 -38l0 38 -38 0 38 -38zm0 -288l0 288 -76 0 0 -288 38 -38 38 38zm-38 -38l38 0 0 38 -38 -38zm-258 0l258 0 0 76 -258 0 -38 -38 38 -38zm-38 38l0 -38 38 0 -38 38zm0 288l0 -288 76 0 0 288 -38 38 -38 -38zm38 38l-38 0 0 -38 38 38z"/>
  </g>
  <g>
   <polygon class="fil4" points="2459,2467 2717,2467 2717,1931 2459,1931 "/>
   <path id="1" class="fil5" d="M2717 2505l-258 0 0 -75 258 0 38 37 -38 38zm38 -38l0 38 -38 0 38 -38zm0 -536l0 536 -76 0 0 -536 38 -38 38 38zm-38 -38l38 0 0 38 -38 -38zm-258 0l258 0 0 76 -258 0 -38 -38 38 -38zm-38 38l0 -38 38 0 -38 38zm0 536l0 -536 76 0 0 536 -38 38 -38 -38zm38 38l-38 0 0 -38 38 38z"/>
  </g>
  <g>
   <path class="fil3" d="M3195 2506l-258 0 0 -77 258 0 38 38 -38 39zm38 -39l0 39 -38 0 38 -39zm0 -724l0 724 -76 0 0 -724 38 -38 38 38zm-38 -38l38 0 0 38 -38 -38zm-258 0l258 0 0 76 -258 0 -38 -38 38 -38zm-38 38l0 -38 38 0 -38 38zm0 724l0 -724 76 0 0 724 -38 39 -38 -39zm38 39l-38 0 0 -39 38 39z"/>
  </g>
  <g>
   <polygon class="fil6" points="3415,2467 3673,2467 3673,1521 3415,1521 "/>
   <path id="1" class="fil7" d="M3673 2505l-258 0 0 -76 258 0 38 38 -38 38zm38 -38l0 38 -38 0 38 -38zm0 -946l0 946 -76 0 0 -946 38 -38 38 38zm-38 -38l38 0 0 38 -38 -38zm-258 0l258 0 0 77 -258 0 -38 -39 38 -38zm-38 38l0 -38 38 0 -38 38zm0 946l0 -946 77 0 0 946 -39 38 -38 -38zm38 38l-38 0 0 -38 38 38z"/>
  </g>
  <rect class="fil8" x="2108" y="2767" width="445" height="396"/>
  <line class="fil0 str0" x1="2723" y1="2810" x2="3630" y2= "2804" />
  <line class="fil0 str1" x1="2723" y1="2963" x2="3630" y2= "2957" />
  <line class="fil0 str2" x1="2723" y1="3116" x2="3630" y2= "3110" />
  <line class="fil0 str3" x1="1796" y1="2464" x2="3782" y2= "2477" />
  <path class="fil1" d="M4540 2243l-216 1 0 -323c96,-57 181,-126 283,-175 78,23 131,80 210,87 49,-41 217,-230 253,-290 106,50 155,191 268,204 61,-63 157,-220 195,-308 183,80 143,293 337,86l316 -289 -1 1008 -216 0 -5 -125 -81 1c1,19 -2,-6 1,118l-230 6c-12,-40 -8,-93 -13,-125l-29 0c-31,3 -51,-3 -52,7 -2,9 -2,50 -2,119l-263 -4c0,-15 -3,-102 -3,-106 -2,-29 -5,-18 -70,-19 -16,0 -4,61 -6,118l-243 12c0,-62 0,-78 -10,-128l-70 3c-7,53 -4,62 -4,122l-262 0c1,-73 -2,-72 -7,-124l-73 2c-2,54 -8,63 -7,122zm987 -1166c-32,49 -32,38 -64,90l637 0c-44,68 -282,284 -347,333 -37,-27 -76,-63 -109,-98 -78,-82 -111,-140 -186,-5l-157 228c-318,-346 -194,-181 -512,101 -287,-132 -130,-101 -465,85l4 -647 1135 3c30,-43 29,-45 64,-90l-208 -1c-93,-1 -115,2 -189,2 -70,-3 -838,-37 -875,16 -37,53 -27,1100 -8,1225 76,28 1469,13 1772,13 281,0 252,21 250,-158 -13,-1172 105,-1098 -200,-1097l-542 0z"/>
  <path class="fil1" d="M5974 3109l210 -1 -4 175 -210 0 4 -174zm-1648 -1l1556 4 -2 171 -1555 2 1 -177zm-75 -77c-19,72 -23,262 1,323 97,49 831,16 1003,16 181,0 895,35 1005,-16 18,-53 40,-311 -28,-328l-96 -5c-363,4 -1779,-18 -1885,10z"/>
  <path class="fil1" d="M4974 2589l1211 1 -8 174 -1201 0 -2 -175zm-652 0l569 -1 -10 176 -553 1 -6 -176zm-69 -71c-17,43 -39,284 3,322 31,29 1525,11 1680,11 66,0 295,30 325,-19 26,-42 9,-277 -5,-312 -95,-43 -374,-14 -503,-14 -257,0 -1416,-20 -1500,12z"/>
  <rect class="fil1" x="5454" y="1077" width="95.1744" height="90.0516"/>
  <path class="fil6" d="M4540 2243c-1,-59 -9,-71 17,-122l50 -1c32,51 21,50 20,123l262 0c0,-60 -9,-71 17,-124l50 3c25,50 17,62 17,124l243 -12c-10,-139 7,-101 39,-118 53,29 24,-33 42,56 1,4 -2,54 -2,69l263 4c0,-100 -24,-119 62,-126l26 71c5,32 -4,14 8,54l230 -6c-7,-125 5,-96 19,-120l61 1 5 125 216 0 1 -1008 -316 289c-194,207 -154,-6 -337,-86 -38,88 -134,245 -195,308 -113,-13 -162,-154 -268,-204 -36,60 -204,249 -253,290 -79,-7 -132,-64 -210,-87 -102,49 -187,118 -283,175l0 323 216 -1z"/>
 </g>
</svg>
