<?xml version="1.0" encoding="UTF-8"?>
<!DOCTYPE svg PUBLIC "-//W3C//DTD SVG 1.1//EN" "http://www.w3.org/Graphics/SVG/1.1/DTD/svg11.dtd">
<!-- Creator: CorelDRAW X7 -->
<svg xmlns="http://www.w3.org/2000/svg" xml:space="preserve" width="179px" height="127px" version="1.1" style="shape-rendering:geometricPrecision; text-rendering:geometricPrecision; image-rendering:optimizeQuality; fill-rule:evenodd; clip-rule:evenodd"
viewBox="0 0 3861 2746"
 xmlns:xlink="http://www.w3.org/1999/xlink">
 <defs>
  <style type="text/css">
   <![CDATA[
    .str1 {stroke:#1E4158;stroke-width:91.6965}
    .str0 {stroke:#1E4158;stroke-width:28.6551}
    .str2 {stroke:#A9ABAE;stroke-width:114.621}
    .fil0 {fill:none}
    .fil2 {fill:#00BAFF}
    .fil5 {fill:#1E4158}
    .fil4 {fill:#E69C24}
    .fil3 {fill:#EAEBEC}
    .fil1 {fill:#FEFEFE}
   ]]>
  </style>
 </defs>
 <g id="Capa_x0020_1">
  <metadata id="CorelCorpID_0Corel-Layer"/>
  <g id="_2320306975680">
   <rect class="fil0" x="52" width="3808" height="2746"/>
   <polyline class="fil0 str0" points="613,388 1183,391 1183,581 "/>
   <path class="fil1" d="M2272 1966c-56,-673 957,-744 1002,-84 20,292 -194,507 -452,537 -279,32 -528,-195 -550,-453zm282 -631l-55 -78 -160 80 38 101 -78 85 -102 -39 -88 151c31,23 52,42 75,61 6,126 -20,127 -127,128l-3 187 100 5c27,43 31,66 32,121l-72 56c14,55 43,108 83,158 59,-12 34,-24 99,-35 44,25 56,38 79,80 -9,45 -23,58 -34,97 34,31 110,75 155,84l54 -74c53,0 89,15 126,33l5 101 188 2 6 -104c49,-30 61,-31 119,-31l56 72c49,-6 119,-48 155,-83 -20,-78 -76,-97 45,-176l98 36c34,-46 78,-113 90,-164 -82,-30 -109,-72 -46,-169l99 -10 1 -186c-109,-1 -140,-10 -128,-128l72 -56c-20,-61 -58,-111 -83,-159 -45,19 -51,33 -105,41l-78 -80c11,-62 20,-56 40,-107 -59,-22 -98,-62 -162,-80 -17,39 -30,52 -55,81 -129,-11 -123,-17 -124,-139l-187 1c-2,117 1,131 -128,137z"/>
   <path class="fil1" d="M2483 1980c-36,-184 88,-325 229,-353 398,-80 500,512 125,582 -190,35 -324,-78 -354,-229zm213 -475c-206,42 -390,233 -337,499 41,201 250,391 504,330 204,-49 375,-247 325,-505 -39,-200 -245,-373 -492,-324z"/>
   <path class="fil2" d="M2696 1505c247,-49 453,124 492,324 50,258 -121,456 -325,505 -254,61 -463,-129 -504,-330 -53,-266 131,-457 337,-499zm-424 461c22,258 271,485 550,453 258,-30 472,-245 452,-537 -45,-660 -1058,-589 -1002,84z"/>
   <path class="fil3" d="M2984 1980c85,-263 -316,-406 -420,-130 -95,253 322,435 420,130z"/>
   <path class="fil3" d="M2984 1980c-98,305 -515,123 -420,-130 104,-276 505,-133 420,130zm-501 0c30,151 164,264 354,229 375,-70 273,-662 -125,-582 -141,28 -265,169 -229,353z"/>
   <path class="fil0 str1" d="M1753 1226l-67 -822c34,-3 67,-4 101,-2 384,16 696,290 774,648 -17,3 -34,6 -50,10 -380,39 -675,359 -675,747 0,77 11,150 33,220 0,5 1,10 1,16 -49,7 -100,9 -151,7 -457,-19 -811,-403 -793,-858l827 34z"/>
   <line class="fil0" x1="926" y1="1192" x2="926" y2= "1192" />
   <line class="fil0" x1="1719" y1="2050" x2="1719" y2= "2050" />
   <line class="fil0 str2" x1="1719" y1="2050" x2="1719" y2= "2050" />
   <line class="fil0 str2" x1="1719" y1="2050" x2="1719" y2= "2050" />
   <line class="fil0 str2" x1="1787" y1="402" x2="1787" y2= "402" />
   <line class="fil0 str2" x1="1787" y1="402" x2="1787" y2= "402" />
   <line class="fil0 str2" x1="1787" y1="402" x2="1787" y2= "402" />
   <path class="fil4" d="M1721 1187l-835 -42c16,-398 341,-736 759,-782l76 824z"/>
   <path class="fil5" d="M3205 2493c-36,35 -106,77 -155,83l-56 -72c-58,0 -70,1 -119,31l-6 104 -188 -2 -5 -101c-37,-18 -73,-33 -126,-33l-54 74c-45,-9 -121,-53 -155,-84 11,-39 25,-52 34,-97 -23,-42 -35,-55 -79,-80 -65,11 -40,23 -99,35 -40,-50 -69,-103 -83,-158l72 -56c-1,-55 -5,-78 -32,-121l-100 -5 3 -187c107,-1 133,-2 127,-128 -23,-19 -44,-38 -75,-61l88 -151 102 39 78 -85 -38 -101 160 -80 55 78c129,-6 126,-20 128,-137l187 -1c1,122 -5,128 124,139 25,-29 38,-42 55,-81 64,18 103,58 162,80 -20,51 -29,45 -40,107l78 80c54,-8 60,-22 105,-41 25,48 63,98 83,159l-72 56c-12,118 19,127 128,128l-1 186 -99 10c-63,97 -36,139 46,169 -12,51 -56,118 -90,164l-98 -36c-121,79 -65,98 -45,176zm-610 100c48,141 0,123 185,124 134,0 162,12 167,-129l42 40c70,81 132,7 233,-49 109,-59 62,-77 40,-174 104,39 125,53 180,-48 53,-98 147,-196 2,-244 18,-15 3,-9 32,-21 71,-29 112,20 94,-255 -6,-95 -36,-87 -123,-94 20,-33 -2,-7 29,-34 28,-24 51,-23 43,-82 -4,-31 -41,-82 -58,-114 -68,-131 -73,-126 -197,-82 12,-51 28,-61 22,-120 -42,-47 -171,-142 -264,-139l-68 77c-18,-84 1,-163 -274,-127 -100,14 -41,60 -104,123 -49,-129 -123,-66 -204,-15 -111,70 -148,49 -86,201 -152,-42 -123,-53 -206,92 -98,170 -38,143 16,218l-102 20c-22,68 -30,220 -4,300 32,22 70,28 116,39 -114,68 -88,104 -26,211 81,141 52,141 207,95 -52,148 -36,130 89,207 24,14 88,51 120,51 36,0 40,-10 57,-28l42 -43z"/>
   <rect class="fil5 str0" x="234" y="322" width="374" height="125"/>
   <polyline class="fil0 str0" points="259,776 753,778 756,1528 937,1525 "/>
   <rect class="fil5 str0" x="14" y="706" width="264" height="126"/>
  </g>
 </g>
</svg>
