<?xml version="1.0" encoding="UTF-8"?>
<!DOCTYPE svg PUBLIC "-//W3C//DTD SVG 1.1//EN" "http://www.w3.org/Graphics/SVG/1.1/DTD/svg11.dtd">
<!-- Creator: CorelDRAW X7 -->
<svg xmlns="http://www.w3.org/2000/svg" xml:space="preserve" width="177px" height="128px" version="1.1" style="shape-rendering:geometricPrecision; text-rendering:geometricPrecision; image-rendering:optimizeQuality; fill-rule:evenodd; clip-rule:evenodd"
viewBox="0 0 572231 413116"
 xmlns:xlink="http://www.w3.org/1999/xlink">
 <defs>
  <style type="text/css">
   <![CDATA[
    .str0 {stroke:#1E4158;stroke-width:532.759}
    .str1 {stroke:#1E4158;stroke-width:13998.3}
    .str9 {stroke:#1E4158;stroke-width:13998.3}
    .str5 {stroke:#1E4158;stroke-width:13998.3}
    .str6 {stroke:#1E4158;stroke-width:7000}
    .str10 {stroke:#1E4158;stroke-width:7000}
    .str4 {stroke:#1E4158;stroke-width:7000}
    .str3 {stroke:#1E4158;stroke-width:7000}
    .str2 {stroke:#1E4158;stroke-width:7000}
    .str8 {stroke:#1E4158;stroke-width:7000}
    .str12 {stroke:#1E4158;stroke-width:7000}
    .str7 {stroke:#1E4158;stroke-width:7000}
    .str11 {stroke:#1E4158;stroke-width:7000}
    .fil0 {fill:none}
    .fil1 {fill:#1E4158}
    .fil2 {fill:#EAEBEC}
    .fil3 {fill:#E69C24;fill-rule:nonzero}
   ]]>
  </style>
 </defs>
 <g id="Capa_x0020_1">
  <metadata id="CorelCorpID_0Corel-Layer"/>
  <rect class="fil0" x="1" width="572230" height="413115"/>
  <path class="fil1 str0" d="M251112 361886l9679 -8858c2980,-2959 5873,-6240 8757,-9895 16381,-20749 28078,-50681 34049,-77812 8755,1019 50896,20424 54115,24586 -3607,6367 -14784,19140 -20005,24505 -14221,14616 -33043,27854 -52650,36485 -8579,3775 -23760,9806 -33945,10989zm-180331 -72408l12586 -6964c4333,-2264 8499,-4354 13135,-6474 5219,-2388 22551,-9985 28382,-10695 6268,28395 17390,56074 34337,78022 5893,7635 11351,12423 18798,18673 -8141,-562 -26960,-7711 -33938,-10814 -24917,-11086 -47138,-27938 -63810,-48538 -3416,-4222 -7043,-8259 -9490,-13210zm147819 76381l-116 -113757c25197,-55 54790,3864 76892,10520 -883,7697 -7426,26962 -10323,34642 -10115,26822 -33108,66088 -66453,68595zm-85436 -103237c23300,-6412 50617,-10679 76795,-10555l70 113659c-12631,-333 -24046,-8023 -31132,-13833 -22331,-18314 -40309,-59127 -45733,-89271zm85362 -65629l84457 -7c-12,17328 -1886,34011 -4588,50950 -174,1086 -359,2242 -585,3447 -5,24 -241,1158 -315,1376l-671 1441c-2960,-472 -6434,-1612 -9319,-2309 -2817,-679 -6152,-1362 -8917,-1972 -19552,-4319 -39957,-5764 -60104,-6316l42 -46610zm-87567 55343c-3231,-11976 -5416,-44608 -5381,-55341l84450 2 -71 46563c-13759,414 -28316,931 -41536,3119 -6419,1062 -12485,2045 -18878,3311 -5472,1082 -12569,3522 -17826,4179l-758 -1833zm231362 29942c-2069,-728 -4459,-2438 -6507,-3600 -10962,-6221 -23093,-11800 -35023,-16392 -2803,-1077 -13932,-4577 -15270,-5583 672,-7498 3257,-17712 4138,-28653 838,-10383 1508,-20159 1812,-30926l75905 -124c-398,23807 -5921,46376 -15281,67198 -1936,4307 -7269,15685 -9774,18080zm-239347 -25575c-1422,1025 -12365,4511 -15219,5588 -9719,3673 -19129,7875 -28255,12687 -4143,2184 -9934,6089 -13279,7275 -2628,-2543 -7788,-13665 -9799,-18027 -9227,-20010 -14922,-44276 -15282,-67238l10526 24c19951,31 46248,-515 65403,116 407,15429 1284,30515 3590,45656 657,4302 2074,9882 2315,13919zm95557 -114617c20916,-626 40222,-2220 60376,-6489l17917 -4187c833,1319 1336,4954 1643,6680 2711,15267 4540,35308 4464,50439l-84448 0 48 -46443zm-92998 46452c-74,-9919 714,-20347 1729,-29978 502,-4746 1079,-9410 1795,-14101 490,-3214 1246,-10066 2205,-13080 2305,-17 14717,3355 18319,4164 6412,1440 12640,2504 19072,3359 13983,1858 26850,2679 41375,3151l-44 46476 -84451 9zm-84374 -105c201,-16105 3227,-33162 7725,-47343 1559,-4918 12421,-33488 17337,-37849 2055,650 4934,2766 6848,3790 19302,10336 27912,14003 49928,21500 -230,4036 -1652,9895 -2316,14324 -2407,16057 -3122,29197 -3645,45678l-75877 -100zm264379 -59902c10122,-3065 20496,-7202 29672,-11271 5809,-2577 26840,-13881 27111,-13965 2713,2700 7869,13891 9801,18076 9183,19881 14902,44434 15225,67074l-8197 110c-21936,-152 -46186,381 -67698,-110 -357,-10752 -797,-20897 -1819,-31345l-4095 -28569zm-87062 -108640c22069,578 41386,21509 51977,38499 9488,15219 22916,47172 24895,64500 -23888,6658 -50270,10674 -76862,10700l-10 -113699zm-85340 103059c564,-4881 3183,-13379 4595,-18066 4967,-16493 11666,-32763 20536,-46775 9480,-14978 27192,-36512 51752,-38302l-31 113738c-27664,79 -51917,-4297 -76852,-10595zm170511 -2850c-1478,-3922 -2690,-10747 -3944,-15007 -7017,-23881 -15651,-44009 -30767,-63386 -2767,-3547 -5860,-6805 -8902,-9748 -1674,-1619 -8084,-7431 -9846,-8375 6141,-210 28603,8219 33974,10630 10800,4845 20054,10074 28850,16183 4562,3165 8959,6391 12935,9806 4169,3580 8212,7069 11634,10654 4200,4396 18026,19641 19967,24833 -474,577 -155,250 -782,763l-11647 6602c-7776,4131 -35231,16819 -41472,17045zm-232825 -24410c2181,-4074 6718,-9462 9631,-13056 3468,-4275 6956,-8036 10525,-11762 14517,-15160 33465,-27608 53413,-36634 5700,-2578 27395,-10772 33961,-10657 -2726,1372 -7885,6521 -10118,8566 -21472,19672 -37317,59125 -43220,87803 -2724,498 -25271,-8838 -28481,-10431 -5047,-2503 -23283,-11053 -25711,-13829zm324831 107798c5916,-99835 -69456,-185412 -170546,-192079 -102838,-6785 -187735,75017 -192254,170701 -4941,104671 73100,185761 170713,192014 51234,3283 98393,-15729 133474,-47638 27912,-25389 55298,-67069 58613,-122998z"/>
  <rect class="fil2 str1" x="241675" y="127554" width="297924" height="80461" rx="13048" ry="13048"/>
  <g>
   <path class="fil3" d="M413471 188526c-4831,0 -8750,-3933 -8750,-8781 0,-4848 3919,-8781 8750,-8781l0 17562zm96770 0l-96770 0 0 -17562 96770 0 0 17562zm0 -17562c4831,0 8750,3933 8750,8781 0,4848 -3919,8781 -8750,8781l0 -17562z"/>
  </g>
  <line class="fil0 str2" x1="271033" y1="127553" x2="271033" y2= "208016" />
  <line class="fil0 str3" x1="299847" y1="128641" x2="299847" y2= "209103" />
  <line class="fil0 str4" x1="328662" y1="128641" x2="328662" y2= "209103" />
  <rect class="fil2 str5" x="239501" y="223781" width="297924" height="80461" rx="13048" ry="13048"/>
  <g>
   <path class="fil3" d="M411297 284753c-4831,0 -8750,-3932 -8750,-8781 0,-4848 3919,-8781 8750,-8781l0 17562zm96770 0l-96770 0 0 -17562 96770 0 0 17562zm0 -17562c4831,0 8750,3933 8750,8781 0,4849 -3919,8781 -8750,8781l0 -17562z"/>
  </g>
  <line class="fil0 str6" x1="268859" y1="223781" x2="268859" y2= "304243" />
  <line class="fil0 str7" x1="297672" y1="224869" x2="297672" y2= "305329" />
  <line class="fil0 str8" x1="326486" y1="224869" x2="326486" y2= "305329" />
  <rect class="fil2 str9" x="239501" y="320009" width="297924" height="80461" rx="13048" ry="13048"/>
  <g>
   <path class="fil3" d="M411297 380981c-4831,0 -8750,-3933 -8750,-8781 0,-4848 3919,-8781 8750,-8781l0 17562zm96770 0l-96770 0 0 -17562 96770 0 0 17562zm0 -17562c4831,0 8750,3933 8750,8781 0,4848 -3919,8781 -8750,8781l0 -17562z"/>
  </g>
  <line class="fil0 str10" x1="268859" y1="320009" x2="268859" y2= "400469" />
  <line class="fil0 str11" x1="297672" y1="321097" x2="297672" y2= "401557" />
  <line class="fil0 str12" x1="326486" y1="321097" x2="326486" y2= "401557" />
 </g>
</svg>
