<?xml version="1.0" encoding="UTF-8"?>
<!DOCTYPE svg PUBLIC "-//W3C//DTD SVG 1.1//EN" "http://www.w3.org/Graphics/SVG/1.1/DTD/svg11.dtd">
<!-- Creator: CorelDRAW X7 -->
<svg xmlns="http://www.w3.org/2000/svg" xml:space="preserve" width="177px" height="128px" version="1.1" style="shape-rendering:geometricPrecision; text-rendering:geometricPrecision; image-rendering:optimizeQuality; fill-rule:evenodd; clip-rule:evenodd"
viewBox="0 0 6750 4890"
 xmlns:xlink="http://www.w3.org/1999/xlink">
 <defs>
  <style type="text/css">
   <![CDATA[
    .fil0 {fill:none}
    .fil2 {fill:#FEFEFE}
    .fil6 {fill:#00BAFF}
    .fil1 {fill:#1E4158}
    .fil5 {fill:#00BAFF;fill-rule:nonzero}
    .fil3 {fill:#1A4058;fill-rule:nonzero}
    .fil4 {fill:#E69C24;fill-rule:nonzero}
   ]]>
  </style>
 </defs>
 <g id="Capa_x0020_1">
  <metadata id="CorelCorpID_0Corel-Layer"/>
  <g id="_2320310283552">
   <rect class="fil0" width="6750" height="4873"/>
   <g>
    <path class="fil1" d="M2997 3715l959 -21 170 984 -1314 1c23,-160 78,-313 110,-481 29,-157 34,-329 75,-483zm2714 -669c-5,192 29,290 -100,409 -158,62 -4114,61 -4277,0 -124,-120 -96,-222 -98,-409l4475 0zm-4474 -209c0,-488 0,-975 0,-1462 0,-956 -96,-1060 335,-1060l3917 0c256,0 220,203 220,448l0 2073 -4472 1zm2925 864c2014,-123 1739,562 1739,-2174 0,-1057 153,-1427 -559,-1423l-3775 -1c-353,0 -517,103 -523,468 -6,329 0,665 0,995 0,2710 -259,2012 1741,2136 -29,386 -130,643 -186,972 -130,9 -304,-15 -358,-2 -11,2 -15,15 -15,27 -1,61 8,76 5,147 18,56 1697,43 2048,43 158,0 316,-18 415,-25 22,-1 50,1 52,-38 2,-36 2,-76 2,-128 -102,-28 -240,-18 -402,-21 -53,-328 -152,-590 -184,-976z"/>
    <g>
     <rect class="fil2" x="2116" y="595" width="2726" height="2064"/>
     <g>
      <path class="fil2" d="M4851 1808l0 785c0,37 -28,68 -63,68l-2637 0c-34,0 -63,-31 -63,-68l0 -1968c0,-38 29,-68 63,-68l2637 0c35,0 63,30 63,68l0 1183z"/>
      <path id="1" class="fil3" d="M4825 2593l0 -785 52 0 0 785 0 0 -52 0zm-37 96l0 -56 0 0 2 0 2 0 2 -1 2 0 1 -1 2 0 2 -1 1 0 2 -1 2 -1 1 -1 2 -1 1 -1 1 -1 2 -2 1 -1 1 -1 1 -2 2 -1 1 -2 1 -2 0 -1 1 -2 1 -2 1 -2 0 -1 1 -2 0 -2 0 -2 1 -2 0 -2 0 -2 52 0 0 5 0 5 -1 5 -1 4 -1 5 -1 5 -1 4 -2 5 -2 4 -2 4 -2 4 -2 4 -3 4 -2 3 -3 4 -3 3 -3 3 -3 3 -4 3 -3 3 -4 2 -3 3 -4 2 -4 2 -4 2 -4 1 -5 1 -4 2 -4 0 -5 1 -4 0 -5 0 0 0zm-2637 -56l2637 0 0 56 -2637 0 0 0 0 -56zm-89 -40l52 0 0 0 1 2 0 2 0 2 0 2 1 2 0 2 1 1 0 2 1 2 1 2 1 1 1 2 1 2 1 1 1 2 1 1 2 1 1 2 1 1 2 1 1 1 2 1 1 1 2 1 2 0 1 1 2 0 2 1 2 0 1 1 2 0 2 0 0 56 -4 0 -5 0 -4 -1 -5 0 -4 -2 -4 -1 -4 -1 -5 -2 -3 -2 -4 -2 -4 -3 -4 -2 -3 -3 -3 -3 -4 -3 -3 -3 -3 -3 -2 -4 -3 -3 -3 -4 -2 -4 -2 -4 -2 -4 -2 -4 -1 -5 -2 -4 -1 -5 -1 -5 -1 -4 0 -5 -1 -5 0 -5 0 0zm52 -1968l0 1968 -52 0 0 -1968 0 0 52 0zm37 -97l0 57 0 0 -2 0 -2 0 -1 0 -2 1 -2 0 -2 1 -1 0 -2 1 -2 1 -1 1 -2 1 -1 1 -2 1 -1 1 -1 1 -2 2 -1 1 -1 2 -1 1 -1 2 -1 1 -1 2 -1 2 -1 1 0 2 -1 2 0 2 -1 2 0 2 0 2 0 2 -1 2 -52 0 0 -5 1 -5 0 -5 1 -5 1 -4 1 -5 2 -4 1 -5 2 -4 2 -4 2 -4 2 -4 3 -4 3 -3 2 -4 3 -3 3 -4 4 -3 3 -2 3 -3 4 -3 4 -2 4 -2 3 -2 5 -2 4 -1 4 -2 4 -1 5 -1 4 0 5 -1 4 0 0 0zm2637 57l-2637 0 0 -57 2637 0 0 0 0 57zm89 40l-52 0 0 0 0 -2 0 -2 -1 -2 0 -2 0 -2 -1 -2 0 -2 -1 -2 -1 -1 -1 -2 -1 -2 0 -1 -1 -2 -2 -1 -1 -2 -1 -1 -1 -2 -2 -1 -1 -1 -1 -1 -2 -1 -1 -1 -2 -1 -2 -1 -1 -1 -2 0 -2 -1 -1 0 -2 -1 -2 0 -2 0 -2 0 0 -57 5 0 4 1 5 0 4 1 4 1 5 2 4 1 4 2 4 2 4 2 3 2 4 3 3 3 4 2 3 3 3 4 3 3 3 4 2 3 3 4 2 4 2 4 2 4 2 4 2 5 1 4 1 5 1 4 1 5 1 5 0 5 0 5 0 0zm-52 1183l0 -1183 52 0 0 1183 0 0 -52 0z"/>
     </g>
     <g>
      <polygon class="fil3" points="4860,953 2097,953 2097,905 4860,905 "/>
     </g>
     <g>
      <path class="fil4" d="M4435 702l-1379 0 0 -48 1379 0 0 0 0 48zm86 40l-45 0 0 0 0 -2 0 -2 0 -2 0 -2 -1 -2 0 -1 -1 -2 -1 -2 0 -2 -1 -1 -1 -2 -1 -1 -1 -2 -1 -2 -2 -1 -1 -2 -2 -1 -1 -1 -2 -1 -1 -2 -2 -1 -2 -1 -2 -1 -1 0 -2 -1 -2 -1 -2 -1 -2 0 -3 0 -2 -1 -2 0 -2 0 0 -48 4 0 4 0 5 1 4 1 4 1 4 1 4 1 4 2 4 1 3 2 4 2 3 2 4 3 3 2 3 3 3 3 3 3 3 3 2 4 3 3 2 3 2 4 2 4 2 4 2 4 1 4 1 4 1 5 1 4 1 5 0 4 0 5 0 0zm-45 0l0 0 45 0 0 0 0 0 -45 0zm-41 88l0 -48 0 0 2 0 2 -1 2 0 3 0 2 -1 2 0 2 -1 2 -1 1 -1 2 -1 2 -1 2 -1 1 -1 2 -1 1 -1 2 -2 1 -1 2 -2 1 -1 1 -2 1 -1 1 -2 1 -2 0 -1 1 -2 1 -2 0 -2 1 -2 0 -1 0 -2 0 -2 0 -2 45 0 0 4 0 5 -1 5 -1 4 -1 4 -1 5 -1 4 -2 4 -2 4 -2 4 -2 3 -2 4 -3 3 -2 4 -3 3 -3 3 -3 3 -3 2 -3 3 -4 2 -3 3 -4 2 -3 2 -4 1 -4 2 -4 1 -4 1 -4 1 -4 1 -5 1 -4 0 -4 0 0 0zm-1379 -48l1379 0 0 48 -1379 0 0 0 0 -48zm-86 -40l44 0 0 0 0 2 0 2 1 2 0 1 0 2 1 2 0 2 1 2 1 1 1 2 1 2 1 1 1 2 1 1 1 2 2 1 1 2 2 1 1 1 2 1 2 1 1 1 2 1 2 1 2 1 2 1 2 0 2 1 2 0 2 0 2 1 3 0 0 48 -5 0 -4 0 -4 -1 -4 -1 -4 -1 -4 -1 -4 -1 -4 -2 -4 -1 -4 -2 -3 -2 -4 -3 -3 -2 -3 -3 -3 -2 -3 -3 -3 -3 -3 -3 -3 -4 -2 -3 -2 -4 -3 -3 -2 -4 -1 -4 -2 -4 -1 -4 -2 -5 -1 -4 0 -4 -1 -5 0 -5 0 -4 0 0zm44 0l0 0 -44 0 0 0 0 0 44 0zm42 -88l0 48 0 0 -3 0 -2 0 -2 1 -2 0 -2 0 -2 1 -2 1 -2 1 -2 0 -2 1 -1 1 -2 1 -2 2 -1 1 -2 1 -1 1 -2 2 -1 1 -1 2 -1 2 -1 1 -1 2 -1 1 -1 2 -1 2 0 2 -1 1 0 2 0 2 -1 2 0 2 0 2 -44 0 0 -5 0 -4 1 -5 0 -4 1 -5 2 -4 1 -4 2 -4 1 -4 2 -4 3 -4 2 -3 2 -3 3 -4 3 -3 3 -3 3 -3 3 -3 3 -2 3 -3 4 -2 3 -2 4 -2 4 -1 4 -2 4 -1 4 -1 4 -1 4 -1 4 -1 4 0 5 0 0 0z"/>
     </g>
     <g>
      <path class="fil4" d="M2419 742l-44 0 0 0 0 -2 0 -2 -1 -2 0 -2 0 -1 -1 -2 0 -2 -1 -2 -1 -1 0 -2 -1 -1 -1 -2 -1 -1 -1 -2 -1 -1 -1 -2 -2 -1 -1 -1 -1 -1 -1 -1 -2 -1 -1 -1 -2 -1 -1 -1 -2 0 -1 -1 -2 0 -2 -1 -1 0 -2 0 -2 0 -2 0 0 -49 4 1 4 0 4 0 4 1 4 1 4 1 3 2 4 1 4 2 3 2 3 2 3 2 4 2 3 3 2 3 3 3 3 2 2 4 3 3 2 3 2 4 2 3 1 4 2 4 1 4 2 3 1 5 1 4 0 4 1 4 0 5 0 4 0 0zm-79 85l0 -48 0 0 2 0 2 0 2 0 1 -1 2 0 2 -1 1 0 2 -1 1 0 2 -1 1 -1 2 -1 1 -1 1 -1 1 -1 2 -2 1 -1 1 -1 1 -2 1 -1 1 -2 1 -1 0 -2 1 -2 1 -1 0 -2 1 -2 0 -2 0 -1 1 -2 0 -2 0 -2 44 0 0 4 0 5 -1 4 0 4 -1 4 -1 4 -2 4 -1 4 -2 4 -1 4 -2 3 -2 4 -2 3 -3 3 -2 3 -3 3 -3 3 -2 3 -3 2 -4 3 -3 2 -3 2 -3 2 -4 2 -4 1 -3 1 -4 2 -4 1 -4 0 -4 1 -4 0 -4 0 0 0zm-78 -85l44 0 0 0 0 2 0 2 1 2 0 1 0 2 1 2 0 2 1 1 1 2 0 2 1 1 1 2 1 1 1 2 1 1 1 1 1 2 2 1 1 1 1 1 2 1 1 1 2 1 1 0 2 1 1 0 2 1 1 0 2 1 2 0 2 0 1 0 0 48 -4 0 -4 0 -3 -1 -4 0 -4 -1 -4 -2 -4 -1 -3 -1 -4 -2 -3 -2 -3 -2 -4 -2 -3 -3 -3 -2 -3 -3 -2 -3 -3 -3 -2 -3 -3 -3 -2 -3 -2 -4 -2 -3 -2 -4 -1 -4 -2 -4 -1 -4 -1 -4 -1 -4 0 -4 -1 -4 0 -5 0 -4 0 0zm78 -86l0 49 0 0 -1 0 -2 0 -2 0 -2 0 -1 1 -2 0 -1 1 -2 0 -1 1 -2 1 -1 1 -2 1 -1 1 -1 1 -2 1 -1 1 -1 2 -1 1 -1 2 -1 1 -1 2 -1 1 0 2 -1 1 -1 2 0 2 -1 2 0 1 0 2 -1 2 0 2 0 2 -44 0 0 -4 0 -5 1 -4 0 -4 1 -4 1 -5 1 -3 2 -4 1 -4 2 -4 2 -3 2 -4 2 -3 3 -3 2 -4 3 -2 2 -3 3 -3 3 -3 3 -2 4 -2 3 -2 3 -2 4 -2 3 -1 4 -2 4 -1 4 -1 4 -1 3 0 4 0 4 -1 0 0z"/>
     </g>
     <g>
      <path class="fil4" d="M2619 742l-44 0 0 0 0 -2 0 -2 -1 -2 0 -2 0 -1 -1 -2 0 -2 -1 -2 -1 -1 0 -2 -1 -1 -1 -2 -1 -1 -1 -2 -1 -1 -1 -2 -1 -1 -2 -1 -1 -1 -1 -1 -2 -1 -1 -1 -2 -1 -1 -1 -2 0 -1 -1 -2 0 -2 -1 -1 0 -2 0 -2 0 -1 0 0 -49 4 1 4 0 3 0 4 1 4 1 4 1 4 2 3 1 4 2 3 2 3 2 4 2 3 2 3 3 3 3 2 3 3 2 2 4 3 3 2 3 2 4 2 3 2 4 1 4 2 4 1 3 1 5 1 4 0 4 1 4 0 5 0 4 0 0zm-78 85l0 -48 0 0 1 0 2 0 2 0 1 -1 2 0 2 -1 1 0 2 -1 1 0 2 -1 1 -1 2 -1 1 -1 1 -1 2 -1 1 -2 1 -1 1 -1 1 -2 1 -1 1 -2 1 -1 0 -2 1 -2 1 -1 0 -2 1 -2 0 -2 0 -1 1 -2 0 -2 0 -2 44 0 0 4 0 5 -1 4 0 4 -1 4 -1 4 -1 4 -2 4 -1 4 -2 4 -2 3 -2 4 -2 3 -3 3 -2 3 -3 3 -2 3 -3 3 -3 2 -3 3 -4 2 -3 2 -3 2 -4 2 -3 1 -4 1 -4 2 -4 1 -4 0 -3 1 -4 0 -4 0 0 0zm-79 -85l44 0 0 0 0 2 0 2 1 2 0 1 0 2 1 2 0 2 1 1 1 2 0 2 1 1 1 2 1 1 1 2 1 1 1 1 2 2 1 1 1 1 1 1 2 1 1 1 2 1 1 0 2 1 1 0 2 1 2 0 1 1 2 0 2 0 2 0 0 48 -5 0 -3 0 -4 -1 -4 0 -4 -1 -4 -2 -4 -1 -3 -1 -4 -2 -3 -2 -3 -2 -3 -2 -4 -3 -3 -2 -2 -3 -3 -3 -3 -3 -2 -3 -3 -3 -2 -3 -2 -4 -2 -3 -1 -4 -2 -4 -1 -4 -2 -4 -1 -4 -1 -4 0 -4 -1 -4 0 -5 0 -4 0 0zm79 -86l0 49 0 0 -2 0 -2 0 -2 0 -1 0 -2 1 -2 0 -1 1 -2 0 -1 1 -2 1 -1 1 -2 1 -1 1 -1 1 -1 1 -2 1 -1 2 -1 1 -1 2 -1 1 -1 2 -1 1 0 2 -1 1 -1 2 0 2 -1 2 0 1 0 2 -1 2 0 2 0 2 -44 0 0 -4 0 -5 1 -4 0 -4 1 -4 1 -5 2 -3 1 -4 2 -4 1 -4 2 -3 2 -4 2 -3 3 -3 2 -4 3 -2 3 -3 2 -3 3 -3 4 -2 3 -2 3 -2 3 -2 4 -2 3 -1 4 -2 4 -1 4 -1 4 -1 4 0 3 0 5 -1 0 0z"/>
     </g>
     <g>
      <path class="fil4" d="M2816 742l-45 0 0 0 0 -2 0 -2 0 -2 -1 -2 0 -1 0 -2 -1 -2 -1 -2 0 -1 -1 -2 -1 -1 -1 -2 -1 -1 -1 -2 -1 -1 -1 -2 -1 -1 -1 -1 -2 -1 -1 -1 -2 -1 -1 -1 -1 -1 -2 -1 -1 0 -2 -1 -2 0 -1 -1 -2 0 -2 0 -1 0 -2 0 0 -49 4 1 4 0 4 0 4 1 4 1 3 1 4 2 4 1 3 2 3 2 4 2 3 2 3 2 3 3 3 3 3 3 2 2 3 4 2 3 2 3 2 4 2 3 2 4 1 4 2 4 1 3 1 5 1 4 1 4 0 4 0 5 1 4 0 0zm-79 85l0 -48 0 0 2 0 1 0 2 0 2 -1 1 0 2 -1 2 0 1 -1 2 0 1 -1 1 -1 2 -1 1 -1 2 -1 1 -1 1 -2 1 -1 1 -1 1 -2 1 -1 1 -2 1 -1 1 -2 0 -2 1 -1 1 -2 0 -2 0 -2 1 -1 0 -2 0 -2 0 -2 45 0 -1 4 0 5 0 4 -1 4 -1 4 -1 4 -1 4 -2 4 -1 4 -2 4 -2 3 -2 4 -2 3 -2 3 -3 3 -3 3 -2 3 -3 3 -3 2 -3 3 -3 2 -4 2 -3 2 -3 2 -4 1 -4 1 -3 2 -4 1 -4 0 -4 1 -4 0 -4 0 0 0zm-79 -85l45 0 0 0 0 2 0 2 0 2 0 1 1 2 0 2 1 2 0 1 1 2 1 2 0 1 1 2 1 1 1 2 1 1 2 1 1 2 1 1 1 1 2 1 1 1 1 1 2 1 2 0 1 1 2 0 1 1 2 0 1 1 2 0 2 0 2 0 0 48 -4 0 -4 0 -4 -1 -4 0 -4 -1 -4 -2 -3 -1 -4 -1 -3 -2 -4 -2 -3 -2 -3 -2 -3 -3 -3 -2 -3 -3 -3 -3 -3 -3 -2 -3 -2 -3 -3 -3 -2 -4 -2 -3 -1 -4 -2 -4 -1 -4 -1 -4 -2 -4 0 -4 -1 -4 -1 -4 0 -5 0 -4 0 0zm79 -86l0 49 0 0 -2 0 -2 0 -2 0 -1 0 -2 1 -1 0 -2 1 -1 0 -2 1 -2 1 -1 1 -1 1 -2 1 -1 1 -1 1 -1 1 -2 2 -1 1 -1 2 -1 1 -1 2 0 1 -1 2 -1 1 0 2 -1 2 0 2 -1 1 0 2 0 2 0 2 0 2 -45 0 0 -4 0 -5 1 -4 1 -4 0 -4 2 -5 1 -3 1 -4 2 -4 2 -4 1 -3 2 -4 3 -3 2 -3 2 -4 3 -2 3 -3 3 -3 3 -3 3 -2 3 -2 3 -2 4 -2 3 -2 4 -1 3 -2 4 -1 4 -1 4 -1 4 0 4 0 4 -1 0 0z"/>
     </g>
     <g>
      <path class="fil5" d="M3176 1209l-655 0 0 -48 655 0 0 0 0 48zm77 31l-44 0 0 0 0 -1 0 -2 0 -1 -1 -2 0 -1 0 -1 -1 -2 0 -1 -1 -1 -1 -2 0 -1 -1 -1 -1 -2 -1 -1 -1 -1 -1 -1 -1 -1 -2 -1 -1 -1 -1 -1 -1 -1 -2 -1 -1 -1 -2 0 -1 -1 -2 0 -2 -1 -1 0 -2 -1 -2 0 -1 0 -2 0 0 -48 4 0 3 0 4 1 4 0 4 1 3 1 4 1 3 2 4 1 3 2 3 2 4 2 3 2 2 2 3 3 3 2 3 3 2 3 2 3 3 3 2 3 2 4 1 3 2 4 1 3 2 4 1 4 1 4 0 4 1 4 0 4 0 4 0 0zm-44 379l0 -379 44 0 0 379 0 0 -44 0zm-33 80l0 -48 0 0 2 0 1 -1 2 0 2 0 1 0 2 -1 2 0 1 -1 2 -1 1 0 2 -1 1 -1 1 -1 1 -1 2 -1 1 -1 1 -1 1 -2 1 -1 1 -1 1 -1 0 -2 1 -1 1 -1 0 -2 1 -1 0 -1 0 -2 1 -1 0 -1 0 -2 0 -2 44 0 0 5 0 4 -1 4 0 4 -1 4 -1 4 -2 3 -1 4 -2 4 -1 3 -2 3 -2 4 -3 3 -2 3 -2 3 -3 2 -3 3 -3 2 -2 3 -3 2 -4 2 -3 2 -3 1 -4 2 -3 1 -4 2 -3 1 -4 0 -4 1 -4 1 -3 0 -4 0 0 0zm-655 -48l655 0 0 48 -655 0 0 0 0 -48zm-77 -32l44 0 0 0 0 2 0 2 1 1 0 1 0 2 1 1 0 1 1 2 0 1 1 1 1 2 0 1 1 1 1 1 1 2 1 1 1 1 2 1 1 1 1 1 1 1 2 1 1 0 2 1 1 1 2 0 2 1 1 0 2 0 2 0 2 1 1 0 0 48 -4 0 -3 0 -4 -1 -4 -1 -4 0 -3 -1 -4 -2 -3 -1 -4 -2 -3 -1 -3 -2 -3 -2 -3 -2 -3 -3 -3 -2 -3 -3 -2 -2 -3 -3 -2 -3 -2 -3 -3 -4 -1 -3 -2 -3 -2 -4 -1 -4 -2 -3 -1 -4 -1 -4 0 -4 -1 -4 0 -4 0 -5 0 0zm44 -379l0 379 -44 0 0 -379 0 0 44 0zm33 -79l0 48 0 0 -1 0 -2 0 -2 0 -2 1 -1 0 -2 1 -2 0 -1 1 -2 0 -1 1 -2 1 -1 1 -1 1 -1 1 -2 1 -1 1 -1 1 -1 1 -1 1 -1 2 0 1 -1 1 -1 2 0 1 -1 1 0 2 -1 1 0 1 0 2 -1 1 0 2 0 1 -44 0 0 -4 0 -4 1 -4 0 -4 1 -4 1 -4 2 -4 1 -3 2 -4 2 -3 1 -4 3 -3 2 -3 2 -3 3 -3 2 -3 3 -2 3 -3 3 -2 3 -2 3 -2 3 -2 3 -2 4 -1 3 -2 4 -1 3 -1 4 -1 4 0 4 -1 3 0 4 0 0 0z"/>
     </g>
     <g>
      <path class="fil5" d="M2478 1910c-13,0 -23,-11 -23,-24 0,-14 10,-24 23,-24l0 48zm274 0l-274 0 0 -48 274 0 0 48zm0 -48c13,0 23,10 23,24 0,13 -10,24 -23,24l0 -48z"/>
     </g>
     <g>
      <path class="fil5" d="M2808 1910c-12,0 -22,-11 -22,-24 0,-14 10,-24 22,-24l0 48zm275 0l-275 0 0 -48 275 0 0 48zm0 -48c12,0 22,10 22,24 0,13 -10,24 -22,24l0 -48z"/>
     </g>
     <g>
      <path class="fil5" d="M3133 1909c-12,0 -22,-11 -22,-24 0,-14 10,-25 22,-25l0 49zm112 0l-112 0 0 -49 112 0 0 49zm0 -49c12,0 22,11 22,25 0,13 -10,24 -22,24l0 -49z"/>
     </g>
     <g>
      <path class="fil5" d="M2464 2053c-12,0 -22,-11 -22,-25 0,-13 10,-24 22,-24l0 49zm425 0l-425 0 0 -49 425 0 0 49zm0 -49c12,0 22,11 22,24 0,14 -10,25 -22,25l0 -49z"/>
     </g>
     <g>
      <path class="fil5" d="M2938 2054c-12,0 -22,-11 -22,-25 0,-13 10,-24 22,-24l0 49zm305 0l-305 0 0 -49 305 0 0 49zm0 -49c12,0 22,11 22,24 0,14 -10,25 -22,25l0 -49z"/>
     </g>
     <g>
      <path class="fil5" d="M2467 2201c-12,0 -22,-11 -22,-25 0,-13 10,-24 22,-24l0 49zm777 0l-777 0 0 -49 777 0 0 49zm0 -49c12,0 22,11 22,24 0,14 -10,25 -22,25l0 -49z"/>
     </g>
     <g>
      <path class="fil5" d="M2463 2343c-12,0 -22,-11 -22,-24 0,-13 10,-24 22,-24l0 48zm777 0l-777 0 0 -48 777 0 0 48zm0 -48c12,0 22,11 22,24 0,13 -10,24 -22,24l0 -48z"/>
     </g>
     <g>
      <path class="fil6" d="M3768 1206l0 0 0 14 0 0 0 0c0,13 -10,24 -22,24 -13,0 -23,-11 -23,-24l0 0 0 -14c0,-26 20,-48 45,-48l44 0 0 0c13,0 23,11 23,24 0,13 -10,24 -22,24l-1 0 0 0 0 0 -44 0zm178 0l0 0 -1 0c-12,0 -21,-11 -21,-24 0,-13 10,-24 22,-24l0 0 44 0 0 0c13,0 23,11 23,24 0,13 -10,24 -22,24l-1 0 0 0 -44 0zm178 0l0 0 -1 0c-12,0 -21,-11 -21,-24 0,-13 10,-24 22,-24l0 0 44 0 0 0c13,0 23,11 23,24 0,13 -10,24 -22,24l-1 0 0 0 -44 0zm178 0l0 0 -1 0c-12,0 -21,-11 -21,-24 0,-13 10,-24 22,-24l0 0 44 0 0 0c13,0 23,11 23,24 0,13 -10,24 -22,24l-1 0 0 0 -44 0zm140 42l0 0 0 -1c0,-13 10,-24 22,-24 12,0 22,11 22,25l0 0 0 48 0 0c0,13 -10,24 -22,24 -12,0 -22,-10 -22,-23l0 -1 0 0 0 -48zm0 193l0 0 0 -1c0,-13 10,-23 22,-23 12,0 22,10 22,24l0 0 0 48 0 0c0,13 -10,24 -22,24 -12,0 -22,-10 -22,-23l0 -1 0 0 0 -48zm0 193l0 0 0 -1c0,-13 10,-23 22,-23 12,0 22,11 22,24l0 0 0 7c0,26 -20,48 -44,48l-39 0 0 0c-12,0 -22,-11 -22,-24 0,-11 7,-20 16,-23l0 -1 6 0 0 0 1 0 38 0 0 -7zm-172 7l0 0 1 0c12,0 21,11 21,24 0,13 -10,24 -22,24l0 0 -44 0 0 0c-13,0 -23,-11 -23,-24 0,-13 10,-24 22,-24l1 0 0 0 44 0zm-178 0l0 0 1 0c12,0 21,11 21,24 0,13 -10,24 -22,24l0 0 -44 0 0 0c-13,0 -23,-11 -23,-24 0,-13 10,-24 22,-24l1 0 0 0 44 0zm-178 0l0 0 1 0c12,0 21,11 21,24 0,13 -10,24 -22,24l0 0 -44 0 0 0c-13,0 -23,-11 -23,-24 0,-13 10,-24 22,-24l1 0 0 0 44 0zm-146 -35l0 0 0 1c0,13 -10,23 -22,23 -13,0 -23,-11 -23,-24l0 0 0 -48 0 0c0,-14 10,-24 23,-24 12,0 22,10 22,23l0 1 0 0 0 48zm0 -193l0 0 0 1c0,13 -10,23 -22,23 -13,0 -23,-11 -23,-24l0 0 0 -48 0 0c0,-14 10,-25 23,-25 12,0 22,11 22,24l0 1 0 0 0 48z"/>
     </g>
     <g>
      <path class="fil5" d="M3769 1909c-12,0 -22,-11 -22,-24 0,-14 10,-25 22,-25l0 49zm305 0l-305 0 0 -49 305 0 0 49zm0 -49c12,0 22,11 22,25 0,13 -10,24 -22,24l0 -49z"/>
     </g>
     <g>
      <path class="fil5" d="M4139 1911c-12,0 -22,-11 -22,-24 0,-14 10,-24 22,-24l0 48zm269 0l-269 0 0 -48 269 0 0 48zm0 -48c12,0 22,10 22,24 0,13 -10,24 -22,24l0 -48z"/>
     </g>
     <g>
      <path class="fil5" d="M3793 2051c-12,0 -22,-10 -22,-24 0,-13 10,-24 22,-24l0 48zm407 0l-407 0 0 -48 407 0 0 48zm0 -48c12,0 22,11 22,24 0,14 -10,24 -22,24l0 -48z"/>
     </g>
     <g>
      <path class="fil5" d="M4311 2050c-13,0 -22,-11 -22,-25 0,-13 9,-24 22,-24l0 49zm112 0l-112 0 0 -49 112 0 0 49zm0 -49c12,0 22,11 22,24 0,14 -10,25 -22,25l0 -49z"/>
     </g>
     <g>
      <path class="fil5" d="M3787 2201c-13,0 -22,-11 -22,-25 0,-13 9,-24 22,-24l0 49zm304 0l-304 0 0 -49 304 0 0 49zm0 -49c13,0 23,11 23,24 0,14 -10,25 -23,25l0 -49z"/>
     </g>
     <g>
      <path class="fil5" d="M3786 2299l0 45c-11,0 -21,-10 -21,-23 0,-12 10,-22 21,-22zm483 0l0 45 -483 0 0 -45 483 0zm0 45l0 -45c12,0 21,10 21,22 0,13 -9,23 -21,23z"/>
     </g>
     <g>
      <path class="fil5" d="M4189 2201c-22,0 -40,-11 -40,-25 0,-13 18,-24 40,-24l0 49zm201 0l-201 0 0 -49 201 0 0 49zm0 -49c22,0 40,11 40,24 0,14 -18,25 -40,25l0 -49z"/>
     </g>
     <g>
      <path class="fil5" d="M4331 2346c-13,0 -23,-11 -23,-25 0,-13 10,-24 23,-24l0 49zm111 0l-111 0 0 -49 111 0 0 49zm0 -49c13,0 23,11 23,24 0,14 -10,25 -23,25l0 -49z"/>
     </g>
    </g>
   </g>
  </g>
 </g>
</svg>
