<?xml version="1.0" encoding="UTF-8"?>
<!DOCTYPE svg PUBLIC "-//W3C//DTD SVG 1.1//EN" "http://www.w3.org/Graphics/SVG/1.1/DTD/svg11.dtd">
<!-- Creator: CorelDRAW X7 -->
<svg xmlns="http://www.w3.org/2000/svg" xml:space="preserve" width="112px" height="79px" version="1.1" style="shape-rendering:geometricPrecision; text-rendering:geometricPrecision; image-rendering:optimizeQuality; fill-rule:evenodd; clip-rule:evenodd"
viewBox="0 0 2319 1641"
 xmlns:xlink="http://www.w3.org/1999/xlink">
 <defs>
  <style type="text/css">
   <![CDATA[
    .fil0 {fill:none}
    .fil1 {fill:#FEFEFE}
    .fil5 {fill:#00BAFF}
    .fil6 {fill:#1A4058}
    .fil7 {fill:#F9F9F9}
    .fil4 {fill:#00BAFF;fill-rule:nonzero}
    .fil2 {fill:#1A4058;fill-rule:nonzero}
    .fil3 {fill:#E69C24;fill-rule:nonzero}
   ]]>
  </style>
 </defs>
 <g id="Capa_x0020_1">
  <metadata id="CorelCorpID_0Corel-Layer"/>
  <g id="_1860841270384">
   <rect class="fil0" width="2319" height="1641"/>
   <g>
    <rect class="fil1" x="75" y="146" width="2018" height="1447"/>
    <g>
     <path class="fil2" d="M2081 1546l0 -550 39 0 0 550 0 0 -39 0zm-27 68l0 -40 0 0 1 0 2 0 1 0 1 0 2 -1 1 0 1 -1 1 0 2 -1 1 0 1 -1 1 -1 1 0 1 -1 1 -1 1 -1 1 -1 1 -1 1 -1 0 -1 1 -1 1 -2 0 -1 1 -1 0 -1 1 -2 0 -1 0 -1 1 -2 0 -1 0 -1 0 -2 39 0 0 4 -1 3 0 4 -1 3 0 3 -1 3 -1 3 -2 4 -1 3 -1 2 -2 3 -2 3 -1 3 -2 2 -2 3 -3 2 -2 2 -2 2 -3 2 -2 2 -3 2 -3 2 -3 1 -3 2 -3 1 -3 1 -3 1 -3 0 -3 1 -3 1 -4 0 -3 0 0 0zm-1953 -40l1953 0 0 40 -1953 0 0 0 0 -40zm-65 -28l38 0 0 0 0 2 0 1 1 1 0 2 0 1 1 1 0 2 0 1 1 1 1 1 0 2 1 1 1 1 1 1 0 1 1 1 1 1 1 1 1 1 1 0 1 1 2 1 1 0 1 1 1 0 1 1 2 0 1 1 1 0 2 0 1 0 1 0 0 40 -3 0 -3 0 -4 -1 -3 -1 -3 0 -3 -1 -3 -1 -3 -1 -3 -2 -3 -1 -3 -2 -2 -2 -3 -2 -2 -2 -3 -2 -2 -2 -2 -2 -2 -3 -2 -2 -2 -3 -2 -3 -1 -3 -2 -2 -1 -3 -1 -4 -1 -3 -1 -3 -1 -3 -1 -3 0 -4 0 -3 0 -4 0 0zm38 -1379l0 1379 -38 0 0 -1379 0 0 38 0zm27 -68l0 40 0 0 -1 0 -1 0 -2 0 -1 1 -1 0 -2 0 -1 1 -1 0 -1 1 -1 0 -2 1 -1 1 -1 1 -1 0 -1 1 -1 1 -1 1 0 1 -1 1 -1 1 -1 2 0 1 -1 1 -1 1 0 1 0 2 -1 1 0 1 0 2 -1 1 0 2 0 1 -38 0 0 -3 0 -4 0 -3 1 -4 1 -3 1 -3 1 -3 1 -3 1 -3 2 -3 1 -3 2 -3 2 -2 2 -3 2 -2 2 -3 2 -2 3 -2 2 -2 3 -2 2 -2 3 -1 3 -2 3 -1 3 -2 3 -1 3 -1 3 0 3 -1 4 0 3 -1 3 0 0 0zm1953 40l-1953 0 0 -40 1953 0 0 0 0 40zm66 28l-39 0 0 0 0 -1 0 -2 0 -1 -1 -2 0 -1 0 -1 -1 -2 0 -1 -1 -1 0 -1 -1 -1 -1 -2 0 -1 -1 -1 -1 -1 -1 -1 -1 -1 -1 -1 -1 0 -1 -1 -1 -1 -1 -1 -1 0 -2 -1 -1 0 -1 -1 -1 0 -2 0 -1 -1 -1 0 -2 0 -1 0 0 -40 3 0 4 1 3 0 3 1 3 0 3 1 3 1 3 2 3 1 3 2 3 1 3 2 2 2 3 2 2 2 2 2 3 3 2 2 2 3 1 2 2 3 2 3 1 3 1 3 2 3 1 3 1 3 0 3 1 4 0 3 1 4 0 3 0 0zm-39 365l0 -365 39 0 0 365 -39 0z"/>
    </g>
    <g>
     <polygon class="fil2" points="2107,397 61,397 61,363 2107,363 "/>
    </g>
    <g>
     <path class="fil3" d="M1795 221l-1026 0 0 -34 1026 0 0 0 0 34zm61 28l-33 0 0 0 0 -1 0 -2 0 -1 0 -1 -1 -2 0 -1 -1 -1 0 -2 -1 -1 0 -1 -1 -1 -1 -1 0 -1 -1 -2 -1 -1 -1 -1 -1 0 -1 -1 -1 -1 -1 -1 -1 -1 -2 0 -1 -1 -1 -1 -1 0 -2 -1 -1 0 -1 0 -2 -1 -1 0 -2 0 -1 0 0 -34 3 0 3 1 3 0 3 1 3 0 3 1 3 1 2 1 3 1 3 2 2 1 3 2 2 1 3 2 2 2 2 2 2 2 2 3 2 2 1 2 2 3 1 2 2 3 1 3 1 3 1 3 1 2 1 3 0 4 1 3 0 3 0 3 0 0zm-16 0l0 0 0 0 0 0 16 0 -16 0zm-45 62l0 -34 0 0 1 0 2 0 1 0 2 -1 1 0 1 0 2 -1 1 0 1 -1 1 -1 2 0 1 -1 1 -1 1 -1 1 -1 1 -1 1 -1 1 -1 1 -1 0 -1 1 -1 1 -1 0 -1 1 -1 0 -2 1 -1 0 -1 1 -2 0 -1 0 -1 0 -2 0 -1 33 0 0 3 0 3 -1 3 0 3 -1 3 -1 3 -1 3 -1 3 -1 3 -2 3 -1 2 -2 3 -1 2 -2 2 -2 3 -2 2 -2 2 -2 2 -3 2 -2 1 -3 2 -2 1 -3 2 -3 1 -2 1 -3 1 -3 1 -3 0 -3 1 -3 0 -3 1 -3 0 0 0zm-1026 -34l1026 0 0 34 -1026 0 0 0 0 -34zm-62 -28l33 0 0 0 0 1 1 2 0 1 0 1 0 2 1 1 0 1 1 2 0 1 1 1 0 1 1 1 1 1 1 1 1 1 1 1 1 1 1 1 1 1 1 1 1 1 1 0 1 1 2 1 1 0 1 1 2 0 1 0 1 1 2 0 1 0 2 0 0 34 -3 0 -4 -1 -3 0 -3 -1 -3 0 -2 -1 -3 -1 -3 -1 -3 -1 -2 -2 -3 -1 -2 -2 -3 -1 -2 -2 -2 -2 -2 -2 -2 -2 -2 -3 -2 -2 -2 -2 -2 -3 -1 -2 -1 -3 -2 -3 -1 -3 -1 -3 -1 -3 0 -3 -1 -3 0 -3 0 -3 -1 -3 0 0zm17 0l0 0 0 0 0 0 -17 0 17 0zm45 -62l0 34 0 0 -2 0 -1 0 -2 0 -1 1 -1 0 -2 0 -1 1 -1 0 -2 1 -1 1 -1 0 -1 1 -1 1 -1 1 -1 1 -1 0 -1 1 -1 1 -1 2 -1 1 -1 1 0 1 -1 1 0 1 -1 2 0 1 -1 1 0 2 0 1 0 1 -1 2 0 1 -33 0 1 -3 0 -3 0 -3 1 -4 0 -3 1 -2 1 -3 1 -3 2 -3 1 -3 1 -2 2 -3 2 -2 2 -2 2 -3 2 -2 2 -2 2 -2 2 -2 3 -1 2 -2 3 -1 2 -2 3 -1 3 -1 3 -1 2 -1 3 0 3 -1 3 0 4 -1 3 0 0 0z"/>
    </g>
    <g>
     <path class="fil3" d="M300 249l-33 0 0 0 0 -1 0 -2 0 -1 -1 -1 0 -2 0 -1 -1 -1 0 -1 -1 -1 0 -1 -1 -2 0 -1 -1 -1 -1 -1 -1 -1 0 -1 -1 0 -1 -1 -1 -1 -1 -1 -1 0 -1 -1 -1 -1 -2 0 -1 -1 -1 0 -1 0 -1 -1 -2 0 -1 0 -1 0 -1 0 0 -34 3 0 3 0 2 1 3 0 3 1 3 1 3 1 2 1 3 1 2 1 3 2 2 1 3 2 2 2 2 2 2 2 2 2 2 2 1 2 2 3 1 2 2 2 1 3 1 3 1 2 1 3 1 3 1 3 0 3 1 3 0 3 0 3 0 0zm-58 60l0 -34 0 0 1 0 1 0 1 0 2 0 1 -1 1 0 1 0 1 -1 2 0 1 -1 1 -1 1 0 1 -1 1 -1 1 -1 1 -1 0 0 1 -1 1 -1 1 -1 0 -1 1 -2 0 -1 1 -1 0 -1 1 -1 0 -1 0 -2 1 -1 0 -1 0 -2 0 -1 33 0 0 3 0 3 -1 3 0 3 -1 3 -1 3 -1 3 -1 2 -1 3 -1 3 -2 2 -1 2 -2 3 -1 2 -2 2 -2 2 -2 2 -2 2 -2 2 -3 2 -2 1 -3 2 -2 1 -3 1 -2 1 -3 1 -3 1 -3 1 -3 0 -2 1 -3 0 -3 0 0 0zm-59 -60l33 0 0 0 0 1 0 2 1 1 0 1 0 2 0 1 1 1 0 1 1 1 0 1 1 2 1 1 0 1 1 1 1 1 1 0 1 1 1 1 0 1 1 1 1 0 2 1 1 1 1 0 1 1 1 0 1 0 1 1 2 0 1 0 1 0 2 0 0 34 -3 0 -3 0 -3 -1 -3 0 -3 -1 -3 -1 -2 -1 -3 -1 -3 -1 -2 -1 -3 -2 -2 -1 -2 -2 -3 -2 -2 -2 -2 -2 -2 -2 -1 -2 -2 -2 -2 -3 -1 -2 -2 -2 -1 -3 -1 -3 -1 -2 -1 -3 -1 -3 -1 -3 0 -3 0 -3 -1 -3 0 -3 0 0zm59 -60l0 34 0 0 -2 0 -1 0 -1 0 -2 0 -1 1 -1 0 -1 0 -1 1 -1 0 -1 1 -2 1 -1 0 -1 1 -1 1 0 1 -1 0 -1 1 -1 1 -1 1 0 1 -1 1 -1 2 0 1 -1 1 0 1 -1 1 0 1 0 2 0 1 -1 1 0 2 0 1 -33 0 0 -3 1 -3 0 -3 0 -3 1 -3 1 -3 1 -3 1 -2 1 -3 1 -3 2 -2 1 -2 2 -3 2 -2 1 -2 2 -2 2 -2 3 -2 2 -2 2 -2 2 -1 3 -2 2 -1 3 -1 3 -1 2 -1 3 -1 3 -1 3 0 3 -1 3 0 3 0 0 0z"/>
    </g>
    <g>
     <path class="fil3" d="M448 249l-33 0 0 0 0 -1 0 -2 0 -1 0 -1 -1 -2 0 -1 0 -1 -1 -1 0 -1 -1 -1 -1 -2 0 -1 -1 -1 -1 -1 0 -1 -1 -1 -1 0 -1 -1 -1 -1 -1 -1 -1 0 -1 -1 -1 -1 -1 0 -2 -1 -1 0 -1 0 -1 -1 -1 0 -2 0 -1 0 -1 0 0 -34 3 0 3 0 3 1 3 0 2 1 3 1 3 1 3 1 2 1 3 1 2 2 2 1 3 2 2 2 2 2 2 2 2 2 2 2 2 2 1 3 2 2 1 2 1 3 2 3 1 2 0 3 1 3 1 3 0 3 1 3 0 3 0 3 0 0zm-58 60l0 -34 0 0 1 0 1 0 2 0 1 0 1 -1 1 0 1 0 2 -1 1 0 1 -1 1 -1 1 0 1 -1 1 -1 1 -1 1 -1 1 0 0 -1 1 -1 1 -1 0 -1 1 -2 1 -1 0 -1 1 -1 0 -1 0 -1 1 -2 0 -1 0 -1 0 -2 0 -1 33 0 0 3 0 3 -1 3 0 3 -1 3 -1 3 0 3 -1 2 -2 3 -1 3 -1 2 -2 2 -1 3 -2 2 -2 2 -2 2 -2 2 -2 2 -2 2 -3 2 -2 1 -2 2 -3 1 -2 1 -3 1 -3 1 -3 1 -2 1 -3 0 -3 1 -3 0 -3 0 0 0zm-59 -60l33 0 0 0 0 1 1 2 0 1 0 1 0 2 1 1 0 1 0 1 1 1 0 1 1 2 1 1 0 1 1 1 1 1 1 0 1 1 1 1 1 1 1 1 1 0 1 1 1 1 1 0 1 1 1 0 1 0 2 1 1 0 1 0 1 0 2 0 0 34 -3 0 -3 0 -3 -1 -3 0 -3 -1 -3 -1 -2 -1 -3 -1 -3 -1 -2 -1 -2 -2 -3 -1 -2 -2 -2 -2 -2 -2 -2 -2 -2 -2 -2 -2 -2 -2 -2 -3 -1 -2 -1 -2 -2 -3 -1 -3 -1 -2 -1 -3 -1 -3 0 -3 -1 -3 0 -3 0 -3 -1 -3 0 0zm59 -60l0 34 0 0 -2 0 -1 0 -1 0 -1 0 -2 1 -1 0 -1 0 -1 1 -1 0 -1 1 -1 1 -1 0 -1 1 -1 1 -1 1 -1 0 -1 1 -1 1 -1 1 0 1 -1 1 -1 2 0 1 -1 1 0 1 0 1 -1 1 0 2 0 1 0 1 -1 2 0 1 -33 0 1 -3 0 -3 0 -3 1 -3 0 -3 1 -3 1 -3 1 -2 1 -3 2 -3 1 -2 1 -2 2 -3 2 -2 2 -2 2 -2 2 -2 2 -2 2 -2 2 -2 3 -1 2 -2 2 -1 3 -1 3 -1 2 -1 3 -1 3 -1 3 0 3 -1 3 0 3 0 0 0z"/>
    </g>
    <g>
     <path class="fil3" d="M593 249l-33 0 0 0 0 -1 0 -2 0 -1 0 -1 0 -2 -1 -1 0 -1 -1 -1 0 -1 -1 -1 0 -2 -1 -1 -1 -1 0 -1 -1 -1 -1 -1 -1 0 -1 -1 -1 -1 -1 -1 -1 0 -1 -1 -1 -1 -1 0 -1 -1 -1 0 -2 0 -1 -1 -1 0 -1 0 -2 0 -1 0 0 -34 3 0 3 0 3 1 3 0 3 1 2 1 3 1 3 1 2 1 3 1 2 2 3 1 2 2 2 2 2 2 2 2 2 2 2 2 2 2 1 3 2 2 1 2 2 3 1 3 1 2 1 3 1 3 0 3 1 3 0 3 0 3 0 3 0 0zm-58 60l0 -34 0 0 1 0 2 0 1 0 1 0 1 -1 2 0 1 0 1 -1 1 0 1 -1 1 -1 1 0 1 -1 1 -1 1 -1 1 -1 1 0 1 -1 0 -1 1 -1 1 -1 0 -2 1 -1 0 -1 1 -1 0 -1 1 -1 0 -2 0 -1 0 -1 0 -2 0 -1 33 0 0 3 0 3 0 3 -1 3 0 3 -1 3 -1 3 -1 2 -1 3 -2 3 -1 2 -2 2 -1 3 -2 2 -2 2 -2 2 -2 2 -2 2 -2 2 -2 2 -3 1 -2 2 -3 1 -2 1 -3 1 -3 1 -2 1 -3 1 -3 0 -3 1 -3 0 -3 0 0 0zm-58 -60l33 0 0 0 0 1 0 2 0 1 0 1 0 2 1 1 0 1 1 1 0 1 1 1 0 2 1 1 1 1 0 1 1 1 1 0 1 1 1 1 1 1 1 1 1 0 1 1 1 1 1 0 1 1 2 0 1 0 1 1 1 0 1 0 2 0 1 0 0 34 -3 0 -3 0 -3 -1 -3 0 -3 -1 -2 -1 -3 -1 -3 -1 -2 -1 -3 -1 -2 -2 -3 -1 -2 -2 -2 -2 -2 -2 -2 -2 -2 -2 -2 -2 -2 -2 -1 -3 -2 -2 -1 -2 -2 -3 -1 -3 -1 -2 -1 -3 0 -3 -1 -3 -1 -3 0 -3 0 -3 0 -3 0 0zm58 -60l0 34 0 0 -1 0 -2 0 -1 0 -1 0 -1 1 -1 0 -2 0 -1 1 -1 0 -1 1 -1 1 -1 0 -1 1 -1 1 -1 1 -1 0 -1 1 -1 1 0 1 -1 1 -1 1 0 2 -1 1 0 1 -1 1 0 1 -1 1 0 2 0 1 0 1 0 2 0 1 -33 0 0 -3 0 -3 0 -3 1 -3 1 -3 0 -3 1 -3 1 -2 1 -3 2 -3 1 -2 2 -2 1 -3 2 -2 2 -2 2 -2 2 -2 2 -2 2 -2 2 -2 3 -1 2 -2 3 -1 2 -1 3 -1 3 -1 2 -1 3 -1 3 0 3 -1 3 0 3 0 0 0z"/>
    </g>
    <g>
     <path class="fil4" d="M755 576l-489 0 0 -33 489 0 0 0 0 33zm55 22l-33 0 0 0 0 -1 0 -1 0 -1 0 -1 -1 -1 0 -1 0 -1 -1 -1 0 -1 0 -1 -1 -1 -1 -1 0 -1 -1 0 -1 -1 0 -1 -1 -1 -1 0 -1 -1 -1 -1 -1 0 0 -1 -1 0 -1 -1 -1 0 -1 -1 -2 0 -1 0 -1 0 -1 0 -1 -1 -1 0 0 -33 3 0 2 0 3 0 3 1 3 0 2 1 3 1 2 1 3 1 2 1 2 2 3 1 2 2 2 1 2 2 2 2 2 2 1 2 2 2 2 2 1 2 1 3 2 2 1 2 1 3 1 3 0 2 1 3 0 3 1 3 0 2 0 3 0 0zm-33 266l0 -266 33 0 0 266 0 0 -33 0zm-22 56l0 -34 0 0 1 0 1 0 1 0 1 -1 1 0 2 0 1 -1 1 0 1 0 1 -1 0 0 1 -1 1 -1 1 0 1 -1 1 -1 0 0 1 -1 1 -1 0 -1 1 -1 1 -1 0 -1 0 -1 1 -1 0 -1 0 -1 1 -1 0 -1 0 -1 0 -1 0 -1 33 0 0 3 0 3 -1 3 0 2 -1 3 0 3 -1 2 -1 3 -1 2 -2 3 -1 2 -1 2 -2 3 -2 2 -1 2 -2 2 -2 1 -2 2 -2 2 -2 1 -3 2 -2 1 -2 1 -3 1 -2 1 -3 1 -2 1 -3 1 -3 0 -3 0 -2 1 -3 0 0 0zm-489 -34l489 0 0 34 -489 0 0 0 0 -34zm-55 -22l33 0 0 0 0 1 0 1 0 1 0 1 0 1 1 1 0 1 0 1 1 1 0 1 1 1 0 1 1 1 1 1 0 1 1 0 1 1 1 1 0 0 1 1 1 1 1 0 1 1 1 0 1 0 1 1 1 0 1 0 1 1 2 0 1 0 1 0 0 34 -3 0 -3 -1 -2 0 -3 0 -3 -1 -2 -1 -3 -1 -2 -1 -3 -1 -2 -1 -3 -1 -2 -2 -2 -1 -2 -2 -2 -2 -2 -1 -2 -2 -2 -2 -1 -2 -2 -3 -1 -2 -2 -2 -1 -3 -1 -2 -1 -3 -1 -2 -1 -3 0 -3 -1 -2 0 -3 0 -3 0 -3 0 0zm33 -266l0 266 -33 0 0 -266 0 0 33 0zm22 -55l0 33 0 0 -1 0 -1 1 -2 0 -1 0 -1 0 -1 0 -1 1 -1 0 -1 1 -1 0 -1 1 -1 0 -1 1 0 1 -1 0 -1 1 -1 1 0 1 -1 0 -1 1 0 1 -1 1 0 1 -1 1 0 1 0 1 -1 1 0 1 0 1 0 1 0 1 0 1 -33 0 0 -3 0 -2 0 -3 1 -3 0 -3 1 -2 1 -3 1 -3 1 -2 1 -2 2 -3 1 -2 2 -2 1 -2 2 -2 2 -2 2 -2 2 -2 2 -1 2 -2 2 -1 3 -2 2 -1 3 -1 2 -1 3 -1 2 -1 3 0 3 -1 2 0 3 0 3 0 0 0z"/>
    </g>
    <g>
     <path class="fil5" d="M1012 574l0 0 0 10 0 0c0,9 -7,17 -17,17 -9,0 -16,-8 -16,-17l0 0 0 -10c0,-18 14,-33 32,-33l1 0 0 0 33 0 0 0c9,0 16,7 16,16 0,10 -7,17 -16,17l0 0 -33 0zm132 0l0 0c-9,0 -17,-7 -17,-17 0,-9 8,-16 17,-16l0 0 33 0 0 0c9,0 16,7 16,16 0,10 -7,17 -16,17l0 0 -33 0zm132 0l-1 0c-9,0 -16,-7 -16,-17 0,-9 7,-16 16,-16l1 0 32 0 0 0c10,0 17,7 17,16 0,10 -7,17 -17,17l0 0 -32 0zm131 0l0 0c-9,0 -16,-7 -16,-17 0,-9 7,-16 16,-16l0 0 33 0 0 0c9,0 17,7 17,16 0,10 -8,17 -17,17l0 0 -33 0zm104 29l0 0c0,-9 7,-17 16,-17 9,0 17,8 17,17l0 0 0 34 0 0c0,10 -8,17 -17,17 -9,0 -16,-7 -16,-17l0 0 0 -34zm0 136l0 0c0,-10 7,-17 16,-17 9,0 17,7 17,17l0 0 0 34 0 0c0,9 -8,17 -17,17 -9,0 -16,-8 -16,-17l0 0 0 -34zm0 135l0 0c0,-9 7,-17 16,-17 9,0 17,8 17,17l0 0 0 5c0,19 -15,34 -33,34l-28 0 -1 0c-9,0 -16,-8 -16,-17 0,-8 5,-14 12,-16l0 -1 4 0 1 0 28 0 0 -5zm-127 5l0 0c9,0 16,7 16,17 0,9 -7,17 -16,17l0 0 -33 0 0 0c-9,0 -17,-8 -17,-17 0,-10 8,-17 17,-17l0 0 33 0zm-132 0l0 0c9,0 16,7 16,17 0,9 -7,17 -16,17l0 0 -33 0 0 0c-9,0 -17,-8 -17,-17 0,-10 8,-17 17,-17l0 0 33 0zm-132 0l0 0c9,0 17,7 17,17 0,9 -8,17 -17,17l0 0 -33 0 0 0c-9,0 -16,-8 -16,-17 0,-10 7,-17 16,-17l0 0 33 0zm-108 -24l0 0c0,9 -7,17 -17,17 -9,0 -16,-8 -16,-17l0 0 0 -34 0 0c0,-10 7,-17 16,-17 10,0 17,7 17,17l0 0 0 34zm0 -136l0 0c0,10 -7,17 -17,17 -9,0 -16,-7 -16,-17l0 0 0 -34 0 0c0,-9 7,-17 16,-17 10,0 17,8 17,17l0 0 0 34z"/>
    </g>
    <g>
     <path class="fil4" d="M236 1068c-9,0 -17,-8 -17,-17 0,-10 8,-17 17,-17l0 34zm203 0l-203 0 0 -34 203 0 0 34zm0 -34c9,0 17,7 17,17 0,9 -8,17 -17,17l0 -34z"/>
    </g>
    <g>
     <path class="fil4" d="M481 1068c-10,0 -17,-8 -17,-17 0,-10 7,-17 17,-17l0 34zm203 0l-203 0 0 -34 203 0 0 34zm0 -34c9,0 16,7 16,17 0,9 -7,17 -16,17l0 -34z"/>
    </g>
    <g>
     <path class="fil4" d="M721 1067c-9,0 -16,-8 -16,-17 0,-10 7,-17 16,-17l0 34zm83 0l-83 0 0 -34 83 0 0 34zm0 -34c9,0 16,7 16,17 0,9 -7,17 -16,17l0 -34z"/>
    </g>
    <g>
     <path class="fil4" d="M226 1168c-10,0 -17,-8 -17,-17 0,-10 7,-17 17,-17l0 34zm314 0l-314 0 0 -34 314 0 0 34zm0 -34c9,0 17,7 17,17 0,9 -8,17 -17,17l0 -34z"/>
    </g>
    <g>
     <path class="fil4" d="M577 1168c-9,0 -17,-7 -17,-17 0,-9 8,-17 17,-17l0 34zm225 0l-225 0 0 -34 225 0 0 34zm0 -34c9,0 17,8 17,17 0,10 -8,17 -17,17l0 -34z"/>
    </g>
    <g>
     <path class="fil4" d="M969 1067c-9,0 -16,-8 -16,-17 0,-10 7,-17 16,-17l0 34zm226 0l-226 0 0 -34 226 0 0 34zm0 -34c9,0 16,7 16,17 0,9 -7,17 -16,17l0 -34z"/>
    </g>
    <g>
     <path class="fil4" d="M1243 1068c-9,0 -16,-7 -16,-17 0,-9 7,-17 16,-17l0 34zm199 0l-199 0 0 -34 199 0 0 34zm0 -34c9,0 17,8 17,17 0,10 -8,17 -17,17l0 -34z"/>
    </g>
    <g>
     <path class="fil4" d="M987 1167c-9,0 -17,-8 -17,-17 0,-9 8,-17 17,-17l0 34zm301 0l-301 0 0 -34 301 0 0 34zm0 -34c9,0 17,8 17,17 0,9 -8,17 -17,17l0 -34z"/>
    </g>
    <g>
     <path class="fil4" d="M1327 1165c-9,0 -17,-7 -17,-17 0,-9 8,-17 17,-17l0 34zm83 0l-83 0 0 -34 83 0 0 34zm0 -34c9,0 16,8 16,17 0,10 -7,17 -16,17l0 -34z"/>
    </g>
    <g>
     <path class="fil4" d="M982 1271c-9,0 -16,-7 -16,-17 0,-9 7,-17 16,-17l0 34zm226 0l-226 0 0 -34 226 0 0 34zm0 -34c9,0 16,8 16,17 0,10 -7,17 -16,17l0 -34z"/>
    </g>
    <g>
     <path class="fil4" d="M228 1271c-9,0 -16,-7 -16,-17 0,-9 7,-17 16,-17l0 34zm575 0l-575 0 0 -34 575 0 0 34zm0 -34c9,0 16,8 16,17 0,10 -7,17 -16,17l0 -34z"/>
    </g>
    <g>
     <path class="fil4" d="M225 1371c-9,0 -16,-7 -16,-17 0,-9 7,-17 16,-17l0 34zm575 0l-575 0 0 -34 575 0 0 34zm0 -34c9,0 16,8 16,17 0,10 -7,17 -16,17l0 -34z"/>
    </g>
    <g>
     <path class="fil4" d="M982 1373c-9,0 -16,-8 -16,-17 0,-10 7,-17 16,-17l0 34zm379 0l-379 0 0 -34 379 0 0 34zm0 -34c9,0 16,7 16,17 0,9 -7,17 -16,17l0 -34z"/>
    </g>
    <path class="fil6" d="M1656 1320c6,-39 -19,-49 -48,-36l-19 136c32,15 22,34 51,22l89 -38c13,-5 20,-6 21,-22 1,-29 -27,-37 -48,-25 5,-28 -8,-52 -46,-37zm-72 -40c5,-7 9,-13 13,-19 5,-8 9,-13 16,-18 3,-9 86,-118 99,-136l101 -136c17,-22 33,-44 50,-67l152 -203c19,10 147,118 174,136 -5,10 -9,14 -15,23 -7,8 -11,15 -17,23 -13,16 -22,30 -35,46 -115,152 -230,313 -347,466 -19,26 -10,21 -44,36 -20,9 -38,16 -57,25 -17,7 -103,48 -115,44l9 -110c3,-21 9,-96 16,-110zm180 2c2,-2 7,-9 9,-13l300 -412c-1,-3 -5,-4 -9,-7l-159 216c-35,48 -83,118 -117,162 -7,9 -36,48 -39,56 10,4 7,7 15,-2zm-53 -30c10,-6 153,-208 159,-215l138 -190c5,-7 16,-19 19,-27l-10 -6 -79 108c-18,25 -232,314 -235,325l8 5z"/>
    <path class="fil6" d="M2121 748l-5 -2c-8,-5 -13,-5 -17,-15l-67 -52c9,-18 49,-73 66,-80 38,-15 64,17 99,45 14,11 26,21 41,31 57,43 5,92 -23,130 -5,7 -5,7 -10,11l-60 -48c-5,-4 -7,-5 -11,-8 -3,-2 -4,-3 -6,-5 -6,-5 -2,0 -7,-7z"/>
    <path class="fil7" d="M1656 1320c38,-15 51,9 46,37 21,-12 49,-4 48,25 -1,16 -8,17 -21,22l-89 38c-29,12 -19,-7 -51,-22l19 -136c29,-13 54,-3 48,36z"/>
    <path class="fil7" d="M2027 820c-3,8 -14,20 -19,27l-138 190c-6,7 -149,209 -159,215l-8 -5c3,-11 217,-300 235,-325l79 -108 10 6z"/>
    <path class="fil7" d="M2073 857l-300 412c-2,4 -7,11 -9,13 -8,9 -5,6 -15,2 3,-8 32,-47 39,-56 34,-44 82,-114 117,-162l159 -216c4,3 8,4 9,7z"/>
   </g>
  </g>
 </g>
</svg>
