<?xml version="1.0" encoding="UTF-8"?>
<!DOCTYPE svg PUBLIC "-//W3C//DTD SVG 1.1//EN" "http://www.w3.org/Graphics/SVG/1.1/DTD/svg11.dtd">
<!-- Creator: CorelDRAW X7 -->
<svg xmlns="http://www.w3.org/2000/svg" xml:space="preserve" width="2647px" height="1850px" version="1.1" style="shape-rendering:geometricPrecision; text-rendering:geometricPrecision; image-rendering:optimizeQuality; fill-rule:evenodd; clip-rule:evenodd"
viewBox="0 0 3631 2538"
 xmlns:xlink="http://www.w3.org/1999/xlink">
 <defs>
  <style type="text/css">
   <![CDATA[
    .fil8 {fill:#00BAFF}
    .fil3 {fill:#1E4158}
    .fil10 {fill:#2F2D41}
    .fil4 {fill:#3F3D55}
    .fil9 {fill:#CCCCCC}
    .fil1 {fill:#E69C24}
    .fil0 {fill:#EAEBEC}
    .fil6 {fill:#EBB152}
    .fil5 {fill:#F0C37A}
    .fil2 {fill:#FEFEFE}
    .fil11 {fill:#FFB8B8}
    .fil7 {fill:white}
    .fil12 {fill:#1E4158;fill-rule:nonzero}
   ]]>
  </style>
 </defs>
 <g id="Capa_x0020_1">
  <metadata id="CorelCorpID_0Corel-Layer"/>
  <rect class="fil0" width="3631" height="2538"/>
  <g id="_2849007937040">
   <path class="fil1" d="M1095 1168c-5,-18 -2,-93 -2,-119 0,-15 -6,-46 11,-49l541 0c80,0 68,-9 68,52 0,25 3,98 -2,116 -15,5 -602,5 -616,0zm-217 -155c2,5 5,12 1,18 -4,4 -10,7 -17,3 -11,-7 -9,-27 16,-21zm-56 1c15,-11 26,11 14,19 -12,10 -29,-8 -14,-19zm-44 19c-7,-30 29,-30 21,-1 -10,5 -9,5 -21,1zm-39 0c-8,-30 28,-30 21,-1 -11,5 -10,5 -21,1zm-40 -1c-8,-29 28,-29 21,1 -11,4 -11,4 -21,-1zm174 -49c-18,2 -23,-20 -8,-24 16,-4 23,15 8,24zm-36 -2c-29,8 -29,-28 1,-21 5,12 4,11 -1,21zm-40 -1c-15,11 -27,-8 -17,-18 10,-10 29,2 17,18zm-59 0c-2,-10 -2,-21 11,-21 14,0 13,12 11,21 -11,5 -11,5 -22,0zm-40 0c-2,-9 -3,-21 11,-21 13,0 13,11 11,21 -11,5 -11,5 -22,0zm1517 -130c114,-22 145,152 32,174 -115,22 -148,-152 -32,-174zm265 -190c0,-17 1,-18 19,-18 52,0 229,-4 267,2 5,38 2,225 2,277 0,17 -2,20 -18,20l-251 0c-15,0 -19,-2 -19,-17l0 -264zm-1617 249c15,-11 24,11 14,19 -9,7 -22,1 -20,-11 1,-8 3,-6 6,-8zm-25 20c-29,7 -30,-28 0,-21 5,11 4,10 0,21zm-40 0c-23,5 -27,-13 -16,-21 14,-9 23,6 16,21zm-40 -2c-17,12 -27,-8 -18,-18 10,-9 30,2 18,18zm-38 1c-17,7 -30,-3 -21,-17 7,-11 26,-7 21,17zm118 -52c-30,8 -29,-28 0,-21 5,11 5,11 0,21zm-40 1c-9,2 -21,3 -21,-11 0,-13 11,-13 21,-11 5,11 5,11 0,22zm-54 -22c15,-8 24,16 11,22 -15,7 -27,-15 -11,-22zm-40 0c15,-8 25,15 11,22 -15,7 -26,-14 -11,-22zm134 -31c-29,7 -30,-28 0,-21 5,11 5,10 0,21zm-40 0c-10,2 -21,2 -21,-11 0,-14 12,-12 21,-10 5,10 5,10 0,21zm-54 -22c16,-8 24,16 11,22 -15,8 -27,-14 -11,-22zm-40 0c15,-7 25,16 11,22 -15,8 -26,-14 -11,-22zm134 -31c-30,8 -29,-28 0,-21 4,11 5,10 0,21zm-40 1c-29,6 -30,-29 0,-22 5,11 5,11 0,22zm-54 -22c16,-8 24,15 11,22 -15,8 -27,-14 -11,-22zm-24 2c5,23 -14,27 -21,16 -10,-14 4,-24 21,-16zm118 -33c-29,7 -30,-28 -1,-21 5,10 6,9 1,21zm-53 -22c14,-7 23,15 10,22 -14,8 -28,-14 -10,-22zm-25 2c5,24 -14,27 -21,17 -10,-14 4,-24 21,-17zm-40 0c5,24 -15,27 -21,17 -9,-14 4,-24 21,-17zm1342 42c-4,-5 -3,-5 -4,-11 0,-1 2,-10 2,-12 1,-8 1,-14 4,-21 12,1 35,4 42,11 -7,6 -17,1 -29,-1 10,23 82,109 82,123 -11,0 -39,-47 -46,-58 -8,-11 -37,-54 -44,-59l-4 23c-3,7 0,1 -3,5zm-225 -71c0,59 0,119 0,178 0,47 8,65 -21,65 -29,1 -59,0 -88,0l-708 0c-42,0 -51,9 -51,-34l0 -618c0,-115 -14,-95 81,-95 235,0 471,0 706,0 95,0 81,-19 81,92 35,1 70,1 104,1 21,0 85,-6 96,7 11,14 5,252 5,301 0,22 6,86 -7,97 -15,12 -164,4 -198,6zm983 -135c17,3 19,23 6,28 -10,5 -190,2 -217,2l-163 0c-18,-2 -21,-22 -5,-29l379 -1zm-482 18c3,-8 14,-19 22,-23 -1,13 -2,0 -10,18 10,0 23,-2 31,2 -5,7 -7,3 -31,4 6,12 6,4 11,17 -13,-3 -8,-4 -23,-18zm577 -6c-4,-6 -11,-10 -10,-14 1,-1 -2,-6 6,0l16 17c-8,17 -33,29 -19,13 3,-5 3,-4 7,-9 -8,0 -13,0 -20,0 -11,0 -8,1 -12,-6l32 -1zm-336 -127c-3,-31 26,-27 30,-13 3,11 -3,19 -11,21 -9,2 -14,-4 -19,-8zm-58 -22c20,-10 29,22 13,29 -20,8 -32,-19 -13,-29zm-45 22c-17,15 -36,7 -30,-13 3,-15 33,-17 30,13zm327 -44c-38,6 -30,-43 5,-25 4,15 4,13 -5,25zm-217 0c-18,-23 -1,-37 21,-26 6,20 2,30 -21,26zm-140 -23c23,-17 36,0 26,22 -18,5 -29,-1 -26,-22zm408 -6c31,-3 27,25 13,30 -20,5 -28,-13 -13,-30zm-119 0c5,5 11,10 8,20 -3,7 -10,12 -20,10 -15,-4 -19,-33 12,-30zm-82 0c32,-3 27,26 13,30 -10,3 -19,-3 -20,-12 -2,-9 3,-13 7,-18zm-118 0c14,17 7,35 -13,30 -14,-5 -19,-33 13,-30zm246 -25c-5,-18 0,-29 22,-26 10,14 10,14 3,28 -12,4 -15,3 -25,-2zm-200 0c-5,-15 -4,-13 5,-26 13,-2 14,1 24,7l-3 19c-10,6 -16,5 -26,0zm-135 -2c-3,-22 8,-28 26,-22 5,11 8,19 -4,26 -11,7 -14,1 -22,-4zm407 -21c19,-14 34,15 17,25 -9,6 -19,2 -22,-5 -6,-11 -1,-16 5,-20zm-118 27c-31,3 -27,-26 -13,-30 20,-5 28,13 13,30zm-83 -27c20,-15 34,16 18,25 -15,9 -27,-6 -25,-16 3,-8 4,-6 7,-9zm-133 -1c19,-13 33,16 17,26 -16,11 -36,-13 -17,-26zm291 -45c2,32 -26,26 -30,12 -3,-10 3,-18 11,-20 9,-2 13,3 19,8zm-231 0c6,-5 11,-11 21,-8 7,3 12,10 9,20 -4,14 -33,20 -30,-12zm295 -5c9,25 -12,36 -24,23 -13,-13 -2,-31 24,-23zm-151 -2c20,-8 28,22 12,29 -15,6 -28,-9 -21,-22 4,-8 4,-5 9,-7zm-67 0c20,-9 29,21 12,29 -11,4 -19,-1 -22,-8 -5,-14 3,-18 10,-21zm-134 0c21,-8 29,21 12,28 -9,4 -18,0 -21,-7 -8,-19 9,-21 9,-21zm-66 -1c19,-6 29,23 11,30 -21,8 -33,-22 -11,-30zm354 -28c-6,5 -11,11 -21,7 -7,-2 -12,-10 -9,-20 4,-14 32,-19 30,13zm-231 0c-3,-32 26,-27 30,-13 6,20 -13,27 -30,13zm-125 -21c19,-9 31,18 14,27 -9,5 -18,1 -21,-6 -7,-13 0,-18 7,-21zm420 26c-26,8 -37,-11 -24,-24 12,-12 33,-2 24,24zm-152 -27c20,-9 31,21 13,29 -20,9 -33,-20 -13,-29zm-67 1c19,-9 31,21 12,28 -10,4 -18,-2 -21,-8 -7,-16 7,-20 9,-20zm-140 26c-9,-26 11,-37 24,-24 12,13 2,32 -24,24zm-1453 -138c-253,18 -446,203 -482,439 -11,72 -6,361 -6,453l0 174c-1,51 5,41 114,58 34,6 66,11 100,16 694,108 1422,126 2120,-11 33,-6 64,-13 96,-19 38,-7 29,-21 29,-87l0 -979c0,-56 -2,-45 -128,-45l-1614 0c-72,0 -158,-4 -229,1z"/>
   <path class="fil1" d="M1251 824c-2,-18 4,-17 20,-17l181 0c9,0 27,-3 31,6 6,12 -6,15 -16,15l-198 0c-11,0 -11,0 -18,-4zm-152 -99c37,-10 69,15 76,44 10,38 -14,68 -42,77 -36,12 -70,-13 -79,-41 -12,-41 14,-72 45,-80zm152 36c-2,-17 2,-17 18,-17l-3 0c74,-1 457,-4 498,1 4,10 4,9 0,18 -28,5 -95,2 -129,2 -60,0 -368,4 -384,-4zm580 -92c-43,0 -646,2 -655,-1 -16,-6 -14,-23 -14,-40l0 -274c0,-27 -10,-87 15,-94 14,-4 607,-1 654,-1 0,-17 5,-73 -3,-83 -5,-5 2,-2 -9,-4 -2,0 -11,0 -13,0 -236,3 -486,0 -723,0l-80 0c-21,0 -19,-2 -25,5 -7,8 -3,327 -3,363 0,49 -3,342 2,365 18,5 374,2 425,2 48,0 414,4 427,-3 8,-14 2,-202 2,-235z"/>
   <path class="fil1" d="M1562 514l15 2 -1 17 -16 2 -198 0 -17 -2 0 -17 14 -2 203 0zm275 -248l0 126 22 3c4,20 -3,18 -22,19l0 40c11,0 24,-2 24,10 -1,12 -12,11 -24,11l0 186c-5,-1 -6,3 -6,-18 1,-53 -2,-121 1,-168 -63,-1 -463,4 -487,-2l0 -17c23,-6 426,-2 487,-2l-1 -40c-82,-1 -164,0 -246,0 -31,0 -227,4 -240,-5 -3,-24 25,-16 47,-16l439 0 0 -127c-61,0 -643,-3 -653,2 -13,9 -9,25 -9,43 0,63 -3,327 4,348 24,7 575,3 650,3 37,0 74,0 111,0 22,0 93,4 99,-8 5,-20 3,-369 -1,-384 -18,-8 -161,-5 -195,-4z"/>
   <path class="fil1" d="M1295 1106c-1,-10 3,-11 14,-11 36,0 121,-3 151,1l0 12c-23,3 -154,5 -165,-2zm-108 -70c57,-14 78,71 22,87 -57,16 -83,-72 -22,-87zm475 25c-13,7 -279,3 -336,3 -12,1 -38,5 -30,-12 17,-6 273,-2 332,-2 17,0 35,-6 34,11zm-564 -42c0,33 -2,117 1,145 10,4 594,5 608,0 4,-27 2,-112 2,-145 0,-13 -1,-15 -14,-15l-584 0c-13,0 -13,3 -13,15z"/>
   <path class="fil1" d="M2692 869c12,0 15,0 15,13 -29,4 -138,4 -166,0 0,-13 3,-13 15,-13l136 0zm14 -33c-6,4 -3,4 -12,4l-140 0c-9,0 -6,0 -12,-4 -1,-11 4,-12 14,-12l136 0c12,0 15,-1 14,12zm-97 -134c59,-19 89,68 30,89 -59,21 -89,-70 -30,-89zm154 226c1,-2 1,-6 1,-9 0,-51 2,-257 -2,-271 -28,-3 -251,-3 -276,0 -4,30 -2,227 -2,273 0,12 2,15 15,15 51,0 223,3 262,-1l2 -7z"/>
   <path class="fil1" d="M2195 929c7,-4 15,-3 25,-3l2 -23c0,-1 0,-1 1,-2 4,-9 11,-8 15,-1 3,7 1,20 2,28 11,0 24,-1 32,4 2,18 -16,13 -33,13 0,18 5,35 -13,33 -5,-8 -4,-21 -4,-32 -8,-1 -21,1 -28,-2 -8,-3 -9,-11 1,-15zm-47 20c14,107 182,86 165,-25 -16,-107 -180,-86 -165,25z"/>
   <path class="fil2" d="M1831 266l6 0c34,-1 177,-4 195,4 4,15 6,364 1,384 -6,12 -77,8 -99,8 -37,0 -74,0 -111,0 -75,0 -626,4 -650,-3 -7,-21 -4,-285 -4,-348 0,-18 -4,-34 9,-43 10,-5 592,-2 653,-2zm0 403l6 1c34,-2 183,6 198,-6 13,-11 7,-75 7,-97 0,-49 6,-287 -5,-301 -11,-13 -75,-7 -96,-7 -34,0 -69,0 -104,-1l-6 1c-47,0 -640,-3 -654,1 -25,7 -15,67 -15,94l0 274c0,17 -2,34 14,40 9,3 612,1 655,1z"/>
   <path class="fil3" d="M1837 670l-6 -1c0,33 6,221 -2,235 -13,7 -379,3 -427,3 -51,0 -407,3 -425,-2 -5,-23 -2,-316 -2,-365 0,-36 -4,-355 3,-363 6,-7 4,-5 25,-5l80 0c237,0 487,3 723,0 2,0 11,0 13,0 11,2 4,-1 9,4 8,10 3,66 3,83l6 -1c0,-111 14,-92 -81,-92 -235,0 -471,0 -706,0 -95,0 -81,-20 -81,95l0 618c0,43 9,34 51,34l708 0c29,0 59,1 88,0 29,0 21,-18 21,-65 0,-59 0,-119 0,-178z"/>
   <path class="fil2" d="M1099 725c-31,8 -57,39 -45,80 9,28 43,53 79,41 28,-9 52,-39 42,-77 -7,-29 -39,-54 -76,-44z"/>
   <path class="fil3" d="M2441 536c-16,7 -13,27 5,29l163 0c27,0 207,3 217,-2 13,-5 11,-25 -6,-28l-379 1z"/>
   <path class="fil2" d="M1832 475l5 0c12,0 23,1 24,-11 0,-12 -13,-10 -24,-10l-5 0c-61,0 -464,-4 -487,2l0 17c24,6 424,1 487,2z"/>
   <path class="fil3" d="M1251 761c16,8 324,4 384,4 34,0 101,3 129,-2 4,-9 4,-8 0,-18 -41,-5 -424,-2 -498,-1l3 0c-16,0 -20,0 -18,17z"/>
   <path class="fil2" d="M1831 414l6 0c19,-1 26,1 22,-19l-22 -3 -6 1 -439 0c-22,0 -50,-8 -47,16 13,9 209,5 240,5 82,0 164,-1 246,0z"/>
   <path class="fil2" d="M2609 702c-59,19 -29,110 30,89 59,-21 29,-108 -30,-89z"/>
   <path class="fil3" d="M1098 1019c0,-12 0,-15 13,-15l584 0c13,0 14,2 14,15 0,33 2,118 -2,145 -14,5 -598,4 -608,0 -3,-28 -1,-112 -1,-145zm-3 149c14,5 601,5 616,0 5,-18 2,-91 2,-116 0,-61 12,-52 -68,-52l-541 0c-17,3 -11,34 -11,49 0,26 -3,101 2,119z"/>
   <path class="fil2" d="M1187 1036c-61,15 -35,103 22,87 56,-16 35,-101 -22,-87z"/>
   <path class="fil2" d="M1296 1052c-8,17 18,13 30,12 57,0 323,4 336,-3 1,-17 -17,-11 -34,-11 -59,0 -315,-4 -332,2z"/>
   <path class="fil3" d="M2761 935c-39,4 -211,1 -262,1 -13,0 -15,-3 -15,-15 0,-46 -2,-243 2,-273 25,-3 248,-3 276,0 4,14 2,220 2,271 0,3 0,7 -1,9l-2 7zm-281 -275l0 264c0,15 4,17 19,17l251 0c16,0 18,-3 18,-20 0,-52 3,-239 -2,-277 -38,-6 -215,-2 -267,-2 -18,0 -19,1 -19,18z"/>
   <polygon class="fil2" points="1345,516 1345,533 1362,535 1560,535 1576,533 1577,516 1562,514 1359,514 "/>
   <path class="fil2" d="M1251 824c7,4 7,4 18,4l198 0c10,0 22,-3 16,-15 -4,-9 -22,-6 -31,-6l-181 0c-16,0 -22,-1 -20,17z"/>
   <path class="fil3" d="M2148 949c-15,-111 149,-132 165,-25 17,111 -151,132 -165,25zm67 -99c-116,22 -83,196 32,174 113,-22 82,-196 -32,-174z"/>
   <path class="fil2" d="M1295 1106c11,7 142,5 165,2l0 -12c-30,-4 -115,-1 -151,-1 -11,0 -15,1 -14,11z"/>
   <path class="fil2" d="M2541 882c28,4 137,4 166,0 0,-13 -3,-13 -15,-13l-136 0c-12,0 -15,0 -15,13z"/>
   <path class="fil2" d="M2542 836c6,4 3,4 12,4l140 0c9,0 6,0 12,-4 1,-13 -2,-12 -14,-12l-136 0c-10,0 -15,1 -14,12z"/>
   <path class="fil2" d="M2223 901l-1 28 -27 0c-10,4 -9,12 -1,15 7,3 20,1 28,2 0,11 -1,24 4,32 18,2 13,-15 13,-33 17,0 35,5 33,-13 -8,-5 -21,-4 -32,-4 -1,-8 1,-21 -2,-28 -4,-7 -11,-8 -15,1z"/>
   <path class="fil2" d="M2062 741c3,-4 0,2 3,-5l4 -23c7,5 36,48 44,59 7,11 35,58 46,58 0,-14 -72,-100 -82,-123 12,2 22,7 29,1 -7,-7 -30,-10 -42,-11 -3,7 -3,13 -4,21 0,2 -2,11 -2,12 1,6 0,6 4,11z"/>
   <path class="fil4" d="M1837 475l-5 0c-3,47 0,115 -1,168 0,21 1,17 6,18l0 -186z"/>
   <path class="fil5" d="M2522 246c0,0 -17,2 -9,21 3,7 12,11 21,7 17,-7 9,-36 -12,-28z"/>
   <path class="fil5" d="M2722 195c-20,9 -7,38 13,29 18,-8 7,-38 -13,-29z"/>
   <path class="fil5" d="M2723 246c-5,2 -5,-1 -9,7 -7,13 6,28 21,22 16,-7 8,-37 -12,-29z"/>
   <path class="fil5" d="M2656 246c-7,3 -15,7 -10,21 3,7 11,12 22,8 17,-8 8,-38 -12,-29z"/>
   <path class="fil5" d="M2803 376c9,-12 9,-10 5,-25 -35,-18 -43,31 -5,25z"/>
   <path class="fil5" d="M2456 245c-22,8 -10,38 11,30 18,-7 8,-36 -11,-30z"/>
   <path class="fil5" d="M2853 299c-6,4 -11,9 -5,20 3,7 13,11 22,5 17,-10 2,-39 -17,-25z"/>
   <path class="fil5" d="M2655 196c-2,0 -16,4 -9,20 3,6 11,12 21,8 19,-7 7,-37 -12,-28z"/>
   <path class="fil5" d="M2519 298c-19,13 1,37 17,26 16,-10 2,-39 -17,-26z"/>
   <path class="fil5" d="M2586 376c23,4 27,-6 21,-26 -22,-11 -39,3 -21,26z"/>
   <path class="fil5" d="M2652 299c-3,3 -4,1 -7,9 -2,10 10,25 25,16 16,-9 2,-40 -18,-25z"/>
   <path class="fil5" d="M2810 217c2,-32 -26,-27 -30,-13 -3,10 2,18 9,20 10,4 15,-2 21,-7z"/>
   <path class="fil5" d="M2781 322c10,5 13,6 25,2 7,-14 7,-14 -3,-28 -22,-3 -27,8 -22,26z"/>
   <path class="fil5" d="M2874 222c9,-26 -12,-36 -24,-24 -13,13 -2,32 24,24z"/>
   <path class="fil5" d="M2810 253c-6,-5 -10,-10 -19,-8 -8,2 -14,10 -11,20 4,14 32,20 30,-12z"/>
   <path class="fil5" d="M2874 248c-26,-8 -37,10 -24,23 12,13 33,2 24,-23z"/>
   <path class="fil5" d="M2579 253c-3,32 26,26 30,12 3,-10 -2,-17 -9,-20 -10,-3 -15,3 -21,8z"/>
   <path class="fil5" d="M2515 222c26,8 36,-11 24,-24 -13,-13 -33,-2 -24,24z"/>
   <path class="fil5" d="M2581 322c10,5 16,6 26,0l3 -19c-10,-6 -11,-9 -24,-7 -9,13 -10,11 -5,26z"/>
   <polygon class="fil4" points="1831,393 1837,392 1837,266 1831,266 "/>
   <path class="fil5" d="M2653 347c-4,5 -9,9 -7,18 1,9 10,15 20,12 14,-4 19,-33 -13,-30z"/>
   <path class="fil5" d="M2735 347c-31,-3 -27,26 -12,30 10,2 17,-3 20,-10 3,-10 -3,-15 -8,-20z"/>
   <path class="fil5" d="M2579 420c5,4 10,10 19,8 8,-2 14,-10 11,-21 -4,-14 -33,-18 -30,13z"/>
   <path class="fil5" d="M2521 398c-19,10 -7,37 13,29 16,-7 7,-39 -13,-29z"/>
   <path class="fil5" d="M2446 320c8,5 11,11 22,4 12,-7 9,-15 4,-26 -18,-6 -29,0 -26,22z"/>
   <path class="fil5" d="M2579 217c17,14 36,7 30,-13 -4,-14 -33,-19 -30,13z"/>
   <path class="fil5" d="M2854 347c-15,17 -7,35 13,30 14,-5 18,-33 -13,-30z"/>
   <path class="fil5" d="M2535 347c-32,-3 -27,25 -13,30 20,5 27,-13 13,-30z"/>
   <path class="fil5" d="M2476 420c3,-30 -27,-28 -30,-13 -6,20 13,28 30,13z"/>
   <path class="fil5" d="M2735 326c15,-17 7,-35 -13,-30 -14,4 -18,33 13,30z"/>
   <path class="fil5" d="M2454 196c-7,3 -14,8 -7,21 3,7 12,11 21,6 17,-9 5,-36 -14,-27z"/>
   <path class="fil5" d="M2446 353c-3,21 8,27 26,22 10,-22 -3,-39 -26,-22z"/>
   <path class="fil2" d="M2905 533c-1,4 6,8 10,14l-32 1c4,7 1,6 12,6 7,0 12,0 20,0 -4,5 -4,4 -7,9 -14,16 11,4 19,-13l-16 -17c-8,-6 -5,-1 -6,0z"/>
   <path class="fil2" d="M2338 553c15,14 10,15 23,18 -5,-13 -5,-5 -11,-17 24,-1 26,3 31,-4 -8,-4 -21,-2 -31,-2 8,-18 9,-5 10,-18 -8,4 -19,15 -22,23z"/>
   <path class="fil5" d="M744 855c-16,7 -4,29 11,22 13,-6 4,-30 -11,-22z"/>
   <path class="fil5" d="M744 802c-16,8 -4,30 11,22 13,-6 5,-30 -11,-22z"/>
   <path class="fil5" d="M720 752c-17,-8 -31,2 -21,16 7,11 26,7 21,-16z"/>
   <path class="fil5" d="M744 750c-16,8 -4,30 11,22 13,-7 5,-30 -11,-22z"/>
   <path class="fil5" d="M720 928c5,-24 -14,-28 -21,-17 -9,14 4,24 21,17z"/>
   <path class="fil5" d="M760 699c-17,-7 -31,3 -21,17 7,10 26,7 21,-17z"/>
   <path class="fil5" d="M704 855c-15,8 -4,29 11,22 14,-7 4,-30 -11,-22z"/>
   <path class="fil5" d="M798 824c5,-11 5,-11 0,-21 -9,-2 -21,-4 -21,10 0,13 11,13 21,11z"/>
   <path class="fil5" d="M798 877c5,-11 5,-11 0,-22 -10,-2 -21,-2 -21,11 0,14 12,13 21,11z"/>
   <path class="fil5" d="M698 980c11,5 11,5 22,0 2,-10 2,-21 -11,-21 -14,0 -13,12 -11,21z"/>
   <path class="fil5" d="M720 699c-17,-7 -30,3 -21,17 6,10 26,7 21,-17z"/>
   <path class="fil5" d="M738 980c11,5 11,5 22,0 2,-9 3,-21 -11,-21 -13,0 -13,11 -11,21z"/>
   <path class="fil5" d="M704 802c-15,8 -4,30 11,22 14,-6 4,-29 -11,-22z"/>
   <path class="fil5" d="M758 927c12,-16 -8,-27 -18,-18 -9,10 1,30 18,18z"/>
   <path class="fil5" d="M785 697c-18,8 -4,30 10,22 13,-7 4,-29 -10,-22z"/>
   <path class="fil5" d="M878 1013c-25,-6 -27,14 -16,21 7,4 13,1 17,-3 4,-6 1,-13 -1,-18z"/>
   <path class="fil5" d="M798 772c5,-11 5,-11 0,-22 -30,-7 -29,28 0,22z"/>
   <path class="fil5" d="M798 929c7,-15 -2,-30 -16,-21 -11,8 -7,26 16,21z"/>
   <path class="fil5" d="M778 1033c12,4 11,4 21,-1 8,-29 -28,-29 -21,1z"/>
   <path class="fil5" d="M837 981c5,-10 6,-9 1,-21 -30,-7 -30,29 -1,21z"/>
   <path class="fil5" d="M838 719c5,-12 4,-11 -1,-21 -29,-7 -28,28 1,21z"/>
   <path class="fil5" d="M822 1014c-15,11 2,29 14,19 12,-8 1,-30 -14,-19z"/>
   <path class="fil5" d="M863 909c-3,2 -5,0 -6,8 -2,12 11,18 20,11 10,-8 1,-30 -14,-19z"/>
   <path class="fil5" d="M797 980c12,-16 -7,-28 -17,-18 -10,10 2,29 17,18z"/>
   <path class="fil5" d="M873 983c15,-9 8,-28 -8,-24 -15,4 -10,26 8,24z"/>
   <path class="fil5" d="M699 1032c10,5 10,5 21,1 7,-30 -29,-30 -21,-1z"/>
   <path class="fil5" d="M838 929c4,-11 5,-10 0,-21 -30,-7 -29,28 0,21z"/>
   <path class="fil5" d="M838 771c5,-11 4,-10 0,-21 -29,-7 -30,29 0,21z"/>
   <path class="fil5" d="M838 824c5,-11 5,-10 0,-21 -30,-7 -29,28 0,21z"/>
   <path class="fil5" d="M838 876c5,-10 5,-10 0,-21 -29,-7 -30,29 0,21z"/>
   <path class="fil5" d="M739 1033c11,4 10,4 21,-1 7,-29 -29,-29 -21,1z"/>
   <polygon class="fil4" points="1832,454 1837,454 1837,414 1831,414 "/>
   <path class="fil6" d="M2195 929l27 0 1 -28c-1,1 -1,1 -1,2l-2 23c-10,0 -18,-1 -25,3z"/>
   <path class="fil7" d="M2426 2100c-19,-62 69,-81 82,-27 15,60 -67,78 -82,27zm-95 0c-13,29 -81,18 -117,18 -36,0 -322,3 -336,-2 -17,-5 -29,-27 -18,-47 15,-27 83,-16 117,-16 37,0 319,-3 335,2 16,4 28,24 19,45zm75 -148c-19,-62 69,-81 82,-27 15,60 -67,79 -82,27zm-95 0c-13,29 -81,18 -117,18 -36,0 -322,3 -336,-1 -17,-6 -29,-28 -18,-48 15,-27 83,-16 117,-16 37,0 319,-3 335,2 16,5 28,24 19,45zm68 -151c-18,-61 69,-80 82,-27 16,60 -67,79 -82,27zm-92 0c-13,29 -80,18 -116,18 -36,0 -322,3 -337,-1 -16,-6 -29,-28 -17,-48 15,-27 83,-16 117,-16 37,0 319,-3 334,2 17,5 29,24 19,45zm68 -151c-17,-61 69,-80 83,-27 15,60 -68,79 -83,27zm-101 7c-13,29 -81,18 -116,18 -37,0 -323,3 -337,-2 -17,-5 -29,-27 -18,-47 15,-27 83,-16 117,-16 38,0 320,-3 335,2 16,5 28,24 19,45zm131 -194c57,-16 76,70 24,85 -56,17 -79,-69 -24,-85zm-581 8c26,-7 333,-2 404,-2 24,0 40,1 46,20 8,19 -2,38 -17,43 -17,6 -342,2 -407,3 -74,0 -57,-57 -26,-64zm175 -254c12,-3 298,-4 313,0 30,9 28,53 2,62 -10,3 -305,5 -320,0 -28,-8 -32,-53 5,-62zm-209 -63c-52,13 -74,152 -79,216 -21,281 79,532 66,819 -2,44 -7,88 -16,131 -7,33 -36,91 -16,115 21,26 90,15 129,15l434 0c46,0 259,6 284,-7 117,-61 43,-359 20,-480 -42,-219 -42,-452 7,-673 6,-29 30,-93 17,-118 -16,-30 -85,-19 -124,-19 -65,0 -705,-3 -722,1z"/>
   <path class="fil3" d="M735 1536c-14,53 -70,53 -82,151 -14,110 43,125 17,196 -21,57 -41,113 -62,172 -10,29 -63,152 -53,175 18,8 42,24 65,24 14,-14 46,-74 58,-96 10,-19 44,-83 56,-96 7,12 54,222 55,242 18,19 21,12 52,9 18,-3 37,-1 46,-11 13,-19 -55,-404 -56,-461 -1,-18 13,-65 18,-84 13,-53 31,-115 40,-167l3 -16c-16,-20 -38,-32 -67,-39 -16,-4 -30,-6 -46,-7 -23,-2 -32,-4 -44,8z"/>
   <path class="fil8" d="M624 1446l70 31c17,9 13,8 22,26 6,12 11,25 19,33 12,-12 21,-10 44,-8 16,1 30,3 46,7 29,7 51,19 67,39 4,-15 10,-29 14,-45 4,-15 5,-34 10,-48 -3,-32 6,-45 -7,-69 -9,-17 -13,-32 -25,-50 -36,-56 -52,-49 -105,-49 -45,0 -106,-11 -123,31 -5,12 -3,18 -8,29 -4,7 -12,17 -16,23 -12,19 -27,29 -8,50z"/>
   <path class="fil1" d="M1036 1707c5,21 17,40 -5,57 -20,16 -39,4 -54,-5 -83,121 80,275 199,174 42,-36 68,-109 27,-173 -14,-22 -35,-42 -66,-54 -42,-17 -62,-7 -101,1z"/>
   <path class="fil3" d="M1770 1154c17,-4 657,-1 722,-1 39,0 108,-11 124,19 13,25 -11,89 -17,118 -49,221 -49,454 -7,673 23,121 97,419 -20,480 -25,13 -238,7 -284,7l-434 0c-39,0 -108,11 -129,-15 -20,-24 9,-82 16,-115 9,-43 14,-87 16,-131 13,-287 -87,-538 -66,-819 5,-64 27,-203 79,-216zm-651 1295c-10,0 -38,1 -66,1l-46 0c-37,-2 -117,3 -153,0 -5,0 -46,-1 -50,0 -23,2 -366,-8 -383,3 3,3 -2,1 6,3l2779 1c6,-1 8,-7 -2,-7 -88,1 -599,3 -624,-2 41,-26 56,-76 63,-138l0 -83c-2,-122 -54,-279 -68,-436 -16,-189 1,-389 49,-569 10,-39 2,-73 -38,-77 -36,-3 -87,0 -124,0 -203,0 -411,-3 -613,0l-14 0c-84,-2 -96,0 -122,72 -90,245 32,619 36,889 2,86 -5,185 -31,266 -13,39 -17,52 8,77l-607 0z"/>
   <path class="fil7" d="M620 2254l-8 4c-12,7 -18,26 -24,38 -7,15 -18,31 -23,47 32,10 64,23 58,64 7,9 -6,6 18,8l141 -2 0 -40c3,-8 -1,-5 9,-6l-2 -63c-1,-20 -48,-230 -55,-242 -12,13 -46,77 -56,96 -12,22 -44,82 -58,96z"/>
   <path class="fil9" d="M1804 1471c-31,7 -48,64 26,64 65,-1 390,3 407,-3 15,-5 25,-24 17,-43 -6,-19 -22,-20 -46,-20 -71,0 -378,-5 -404,2z"/>
   <path class="fil9" d="M2254 1657c9,-21 -3,-40 -19,-45 -15,-5 -297,-2 -335,-2 -34,0 -102,-11 -117,16 -11,20 1,42 18,47 14,5 300,2 337,2 35,0 103,11 116,-18z"/>
   <path class="fil9" d="M2311 1952c9,-21 -3,-40 -19,-45 -16,-5 -298,-2 -335,-2 -34,0 -102,-11 -117,16 -11,20 1,42 18,48 14,4 300,1 336,1 36,0 104,11 117,-18z"/>
   <path class="fil9" d="M2287 1801c10,-21 -2,-40 -19,-45 -15,-5 -297,-2 -334,-2 -34,0 -102,-11 -117,16 -12,20 1,42 17,48 15,4 301,1 337,1 36,0 103,11 116,-18z"/>
   <path class="fil9" d="M2331 2100c9,-21 -3,-41 -19,-45 -16,-5 -298,-2 -335,-2 -34,0 -102,-11 -117,16 -11,20 1,42 18,47 14,5 300,2 336,2 36,0 104,11 117,-18z"/>
   <path class="fil10" d="M695 1250c-12,-52 -18,-30 -3,-90l48 11 -20 10c38,9 90,10 121,-15 17,21 5,41 9,63 6,-21 32,-75 -13,-115 1,-1 2,-2 2,-1 1,2 62,-26 10,-60 -28,-18 -64,-8 -57,29 -43,-4 -58,-4 -89,18l-3 -11c-2,-7 0,-4 -3,-10 -10,-17 -40,-15 -57,5 -22,26 -16,63 32,52 -14,58 -12,70 23,114z"/>
   <path class="fil8" d="M1979 1217c-37,9 -33,54 -5,62 15,5 310,3 320,0 26,-9 28,-53 -2,-62 -15,-4 -301,-3 -313,0z"/>
   <path class="fil11" d="M694 1477l-70 -31 -91 259c-8,18 -20,14 -22,37 -4,39 41,53 64,29 16,-18 4,-28 10,-48 7,-21 27,-59 36,-81 12,-26 24,-54 36,-81 12,-27 27,-57 37,-84z"/>
   <path class="fil11" d="M892 1574l-3 16c12,5 43,66 49,78 40,69 22,35 39,91 15,9 34,21 54,5 22,-17 10,-36 5,-57 -14,-4 -17,-6 -23,-18l-41 -89c-20,-39 -38,-80 -56,-119 -5,14 -6,33 -10,48 -4,16 -10,30 -14,45z"/>
   <path class="fil11" d="M695 1250c4,10 23,22 33,27 47,24 100,0 122,-48 -4,-22 8,-42 -9,-63 -31,25 -83,24 -121,15l20 -10 -48 -11c-15,60 -9,38 3,90z"/>
   <path class="fil9" d="M2406 1952c15,52 97,33 82,-27 -13,-54 -101,-35 -82,27z"/>
   <path class="fil9" d="M2426 2100c15,51 97,33 82,-27 -13,-54 -101,-35 -82,27z"/>
   <path class="fil10" d="M607 2410c8,3 6,-1 11,7 0,-3 4,-8 5,-10 6,-41 -26,-54 -58,-64l-44 -18c-9,3 -5,-7 -15,22 -3,9 -6,17 -8,26 24,7 90,37 109,37z"/>
   <path class="fil10" d="M782 2413c7,7 -6,3 14,5l86 0c28,1 24,1 31,-5 -5,-42 -36,-46 -78,-46l-44 0c-10,1 -6,-2 -9,6l0 40z"/>
   <path class="fil11" d="M521 2325l44 18c5,-16 16,-32 23,-47 6,-12 12,-31 24,-38l8 -4c-23,0 -47,-16 -65,-24 2,14 -25,86 -34,95z"/>
   <path class="fil11" d="M791 2367l44 0 6 -54c-31,3 -34,10 -52,-9l2 63z"/>
   <g>
    <path class="fil8" d="M2355 1650c15,52 98,33 83,-27 -14,-53 -100,-34 -83,27z"/>
    <path class="fil7" d="M2392 1640c-14,-7 -5,-8 -15,-2 7,8 8,8 17,13 4,-6 9,-13 13,-20 3,-4 6,-8 6,-12 -1,0 -3,-1 -3,-1 -3,1 -5,4 -8,7 -3,4 -7,9 -10,15z"/>
   </g>
   <path class="fil12" d="M1088 1917l0 -16c-8,-1 -14,-3 -19,-5 -5,-3 -9,-7 -13,-12 -4,-6 -6,-13 -6,-21l15 -3c2,8 4,15 7,19 4,5 10,8 16,9l0 -50c-7,-1 -13,-4 -20,-8 -5,-3 -9,-6 -12,-11 -2,-5 -4,-11 -4,-17 0,-12 4,-21 12,-28 6,-4 13,-7 24,-8l0 -8 9 0 0 8c9,1 17,3 22,8 7,6 11,14 12,24l-16 2c-1,-6 -3,-11 -6,-14 -3,-4 -7,-6 -12,-7l0 46c8,2 13,3 16,4 5,2 9,5 12,8 3,3 5,7 7,11 2,4 3,9 3,14 0,11 -4,20 -11,27 -7,8 -16,12 -27,12l0 16 -9 0zm0 -138c-6,1 -11,3 -15,7 -3,4 -5,9 -5,14 0,6 2,10 5,14 3,4 8,6 15,8l0 -43zm9 109c6,-1 11,-3 15,-8 4,-5 6,-10 6,-17 0,-6 -1,-10 -4,-14 -3,-3 -8,-6 -17,-8l0 47z"/>
   <g>
    <path class="fil8" d="M2361 1487c15,52 98,33 82,-26 -13,-54 -100,-35 -82,26z"/>
    <path class="fil7" d="M2397 1477c-14,-7 -4,-7 -15,-2 7,9 9,8 17,13 4,-6 10,-13 14,-20 2,-4 5,-7 5,-12 -1,0 -3,-1 -3,-1 -3,1 -5,4 -7,7 -4,4 -8,10 -11,15z"/>
   </g>
   <g>
    <path class="fil8" d="M2376 1799c15,52 98,33 83,-27 -14,-53 -100,-35 -83,27z"/>
    <path class="fil7" d="M2413 1788c-14,-6 -5,-7 -15,-1 7,8 8,8 17,13 4,-6 9,-14 13,-20 3,-5 6,-8 6,-12 -1,0 -3,-1 -3,-1 -3,0 -5,3 -8,6 -3,5 -7,10 -10,15z"/>
   </g>
  </g>
 </g>
</svg>
