<?xml version="1.0" encoding="UTF-8"?>
<!DOCTYPE svg PUBLIC "-//W3C//DTD SVG 1.1//EN" "http://www.w3.org/Graphics/SVG/1.1/DTD/svg11.dtd">
<!-- Creator: CorelDRAW X7 -->
<svg xmlns="http://www.w3.org/2000/svg" xml:space="preserve" width="3378px" height="1781px" version="1.1" style="shape-rendering:geometricPrecision; text-rendering:geometricPrecision; image-rendering:optimizeQuality; fill-rule:evenodd; clip-rule:evenodd"
viewBox="0 0 3410 1799"
 xmlns:xlink="http://www.w3.org/1999/xlink">
 <defs>
  <style type="text/css">
   <![CDATA[
    .fil16 {fill:none}
    .fil8 {fill:#00BAFF}
    .fil7 {fill:#1E4158}
    .fil14 {fill:#2E2E41}
    .fil1 {fill:#2F2E41}
    .fil10 {fill:#3E3D56}
    .fil15 {fill:#3F3D56}
    .fil9 {fill:#423F58}
    .fil11 {fill:#A06169}
    .fil0 {fill:#CBCBCB}
    .fil3 {fill:#CCCCCC}
    .fil6 {fill:#E69C24}
    .fil5 {fill:#EAEBEC}
    .fil2 {fill:#F2F2F2}
    .fil12 {fill:#FBFBFB}
    .fil13 {fill:#FEB6B6}
    .fil4 {fill:white}
   ]]>
  </style>
 </defs>
 <g id="Capa_x0020_1">
  <metadata id="CorelCorpID_0Corel-Layer"/>
  <path class="fil0" d="M2751 1787c15,-31 6,-264 6,-318l167 -2c0,59 -8,285 7,320l-180 0zm-67 -324c15,-6 5,-4 23,-2 11,74 -13,277 8,326l-100 0 0 5 749 0c-1,-1 -2,-1 -3,-2 -14,-4 -3,-3 -47,-3l-347 0c19,-38 1,-260 8,-325 40,-11 96,-11 112,-46 -10,-38 -93,-47 -134,-51l-8 -16c2,131 -160,86 -249,78l-12 36z"/>
  <path class="fil1" d="M1041 1784c-245,0 -721,4 -1021,4 -28,0 -18,2 -20,6l3404 5c8,-4 7,-1 5,-8l-790 0c-7,-12 -4,-37 -4,-55 -32,-6 -72,1 -74,-3 -1,-1 -3,0 -4,-1l7 -22 -8 -4 -50 -15c-48,-16 -91,-19 -105,29l98 31c-7,13 -12,20 -16,39 -431,0 -1162,-2 -1422,-6z"/>
  <g id="_2909761540848">
   <path class="fil2" d="M2978 0l-1262 0c-10,0 -18,8 -18,18l0 456 305 0c17,0 31,14 31,31l0 386 944 0c0,-2 1,-4 1,-7 0,0 0,0 0,0l0 -866c1,-2 2,-5 2,-8 0,-3 -1,-7 -3,-10l0 0z"/>
   <rect class="fil3" x="1698" y="75" width="1281.19" height="5.18182"/>
   <circle class="fil3" cx="2815" cy="39" r="16"/>
   <circle class="fil3" cx="2859" cy="39" r="16"/>
   <circle class="fil3" cx="2904" cy="39" r="16"/>
   <path class="fil3" d="M2671 186l-649 0c-15,0 -27,12 -27,27 0,15 12,27 27,27l649 0c15,0 27,-12 27,-27 0,-15 -12,-27 -27,-27zm0 104l-649 0c-12,0 -22,-11 -22,-23 0,-13 10,-23 22,-23l649 0c13,0 23,10 23,23 0,12 -10,23 -23,23z"/>
   <path class="fil4" d="M2869 401l-648 0c-15,0 -27,12 -27,27 0,15 12,27 27,27l648 0c15,0 27,-12 27,-27 0,-15 -12,-27 -27,-27l0 0z"/>
   <path class="fil4" d="M2869 501l-648 0c-15,0 -27,12 -27,27 0,15 12,27 27,27l648 0c15,0 27,-12 27,-27 0,-15 -12,-27 -27,-27l0 0z"/>
   <path class="fil4" d="M2869 601l-648 0c-15,0 -27,12 -27,27 0,15 12,27 27,27l648 0c15,0 27,-12 27,-27 0,-15 -12,-27 -27,-27l0 0z"/>
   <path class="fil3" d="M2116 356l-295 0c-13,0 -24,11 -24,24l0 94 4 0 0 -94c0,-11 9,-19 20,-19l295 0c11,0 20,8 20,19l0 295c0,11 -9,20 -20,20l-82 0 0 4 82 0c13,0 24,-10 24,-24l0 -295c0,-13 -11,-24 -24,-24l0 0z"/>
   <g>
    <path class="fil4" d="M1538 876c0,-14 2,-18 17,-18 52,0 46,-2 46,37l0 227c0,14 -5,18 -18,18 -37,0 -45,4 -45,-18l0 -246zm-118 0c0,-14 3,-18 17,-18 52,0 47,-2 47,34l0 230c0,14 -5,18 -19,18 -36,0 -45,4 -45,-18l0 -246zm-117 0c0,-14 2,-18 17,-18 35,0 46,-4 46,20l0 244c0,14 -5,18 -18,18 -37,0 -45,4 -45,-18l0 -246zm531 -160c5,-5 10,-13 15,-19 42,-47 94,-73 161,-76 2,-1 1,-1 5,-2 10,-1 35,3 45,5 94,20 169,107 168,212 0,92 -55,163 -129,197 -13,6 -74,25 -89,15 -126,-4 -216,-104 -211,-224 2,-50 16,-71 35,-108zm-608 -34c-33,0 -31,-33 -2,-33l455 0c13,0 24,3 23,18 -1,12 -11,15 -23,15l-453 0zm0 -79c-33,0 -31,-33 -2,-33l185 0c33,0 30,33 0,33l-183 0zm-94 -105c-3,157 0,317 0,474 0,79 0,158 0,237 0,29 15,21 40,21l650 0c34,0 451,3 473,-1 9,-19 3,-316 3,-365 0,-121 2,-244 0,-366l-1166 0z"/>
    <path class="fil5" d="M1238 455c36,-23 36,38 -1,16l1 -16zm-33 -5c17,-8 27,19 10,26 -17,6 -28,-18 -10,-26zm-41 0c17,-7 27,19 11,26 -19,7 -27,-20 -11,-26zm-32 43l1166 0c0,-19 3,-45 -3,-59 -25,-5 -571,-2 -611,-2l-458 0c-110,0 -94,-14 -94,61z"/>
    <path class="fil4" d="M2015 1046c115,-1 209,-96 209,-212 -1,-115 -94,-210 -209,-210l0 422z"/>
    <path class="fil6" d="M2010 1048l0 -189c-10,-5 -33,-26 -44,-35 -15,-13 -28,-24 -43,-37l-66 -54c-11,-11 -14,-16 -23,-17 -19,37 -33,58 -35,108 -5,120 85,220 211,224z"/>
    <path class="fil3" d="M1834 716c9,1 12,6 23,17l66 54c15,13 28,24 43,37 11,9 34,30 44,35l0 -238c-67,3 -119,29 -161,76 -5,6 -10,14 -15,19z"/>
    <path class="fil7" d="M1132 498l1166 0c2,122 0,245 0,366 0,49 6,346 -3,365 -22,4 -439,1 -473,1l-650 0c-25,0 -40,8 -40,-21 0,-79 0,-158 0,-237 0,-157 -3,-317 0,-474zm0 -5c0,-75 -16,-61 94,-61l458 0c40,0 586,-3 611,2 6,14 3,40 3,59l-1166 0zm-5 -42l0 761c0,19 4,23 24,23l1129 0c19,0 23,-5 23,-23l0 -761c0,-19 -4,-23 -23,-23l-1129 0c-20,0 -24,3 -24,23z"/>
    <path class="fil3" d="M1226 682l453 0c12,0 22,-3 23,-15 1,-15 -10,-18 -23,-18l-455 0c-29,0 -31,33 2,33z"/>
    <path class="fil6" d="M1543 903c-1,29 -4,218 1,230 4,4 41,3 45,2 6,-3 2,-1 5,-4 5,-8 2,-201 2,-228 -11,-3 -42,-2 -53,0z"/>
    <path class="fil8" d="M1425 950c-1,27 -4,169 2,183 7,4 13,2 24,2 4,0 11,1 14,0 10,0 10,-1 12,-4 6,-10 2,-157 2,-181 -13,-2 -42,-3 -54,0z"/>
    <path class="fil3" d="M1308 1004c-2,140 -9,131 26,131 4,0 10,1 14,0 3,0 4,1 6,0 7,-3 3,-1 6,-4 2,-4 4,-252 1,-261l-2 -3 1 136 -52 1z"/>
    <path class="fil4" d="M1308 1004l52 -1 -1 -136c-2,-3 6,-2 -6,-4 -13,0 -34,-3 -43,3 -6,14 -3,114 -2,138z"/>
    <path class="fil3" d="M1226 603l183 0c30,0 33,-33 0,-33l-185 0c-29,0 -31,33 2,33z"/>
    <path class="fil7" d="M2015 1046l0 -422c115,0 208,95 209,210 0,116 -94,211 -209,212zm-5 -187l0 189c15,10 76,-9 89,-15 74,-34 129,-105 129,-197 1,-105 -74,-192 -168,-212 -10,-2 -35,-6 -45,-5 -4,1 -3,1 -5,2l0 238z"/>
    <path class="fil4" d="M1425 950c12,-3 41,-2 54,0 1,-89 7,-87 -25,-87 -35,0 -31,-10 -29,87z"/>
    <path class="fil7" d="M1543 903c-2,-44 -3,-40 28,-40 31,0 26,3 25,40 0,27 3,220 -2,228 -3,3 1,1 -5,4 -4,1 -41,2 -45,-2 -5,-12 -2,-201 -1,-230zm-5 -27l0 246c0,22 8,18 45,18 13,0 18,-4 18,-18l0 -227c0,-39 6,-37 -46,-37 -15,0 -17,4 -17,18z"/>
    <path class="fil7" d="M1425 950c-2,-97 -6,-87 29,-87 32,0 26,-2 25,87 0,24 4,171 -2,181 -2,3 -2,4 -12,4 -3,1 -10,0 -14,0 -11,0 -17,2 -24,-2 -6,-14 -3,-156 -2,-183zm-5 -74l0 246c0,22 9,18 45,18 14,0 19,-4 19,-18l0 -230c0,-36 5,-34 -47,-34 -14,0 -17,4 -17,18z"/>
    <path class="fil7" d="M1308 1004c-1,-24 -4,-124 2,-138 9,-6 30,-3 43,-3 12,2 4,1 6,4l2 3c3,9 1,257 -1,261 -3,3 1,1 -6,4 -2,1 -3,0 -6,0 -4,1 -10,0 -14,0 -35,0 -28,9 -26,-131zm-5 -128l0 246c0,22 8,18 45,18 13,0 18,-4 18,-18l0 -244c0,-24 -11,-20 -46,-20 -15,0 -17,4 -17,18z"/>
    <path class="fil4" d="M1543 903c11,-2 42,-3 53,0 1,-37 6,-40 -25,-40 -31,0 -30,-4 -28,40z"/>
    <path class="fil9" d="M1205 450c-18,8 -7,32 10,26 17,-7 7,-34 -10,-26z"/>
    <path class="fil9" d="M1164 450c-16,6 -8,33 11,26 16,-7 6,-33 -11,-26z"/>
    <path class="fil9" d="M1238 455l-1 16c37,22 37,-39 1,-16z"/>
   </g>
   <path class="fil10" d="M2635 1230c-60,37 -59,-64 1,-26l-1 26zm-68 112l5 -3c19,-8 199,-3 228,-3 24,0 54,5 68,-10 -8,-32 -28,-6 -56,-26 -8,-12 -3,-154 -4,-184 -8,-21 -20,-19 -47,-19 -22,1 -43,1 -65,0l-246 0c-36,2 -33,21 -32,54 2,241 -24,173 128,184 5,0 7,0 11,2 11,3 3,-1 10,5z"/>
   <path class="fil7" d="M2567 1342c-8,3 -5,0 -13,9 -14,16 -66,263 -62,276 7,5 14,9 26,13 4,2 10,4 14,5 19,11 0,8 36,22 15,6 15,8 32,6 20,-18 59,-166 81,-199l12 -35c90,7 254,50 252,-75l0 -11c-10,-11 -2,-2 -17,-5 -9,-1 -11,-2 -19,-6 -15,-7 -25,-15 -41,-16 -14,15 -44,10 -68,10 -29,0 -209,-5 -228,3l-5 3z"/>
   <path class="fil1" d="M2766 862l9 -50c40,13 68,37 136,41l-8 -15c22,4 32,6 53,-1 1,12 2,14 0,26 -2,22 -4,15 1,23 21,-32 24,-77 4,-111 -21,-37 -37,-43 -87,-56 -14,-4 -118,-99 -199,-61 -96,44 -3,136 5,194 13,89 -45,143 -127,157 27,16 90,38 125,16 74,-46 -28,-289 68,-308 14,-3 23,-1 34,5 0,0 12,6 12,7 9,7 7,6 12,12 -31,19 -55,67 -38,121z"/>
   <path class="fil6" d="M2696 1097c22,1 43,1 65,0 27,0 39,-2 47,19 9,24 1,64 4,92 70,-23 70,-43 114,-45 20,0 36,0 51,-7 5,-20 0,-113 -10,-130 -8,-13 -61,-50 -98,-50 -30,-1 -60,8 -83,23 -40,25 -46,-26 -90,98z"/>
   <path class="fil4" d="M2600 1673c0,10 -1,21 -1,31 0,61 11,-18 12,81l101 0c-21,-48 3,-243 -8,-314 -18,-2 -9,-3 -23,3 -22,33 -61,181 -81,199z"/>
   <path class="fil11" d="M2766 862c10,40 38,77 83,83 25,3 50,-3 67,-15 13,-10 34,-31 41,-44 -5,-8 -3,-1 -1,-23 2,-12 1,-14 0,-26 -21,7 -31,5 -53,1l8 15c-68,-4 -96,-28 -136,-41l-9 50z"/>
   <path class="fil11" d="M2812 1300l0 -22 133 -39c39,-16 30,-36 32,-83 -15,7 -31,7 -51,7 -44,2 -44,22 -114,45 -3,-28 5,-68 -4,-92 1,30 -4,172 4,184z"/>
   <path class="fil6" d="M2812 1300c28,20 48,-6 56,26 16,1 26,9 41,16 8,4 10,5 19,6 15,3 7,-6 17,5 0,-19 2,-28 0,-52 -1,-21 -1,-41 0,-62l-133 39 0 22z"/>
   <path class="fil11" d="M2484 1693l47 15c2,-14 4,-22 13,-32l7 56 -19 0c1,1 3,0 4,1 2,4 41,-3 71,3 0,17 -3,41 4,53l0 -4c-1,-99 -12,-20 -12,-81 0,-10 1,-21 1,-31 -17,2 -17,0 -32,-6 -36,-14 -17,-11 -36,-22 -4,-1 -10,-3 -14,-5 -12,-4 -19,-8 -26,-13 3,22 -5,44 -8,66z"/>
   <path class="fil4" d="M2635 1230l1 -26c-60,-38 -61,63 -1,26z"/>
   <path class="fil4" d="M2531 1708l8 3 -7 21 19 0 -7 -56c-9,10 -11,18 -13,32z"/>
   <path class="fil12" d="M1116 1624c-13,32 -84,22 -135,22 -41,0 -376,2 -390,-1 -21,-4 -35,-27 -27,-51 13,-33 83,-23 135,-23 43,0 376,-2 393,1 20,5 33,29 24,52zm0 -139c-13,31 -84,21 -135,21 -41,0 -376,2 -390,-1 -21,-4 -35,-27 -27,-51 13,-33 83,-23 135,-23 43,0 376,-2 393,2 20,4 33,28 24,52zm0 -140c-13,31 -84,22 -135,22 -41,0 -376,2 -390,-1 -21,-4 -35,-27 -27,-51 13,-34 83,-23 135,-23 43,0 376,-3 393,1 20,4 33,29 24,52zm-523 -498c25,-9 395,-3 455,-3 40,0 69,6 73,44l0 227c0,40 2,71 -31,82 -25,9 -398,3 -458,4 -40,0 -69,-6 -72,-45l0 -227c0,-17 -2,-40 3,-55 6,-15 14,-21 30,-27zm-189 -143c26,9 35,41 14,57 -16,11 -16,3 -17,28 -3,40 -1,191 -1,233 50,0 53,66 0,63l1 648c1,41 44,37 83,37l721 0c43,0 75,0 77,-44 5,-76 1,-164 1,-241 0,-81 0,-161 0,-242 -1,-161 0,-322 -1,-482 -56,11 -100,-28 -95,-85 -133,-3 -272,0 -406,0l-306 0c-23,0 -45,-4 -63,12 -7,7 -7,7 -8,16z"/>
   <path class="fil6" d="M593 847c-16,6 -24,12 -30,27 -5,15 -3,38 -3,55l0 227c3,39 32,45 72,45 60,-1 433,5 458,-4 33,-11 31,-42 31,-82l0 -227c-4,-38 -33,-44 -73,-44 -60,0 -430,-6 -455,3z"/>
   <path class="fil7" d="M58 1228c-39,115 -34,305 -24,433 3,43 -2,48 15,50l55 0c19,-10 17,-50 19,-74 3,-27 6,-54 9,-82 3,-34 12,-135 23,-159 8,12 36,190 43,230 5,31 5,61 20,69l45 0c30,-1 31,-6 34,-39 10,-104 -38,-349 -69,-438 -8,10 -19,9 -37,9 -15,1 -30,1 -45,1 -27,1 -62,2 -88,0z"/>
   <path class="fil8" d="M58 1228c26,2 61,1 88,0 15,0 30,0 45,-1 18,0 29,1 37,-9l-20 -121c-13,-6 -21,-16 -26,-32 6,-7 44,-31 53,-37 30,-19 -15,-46 -20,-71 16,-1 32,-3 48,-5 16,-1 32,0 40,-10 2,-20 -3,-56 -6,-75l-9 -15c-35,-4 -87,11 -127,12 -11,-10 -25,-26 -48,-28 -95,-7 -98,222 -93,282 8,79 29,87 38,110z"/>
   <path class="fil3" d="M1116 1345c9,-23 -4,-48 -24,-52 -17,-4 -350,-1 -393,-1 -52,0 -122,-11 -135,23 -8,24 6,47 27,51 14,3 349,1 390,1 51,0 122,9 135,-22z"/>
   <path class="fil3" d="M1116 1624c9,-23 -4,-47 -24,-52 -17,-3 -350,-1 -393,-1 -52,0 -122,-10 -135,23 -8,24 6,47 27,51 14,3 349,1 390,1 51,0 122,10 135,-22z"/>
   <path class="fil3" d="M1116 1485c9,-24 -4,-48 -24,-52 -17,-4 -350,-2 -393,-2 -52,0 -122,-10 -135,23 -8,24 6,47 27,51 14,3 349,1 390,1 51,0 122,10 135,-21z"/>
   <path class="fil13" d="M399 696c-24,4 -31,15 -31,41 0,15 -36,76 -45,93 -10,18 -19,41 -26,37 3,19 8,55 6,75l5 -9c55,4 43,-35 83,-130l2 0c0,-53 0,-100 6,-107zm-9 328c-1,4 -1,7 -2,9 -20,7 -55,1 -80,1 -14,0 -62,2 -73,-6 -9,6 -47,30 -53,37 5,16 13,26 26,32 31,-4 63,-7 95,-11 19,-2 81,-18 87,-1l0 3 4 0 0 -2c1,1 2,2 3,2l5 0 0 -1c50,3 52,-53 13,-63l-21 0 0 0 -4 0zm12 -248c0,-1 6,-15 18,-24 22,-15 13,-48 -14,-59 -2,2 -5,10 -7,24 -2,16 -2,41 -3,68l6 -9z"/>
   <path class="fil6" d="M1259 664c0,-20 2,-14 6,-17l0 38c6,0 13,0 19,0l15 2c-2,2 -1,2 -6,3l-27 1c-1,13 1,30 -3,39 -6,-8 -3,-25 -4,-39l-27 -1c-6,-1 -4,-1 -7,-3 12,-6 17,1 34,-4 0,-6 0,-13 0,-19zm-71 5l-1 7c-5,57 39,96 95,85l6 -1 5 -2c16,-14 36,-20 43,-54 12,-59 -43,-107 -100,-88 -28,10 -35,27 -48,53z"/>
   <path class="fil12" d="M303 942c-8,10 -24,9 -40,10 -16,2 -32,4 -48,5 5,25 50,52 20,71 11,8 59,6 73,6 25,0 60,6 80,-1 8,-19 6,-199 3,-230 -40,95 -28,134 -83,130l-5 9z"/>
   <path class="fil14" d="M100 809c5,-24 -19,-19 -24,-53 -4,-22 9,-26 17,-36 13,-15 5,-19 48,-5 21,6 25,1 36,-7 5,-11 23,-30 10,-48 -13,-18 -79,-32 -102,-20 -16,7 -5,5 -26,7 -105,7 -26,171 41,162z"/>
   <path class="fil7" d="M401 1733c-6,-8 -4,-513 -3,-612 0,-18 3,-30 -5,-38l0 652c10,41 38,40 82,40l733 0c44,0 68,0 79,-38l1 -977 -6 1c1,160 0,321 1,482 0,81 0,161 0,242 0,77 4,165 -1,241 -2,44 -34,44 -77,44l-721 0c-39,0 -82,4 -83,-37z"/>
   <path class="fil13" d="M100 809c30,3 52,-12 63,-28 23,-32 13,-37 14,-73 -11,8 -15,13 -36,7 -43,-14 -35,-10 -48,5 -8,10 -21,14 -17,36 5,34 29,29 24,53z"/>
   <path class="fil15" d="M395 704c-6,29 -2,269 -2,320 5,-6 1,0 4,-8l1 -154c0,-26 -7,-147 6,-158 1,-9 1,-9 8,-16 18,-16 40,-12 63,-12l306 0c134,0 273,-3 406,0l1 -7 -231 1 -7 0 -515 1c-24,3 -31,17 -40,33z"/>
   <path class="fil14" d="M97 1750l-38 1 -8 2 0 42 116 0c-4,-40 -31,-45 -70,-45z"/>
   <path class="fil14" d="M256 1750l-38 1 -8 2 0 42 116 0c-3,-40 -31,-45 -70,-45z"/>
   <polygon class="fil13" points="218,1751 256,1750 263,1695 218,1695 "/>
   <path class="fil13" d="M59 1751l38 -1c1,-13 2,-29 7,-39l-55 0 10 6 0 34z"/>
   <path class="fil12" d="M1259 683c-17,5 -22,-2 -34,4 3,2 1,2 7,3l27 1c1,14 -2,31 4,39 4,-9 2,-26 3,-39l27 -1c5,-1 4,-1 6,-3l-15 -2c-6,0 -13,0 -19,0l0 -38c-4,3 -6,-3 -6,17 0,6 0,13 0,19z"/>
   <rect class="fil16" x="384" y="1088" width="19.7136" height="38.0296"/>
  </g>
 </g>
</svg>
