<?xml version="1.0" encoding="UTF-8"?>
<!DOCTYPE svg PUBLIC "-//W3C//DTD SVG 1.1//EN" "http://www.w3.org/Graphics/SVG/1.1/DTD/svg11.dtd">
<!-- Creator: CorelDRAW X7 -->
<svg xmlns="http://www.w3.org/2000/svg" xml:space="preserve" width="2647px" height="1850px" version="1.1" style="shape-rendering:geometricPrecision; text-rendering:geometricPrecision; image-rendering:optimizeQuality; fill-rule:evenodd; clip-rule:evenodd"
viewBox="0 0 2877 2011"
 xmlns:xlink="http://www.w3.org/1999/xlink">
 <defs>
  <style type="text/css">
   <![CDATA[
    .str0 {stroke:#1E4158;stroke-width:0.978181}
    .fil8 {fill:#00BAFF}
    .fil4 {fill:#1E4158}
    .fil6 {fill:#2F2E41}
    .fil3 {fill:#E69C24}
    .fil5 {fill:#E6E6E6}
    .fil0 {fill:#EAEBEC}
    .fil9 {fill:#FEB8B8}
    .fil7 {fill:#FFB8B8}
    .fil2 {fill:white}
    .fil1 {fill:#878785}
    .fil10 {fill:black;fill-opacity:0.101961}
   ]]>
  </style>
 </defs>
 <g id="Capa_x0020_1">
  <metadata id="CorelCorpID_0Corel-Layer"/>
  <rect class="fil0" width="2877" height="2011"/>
  <g id="_2849007921712">
   <rect id="e1abf0e4-070b-4c82-8a12-ebedd4e3db02" class="fil1 str0" x="1220" y="43" width="1494" height="957" data-name="Rectangle 1"/>
   <rect id="ace8bea0-82e8-49b8-a50c-1e1cb532084f" class="fil2 str0" x="1268" y="163" width="1409" height="780" data-name="Rectangle 2"/>
   <rect id="b540f353-e277-4512-bc56-a133cea2858b" class="fil3" x="1220" y="42" width="1493.96" height="63.4687" data-name="Rectangle 3"/>
   <circle id="b2b285b5-c1c3-4b12-9710-2898c7239781" class="fil2" cx="1267" cy="75" r="12" data-name="Ellipse 3"/>
   <circle id="a5a428bb-42a2-4f57-9e6c-9979c01a2490" class="fil2" cx="1312" cy="75" r="12" data-name="Ellipse 4"/>
   <circle id="a9929a25-14ce-4464-bac9-4165f1e3fae6" class="fil2" cx="1356" cy="75" r="12" data-name="Ellipse 5"/>
   <polygon id="b4a2d72b-abc3-4d2f-a2b8-a2aff6897b26" class="fil4" points="1514,273 1421,365 1514,457 1535,436 1465,365 1536,294 " data-name="Path 37"/>
   <polygon id="b5120d89-6cbe-4bfa-9a1b-cf9b07deff91" class="fil4" points="1591,273 1684,365 1591,457 1570,436 1640,365 1569,294 " data-name="Path 38"/>
   <path id="a31271bd-8e2f-469b-8cee-8b6db3f92f99" class="fil5" d="M1892 296c-8,0 -14,4 -14,9 0,6 6,10 14,10l651 0c7,0 13,-4 13,-10 0,-5 -6,-9 -13,-9l-651 0z" data-name="Path 65"/>
   <path id="bf577952-0fd5-43e0-be6b-ea1966b51a93" class="fil5" d="M2536 832l-1094 0c-11,0 -20,-7 -20,-15l0 -193c0,-8 9,-14 20,-14l1094 0c11,0 20,6 20,14l0 193c0,8 -9,15 -20,15zm-1094 -216c-7,0 -12,4 -12,8l0 193c0,5 5,9 12,9l1094 0c7,0 12,-4 12,-9l0 -193c0,-4 -5,-8 -12,-8l-1094 0z" data-name="Path 78"/>
   <circle id="f7f4957b-eaa8-456b-bf02-bacf7de3ef80" class="fil5" cx="1607" cy="704" r="41" data-name="Ellipse 13"/>
   <path id="fb0f055d-da6e-47f2-bb6d-7ff26d7b746a" class="fil4" d="M1693 682c0,0 0,0 0,0 -6,0 -10,4 -10,9 0,6 4,10 10,10l461 0c5,0 10,-4 10,-10 0,-5 -5,-9 -10,-9l-461 0z" data-name="Path 79"/>
   <path id="bfcde504-8c45-4d21-843b-87b1f7e22ce0" class="fil4" d="M1724 720c0,0 0,0 0,0 -4,0 -8,4 -8,8 0,5 4,9 8,9l169 0c0,0 0,0 0,0 4,0 8,-4 8,-9 0,-4 -4,-8 -8,-8l-169 0z" data-name="Path 80"/>
   <path id="a66699ea-75f1-4575-b6d5-52b0b1f8e30c" class="fil5" d="M1887 354c-5,1 -9,5 -9,10 0,5 4,9 9,10l427 0c5,-1 9,-5 9,-10 0,-5 -4,-9 -9,-10l-427 0z" data-name="Path 81"/>
   <path id="bbc4ca7b-25d4-4c7e-b3d4-0411f69bd48f" class="fil5" d="M1890 413c-6,0 -12,4 -12,10 0,5 6,9 12,9l559 0c6,0 12,-4 12,-9 0,-6 -6,-10 -12,-10l-559 0z" data-name="Path 82"/>
   <ellipse class="fil5" cx="475" cy="1928" rx="405" ry="31"/>
   <path class="fil6" d="M260 898c70,-30 158,-11 244,3 1,-16 11,-36 1,-47 -13,-14 -12,-28 -4,-42 19,-37 -8,-76 -36,-108 -11,-14 -28,-21 -46,-21 -2,0 -3,0 -5,0l-50 3c-26,2 -47,19 -54,44l0 0c-13,16 -19,33 -15,49 -18,12 -21,27 -13,44 7,11 7,21 0,31 -10,13 -17,28 -22,43l0 1z"/>
   <path class="fil6" d="M1936 1808l-1437 0c-27,0 -49,-22 -49,-48l0 0c522,-61 1033,-61 1535,0l0 0c0,26 -22,48 -49,48l0 0z"/>
   <path class="fil4" d="M1985 1763l-1535 -3 178 -299 1 -2 0 -659c0,0 0,0 0,0 0,-34 27,-61 61,-61 0,0 0,0 0,0l1046 0c0,0 0,0 0,0 34,0 61,27 61,61 0,0 0,0 0,0l0 664 188 299z"/>
   <path class="fil2" d="M689 781c-11,0 -20,9 -20,20l0 601c0,11 9,20 20,20l1057 0c11,0 20,-9 20,-20l0 -601c0,-11 -9,-20 -20,-20l-1057 0z"/>
   <path class="fil6" d="M693 1502c-3,0 -6,2 -8,5l-54 119c-1,1 -1,2 -1,3 0,5 4,9 8,9l1152 0c5,0 9,-4 9,-9 0,-1 0,-2 -1,-4l-60 -119c-1,-3 -4,-4 -7,-4 0,0 0,0 0,0l-1038 0z"/>
   <circle class="fil2" cx="1212" cy="763" r="11"/>
   <path class="fil6" d="M1100 1660c-4,0 -7,3 -8,7l-14 51c0,0 0,1 0,2 0,5 4,8 8,8 0,0 0,0 0,0l262 0c0,0 0,0 0,0 4,0 8,-3 8,-8 0,-1 0,-2 0,-3l-18 -51c-1,-3 -4,-6 -8,-6l-230 0z"/>
   <polygon class="fil6" points="1797,1449 1797,1461 628,1461 629,1459 629,1449 "/>
   <path class="fil5" d="M1626 1218l-817 0c-9,0 -15,-6 -15,-15l0 -203c0,-8 6,-15 15,-15l817 0c9,0 15,7 15,15l0 203c0,9 -6,15 -15,15l0 0zm-802 -242c-5,0 -9,4 -9,9l0 218c0,5 4,9 9,9l802 0c5,0 9,-4 9,-9l0 -203c0,-5 -4,-9 -9,-9l-802 -15z"/>
   <circle class="fil3" cx="1718" cy="1334" r="176"/>
   <path class="fil2" d="M1791 1410l-145 0c-6,0 -10,-4 -10,-10l0 -88c0,-5 4,-10 10,-10l145 0c6,0 10,5 10,10l0 88c0,6 -4,10 -10,10l0 0zm-135 -97l0 77 134 0 -1 -78 -133 1z"/>
   <path class="fil2" d="M1764 1312l-91 0 0 -40c0,-29 19,-50 45,-50 27,0 46,21 46,50l0 40zm-81 -10l71 0 0 -30c0,-24 -15,-40 -36,-40 -20,0 -35,16 -35,40l0 30z"/>
   <circle class="fil2" cx="1718" cy="1354" r="10"/>
   <circle class="fil5" cx="936" cy="1094" r="62"/>
   <path class="fil5" d="M1078 1053c0,0 0,0 0,0 -6,0 -10,4 -10,10 0,6 4,10 10,10 0,0 0,0 0,0l485 0c5,0 10,-4 10,-10 0,-6 -5,-10 -10,-10l-485 0z"/>
   <path class="fil5" d="M1078 1115c-6,0 -10,4 -10,10 0,6 4,10 10,10l209 0c5,0 10,-4 10,-10 0,-6 -5,-10 -10,-10l-209 0z"/>
   <path class="fil7" d="M626 1119l-151 80 -2 -67c49,-8 96,-22 140,-46l16 -39c4,-10 13,-16 24,-16 8,0 16,3 21,9l0 0c3,5 6,11 6,17 0,7 -3,14 -9,19l-45 43z"/>
   <path class="fil6" d="M257 1583l0 0c-1,-3 -1,-6 -1,-8 0,-6 2,-12 5,-16l33 -51c11,-17 29,-27 49,-27 9,0 18,2 26,7l0 0c-14,23 -12,44 5,62 -26,13 -50,30 -72,49 -5,4 -10,5 -16,5 -14,0 -26,-9 -29,-21l0 0z"/>
   <path class="fil8" d="M633 1516l0 0c-10,17 -29,27 -48,28l-221 1 -9 -55 97 -29 -82 -63 90 -105 163 152c12,11 18,26 18,42 0,10 -3,20 -8,29l0 0z"/>
   <path class="fil8" d="M330 1895l-52 0c-46,-318 -94,-636 46,-755l164 27 -21 139 -91 105 -46 484z"/>
   <path class="fil6" d="M375 1967l0 0c-2,1 -5,1 -8,1 -5,0 -11,-1 -16,-4l-56 -8c-16,-11 -26,-29 -26,-49 0,-9 2,-18 6,-26l0 0c24,14 45,12 63,-5 13,26 34,24 54,46 3,5 5,11 5,17 0,13 -9,25 -22,28l0 0z"/>
   <path class="fil7" d="M452 927l-96 -23c16,-32 18,-68 10,-107l65 -2c2,48 8,93 21,132z"/>
   <path class="fil3" d="M478 1224c-69,48 -118,2 -156,-69 5,-43 -3,-95 -19,-151 -2,-9 -4,-19 -4,-28 0,-43 27,-81 67,-96l0 0 82 34c70,57 84,119 58,184l-28 126z"/>
   <path class="fil7" d="M278 975l-76 40 135 81 19 46c1,3 2,6 2,10 0,10 -7,20 -17,23l0 0c-2,1 -5,1 -8,1 -13,0 -24,-10 -24,-23l-2 -32 -173 -57c-12,-4 -21,-13 -25,-25l0 0c-2,-4 -3,-9 -3,-14 0,-13 7,-25 18,-33l139 -95 15 78z"/>
   <path class="fil3" d="M355 983c-32,-14 -61,1 -98,13l-6 -101c37,-19 71,-25 104,-10l0 98z"/>
   <circle class="fil7" cx="393" cy="785" r="61"/>
   <path class="fil6" d="M466 777c-61,6 -107,-4 -136,-32l0 -23 131 0 5 55z"/>
   <polygon id="a9e5a31c-10e6-4175-9779-4994367672f7" class="fil9" points="2460,1646 2456,1694 2383,1670 2413,1634 " data-name="Path 4"/>
   <polygon id="f499a4aa-6a35-40fc-8432-e4c7ab26d048" class="fil9" points="2724,1630 2721,1677 2680,1683 2656,1660 2684,1616 " data-name="Path 5"/>
   <path id="fb70bf31-eafd-4d8a-8310-5130d8d104e1" class="fil4" d="M2754 1036c0,0 32,39 -8,97 -41,59 -90,116 -90,116l-90 171c0,0 -47,169 -58,173 -10,5 -16,-14 -10,6 6,21 2,19 -3,21 -4,1 -18,-2 -13,7 5,8 9,8 -1,8 -10,0 -13,-6 -13,3 0,8 -8,27 -8,27 0,0 -59,-17 -61,-24 -3,-7 15,-11 12,-18 -4,-7 -5,-7 -5,-18 0,-10 7,-13 7,-13 0,0 6,-2 4,-7 -3,-5 -12,-2 0,-8 12,-6 60,-189 60,-189 0,0 0,-90 16,-120 15,-30 4,-242 40,-245 37,-2 221,13 221,13z" data-name="Path 6"/>
   <path id="a89455c2-275d-4b70-b13c-192fbe474176" class="fil4" d="M2742 1104l-7 185c0,0 36,179 24,234 -12,55 -4,48 -11,57 -7,10 -13,5 -7,13 6,9 10,11 0,21 -10,9 -14,32 -14,32l-61 -6c0,0 15,-28 9,-33 -6,-6 -21,3 -9,-10 12,-13 19,-7 12,-13 -7,-6 -18,-4 -9,-13 10,-10 21,-10 11,-13 -9,-4 -20,0 -15,-8 4,-7 10,-15 10,-15l-14 -109c0,0 -17,-35 -12,-51 5,-15 -20,-143 -20,-143l113 -128z" data-name="Path 7"/>
   <path id="a3024be5-ad86-493a-9bfb-258ab58160a1" class="fil6" d="M2716 1654c0,0 12,-12 15,-5 4,8 30,72 15,77 -16,5 -38,9 -50,6 -12,-4 -37,-21 -67,-21 -30,0 -55,-13 -55,-17 0,-5 -5,-34 18,-34 23,0 64,-26 64,-26 0,0 10,-19 15,-18 4,1 1,39 1,39 0,0 27,27 44,-1z" data-name="Path 8"/>
   <path id="a57c92ce-496a-44de-934b-3ddd78679762" class="fil6" d="M2451 1670c0,0 11,-27 22,-21 10,6 3,80 3,80 0,0 -9,16 -37,12 -27,-3 -100,-12 -117,-8 -16,3 -62,-17 -50,-44 0,0 6,-16 35,-15 29,2 81,-33 81,-33 0,0 8,-24 11,-21 2,2 4,44 4,44 0,0 32,20 48,6z" data-name="Path 9"/>
   <circle id="fa315d33-3eeb-4d45-ab88-aeb0e9694c5a" class="fil9" cx="2607" cy="501" r="69" data-name="Ellipse 2"/>
   <path id="fbae87ba-2986-46ef-9932-134b7e0cae24" class="fil9" d="M2661 506c0,0 37,74 50,81 13,7 -89,51 -89,51 0,0 -17,-73 -37,-88 -21,-16 76,-44 76,-44z" data-name="Path 10"/>
   <path id="fc15680c-e415-4000-ac02-b1f296562473" class="fil9" d="M2555 1110l-5 46c0,0 -51,-18 -34,-52l39 6z" data-name="Path 11"/>
   <path id="ae3770ab-4aa4-41b9-9f4d-4c69df699916" class="fil8" d="M2535 1042c35,39 225,6 225,6l-2 -27 24 -25 -8 -117c0,0 22,-55 25,-138 0,-1 0,-2 0,-3 0,-5 0,-9 -1,-13 -12,-74 -134,-123 -137,-121 -2,0 -20,9 -38,19 -22,12 -44,24 -44,24 -29,10 -24,182 -34,197 -9,16 0,70 0,70l-10 51c0,0 -36,39 0,77z" data-name="Path 12"/>
   <path id="b41fb511-fd5e-48e5-b733-0d9230f6b6d5" class="fil10" d="M2650 664c0,0 34,100 26,168 -7,68 -84,262 -84,262l-26 15 0 33 -19 -50 51 -106c0,0 -63,-366 52,-322z" data-name="Path 13"/>
   <path id="efbdbf49-3b58-4bc5-8391-5fbab31acdf7" class="fil10" d="M2619 634c35,-19 87,31 142,84 20,20 31,18 37,7 -12,-74 -134,-123 -137,-121 -2,0 -20,9 -38,19l-4 11z" data-name="Path 14"/>
   <path id="a2828270-d54b-4ede-bb2b-8639f55947f0" class="fil8" d="M2619 625l14 -40c0,0 98,-46 162,0l11 67c0,0 10,111 -45,57 -55,-53 -107,-104 -142,-84z" data-name="Path 15"/>
   <path id="f68da632-d878-40c3-a103-67cfc5c970db" class="fil8" d="M2647 648c0,0 33,100 26,168 -7,68 -85,262 -85,262l-26 15 0 33 -55 -16 12 -39c0,0 -19,-24 -6,-31 13,-7 11,-46 11,-46 0,0 7,-390 123,-346z" data-name="Path 16"/>
   <path id="f57115f6-7f5b-4177-880b-f5eff1305e5b" class="fil6" d="M2669 530c-1,-5 -1,-11 -3,-16 -4,-7 -13,-10 -21,-11 -11,-1 -21,1 -32,0 -10,0 -21,-4 -26,-14 -2,-3 -4,-7 -6,-11 -6,-6 -16,-5 -25,-2 -8,3 -16,7 -25,4 -7,-19 2,-42 17,-57 15,-14 35,-22 55,-28 27,-8 57,-12 81,1 36,18 48,68 45,106 -1,14 -3,30 -15,39 -16,14 -40,13 -45,-11z" data-name="Path 17"/>
  </g>
 </g>
</svg>
