<?xml version="1.0" encoding="UTF-8"?>
<!DOCTYPE svg PUBLIC "-//W3C//DTD SVG 1.1//EN" "http://www.w3.org/Graphics/SVG/1.1/DTD/svg11.dtd">
<!-- Creator: CorelDRAW X7 -->
<svg xmlns="http://www.w3.org/2000/svg" xml:space="preserve" width="2647px" height="1850px" version="1.1" style="shape-rendering:geometricPrecision; text-rendering:geometricPrecision; image-rendering:optimizeQuality; fill-rule:evenodd; clip-rule:evenodd"
viewBox="0 0 3003 2099"
 xmlns:xlink="http://www.w3.org/1999/xlink">
 <defs>
  <style type="text/css">
   <![CDATA[
    .str0 {stroke:#1E4158;stroke-width:1.02115}
    .fil1 {fill:#00BAFF}
    .fil8 {fill:#1E4158}
    .fil5 {fill:#2F2E41}
    .fil6 {fill:#A0616A}
    .fil7 {fill:#E69C24}
    .fil4 {fill:#E6E6E6}
    .fil0 {fill:#EAEBEC}
    .fil9 {fill:#FFB8B8}
    .fil3 {fill:white}
    .fil2 {fill:#878785}
   ]]>
  </style>
 </defs>
 <g id="Capa_x0020_1">
  <metadata id="CorelCorpID_0Corel-Layer"/>
  <polygon class="fil0" points="0,0 3003,0 3003,2099 0,2099 "/>
  <ellipse class="fil1" cx="2340" cy="1928" rx="346" ry="20"/>
  <path class="fil1" d="M2618 1912c43,-50 247,-293 102,-333 -109,-30 -121,136 -117,247 -18,-75 -52,-162 -111,-124 -86,56 75,179 117,209 0,6 1,10 1,10 0,0 2,-2 5,-6 2,2 3,3 3,3 0,0 0,-2 0,-6z"/>
  <rect class="fil2 str0" x="900" y="48" width="1983" height="1270"/>
  <rect class="fil3 str0" x="957" y="208" width="1870" height="1036"/>
  <rect class="fil4" x="2302" y="295" width="403" height="227"/>
  <rect class="fil4" x="2302" y="612" width="403" height="227"/>
  <rect class="fil4" x="2302" y="911" width="403" height="227"/>
  <rect class="fil4" x="1194" y="295" width="403" height="227"/>
  <rect class="fil4" x="1194" y="612" width="403" height="227"/>
  <rect class="fil4" x="1191" y="911" width="403" height="227"/>
  <circle class="fil5" cx="1914" cy="366" r="82"/>
  <path class="fil6" d="M2206 105l28 -22c7,-7 11,-16 11,-25 0,-9 -3,-17 -9,-23l0 0c-6,-6 -15,-10 -23,-10 -14,0 -26,9 -30,21l-13 33 -105 180 -53 145 42 52 58 -178 94 -173z"/>
  <path class="fil6" d="M1624 105l-28 -22c-7,-7 -11,-16 -11,-25 0,-9 3,-17 9,-23l0 0c6,-6 14,-10 23,-10 14,0 26,9 30,21l13 33 105 180 58 147 -48 50 -57 -178 -94 -173z"/>
  <circle class="fil5" cx="1918" cy="284" r="42"/>
  <polygon class="fil6" points="1921,1594 1884,1591 1885,1080 1978,1103 "/>
  <path class="fil5" d="M1879 1721l0 0c-15,-1 -29,-10 -34,-25 -8,-24 -3,-47 11,-68l-5 -33c0,-2 0,-3 0,-5 0,-9 3,-17 9,-24l24 -27 0 35c17,-16 28,-16 43,-4l-14 72 4 39c0,1 0,2 0,3 0,20 -17,37 -37,37 0,0 -1,0 -1,0l0 0z"/>
  <path class="fil6" d="M1981 557l-146 -3c21,-21 50,-98 45,-121l72 0c-9,24 8,103 29,124z"/>
  <path class="fil7" d="M2020 826l-203 -60 7 -87 -17 -89c2,-9 -44,-129 -42,-138 10,-35 35,-30 53,-56 3,-4 26,25 41,45 2,3 3,5 4,7 5,8 8,17 8,26 0,2 -1,4 -1,5l0 1 0 0c-8,28 11,16 41,17l0 0c25,0 48,20 48,-5l0 0c0,-1 -1,-3 -1,-4 0,-1 0,-2 0,-3 0,-12 3,-24 9,-34 1,-1 -1,2 8,-14 17,-24 41,-56 42,-52 5,19 33,35 43,69 1,5 -8,37 -7,42 4,38 -4,59 -7,89 -18,65 -27,133 -27,200 0,14 0,27 1,41l0 0z"/>
  <path class="fil5" d="M1992 1124l-115 -35 -2 -105 -91 -174 35 -58 199 53c13,87 -2,198 -26,319z"/>
  <polygon class="fil5" points="1938,984 1875,984 1758,820 1800,785 "/>
  <path class="fil5" d="M1967 982l-104 0c0,0 0,0 0,0 -25,0 -49,-7 -69,-21 -46,-31 -61,-91 -36,-141l0 0 209 11 0 151z"/>
  <path class="fil6" d="M1876 865l-92 -3c0,-1 0,-2 -1,-2 -12,-35 6,-73 40,-87 4,-2 7,-3 11,-4 0,0 0,1 0,2 0,6 -1,12 -1,19 6,-4 14,-6 21,-6 24,0 44,19 44,43 0,16 -9,30 -22,38l0 0z"/>
  <polygon class="fil6" points="1826,1145 1789,1145 1784,848 1887,846 "/>
  <path class="fil5" d="M1785 1275l0 0c-15,0 -29,-10 -34,-25 -8,-23 -4,-46 11,-68l-5 -33c0,-1 0,-3 0,-5 0,-8 3,-17 8,-23l24 -28 0 35c18,-16 29,-16 44,-4l-14 72 3 39c1,1 1,2 1,3 0,20 -17,37 -37,37 0,0 -1,0 -1,0l0 0z"/>
  <circle class="fil6" cx="1917" cy="388" r="71"/>
  <path class="fil5" d="M1979 357c0,36 -33,-16 -69,-16 -37,0 -63,52 -63,16 0,-37 30,-67 66,-67 37,0 66,30 66,67z"/>
  <rect class="fil7" x="899" y="47" width="1983.4" height="84.2618"/>
  <circle class="fil3" cx="962" cy="90" r="16"/>
  <circle class="fil3" cx="1021" cy="90" r="16"/>
  <circle class="fil3" cx="1080" cy="90" r="16"/>
  <path class="fil8" d="M1516 890l-9 0 0 -231c0,0 0,0 0,0 0,-74 -59,-133 -133,-133l-490 0c0,0 0,0 0,0 -74,0 -133,59 -133,133l0 1268c0,0 0,0 0,0 0,74 59,134 133,134l490 0c0,0 0,0 0,0 74,0 133,-60 133,-134l0 -872 9 0 0 -165z"/>
  <path class="fil3" d="M1379 560l-64 0c3,6 4,12 4,18 0,26 -21,48 -48,48l-280 0c-26,0 -48,-22 -48,-48 0,-6 2,-12 4,-18l-60 0c0,0 0,0 0,0 -55,0 -100,45 -100,100l0 1266c0,0 0,0 0,0 0,55 45,100 100,100l492 0c0,0 0,0 0,0 55,0 100,-45 100,-100l0 0 0 -1266c0,-55 -45,-100 -100,-100 0,0 0,0 0,0l0 0z"/>
  <rect class="fil4" x="850" y="809" width="566" height="968"/>
  <path class="fil9" d="M421 865c37,31 -37,126 -37,126 0,0 176,7 162,7 -14,0 -25,-145 -25,-145 0,0 -137,-19 -100,12z"/>
  <path class="fil8" d="M350 1255l159 57 87 36c0,0 57,156 85,225 27,70 -61,181 -61,181 0,0 9,33 0,48 -4,8 -8,16 -12,24 -3,6 -36,3 -72,0 -36,-3 -3,-60 -3,-60 0,0 30,-120 33,-123 3,-3 11,-24 2,-32 -4,-8 -9,-16 -15,-22 -6,-7 -95,-141 -142,-173 -47,-31 -157,6 -157,6 0,0 52,80 52,98 0,18 3,27 12,33 10,6 6,18 6,30 0,12 10,36 25,48 15,12 18,24 15,48 -3,24 -85,12 -85,12l-39 -75c0,0 -60,-96 -99,-198 -19,-52 1,-86 26,-108 15,-25 39,-44 68,-54l141 7 -101 -29 75 21z"/>
  <path class="fil9" d="M876 987l171 -78c0,0 60,-102 24,-114 -36,-12 -66,90 -66,90l-123 24 -6 78z"/>
  <path class="fil9" d="M197 1042c0,0 -87,78 -90,87 -4,9 -58,33 -82,-9 -24,-42 54,-39 54,-39l55 -70 63 31z"/>
  <path class="fil1" d="M108 995l94 69 153 -54c-29,90 -6,184 -100,239l355 120c-32,-126 18,-231 60,-359 68,-34 152,-26 244,0l0 -123 -373 21 -57 31 -69 -19c-99,-16 -223,19 -307,75z"/>
  <path class="fil5" d="M338 1652c9,6 24,63 27,84 3,21 -24,30 -39,33 -15,3 -12,12 -21,21 -9,9 -42,12 -87,3 -45,-9 21,-66 27,-69 6,-3 24,-72 24,-72 0,0 60,-6 69,0z"/>
  <path class="fil5" d="M587 1817l24 63 23 34c9,13 14,28 14,44 0,6 -1,13 -3,19 -4,14 -12,27 -28,32 -39,12 -63,-63 -63,-63 0,0 -21,-42 -36,-81 -15,-39 12,-60 12,-60l57 12z"/>
  <circle class="fil9" cx="472" cy="831" r="72"/>
  <path class="fil5" d="M554 813c2,-7 4,-15 4,-23 0,-11 -3,-23 -9,-33 -9,-16 -27,-32 -61,-33 -75,-1 -107,55 -103,72 4,16 19,55 19,55 0,0 -9,-37 9,-41 19,-4 92,-19 113,-2 10,8 16,20 16,34 0,2 0,4 0,6l12 -35z"/>
  <circle class="fil4" cx="1134" cy="1900" r="55"/>
 </g>
</svg>
